<svg width="403" height="56" viewBox="0 0 403 56" fill="none" xmlns="http://www.w3.org/2000/svg">
<path d="M14.772 0H9.84766V3.50085H14.772V0Z" fill="#4D1427"/>
<path d="M19.6939 0H14.7695V3.50085H19.6939V0Z" fill="#4D1427"/>
<path d="M24.6197 0H19.6953V3.50085H24.6197V0Z" fill="#4D1427"/>
<path d="M29.5416 0H24.6172V3.50085H29.5416V0Z" fill="#4D1427"/>
<path d="M34.4673 0H29.543V3.50085H34.4673V0Z" fill="#4D1427"/>
<path d="M39.3892 0H34.4648V3.50085H39.3892V0Z" fill="#4D1427"/>
<path d="M44.3111 0H39.3867V3.50085H44.3111V0Z" fill="#4D1427"/>
<path d="M49.233 0H44.3086V3.50085H49.233V0Z" fill="#4D1427"/>
<path d="M54.1588 0H49.2344V3.50085H54.1588V0Z" fill="#4D1427"/>
<path d="M59.0806 0H54.1562V3.50085H59.0806V0Z" fill="#4D1427"/>
<path d="M388.228 0H59.0781V4H388.228V0Z" fill="#4D1427"/>
<path d="M9.85016 3.49915H4.92578V7H9.85016V3.49915Z" fill="#4D1427"/>
<path d="M14.772 3.49915H9.84766V7H14.772V3.49915Z" fill="#8A2E24"/>
<path d="M19.6939 3.49915H14.7695V7H19.6939V3.49915Z" fill="#8A2E24"/>
<path d="M24.6197 3.49915H19.6953V7H24.6197V3.49915Z" fill="#8A2E24"/>
<path d="M29.5416 3.49915H24.6172V7H29.5416V3.49915Z" fill="#8A2E24"/>
<path d="M34.4673 3.49915H29.543V7H34.4673V3.49915Z" fill="#8A2E24"/>
<path d="M39.3892 3.49915H34.4648V7H39.3892V3.49915Z" fill="#8A2E24"/>
<path d="M44.3111 3.49915H39.3867V7H44.3111V3.49915Z" fill="#8A2E24"/>
<path d="M49.233 3.49915H44.3086V7H49.233V3.49915Z" fill="#8A2E24"/>
<path d="M54.1588 3.49915H49.2344V7H54.1588V3.49915Z" fill="#8A2E24"/>
<path d="M59.0806 3.49915H54.1562V7H59.0806V3.49915Z" fill="#8A2E24"/>
<path d="M388.228 3H59.0781V7H388.228V3Z" fill="#8A2E24"/>
<path d="M4.92438 7H0V10.5009H4.92438V7Z" fill="#4D1427"/>
<path d="M9.85016 7H4.92578V10.5009H9.85016V7Z" fill="#8A2E24"/>
<path d="M14.772 7H9.84766V10.5009H14.772V7Z" fill="#8A2E24"/>
<path d="M19.6939 7H14.7695V10.5009H19.6939V7Z" fill="#E8E2CF"/>
<path d="M24.6197 7H19.6953V10.5009H24.6197V7Z" fill="#E8E2CF"/>
<path d="M29.5416 7H24.6172V10.5009H29.5416V7Z" fill="#E8E2CF"/>
<path d="M34.4673 7H29.543V10.5009H34.4673V7Z" fill="#F1CC64"/>
<path d="M39.3892 7H34.4648V10.5009H39.3892V7Z" fill="#F1CC64"/>
<path d="M44.3111 7H39.3867V10.5009H44.3111V7Z" fill="#E8E2CF"/>
<path d="M49.233 7H44.3086V10.5009H49.233V7Z" fill="#F1CC64"/>
<path d="M54.1588 7H49.2344V10.5009H54.1588V7Z" fill="#F1CC64"/>
<path d="M59.0806 7H54.1562V10.5009H59.0806V7Z" fill="#F1CC64"/>
<path d="M388.228 7H59.0781V11H388.228V7Z" fill="#F1CC64"/>
<path d="M4.92438 10.4991H0V14H4.92438V10.4991Z" fill="#4D1427"/>
<path d="M9.85016 10.4991H4.92578V14H9.85016V10.4991Z" fill="#8A2E24"/>
<path d="M14.772 10.4991H9.84766V14H14.772V10.4991Z" fill="#E8E2CF"/>
<path d="M19.6939 10.4991H14.7695V14H19.6939V10.4991Z" fill="#C46823"/>
<path d="M24.6197 10.4991H19.6953V14H24.6197V10.4991Z" fill="#C46823"/>
<path d="M29.5416 10.4991H24.6172V14H29.5416V10.4991Z" fill="#C46823"/>
<path d="M34.4673 10.4991H29.543V14H34.4673V10.4991Z" fill="#C46823"/>
<path d="M39.3892 10.4991H34.4648V14H39.3892V10.4991Z" fill="#C46823"/>
<path d="M44.3111 10.4991H39.3867V14H44.3111V10.4991Z" fill="#C46823"/>
<path d="M49.233 10.4991H44.3086V14H49.233V10.4991Z" fill="#C46823"/>
<path d="M54.1588 10.4991H49.2344V14H54.1588V10.4991Z" fill="#C46823"/>
<path d="M59.0806 10.4991H54.1562V14H59.0806V10.4991Z" fill="#C46823"/>
<path d="M388.228 10H59.0781V14H388.228V10Z" fill="#C46823"/>
<path d="M4.92438 14H0V17.5009H4.92438V14Z" fill="#4D1427"/>
<path d="M9.85016 14H4.92578V17.5009H9.85016V14Z" fill="#8A2E24"/>
<path d="M14.772 14H9.84766V17.5009H14.772V14Z" fill="#F1CC64"/>
<path d="M19.6939 14H14.7695V17.5009H19.6939V14Z" fill="#C46823"/>
<path d="M24.6197 14H19.6953V17.5009H24.6197V14Z" fill="#C46823"/>
<path d="M29.5416 14H24.6172V17.5009H29.5416V14Z" fill="#C46823"/>
<path d="M34.4673 14H29.543V17.5009H34.4673V14Z" fill="#C46823"/>
<path d="M39.3892 14H34.4648V17.5009H39.3892V14Z" fill="#C46823"/>
<path d="M44.3111 14H39.3867V17.5009H44.3111V14Z" fill="#C46823"/>
<path d="M49.233 14H44.3086V17.5009H49.233V14Z" fill="#C46823"/>
<path d="M54.1588 14H49.2344V17.5009H54.1588V14Z" fill="#C46823"/>
<path d="M59.0806 14H54.1562V17.5009H59.0806V14Z" fill="#C46823"/>
<path d="M388.228 14H59.0781V18H388.228V14Z" fill="#C46823"/>
<path d="M4.92438 17.4991H0V21H4.92438V17.4991Z" fill="#4D1427"/>
<path d="M9.85016 17.4991H4.92578V21H9.85016V17.4991Z" fill="#8A2E24"/>
<path d="M14.772 17.4991H9.84766V21H14.772V17.4991Z" fill="#F1CC64"/>
<path d="M19.6939 17.4991H14.7695V21H19.6939V17.4991Z" fill="#C46823"/>
<path d="M24.6197 17.4991H19.6953V21H24.6197V17.4991Z" fill="#C46823"/>
<path d="M29.5416 17.4991H24.6172V21H29.5416V17.4991Z" fill="#C46823"/>
<path d="M34.4673 17.4991H29.543V21H34.4673V17.4991Z" fill="#C46823"/>
<path d="M39.3892 17.4991H34.4648V21H39.3892V17.4991Z" fill="#C46823"/>
<path d="M44.3111 17.4991H39.3867V21H44.3111V17.4991Z" fill="#C46823"/>
<path d="M49.233 17.4991H44.3086V21H49.233V17.4991Z" fill="#C46823"/>
<path d="M54.1588 17.4991H49.2344V21H54.1588V17.4991Z" fill="#C46823"/>
<path d="M59.0806 17.4991H54.1562V21H59.0806V17.4991Z" fill="#C46823"/>
<path d="M388.228 17H59.0781V21H388.228V17Z" fill="#C46823"/>
<path d="M4.92438 21H0V24.5009H4.92438V21Z" fill="#4D1427"/>
<path d="M9.85016 21H4.92578V24.5009H9.85016V21Z" fill="#8A2E24"/>
<path d="M14.772 21H9.84766V24.5009H14.772V21Z" fill="#C46823"/>
<path d="M19.6939 21H14.7695V24.5009H19.6939V21Z" fill="#C46823"/>
<path d="M24.6197 21H19.6953V24.5009H24.6197V21Z" fill="#C46823"/>
<path d="M29.5416 21H24.6172V24.5009H29.5416V21Z" fill="#C46823"/>
<path d="M34.4673 21H29.543V24.5009H34.4673V21Z" fill="#C46823"/>
<path d="M39.3892 21H34.4648V24.5009H39.3892V21Z" fill="#C46823"/>
<path d="M44.3111 21H39.3867V24.5009H44.3111V21Z" fill="#C46823"/>
<path d="M49.233 21H44.3086V24.5009H49.233V21Z" fill="#C46823"/>
<path d="M54.1588 21H49.2344V24.5009H54.1588V21Z" fill="#C46823"/>
<path d="M59.0806 21H54.1562V24.5009H59.0806V21Z" fill="#C46823"/>
<path d="M388.228 21H59.0781V25H388.228V21Z" fill="#C46823"/>
<path d="M4.92438 24.4991H0V28H4.92438V24.4991Z" fill="#4D1427"/>
<path d="M9.85016 24.4991H4.92578V28H9.85016V24.4991Z" fill="#8A2E24"/>
<path d="M14.772 24.4991H9.84766V28H14.772V24.4991Z" fill="#C46823"/>
<path d="M19.6939 24.4991H14.7695V28H19.6939V24.4991Z" fill="#C46823"/>
<path d="M24.6197 24.4991H19.6953V28H24.6197V24.4991Z" fill="#C46823"/>
<path d="M29.5416 24.4991H24.6172V28H29.5416V24.4991Z" fill="#C46823"/>
<path d="M34.4673 24.4991H29.543V28H34.4673V24.4991Z" fill="#C46823"/>
<path d="M39.3892 24.4991H34.4648V28H39.3892V24.4991Z" fill="#C46823"/>
<path d="M44.3111 24.4991H39.3867V28H44.3111V24.4991Z" fill="#C46823"/>
<path d="M49.233 24.4991H44.3086V28H49.233V24.4991Z" fill="#C46823"/>
<path d="M54.1588 24.4991H49.2344V28H54.1588V24.4991Z" fill="#C46823"/>
<path d="M59.0806 24.4991H54.1562V28H59.0806V24.4991Z" fill="#C46823"/>
<path d="M388.228 24H59.0781V28H388.228V24Z" fill="#C46823"/>
<path d="M4.92438 28H0V31.5009H4.92438V28Z" fill="#4D1427"/>
<path d="M9.85016 28H4.92578V31.5009H9.85016V28Z" fill="#8A2E24"/>
<path d="M14.772 28H9.84766V31.5009H14.772V28Z" fill="#C46823"/>
<path d="M19.6939 28H14.7695V31.5009H19.6939V28Z" fill="#C46823"/>
<path d="M24.6197 28H19.6953V31.5009H24.6197V28Z" fill="#C46823"/>
<path d="M29.5416 28H24.6172V31.5009H29.5416V28Z" fill="#C46823"/>
<path d="M34.4673 28H29.543V31.5009H34.4673V28Z" fill="#C46823"/>
<path d="M39.3892 28H34.4648V31.5009H39.3892V28Z" fill="#C46823"/>
<path d="M44.3111 28H39.3867V31.5009H44.3111V28Z" fill="#C46823"/>
<path d="M49.233 28H44.3086V31.5009H49.233V28Z" fill="#C46823"/>
<path d="M54.1588 28H49.2344V31.5009H54.1588V28Z" fill="#C46823"/>
<path d="M59.0806 28H54.1562V31.5009H59.0806V28Z" fill="#C46823"/>
<path d="M388.228 28H59.0781V32H388.228V28Z" fill="#C46823"/>
<path d="M4.92438 31.4991H0V35H4.92438V31.4991Z" fill="#4D1427"/>
<path d="M9.85016 31.4991H4.92578V35H9.85016V31.4991Z" fill="#8A2E24"/>
<path d="M14.772 31.4991H9.84766V35H14.772V31.4991Z" fill="#C46823"/>
<path d="M19.6939 31.4991H14.7695V35H19.6939V31.4991Z" fill="#C46823"/>
<path d="M24.6197 31.4991H19.6953V35H24.6197V31.4991Z" fill="#C46823"/>
<path d="M29.5416 31.4991H24.6172V35H29.5416V31.4991Z" fill="#C46823"/>
<path d="M34.4673 31.4991H29.543V35H34.4673V31.4991Z" fill="#C46823"/>
<path d="M39.3892 31.4991H34.4648V35H39.3892V31.4991Z" fill="#C46823"/>
<path d="M44.3111 31.4991H39.3867V35H44.3111V31.4991Z" fill="#C46823"/>
<path d="M49.233 31.4991H44.3086V35H49.233V31.4991Z" fill="#C46823"/>
<path d="M54.1588 31.4991H49.2344V35H54.1588V31.4991Z" fill="#C46823"/>
<path d="M59.0806 31.4991H54.1562V35H59.0806V31.4991Z" fill="#C46823"/>
<path d="M388.228 31H59.0781V35H388.228V31Z" fill="#C46823"/>
<path d="M4.92438 35H0V38.5009H4.92438V35Z" fill="#4D1427"/>
<path d="M9.85016 35H4.92578V38.5009H9.85016V35Z" fill="#8A2E24"/>
<path d="M14.772 35H9.84766V38.5009H14.772V35Z" fill="#C46823"/>
<path d="M19.6939 35H14.7695V38.5009H19.6939V35Z" fill="#C46823"/>
<path d="M24.6197 35H19.6953V38.5009H24.6197V35Z" fill="#C46823"/>
<path d="M29.5416 35H24.6172V38.5009H29.5416V35Z" fill="#C46823"/>
<path d="M34.4673 35H29.543V38.5009H34.4673V35Z" fill="#C46823"/>
<path d="M39.3892 35H34.4648V38.5009H39.3892V35Z" fill="#C46823"/>
<path d="M44.3111 35H39.3867V38.5009H44.3111V35Z" fill="#C46823"/>
<path d="M49.233 35H44.3086V38.5009H49.233V35Z" fill="#C46823"/>
<path d="M54.1588 35H49.2344V38.5009H54.1588V35Z" fill="#C46823"/>
<path d="M59.0806 35H54.1562V38.5009H59.0806V35Z" fill="#C46823"/>
<path d="M388.228 35H59.0781V39H388.228V35Z" fill="#C46823"/>
<path d="M4.92438 38.4991H0V42H4.92438V38.4991Z" fill="#4D1427"/>
<path d="M9.85016 38.4991H4.92578V42H9.85016V38.4991Z" fill="#8A2E24"/>
<path d="M14.772 38.4991H9.84766V42H14.772V38.4991Z" fill="#C46823"/>
<path d="M19.6939 38.4991H14.7695V42H19.6939V38.4991Z" fill="#C46823"/>
<path d="M24.6197 38.4991H19.6953V42H24.6197V38.4991Z" fill="#C46823"/>
<path d="M29.5416 38.4991H24.6172V42H29.5416V38.4991Z" fill="#C46823"/>
<path d="M34.4673 38.4991H29.543V42H34.4673V38.4991Z" fill="#C46823"/>
<path d="M39.3892 38.4991H34.4648V42H39.3892V38.4991Z" fill="#C46823"/>
<path d="M44.3111 38.4991H39.3867V42H44.3111V38.4991Z" fill="#C46823"/>
<path d="M49.233 38.4991H44.3086V42H49.233V38.4991Z" fill="#C46823"/>
<path d="M54.1588 38.4991H49.2344V42H54.1588V38.4991Z" fill="#C46823"/>
<path d="M59.0806 38.4991H54.1562V42H59.0806V38.4991Z" fill="#C46823"/>
<path d="M388.228 38H59.0781V42H388.228V38Z" fill="#C46823"/>
<path d="M4.92438 42H0V45.5009H4.92438V42Z" fill="#4D1427"/>
<path d="M9.85016 42H4.92578V45.5009H9.85016V42Z" fill="#8A2E24"/>
<path d="M14.772 42H9.84766V45.5009H14.772V42Z" fill="#C46823"/>
<path d="M19.6939 42H14.7695V45.5009H19.6939V42Z" fill="#C46823"/>
<path d="M24.6197 42H19.6953V45.5009H24.6197V42Z" fill="#C46823"/>
<path d="M29.5416 42H24.6172V45.5009H29.5416V42Z" fill="#C46823"/>
<path d="M34.4673 42H29.543V45.5009H34.4673V42Z" fill="#C46823"/>
<path d="M39.3892 42H34.4648V45.5009H39.3892V42Z" fill="#C46823"/>
<path d="M44.3111 42H39.3867V45.5009H44.3111V42Z" fill="#C46823"/>
<path d="M49.233 42H44.3086V45.5009H49.233V42Z" fill="#C46823"/>
<path d="M54.1588 42H49.2344V45.5009H54.1588V42Z" fill="#C46823"/>
<path d="M59.0806 42H54.1562V45.5009H59.0806V42Z" fill="#C46823"/>
<path d="M388.228 42H59.0781V46H388.228V42Z" fill="#C46823"/>
<path d="M4.92438 45.4991H0V49H4.92438V45.4991Z" fill="#4D1427"/>
<path d="M9.85016 45.4991H4.92578V49H9.85016V45.4991Z" fill="#8A2E24"/>
<path d="M14.772 45.4991H9.84766V49H14.772V45.4991Z" fill="#8A2E24"/>
<path d="M19.6939 45.4991H14.7695V49H19.6939V45.4991Z" fill="#C46823"/>
<path d="M24.6197 45.4991H19.6953V49H24.6197V45.4991Z" fill="#C46823"/>
<path d="M29.5416 45.4991H24.6172V49H29.5416V45.4991Z" fill="#C46823"/>
<path d="M34.4673 45.4991H29.543V49H34.4673V45.4991Z" fill="#C46823"/>
<path d="M39.3892 45.4991H34.4648V49H39.3892V45.4991Z" fill="#C46823"/>
<path d="M44.3111 45.4991H39.3867V49H44.3111V45.4991Z" fill="#C46823"/>
<path d="M49.233 45.4991H44.3086V49H49.233V45.4991Z" fill="#C46823"/>
<path d="M54.1588 45.4991H49.2344V49H54.1588V45.4991Z" fill="#C46823"/>
<path d="M59.0806 45.4991H54.1562V49H59.0806V45.4991Z" fill="#C46823"/>
<path d="M388.228 45H59.0781V49H388.228V45Z" fill="#C46823"/>
<path d="M9.85016 49H4.92578V52.5009H9.85016V49Z" fill="#4D1427"/>
<path d="M14.772 49H9.84766V52.5009H14.772V49Z" fill="#8A2E24"/>
<path d="M19.6939 49H14.7695V52.5009H19.6939V49Z" fill="#8A2E24"/>
<path d="M24.6197 49H19.6953V52.5009H24.6197V49Z" fill="#8A2E24"/>
<path d="M29.5416 49H24.6172V52.5009H29.5416V49Z" fill="#8A2E24"/>
<path d="M34.4673 49H29.543V52.5009H34.4673V49Z" fill="#8A2E24"/>
<path d="M39.3892 49H34.4648V52.5009H39.3892V49Z" fill="#8A2E24"/>
<path d="M44.3111 49H39.3867V52.5009H44.3111V49Z" fill="#8A2E24"/>
<path d="M49.233 49H44.3086V52.5009H49.233V49Z" fill="#8A2E24"/>
<path d="M54.1588 49H49.2344V52.5009H54.1588V49Z" fill="#8A2E24"/>
<path d="M59.0806 49H54.1562V52.5009H59.0806V49Z" fill="#8A2E24"/>
<path d="M388.228 49H59.0781V53H388.228V49Z" fill="#8A2E24"/>
<path d="M14.772 52.4991H9.84766V56H14.772V52.4991Z" fill="#4D1427"/>
<path d="M19.6939 52.4991H14.7695V56H19.6939V52.4991Z" fill="#4D1427"/>
<path d="M24.6197 52.4991H19.6953V56H24.6197V52.4991Z" fill="#4D1427"/>
<path d="M29.5416 52.4991H24.6172V56H29.5416V52.4991Z" fill="#4D1427"/>
<path d="M34.4673 52.4991H29.543V56H34.4673V52.4991Z" fill="#4D1427"/>
<path d="M39.3892 52.4991H34.4648V56H39.3892V52.4991Z" fill="#4D1427"/>
<path d="M44.3111 52.4991H39.3867V56H44.3111V52.4991Z" fill="#4D1427"/>
<path d="M49.233 52.4991H44.3086V56H49.233V52.4991Z" fill="#4D1427"/>
<path d="M54.1588 52.4991H49.2344V56H54.1588V52.4991Z" fill="#4D1427"/>
<path d="M59.0806 52.4991H54.1562V56H59.0806V52.4991Z" fill="#4D1427"/>
<path d="M388.228 52H59.0781V56H388.228V52Z" fill="#4D1427"/>
<path d="M393.151 0H388.227V3.50085H393.151V0Z" fill="#4D1427"/>
<path d="M393.151 3.49915H388.227V7H393.151V3.49915Z" fill="#8A2E24"/>
<path d="M398.077 3.49915H393.152V7H398.077V3.49915Z" fill="#4D1427"/>
<path d="M393.151 7H388.227V10.5009H393.151V7Z" fill="#8A2E24"/>
<path d="M398.077 7H393.152V10.5009H398.077V7Z" fill="#8A2E24"/>
<path d="M402.999 7H398.074V10.5009H402.999V7Z" fill="#4D1427"/>
<path d="M393.151 10.4991H388.227V14H393.151V10.4991Z" fill="#F1CC64"/>
<path d="M398.077 10.4991H393.152V14H398.077V10.4991Z" fill="#8A2E24"/>
<path d="M402.999 10.4991H398.074V14H402.999V10.4991Z" fill="#4D1427"/>
<path d="M393.151 14H388.227V17.5009H393.151V14Z" fill="#C46823"/>
<path d="M398.077 14H393.152V17.5009H398.077V14Z" fill="#8A2E24"/>
<path d="M402.999 14H398.074V17.5009H402.999V14Z" fill="#4D1427"/>
<path d="M393.151 17.4991H388.227V21H393.151V17.4991Z" fill="#C46823"/>
<path d="M398.077 17.4991H393.152V21H398.077V17.4991Z" fill="#8A2E24"/>
<path d="M402.999 17.4991H398.074V21H402.999V17.4991Z" fill="#4D1427"/>
<path d="M393.151 21H388.227V24.5009H393.151V21Z" fill="#C46823"/>
<path d="M398.077 21H393.152V24.5009H398.077V21Z" fill="#8A2E24"/>
<path d="M402.999 21H398.074V24.5009H402.999V21Z" fill="#4D1427"/>
<path d="M393.151 24.4991H388.227V28H393.151V24.4991Z" fill="#C46823"/>
<path d="M398.077 24.4991H393.152V28H398.077V24.4991Z" fill="#8A2E24"/>
<path d="M402.999 24.4991H398.074V28H402.999V24.4991Z" fill="#4D1427"/>
<path d="M393.151 28H388.227V31.5009H393.151V28Z" fill="#C46823"/>
<path d="M398.077 28H393.152V31.5009H398.077V28Z" fill="#8A2E24"/>
<path d="M402.999 28H398.074V31.5009H402.999V28Z" fill="#4D1427"/>
<path d="M393.151 31.4991H388.227V35H393.151V31.4991Z" fill="#C46823"/>
<path d="M398.077 31.4991H393.152V35H398.077V31.4991Z" fill="#8A2E24"/>
<path d="M402.999 31.4991H398.074V35H402.999V31.4991Z" fill="#4D1427"/>
<path d="M393.151 35H388.227V38.5009H393.151V35Z" fill="#C46823"/>
<path d="M398.077 35H393.152V38.5009H398.077V35Z" fill="#8A2E24"/>
<path d="M402.999 35H398.074V38.5009H402.999V35Z" fill="#4D1427"/>
<path d="M393.151 38.4991H388.227V42H393.151V38.4991Z" fill="#C46823"/>
<path d="M398.077 38.4991H393.152V42H398.077V38.4991Z" fill="#8A2E24"/>
<path d="M402.999 38.4991H398.074V42H402.999V38.4991Z" fill="#4D1427"/>
<path d="M393.151 42H388.227V45.5009H393.151V42Z" fill="#C46823"/>
<path d="M398.077 42H393.152V45.5009H398.077V42Z" fill="#8A2E24"/>
<path d="M402.999 42H398.074V45.5009H402.999V42Z" fill="#4D1427"/>
<path d="M393.151 45.4991H388.227V49H393.151V45.4991Z" fill="#8A2E24"/>
<path d="M398.077 45.4991H393.152V49H398.077V45.4991Z" fill="#8A2E24"/>
<path d="M402.999 45.4991H398.074V49H402.999V45.4991Z" fill="#4D1427"/>
<path d="M393.151 49H388.227V52.5009H393.151V49Z" fill="#8A2E24"/>
<path d="M398.077 49H393.152V52.5009H398.077V49Z" fill="#4D1427"/>
<path d="M393.151 52.4991H388.227V56H393.151V52.4991Z" fill="#4D1427"/>
</svg>
