<svg width="100" height="101" viewBox="0 0 100 101" fill="none" xmlns="http://www.w3.org/2000/svg">
<path d="M2.94102 23.6755H0V26.6166H2.94102V23.6755Z" fill="#BF4762"/>
<path d="M2.94102 20.7339H0V23.675H2.94102V20.7339Z" fill="#BF4762"/>
<path d="M2.94102 17.7933H0V20.7344H2.94102V17.7933Z" fill="#D56B69"/>
<path d="M5.88243 26.6168H2.94141V29.5578H5.88243V26.6168Z" fill="#BF4762"/>
<path d="M5.88243 23.6754H2.94141V26.6164H5.88243V23.6754Z" fill="#BF4762"/>
<path d="M5.88243 20.7339H2.94141V23.675H5.88243V20.7339Z" fill="#FFB77A"/>
<path d="M5.88243 17.7935H2.94141V20.7345H5.88243V17.7935Z" fill="#FFB77A"/>
<path d="M5.88243 14.8511H2.94141V17.7922H5.88243V14.8511Z" fill="#FFB77A"/>
<path d="M5.88243 11.9107H2.94141V14.8525H5.88243V11.9107Z" fill="#D56B69"/>
<path d="M8.82384 29.5572H5.88281V32.4982H8.82384V29.5572Z" fill="#BF4762"/>
<path d="M8.82384 26.6168H5.88281V29.5578H8.82384V26.6168Z" fill="#BF4762"/>
<path d="M8.82384 23.6754H5.88281V26.6164H8.82384V23.6754Z" fill="#FFB77A"/>
<path d="M8.82384 20.7339H5.88281V23.675H8.82384V20.7339Z" fill="#FFB77A"/>
<path d="M8.82384 17.7935H5.88281V20.7345H8.82384V17.7935Z" fill="#FFB77A"/>
<path d="M8.82384 14.8511H5.88281V17.7922H8.82384V14.8511Z" fill="#FFB77A"/>
<path d="M8.82384 11.9107H5.88281V14.8525H8.82384V11.9107Z" fill="#FFB77A"/>
<path d="M8.82384 8.9693H5.88281V11.9103H8.82384V8.9693Z" fill="#D56B69"/>
<path d="M11.7652 38.3814H8.82422V41.3224H11.7652V38.3814Z" fill="#502E59"/>
<path d="M11.7652 35.441H8.82422V38.382H11.7652V35.441Z" fill="#AC8098"/>
<path d="M11.7633 32.4988H8.82227V35.4398H11.7633V32.4988Z" fill="#BF4762"/>
<path d="M11.7652 29.5572H8.82422V32.4982H11.7652V29.5572Z" fill="#BF4762"/>
<path d="M11.7633 26.6166H8.82227V29.5576H11.7633V26.6166Z" fill="#BF4762"/>
<path d="M11.7633 23.6755H8.82227V26.6166H11.7633V23.6755Z" fill="#FFB77A"/>
<path d="M11.7652 20.7339H8.82422V23.675H11.7652V20.7339Z" fill="#FFB77A"/>
<path d="M11.7633 17.7933H8.82227V20.7344H11.7633V17.7933Z" fill="#FFB77A"/>
<path d="M11.7652 14.8511H8.82422V17.7922H11.7652V14.8511Z" fill="#FFB77A"/>
<path d="M11.7652 11.9107H8.82422V14.8525H11.7652V11.9107Z" fill="#FFB77A"/>
<path d="M11.7633 8.9693H8.82227V11.9103H11.7633V8.9693Z" fill="#FFB77A"/>
<path d="M11.7652 6.02789H8.82422V8.96892H11.7652V6.02789Z" fill="#D56B69"/>
<path d="M14.7066 41.3228H11.7656V44.2638H14.7066V41.3228Z" fill="#502E59"/>
<path d="M14.7066 38.3814H11.7656V41.3224H14.7066V38.3814Z" fill="#AC8098"/>
<path d="M14.7066 35.441H11.7656V38.382H14.7066V35.441Z" fill="#AC8098"/>
<path d="M14.7066 32.4986H11.7656V35.4396H14.7066V32.4986Z" fill="#BF4762"/>
<path d="M14.7066 29.5572H11.7656V32.4982H14.7066V29.5572Z" fill="#BF4762"/>
<path d="M14.7066 26.6168H11.7656V29.5578H14.7066V26.6168Z" fill="#BF4762"/>
<path d="M14.7066 23.6754H11.7656V26.6164H14.7066V23.6754Z" fill="#FFB77A"/>
<path d="M14.7066 20.7339H11.7656V23.675H14.7066V20.7339Z" fill="#FFB77A"/>
<path d="M14.7066 17.7935H11.7656V20.7345H14.7066V17.7935Z" fill="#FFB77A"/>
<path d="M14.7066 14.8511H11.7656V17.7922H14.7066V14.8511Z" fill="#FFB77A"/>
<path d="M14.7066 11.9107H11.7656V14.8525H14.7066V11.9107Z" fill="#FFB77A"/>
<path d="M14.7066 8.9693H11.7656V11.9103H14.7066V8.9693Z" fill="#FFB77A"/>
<path d="M14.7066 6.02789H11.7656V8.96892H14.7066V6.02789Z" fill="#FFB77A"/>
<path d="M14.7066 3.08746H11.7656V6.02849H14.7066V3.08746Z" fill="#D56B69"/>
<path d="M17.6461 44.2642H14.7051V47.2052H17.6461V44.2642Z" fill="#502E59"/>
<path d="M17.6461 41.3228H14.7051V44.2638H17.6461V41.3228Z" fill="#AC8098"/>
<path d="M17.6461 38.3814H14.7051V41.3224H17.6461V38.3814Z" fill="#E1BBC9"/>
<path d="M17.6461 35.441H14.7051V38.382H17.6461V35.441Z" fill="#E1BBC9"/>
<path d="M17.6461 32.4986H14.7051V35.4396H17.6461V32.4986Z" fill="#BF4762"/>
<path d="M17.6461 29.5572H14.7051V32.4982H17.6461V29.5572Z" fill="#BF4762"/>
<path d="M17.6461 26.6168H14.7051V29.5578H17.6461V26.6168Z" fill="#D56B69"/>
<path d="M17.6461 23.6754H14.7051V26.6164H17.6461V23.6754Z" fill="#D56B69"/>
<path d="M17.6461 20.7339H14.7051V23.675H17.6461V20.7339Z" fill="#FFB77A"/>
<path d="M17.6461 17.7935H14.7051V20.7345H17.6461V17.7935Z" fill="#FFB77A"/>
<path d="M17.6461 14.8511H14.7051V17.7922H17.6461V14.8511Z" fill="#FFB77A"/>
<path d="M17.6461 11.9107H14.7051V14.8525H17.6461V11.9107Z" fill="#FFB77A"/>
<path d="M17.6461 8.9693H14.7051V11.9103H17.6461V8.9693Z" fill="#FFB77A"/>
<path d="M17.6461 6.02789H14.7051V8.96892H17.6461V6.02789Z" fill="#FFB77A"/>
<path d="M17.6461 3.08746H14.7051V6.02849H17.6461V3.08746Z" fill="#FFB77A"/>
<path d="M20.5882 64.8522H17.6465V67.7933H20.5882V64.8522Z" fill="#502E59"/>
<path d="M20.5882 61.9107H17.6465V64.8517H20.5882V61.9107Z" fill="#502E59"/>
<path d="M20.5882 58.9693H17.6465V61.9103H20.5882V58.9693Z" fill="#502E59"/>
<path d="M20.5882 56.0279H17.6465V58.9689H20.5882V56.0279Z" fill="#502E59"/>
<path d="M20.5882 53.0875H17.6465V56.0285H20.5882V53.0875Z" fill="#502E59"/>
<path d="M20.5882 50.1461H17.6465V53.0878H20.5882V50.1461Z" fill="#502E59"/>
<path d="M20.5882 47.2047H17.6465V50.1457H20.5882V47.2047Z" fill="#502E59"/>
<path d="M20.5882 44.2642H17.6465V47.2052H20.5882V44.2642Z" fill="#AC8098"/>
<path d="M20.5882 41.3228H17.6465V44.2638H20.5882V41.3228Z" fill="#E1BBC9"/>
<path d="M20.5882 38.3814H17.6465V41.3224H20.5882V38.3814Z" fill="#E1BBC9"/>
<path d="M20.5882 35.441H17.6465V38.382H20.5882V35.441Z" fill="#FFF6F6"/>
<path d="M20.5882 32.4988H17.6465V35.4398H20.5882V32.4988Z" fill="#BF4762"/>
<path d="M20.5882 29.5572H17.6465V32.4982H20.5882V29.5572Z" fill="#D56B69"/>
<path d="M20.5882 26.6166H17.6465V29.5576H20.5882V26.6166Z" fill="#D56B69"/>
<path d="M20.5882 23.6755H17.6465V26.6166H20.5882V23.6755Z" fill="#D56B69"/>
<path d="M20.5882 20.7339H17.6465V23.675H20.5882V20.7339Z" fill="#FFB77A"/>
<path d="M20.5882 17.7933H17.6465V20.7344H20.5882V17.7933Z" fill="#FFB77A"/>
<path d="M20.5882 14.8511H17.6465V17.7922H20.5882V14.8511Z" fill="#FFB77A"/>
<path d="M20.5882 11.9107H17.6465V14.8525H20.5882V11.9107Z" fill="#FFB77A"/>
<path d="M20.5882 8.9693H17.6465V11.9103H20.5882V8.9693Z" fill="#FFB77A"/>
<path d="M20.5882 6.02789H17.6465V8.96892H20.5882V6.02789Z" fill="#FFB77A"/>
<path d="M20.5882 3.08746H17.6465V6.02849H20.5882V3.08746Z" fill="#FFB77A"/>
<path d="M20.5882 0.146057H17.6465V3.08708H20.5882V0.146057Z" fill="#D56B69"/>
<path d="M23.5289 73.6754H20.5879V76.6164H23.5289V73.6754Z" fill="#502E59"/>
<path d="M23.5289 70.7339H20.5879V73.675H23.5289V70.7339Z" fill="#502E59"/>
<path d="M23.5289 67.7935H20.5879V70.7345H23.5289V67.7935Z" fill="#77577A"/>
<path d="M23.5289 64.8521H20.5879V67.7931H23.5289V64.8521Z" fill="#77577A"/>
<path d="M23.5289 61.9107H20.5879V64.8517H23.5289V61.9107Z" fill="#77577A"/>
<path d="M23.5289 58.9693H20.5879V61.9103H23.5289V58.9693Z" fill="#77577A"/>
<path d="M23.5289 56.0279H20.5879V58.9689H23.5289V56.0279Z" fill="#77577A"/>
<path d="M23.5289 53.0875H20.5879V56.0285H23.5289V53.0875Z" fill="#77577A"/>
<path d="M23.5289 50.1461H20.5879V53.0878H23.5289V50.1461Z" fill="#77577A"/>
<path d="M23.5289 47.2047H20.5879V50.1457H23.5289V47.2047Z" fill="#AC8098"/>
<path d="M23.5289 44.2642H20.5879V47.2052H23.5289V44.2642Z" fill="#E1BBC9"/>
<path d="M23.5289 41.3228H20.5879V44.2638H23.5289V41.3228Z" fill="#E1BBC9"/>
<path d="M23.5289 38.3814H20.5879V41.3224H23.5289V38.3814Z" fill="#E1BBC9"/>
<path d="M23.5289 35.441H20.5879V38.382H23.5289V35.441Z" fill="#FFF6F6"/>
<path d="M23.5289 32.4986H20.5879V35.4396H23.5289V32.4986Z" fill="#BF4762"/>
<path d="M23.5289 29.5572H20.5879V32.4982H23.5289V29.5572Z" fill="#D56B69"/>
<path d="M23.5289 26.6168H20.5879V29.5578H23.5289V26.6168Z" fill="#D56B69"/>
<path d="M23.5289 23.6754H20.5879V26.6164H23.5289V23.6754Z" fill="#D56B69"/>
<path d="M23.5289 20.7339H20.5879V23.675H23.5289V20.7339Z" fill="#D56B69"/>
<path d="M23.5289 17.7935H20.5879V20.7345H23.5289V17.7935Z" fill="#FFB77A"/>
<path d="M23.5289 14.8511H20.5879V17.7922H23.5289V14.8511Z" fill="#FFB77A"/>
<path d="M23.5289 11.9107H20.5879V14.8525H23.5289V11.9107Z" fill="#FFB77A"/>
<path d="M23.5289 8.9693H20.5879V11.9103H23.5289V8.9693Z" fill="#FFB77A"/>
<path d="M23.5289 6.02789H20.5879V8.96892H23.5289V6.02789Z" fill="#FFB77A"/>
<path d="M23.5289 3.08746H20.5879V6.02849H23.5289V3.08746Z" fill="#FFB77A"/>
<path d="M23.5289 0.146057H20.5879V3.08708H23.5289V0.146057Z" fill="#FFB77A"/>
<path d="M26.4703 76.6166H23.5293V79.5576H26.4703V76.6166Z" fill="#502E59"/>
<path d="M26.4703 73.6755H23.5293V76.6165H26.4703V73.6755Z" fill="#77577A"/>
<path d="M26.4703 70.7339H23.5293V73.675H26.4703V70.7339Z" fill="#77577A"/>
<path d="M26.4703 67.7933H23.5293V70.7344H26.4703V67.7933Z" fill="#77577A"/>
<path d="M26.4703 64.8522H23.5293V67.7933H26.4703V64.8522Z" fill="#77577A"/>
<path d="M26.4703 61.9107H23.5293V64.8517H26.4703V61.9107Z" fill="#77577A"/>
<path d="M26.4703 58.9693H23.5293V61.9103H26.4703V58.9693Z" fill="#77577A"/>
<path d="M26.4703 56.0279H23.5293V58.9689H26.4703V56.0279Z" fill="#77577A"/>
<path d="M26.4703 53.0875H23.5293V56.0285H26.4703V53.0875Z" fill="#77577A"/>
<path d="M26.4703 50.1461H23.5293V53.0878H26.4703V50.1461Z" fill="#AC8098"/>
<path d="M26.4703 47.2047H23.5293V50.1457H26.4703V47.2047Z" fill="#E1BBC9"/>
<path d="M26.4703 44.2642H23.5293V47.2052H26.4703V44.2642Z" fill="#AC8098"/>
<path d="M26.4703 41.3228H23.5293V44.2638H26.4703V41.3228Z" fill="#E1BBC9"/>
<path d="M26.4703 38.3814H23.5293V41.3224H26.4703V38.3814Z" fill="#E1BBC9"/>
<path d="M26.4703 35.441H23.5293V38.382H26.4703V35.441Z" fill="#E1BBC9"/>
<path d="M26.4703 32.4988H23.5293V35.4398H26.4703V32.4988Z" fill="#BF4762"/>
<path d="M26.4703 29.5572H23.5293V32.4982H26.4703V29.5572Z" fill="#D56B69"/>
<path d="M26.4703 26.6166H23.5293V29.5576H26.4703V26.6166Z" fill="#D56B69"/>
<path d="M26.4703 23.6755H23.5293V26.6166H26.4703V23.6755Z" fill="#D56B69"/>
<path d="M26.4703 20.7339H23.5293V23.675H26.4703V20.7339Z" fill="#D56B69"/>
<path d="M26.4703 17.7933H23.5293V20.7344H26.4703V17.7933Z" fill="#D56B69"/>
<path d="M26.4703 14.8511H23.5293V17.7922H26.4703V14.8511Z" fill="#FFB77A"/>
<path d="M26.4703 11.9107H23.5293V14.8525H26.4703V11.9107Z" fill="#FFB77A"/>
<path d="M26.4703 8.9693H23.5293V11.9103H26.4703V8.9693Z" fill="#FFB77A"/>
<path d="M26.4703 6.02789H23.5293V8.96892H26.4703V6.02789Z" fill="#FFB77A"/>
<path d="M26.4703 3.08746H23.5293V6.02849H26.4703V3.08746Z" fill="#FFB77A"/>
<path d="M26.4703 0.146057H23.5293V3.08708H26.4703V0.146057Z" fill="#FFB77A"/>
<path d="M29.4117 82.4995H26.4707V85.4405H29.4117V82.4995Z" fill="#502E59"/>
<path d="M29.4117 79.5582H26.4707V82.4992H29.4117V79.5582Z" fill="#77577A"/>
<path d="M29.4117 76.6166H26.4707V79.5576H29.4117V76.6166Z" fill="#77577A"/>
<path d="M29.4117 73.6755H26.4707V76.6165H29.4117V73.6755Z" fill="#77577A"/>
<path d="M29.4117 70.7339H26.4707V73.675H29.4117V70.7339Z" fill="#77577A"/>
<path d="M29.4117 67.7933H26.4707V70.7344H29.4117V67.7933Z" fill="#77577A"/>
<path d="M29.4117 64.8522H26.4707V67.7933H29.4117V64.8522Z" fill="#77577A"/>
<path d="M29.4117 61.9107H26.4707V64.8517H29.4117V61.9107Z" fill="#AC8098"/>
<path d="M29.4117 58.9693H26.4707V61.9103H29.4117V58.9693Z" fill="#AC8098"/>
<path d="M29.4117 56.0279H26.4707V58.9689H29.4117V56.0279Z" fill="#AC8098"/>
<path d="M29.4117 53.0875H26.4707V56.0285H29.4117V53.0875Z" fill="#77577A"/>
<path d="M29.4117 50.1461H26.4707V53.0878H29.4117V50.1461Z" fill="#E1BBC9"/>
<path d="M29.4117 47.2047H26.4707V50.1457H29.4117V47.2047Z" fill="#AC8098"/>
<path d="M29.4117 44.2642H26.4707V47.2052H29.4117V44.2642Z" fill="#AC8098"/>
<path d="M29.4117 41.3228H26.4707V44.2638H29.4117V41.3228Z" fill="#AC8098"/>
<path d="M29.4117 38.3814H26.4707V41.3224H29.4117V38.3814Z" fill="#E1BBC9"/>
<path d="M29.4117 35.441H26.4707V38.382H29.4117V35.441Z" fill="#E1BBC9"/>
<path d="M29.4117 32.4988H26.4707V35.4398H29.4117V32.4988Z" fill="#AC8098"/>
<path d="M29.4117 29.5572H26.4707V32.4982H29.4117V29.5572Z" fill="#BF4762"/>
<path d="M29.4117 26.6166H26.4707V29.5576H29.4117V26.6166Z" fill="#D56B69"/>
<path d="M29.4117 23.6755H26.4707V26.6166H29.4117V23.6755Z" fill="#D56B69"/>
<path d="M29.4117 20.7339H26.4707V23.675H29.4117V20.7339Z" fill="#D56B69"/>
<path d="M29.4117 17.7933H26.4707V20.7344H29.4117V17.7933Z" fill="#D56B69"/>
<path d="M29.4117 14.8511H26.4707V17.7922H29.4117V14.8511Z" fill="#D56B69"/>
<path d="M29.4117 11.9107H26.4707V14.8525H29.4117V11.9107Z" fill="#FFB77A"/>
<path d="M29.4117 8.9693H26.4707V11.9103H29.4117V8.9693Z" fill="#FFB77A"/>
<path d="M29.4117 6.02789H26.4707V8.96892H29.4117V6.02789Z" fill="#FFB77A"/>
<path d="M29.4117 3.08746H26.4707V6.02849H29.4117V3.08746Z" fill="#FFB77A"/>
<path d="M29.4117 0.146057H26.4707V3.08708H29.4117V0.146057Z" fill="#FFB77A"/>
<path d="M32.3531 85.441H29.4121V88.382H32.3531V85.441Z" fill="#502E59"/>
<path d="M32.3531 82.4996H29.4121V85.4406H32.3531V82.4996Z" fill="#77577A"/>
<path d="M32.3531 79.5582H29.4121V82.4992H32.3531V79.5582Z" fill="#77577A"/>
<path d="M32.3531 76.6168H29.4121V79.5578H32.3531V76.6168Z" fill="#77577A"/>
<path d="M32.3531 73.6754H29.4121V76.6164H32.3531V73.6754Z" fill="#9D2C58"/>
<path d="M32.3531 70.7339H29.4121V73.675H32.3531V70.7339Z" fill="#9D2C58"/>
<path d="M32.3531 67.7935H29.4121V70.7345H32.3531V67.7935Z" fill="#AC8098"/>
<path d="M32.3531 64.8521H29.4121V67.7931H32.3531V64.8521Z" fill="#AC8098"/>
<path d="M32.3531 61.9107H29.4121V64.8517H32.3531V61.9107Z" fill="#AC8098"/>
<path d="M32.3531 58.9693H29.4121V61.9103H32.3531V58.9693Z" fill="#AC8098"/>
<path d="M32.3531 56.0279H29.4121V58.9689H32.3531V56.0279Z" fill="#AC8098"/>
<path d="M32.3531 53.0875H29.4121V56.0285H32.3531V53.0875Z" fill="#77577A"/>
<path d="M32.3531 50.1461H29.4121V53.0878H32.3531V50.1461Z" fill="#77577A"/>
<path d="M32.3531 47.2047H29.4121V50.1457H32.3531V47.2047Z" fill="#AC8098"/>
<path d="M32.3531 44.2642H29.4121V47.2052H32.3531V44.2642Z" fill="#AC8098"/>
<path d="M32.3531 41.3228H29.4121V44.2638H32.3531V41.3228Z" fill="#AC8098"/>
<path d="M32.3531 38.3814H29.4121V41.3224H32.3531V38.3814Z" fill="#E1BBC9"/>
<path d="M32.3531 35.441H29.4121V38.382H32.3531V35.441Z" fill="#E1BBC9"/>
<path d="M32.3531 32.4986H29.4121V35.4396H32.3531V32.4986Z" fill="#E1BBC9"/>
<path d="M32.3531 29.5572H29.4121V32.4982H32.3531V29.5572Z" fill="#AC8098"/>
<path d="M32.3531 26.6168H29.4121V29.5578H32.3531V26.6168Z" fill="#BF4762"/>
<path d="M32.3531 23.6754H29.4121V26.6164H32.3531V23.6754Z" fill="#D56B69"/>
<path d="M32.3531 20.7339H29.4121V23.675H32.3531V20.7339Z" fill="#D56B69"/>
<path d="M32.3531 17.7935H29.4121V20.7345H32.3531V17.7935Z" fill="#D56B69"/>
<path d="M32.3531 14.8511H29.4121V17.7922H32.3531V14.8511Z" fill="#D56B69"/>
<path d="M32.3531 11.9107H29.4121V14.8525H32.3531V11.9107Z" fill="#D56B69"/>
<path d="M32.3531 8.9693H29.4121V11.9103H32.3531V8.9693Z" fill="#FFB77A"/>
<path d="M32.3531 6.02789H29.4121V8.96892H32.3531V6.02789Z" fill="#FFB77A"/>
<path d="M32.3531 3.08746H29.4121V6.02849H32.3531V3.08746Z" fill="#FFB77A"/>
<path d="M32.3531 0.146057H29.4121V3.08708H32.3531V0.146057Z" fill="#D56B69"/>
<path d="M35.2945 88.3814H32.3535V91.3232H35.2945V88.3814Z" fill="#502E59"/>
<path d="M35.2945 85.441H32.3535V88.382H35.2945V85.441Z" fill="#77577A"/>
<path d="M35.2945 82.4995H32.3535V85.4405H35.2945V82.4995Z" fill="#77577A"/>
<path d="M35.2945 79.5582H32.3535V82.4992H35.2945V79.5582Z" fill="#77577A"/>
<path d="M35.2945 76.6166H32.3535V79.5576H35.2945V76.6166Z" fill="#9D2C58"/>
<path d="M35.2945 73.6755H32.3535V76.6165H35.2945V73.6755Z" fill="#9D2C58"/>
<path d="M35.2945 70.7339H32.3535V73.675H35.2945V70.7339Z" fill="#E7636B"/>
<path d="M35.2945 67.7933H32.3535V70.7344H35.2945V67.7933Z" fill="#AC8098"/>
<path d="M35.2945 64.8522H32.3535V67.7933H35.2945V64.8522Z" fill="#AC8098"/>
<path d="M35.2945 61.9107H32.3535V64.8517H35.2945V61.9107Z" fill="#AC8098"/>
<path d="M35.2945 58.9693H32.3535V61.9103H35.2945V58.9693Z" fill="#AC8098"/>
<path d="M35.2945 56.0279H32.3535V58.9689H35.2945V56.0279Z" fill="#77577A"/>
<path d="M35.2945 53.0875H32.3535V56.0285H35.2945V53.0875Z" fill="#77577A"/>
<path d="M35.2945 50.1461H32.3535V53.0878H35.2945V50.1461Z" fill="#77577A"/>
<path d="M35.2945 47.2047H32.3535V50.1457H35.2945V47.2047Z" fill="#AC8098"/>
<path d="M35.2945 44.2642H32.3535V47.2052H35.2945V44.2642Z" fill="#AC8098"/>
<path d="M35.2945 41.3228H32.3535V44.2638H35.2945V41.3228Z" fill="#AC8098"/>
<path d="M35.2945 38.3814H32.3535V41.3224H35.2945V38.3814Z" fill="#FFF6F6"/>
<path d="M35.2945 35.441H32.3535V38.382H35.2945V35.441Z" fill="#E1BBC9"/>
<path d="M35.2945 32.4988H32.3535V35.4398H35.2945V32.4988Z" fill="#E1BBC9"/>
<path d="M35.2945 29.5572H32.3535V32.4982H35.2945V29.5572Z" fill="#E1BBC9"/>
<path d="M35.2945 26.6166H32.3535V29.5576H35.2945V26.6166Z" fill="#AC8098"/>
<path d="M35.2945 23.6755H32.3535V26.6166H35.2945V23.6755Z" fill="#BF4762"/>
<path d="M35.2945 20.7339H32.3535V23.675H35.2945V20.7339Z" fill="#D56B69"/>
<path d="M35.2945 17.7933H32.3535V20.7344H35.2945V17.7933Z" fill="#D56B69"/>
<path d="M35.2945 14.8511H32.3535V17.7922H35.2945V14.8511Z" fill="#FFB77A"/>
<path d="M35.2945 11.9107H32.3535V14.8525H35.2945V11.9107Z" fill="#FFB77A"/>
<path d="M35.2945 8.9693H32.3535V11.9103H35.2945V8.9693Z" fill="#D56B69"/>
<path d="M35.2945 6.02789H32.3535V8.96892H35.2945V6.02789Z" fill="#D56B69"/>
<path d="M35.2945 3.08746H32.3535V6.02849H35.2945V3.08746Z" fill="#D56B69"/>
<path d="M38.2359 88.3814H35.2949V91.3232H38.2359V88.3814Z" fill="#77577A"/>
<path d="M38.2359 85.441H35.2949V88.382H38.2359V85.441Z" fill="#77577A"/>
<path d="M38.2359 82.4996H35.2949V85.4406H38.2359V82.4996Z" fill="#77577A"/>
<path d="M38.2359 79.5582H35.2949V82.4992H38.2359V79.5582Z" fill="#6C184F"/>
<path d="M38.2359 76.6168H35.2949V79.5578H38.2359V76.6168Z" fill="#9D2C58"/>
<path d="M38.2359 73.6754H35.2949V76.6164H38.2359V73.6754Z" fill="#B5475A"/>
<path d="M38.2359 70.7339H35.2949V73.675H38.2359V70.7339Z" fill="#E7636B"/>
<path d="M38.2359 67.7935H35.2949V70.7345H38.2359V67.7935Z" fill="#E7636B"/>
<path d="M38.2359 64.8521H35.2949V67.7931H38.2359V64.8521Z" fill="#AC8098"/>
<path d="M38.2359 61.9107H35.2949V64.8517H38.2359V61.9107Z" fill="#AC8098"/>
<path d="M38.2359 58.9693H35.2949V61.9103H38.2359V58.9693Z" fill="#AC8098"/>
<path d="M38.2359 56.0279H35.2949V58.9689H38.2359V56.0279Z" fill="#77577A"/>
<path d="M38.2359 53.0875H35.2949V56.0285H38.2359V53.0875Z" fill="#77577A"/>
<path d="M38.2359 50.1461H35.2949V53.0878H38.2359V50.1461Z" fill="#77577A"/>
<path d="M38.2359 47.2047H35.2949V50.1457H38.2359V47.2047Z" fill="#AC8098"/>
<path d="M38.2359 44.2642H35.2949V47.2052H38.2359V44.2642Z" fill="#AC8098"/>
<path d="M38.2359 41.3228H35.2949V44.2638H38.2359V41.3228Z" fill="#AC8098"/>
<path d="M38.2359 38.3814H35.2949V41.3224H38.2359V38.3814Z" fill="#AC8098"/>
<path d="M38.2359 35.441H35.2949V38.382H38.2359V35.441Z" fill="#FFF6F6"/>
<path d="M38.2359 32.4986H35.2949V35.4396H38.2359V32.4986Z" fill="#E1BBC9"/>
<path d="M38.2359 29.5572H35.2949V32.4982H38.2359V29.5572Z" fill="#E1BBC9"/>
<path d="M38.2359 26.6168H35.2949V29.5578H38.2359V26.6168Z" fill="#E1BBC9"/>
<path d="M38.2359 23.6754H35.2949V26.6164H38.2359V23.6754Z" fill="#AC8098"/>
<path d="M38.2359 20.7339H35.2949V23.675H38.2359V20.7339Z" fill="#BF4762"/>
<path d="M38.2359 17.7935H35.2949V20.7345H38.2359V17.7935Z" fill="#FFB77A"/>
<path d="M38.2359 14.8511H35.2949V17.7922H38.2359V14.8511Z" fill="#FFB77A"/>
<path d="M38.2359 11.9107H35.2949V14.8525H38.2359V11.9107Z" fill="#D56B69"/>
<path d="M38.2359 8.9693H35.2949V11.9103H38.2359V8.9693Z" fill="#D56B69"/>
<path d="M38.2359 6.02789H35.2949V8.96892H38.2359V6.02789Z" fill="#D56B69"/>
<path d="M41.1774 91.3228H38.2363V94.2638H41.1774V91.3228Z" fill="#502E59"/>
<path d="M41.1774 88.3814H38.2363V91.3232H41.1774V88.3814Z" fill="#77577A"/>
<path d="M41.1774 85.441H38.2363V88.382H41.1774V85.441Z" fill="#77577A"/>
<path d="M41.1774 82.4996H38.2363V85.4406H41.1774V82.4996Z" fill="#6C184F"/>
<path d="M41.1774 79.5582H38.2363V82.4992H41.1774V79.5582Z" fill="#9D2C58"/>
<path d="M41.1774 76.6168H38.2363V79.5578H41.1774V76.6168Z" fill="#9D2C58"/>
<path d="M41.1774 73.6754H38.2363V76.6164H41.1774V73.6754Z" fill="#B5475A"/>
<path d="M41.1774 70.7339H38.2363V73.675H41.1774V70.7339Z" fill="#E7636B"/>
<path d="M41.1774 67.7935H38.2363V70.7345H41.1774V67.7935Z" fill="#E7636B"/>
<path d="M41.1774 64.8521H38.2363V67.7931H41.1774V64.8521Z" fill="#E7636B"/>
<path d="M41.1774 61.9107H38.2363V64.8517H41.1774V61.9107Z" fill="#AC8098"/>
<path d="M41.1774 58.9693H38.2363V61.9103H41.1774V58.9693Z" fill="#AC8098"/>
<path d="M41.1774 56.0279H38.2363V58.9689H41.1774V56.0279Z" fill="#AC8098"/>
<path d="M41.1774 53.0875H38.2363V56.0285H41.1774V53.0875Z" fill="#77577A"/>
<path d="M41.1774 50.1461H38.2363V53.0878H41.1774V50.1461Z" fill="#77577A"/>
<path d="M41.1774 47.2047H38.2363V50.1457H41.1774V47.2047Z" fill="#AC8098"/>
<path d="M41.1774 44.2642H38.2363V47.2052H41.1774V44.2642Z" fill="#AC8098"/>
<path d="M41.1774 41.3228H38.2363V44.2638H41.1774V41.3228Z" fill="#AC8098"/>
<path d="M41.1774 38.3814H38.2363V41.3224H41.1774V38.3814Z" fill="#FFF6F6"/>
<path d="M41.1774 35.441H38.2363V38.382H41.1774V35.441Z" fill="#AC8098"/>
<path d="M41.1774 32.4986H38.2363V35.4396H41.1774V32.4986Z" fill="#AC8098"/>
<path d="M41.1774 29.5572H38.2363V32.4982H41.1774V29.5572Z" fill="#E1BBC9"/>
<path d="M41.1774 26.6168H38.2363V29.5578H41.1774V26.6168Z" fill="#FFF6F6"/>
<path d="M41.1774 23.6754H38.2363V26.6164H41.1774V23.6754Z" fill="#FFF6F6"/>
<path d="M41.1774 20.7339H38.2363V23.675H41.1774V20.7339Z" fill="#AC8098"/>
<path d="M41.1774 17.7935H38.2363V20.7345H41.1774V17.7935Z" fill="#AC8098"/>
<path d="M41.1774 14.8511H38.2363V17.7922H41.1774V14.8511Z" fill="#AC8098"/>
<path d="M41.1774 11.9107H38.2363V14.8525H41.1774V11.9107Z" fill="#AC8098"/>
<path d="M41.1774 8.9693H38.2363V11.9103H41.1774V8.9693Z" fill="#E1BBC9"/>
<path d="M41.1774 6.02789H38.2363V8.96892H41.1774V6.02789Z" fill="#FFF6F6"/>
<path d="M44.1188 94.2642H41.1777V97.2052H44.1188V94.2642Z" fill="#502E59"/>
<path d="M44.1168 91.3228H41.1758V94.2638H44.1168V91.3228Z" fill="#77577A"/>
<path d="M44.1188 88.3814H41.1777V91.3232H44.1188V88.3814Z" fill="#77577A"/>
<path d="M44.1188 85.441H41.1777V88.382H44.1188V85.441Z" fill="#6C184F"/>
<path d="M44.1168 82.4995H41.1758V85.4405H44.1168V82.4995Z" fill="#6C184F"/>
<path d="M44.1188 79.5582H41.1777V82.4992H44.1188V79.5582Z" fill="#9D2C58"/>
<path d="M44.1168 76.6166H41.1758V79.5576H44.1168V76.6166Z" fill="#B5475A"/>
<path d="M44.1168 73.6755H41.1758V76.6165H44.1168V73.6755Z" fill="#E7636B"/>
<path d="M44.1188 70.7339H41.1777V73.675H44.1188V70.7339Z" fill="#E7636B"/>
<path d="M44.1168 67.7933H41.1758V70.7344H44.1168V67.7933Z" fill="#E7636B"/>
<path d="M44.1168 64.8522H41.1758V67.7933H44.1168V64.8522Z" fill="#E7636B"/>
<path d="M44.1188 61.9107H41.1777V64.8517H44.1188V61.9107Z" fill="#E7636B"/>
<path d="M44.1168 58.9693H41.1758V61.9103H44.1168V58.9693Z" fill="#AC8098"/>
<path d="M44.1188 56.0279H41.1777V58.9689H44.1188V56.0279Z" fill="#AC8098"/>
<path d="M44.1188 53.0875H41.1777V56.0285H44.1188V53.0875Z" fill="#77577A"/>
<path d="M44.1168 50.1461H41.1758V53.0878H44.1168V50.1461Z" fill="#77577A"/>
<path d="M44.1188 47.2047H41.1777V50.1457H44.1188V47.2047Z" fill="#77577A"/>
<path d="M44.1188 44.2642H41.1777V47.2052H44.1188V44.2642Z" fill="#AC8098"/>
<path d="M44.1168 41.3228H41.1758V44.2638H44.1168V41.3228Z" fill="#FFF6F6"/>
<path d="M44.1188 38.3814H41.1777V41.3224H44.1188V38.3814Z" fill="#AC8098"/>
<path d="M44.1188 35.441H41.1777V38.382H44.1188V35.441Z" fill="#AC8098"/>
<path d="M44.1168 32.4988H41.1758V35.4398H44.1168V32.4988Z" fill="#AC8098"/>
<path d="M44.1188 29.5572H41.1777V32.4982H44.1188V29.5572Z" fill="#FFF6F6"/>
<path d="M44.1168 26.6166H41.1758V29.5576H44.1168V26.6166Z" fill="#FFF6F6"/>
<path d="M44.1168 23.6755H41.1758V26.6166H44.1168V23.6755Z" fill="#FFF6F6"/>
<path d="M44.1188 20.7339H41.1777V23.675H44.1188V20.7339Z" fill="#FFF6F6"/>
<path d="M44.1168 17.7933H41.1758V20.7344H44.1168V17.7933Z" fill="#E1BBC9"/>
<path d="M44.1188 14.8511H41.1777V17.7922H44.1188V14.8511Z" fill="#E1BBC9"/>
<path d="M44.1188 11.9107H41.1777V14.8525H44.1188V11.9107Z" fill="#E1BBC9"/>
<path d="M44.1168 8.9693H41.1758V11.9103H44.1168V8.9693Z" fill="#FFF6F6"/>
<path d="M47.0602 94.2642H44.1191V97.2052H47.0602V94.2642Z" fill="#502E59"/>
<path d="M47.0602 91.3228H44.1191V94.2638H47.0602V91.3228Z" fill="#77577A"/>
<path d="M47.0602 88.3814H44.1191V91.3232H47.0602V88.3814Z" fill="#77577A"/>
<path d="M47.0602 85.441H44.1191V88.382H47.0602V85.441Z" fill="#6C184F"/>
<path d="M47.0602 82.4996H44.1191V85.4406H47.0602V82.4996Z" fill="#9D2C58"/>
<path d="M47.0602 79.5582H44.1191V82.4992H47.0602V79.5582Z" fill="#9D2C58"/>
<path d="M47.0602 76.6168H44.1191V79.5578H47.0602V76.6168Z" fill="#B5475A"/>
<path d="M47.0602 73.6754H44.1191V76.6164H47.0602V73.6754Z" fill="#B5475A"/>
<path d="M47.0602 70.7339H44.1191V73.675H47.0602V70.7339Z" fill="#E7636B"/>
<path d="M47.0602 67.7935H44.1191V70.7345H47.0602V67.7935Z" fill="#E7636B"/>
<path d="M47.0602 64.8521H44.1191V67.7931H47.0602V64.8521Z" fill="#E7636B"/>
<path d="M47.0602 61.9107H44.1191V64.8517H47.0602V61.9107Z" fill="#E7636B"/>
<path d="M47.0602 58.9693H44.1191V61.9103H47.0602V58.9693Z" fill="#B5475A"/>
<path d="M47.0602 56.0279H44.1191V58.9689H47.0602V56.0279Z" fill="#AC8098"/>
<path d="M47.0602 53.0875H44.1191V56.0285H47.0602V53.0875Z" fill="#AC8098"/>
<path d="M47.0602 50.1461H44.1191V53.0878H47.0602V50.1461Z" fill="#77577A"/>
<path d="M47.0602 47.2047H44.1191V50.1457H47.0602V47.2047Z" fill="#77577A"/>
<path d="M47.0602 44.2642H44.1191V47.2052H47.0602V44.2642Z" fill="#AC8098"/>
<path d="M47.0602 41.3228H44.1191V44.2638H47.0602V41.3228Z" fill="#AC8098"/>
<path d="M47.0602 38.3814H44.1191V41.3224H47.0602V38.3814Z" fill="#AC8098"/>
<path d="M47.0602 35.441H44.1191V38.382H47.0602V35.441Z" fill="#AC8098"/>
<path d="M47.0602 32.4986H44.1191V35.4396H47.0602V32.4986Z" fill="#FFF6F6"/>
<path d="M47.0602 29.5572H44.1191V32.4982H47.0602V29.5572Z" fill="#FFF6F6"/>
<path d="M47.0602 26.6168H44.1191V29.5578H47.0602V26.6168Z" fill="#FFF6F6"/>
<path d="M47.0602 23.6754H44.1191V26.6164H47.0602V23.6754Z" fill="#FFF6F6"/>
<path d="M47.0602 20.7339H44.1191V23.675H47.0602V20.7339Z" fill="#FFF6F6"/>
<path d="M47.0602 17.7935H44.1191V20.7345H47.0602V17.7935Z" fill="#E1BBC9"/>
<path d="M47.0602 14.8511H44.1191V17.7922H47.0602V14.8511Z" fill="#E1BBC9"/>
<path d="M47.0602 11.9107H44.1191V14.8525H47.0602V11.9107Z" fill="#FFF6F6"/>
<path d="M49.9996 94.2642H47.0586V97.2052H49.9996V94.2642Z" fill="#77577A"/>
<path d="M49.9996 91.3228H47.0586V94.2638H49.9996V91.3228Z" fill="#77577A"/>
<path d="M49.9996 88.3814H47.0586V91.3232H49.9996V88.3814Z" fill="#6C184F"/>
<path d="M49.9996 85.441H47.0586V88.382H49.9996V85.441Z" fill="#6C184F"/>
<path d="M49.9996 82.4996H47.0586V85.4406H49.9996V82.4996Z" fill="#9D2C58"/>
<path d="M49.9996 79.5582H47.0586V82.4992H49.9996V79.5582Z" fill="#9D2C58"/>
<path d="M49.9996 76.6168H47.0586V79.5578H49.9996V76.6168Z" fill="#B5475A"/>
<path d="M49.9996 73.6754H47.0586V76.6164H49.9996V73.6754Z" fill="#B5475A"/>
<path d="M49.9996 70.7339H47.0586V73.675H49.9996V70.7339Z" fill="#E7636B"/>
<path d="M49.9996 67.7935H47.0586V70.7345H49.9996V67.7935Z" fill="#E7636B"/>
<path d="M49.9996 64.8521H47.0586V67.7931H49.9996V64.8521Z" fill="#F8B37E"/>
<path d="M49.9996 61.9107H47.0586V64.8517H49.9996V61.9107Z" fill="#E7636B"/>
<path d="M49.9996 58.9693H47.0586V61.9103H49.9996V58.9693Z" fill="#E7636B"/>
<path d="M49.9996 56.0279H47.0586V58.9689H49.9996V56.0279Z" fill="#AC8098"/>
<path d="M49.9996 53.0875H47.0586V56.0285H49.9996V53.0875Z" fill="#AC8098"/>
<path d="M49.9996 50.1461H47.0586V53.0878H49.9996V50.1461Z" fill="#77577A"/>
<path d="M49.9996 47.2047H47.0586V50.1457H49.9996V47.2047Z" fill="#77577A"/>
<path d="M49.9996 44.2642H47.0586V47.2052H49.9996V44.2642Z" fill="#AC8098"/>
<path d="M49.9996 41.3228H47.0586V44.2638H49.9996V41.3228Z" fill="#AC8098"/>
<path d="M49.9996 38.3814H47.0586V41.3224H49.9996V38.3814Z" fill="#AC8098"/>
<path d="M49.9996 35.441H47.0586V38.382H49.9996V35.441Z" fill="#FFF6F6"/>
<path d="M49.9996 32.4986H47.0586V35.4396H49.9996V32.4986Z" fill="#FFF6F6"/>
<path d="M49.9996 29.5572H47.0586V32.4982H49.9996V29.5572Z" fill="#FFF6F6"/>
<path d="M49.9996 26.6168H47.0586V29.5578H49.9996V26.6168Z" fill="#FFF6F6"/>
<path d="M49.9996 23.6754H47.0586V26.6164H49.9996V23.6754Z" fill="#FFF6F6"/>
<path d="M49.9996 20.7339H47.0586V23.675H49.9996V20.7339Z" fill="#E1BBC9"/>
<path d="M49.9996 17.7935H47.0586V20.7345H49.9996V17.7935Z" fill="#E1BBC9"/>
<path d="M49.9996 14.8511H47.0586V17.7922H49.9996V14.8511Z" fill="#FFF6F6"/>
<path d="M52.941 97.2047H50V100.146H52.941V97.2047Z" fill="#502E59"/>
<path d="M52.941 94.2642H50V97.2052H52.941V94.2642Z" fill="#77577A"/>
<path d="M52.941 91.3228H50V94.2638H52.941V91.3228Z" fill="#77577A"/>
<path d="M52.941 88.3814H50V91.3232H52.941V88.3814Z" fill="#6C184F"/>
<path d="M52.941 85.441H50V88.382H52.941V85.441Z" fill="#6C184F"/>
<path d="M52.941 82.4995H50V85.4405H52.941V82.4995Z" fill="#9D2C58"/>
<path d="M52.941 79.5582H50V82.4992H52.941V79.5582Z" fill="#9D2C58"/>
<path d="M52.941 76.6166H50V79.5576H52.941V76.6166Z" fill="#B5475A"/>
<path d="M52.941 73.6755H50V76.6165H52.941V73.6755Z" fill="#B5475A"/>
<path d="M52.941 70.7339H50V73.675H52.941V70.7339Z" fill="#E7636B"/>
<path d="M52.941 67.7933H50V70.7344H52.941V67.7933Z" fill="#E7636B"/>
<path d="M52.941 64.8522H50V67.7933H52.941V64.8522Z" fill="#E7636B"/>
<path d="M52.941 61.9107H50V64.8517H52.941V61.9107Z" fill="#E7636B"/>
<path d="M52.941 58.9693H50V61.9103H52.941V58.9693Z" fill="#E7636B"/>
<path d="M52.941 56.0279H50V58.9689H52.941V56.0279Z" fill="#B5475A"/>
<path d="M52.941 53.0875H50V56.0285H52.941V53.0875Z" fill="#AC8098"/>
<path d="M52.941 50.1461H50V53.0878H52.941V50.1461Z" fill="#AC8098"/>
<path d="M52.941 47.2047H50V50.1457H52.941V47.2047Z" fill="#77577A"/>
<path d="M52.941 44.2642H50V47.2052H52.941V44.2642Z" fill="#77577A"/>
<path d="M52.941 41.3228H50V44.2638H52.941V41.3228Z" fill="#AC8098"/>
<path d="M52.941 38.3814H50V41.3224H52.941V38.3814Z" fill="#E1BBC9"/>
<path d="M52.941 35.441H50V38.382H52.941V35.441Z" fill="#FFF6F6"/>
<path d="M52.941 32.4988H50V35.4398H52.941V32.4988Z" fill="#FFF6F6"/>
<path d="M52.941 29.5572H50V32.4982H52.941V29.5572Z" fill="#FFF6F6"/>
<path d="M52.941 26.6166H50V29.5576H52.941V26.6166Z" fill="#FFF6F6"/>
<path d="M52.941 23.6755H50V26.6166H52.941V23.6755Z" fill="#E1BBC9"/>
<path d="M52.941 20.7339H50V23.675H52.941V20.7339Z" fill="#E1BBC9"/>
<path d="M52.941 17.7933H50V20.7344H52.941V17.7933Z" fill="#E1BBC9"/>
<path d="M55.8824 97.2047H52.9414V100.146H55.8824V97.2047Z" fill="#502E59"/>
<path d="M55.8824 94.2642H52.9414V97.2052H55.8824V94.2642Z" fill="#77577A"/>
<path d="M55.8805 91.3228H52.9395V94.2638H55.8805V91.3228Z" fill="#77577A"/>
<path d="M55.8824 88.3814H52.9414V91.3232H55.8824V88.3814Z" fill="#6C184F"/>
<path d="M55.8824 85.441H52.9414V88.382H55.8824V85.441Z" fill="#9D2C58"/>
<path d="M55.8805 82.4995H52.9395V85.4405H55.8805V82.4995Z" fill="#9D2C58"/>
<path d="M55.8824 79.5582H52.9414V82.4992H55.8824V79.5582Z" fill="#B5475A"/>
<path d="M55.8805 76.6166H52.9395V79.5576H55.8805V76.6166Z" fill="#B5475A"/>
<path d="M55.8805 73.6755H52.9395V76.6165H55.8805V73.6755Z" fill="#B5475A"/>
<path d="M55.8824 70.7339H52.9414V73.675H55.8824V70.7339Z" fill="#E7636B"/>
<path d="M55.8805 67.7933H52.9395V70.7344H55.8805V67.7933Z" fill="#E7636B"/>
<path d="M55.8805 64.8522H52.9395V67.7933H55.8805V64.8522Z" fill="#E7636B"/>
<path d="M55.8824 61.9107H52.9414V64.8517H55.8824V61.9107Z" fill="#E7636B"/>
<path d="M55.8805 58.9693H52.9395V61.9103H55.8805V58.9693Z" fill="#E7636B"/>
<path d="M55.8824 56.0279H52.9414V58.9689H55.8824V56.0279Z" fill="#B5475A"/>
<path d="M55.8824 53.0875H52.9414V56.0285H55.8824V53.0875Z" fill="#AC8098"/>
<path d="M55.8805 50.1461H52.9395V53.0878H55.8805V50.1461Z" fill="#AC8098"/>
<path d="M55.8824 47.2047H52.9414V50.1457H55.8824V47.2047Z" fill="#AC8098"/>
<path d="M55.8824 44.2642H52.9414V47.2052H55.8824V44.2642Z" fill="#77577A"/>
<path d="M55.8805 41.3228H52.9395V44.2638H55.8805V41.3228Z" fill="#77577A"/>
<path d="M55.8824 38.3814H52.9414V41.3224H55.8824V38.3814Z" fill="#E1BBC9"/>
<path d="M55.8824 35.441H52.9414V38.382H55.8824V35.441Z" fill="#E1BBC9"/>
<path d="M55.8805 32.4988H52.9395V35.4398H55.8805V32.4988Z" fill="#FFF6F6"/>
<path d="M55.8824 29.5572H52.9414V32.4982H55.8824V29.5572Z" fill="#FFF6F6"/>
<path d="M55.8805 26.6166H52.9395V29.5576H55.8805V26.6166Z" fill="#E1BBC9"/>
<path d="M55.8805 23.6755H52.9395V26.6166H55.8805V23.6755Z" fill="#E1BBC9"/>
<path d="M55.8824 20.7339H52.9414V23.675H55.8824V20.7339Z" fill="#E1BBC9"/>
<path d="M55.8805 17.7933H52.9395V20.7344H55.8805V17.7933Z" fill="#FFF6F6"/>
<path d="M58.8246 97.2047H55.8828V100.146H58.8246V97.2047Z" fill="#502E59"/>
<path d="M58.8246 94.2642H55.8828V97.2052H58.8246V94.2642Z" fill="#77577A"/>
<path d="M58.8246 91.3228H55.8828V94.2638H58.8246V91.3228Z" fill="#77577A"/>
<path d="M58.8246 88.3814H55.8828V91.3232H58.8246V88.3814Z" fill="#6C184F"/>
<path d="M58.8246 85.441H55.8828V88.382H58.8246V85.441Z" fill="#9D2C58"/>
<path d="M58.8246 82.4996H55.8828V85.4406H58.8246V82.4996Z" fill="#9D2C58"/>
<path d="M58.8246 79.5582H55.8828V82.4992H58.8246V79.5582Z" fill="#B5475A"/>
<path d="M58.8246 76.6168H55.8828V79.5578H58.8246V76.6168Z" fill="#B5475A"/>
<path d="M58.8246 73.6754H55.8828V76.6164H58.8246V73.6754Z" fill="#B5475A"/>
<path d="M58.8246 70.7339H55.8828V73.675H58.8246V70.7339Z" fill="#B5475A"/>
<path d="M58.8246 67.7935H55.8828V70.7345H58.8246V67.7935Z" fill="#E7636B"/>
<path d="M58.8246 64.8521H55.8828V67.7931H58.8246V64.8521Z" fill="#E7636B"/>
<path d="M58.8246 61.9107H55.8828V64.8517H58.8246V61.9107Z" fill="#B5475A"/>
<path d="M58.8246 58.9693H55.8828V61.9103H58.8246V58.9693Z" fill="#E7636B"/>
<path d="M58.8246 56.0279H55.8828V58.9689H58.8246V56.0279Z" fill="#B5475A"/>
<path d="M58.8246 53.0875H55.8828V56.0285H58.8246V53.0875Z" fill="#B5475A"/>
<path d="M58.8246 50.1461H55.8828V53.0878H58.8246V50.1461Z" fill="#AC8098"/>
<path d="M58.8246 47.2047H55.8828V50.1457H58.8246V47.2047Z" fill="#AC8098"/>
<path d="M58.8246 44.2642H55.8828V47.2052H58.8246V44.2642Z" fill="#AC8098"/>
<path d="M58.8246 41.3228H55.8828V44.2638H58.8246V41.3228Z" fill="#77577A"/>
<path d="M58.8246 38.3814H55.8828V41.3224H58.8246V38.3814Z" fill="#77577A"/>
<path d="M58.8246 35.441H55.8828V38.382H58.8246V35.441Z" fill="#E1BBC9"/>
<path d="M58.8246 32.4986H55.8828V35.4396H58.8246V32.4986Z" fill="#E1BBC9"/>
<path d="M58.8246 29.5572H55.8828V32.4982H58.8246V29.5572Z" fill="#AC8098"/>
<path d="M58.8246 26.6168H55.8828V29.5578H58.8246V26.6168Z" fill="#AC8098"/>
<path d="M58.8246 23.6754H55.8828V26.6164H58.8246V23.6754Z" fill="#E1BBC9"/>
<path d="M58.8246 20.7339H55.8828V23.675H58.8246V20.7339Z" fill="#FFF6F6"/>
<path d="M58.8246 17.7935H55.8828V20.7345H58.8246V17.7935Z" fill="#FFF6F6"/>
<path d="M61.7652 97.2047H58.8242V100.146H61.7652V97.2047Z" fill="#502E59"/>
<path d="M61.7652 94.2642H58.8242V97.2052H61.7652V94.2642Z" fill="#77577A"/>
<path d="M61.7633 91.3228H58.8223V94.2638H61.7633V91.3228Z" fill="#77577A"/>
<path d="M61.7652 88.3814H58.8242V91.3232H61.7652V88.3814Z" fill="#6C184F"/>
<path d="M61.7652 85.441H58.8242V88.382H61.7652V85.441Z" fill="#9D2C58"/>
<path d="M61.7633 82.4995H58.8223V85.4405H61.7633V82.4995Z" fill="#9D2C58"/>
<path d="M61.7652 79.5582H58.8242V82.4992H61.7652V79.5582Z" fill="#B5475A"/>
<path d="M61.7633 76.6166H58.8223V79.5576H61.7633V76.6166Z" fill="#B5475A"/>
<path d="M61.7633 73.6755H58.8223V76.6165H61.7633V73.6755Z" fill="#B5475A"/>
<path d="M61.7652 70.7339H58.8242V73.675H61.7652V70.7339Z" fill="#B5475A"/>
<path d="M61.7633 67.7933H58.8223V70.7344H61.7633V67.7933Z" fill="#E7636B"/>
<path d="M61.7633 64.8522H58.8223V67.7933H61.7633V64.8522Z" fill="#E7636B"/>
<path d="M61.7652 61.9107H58.8242V64.8517H61.7652V61.9107Z" fill="#B5475A"/>
<path d="M61.7633 58.9693H58.8223V61.9103H61.7633V58.9693Z" fill="#B5475A"/>
<path d="M61.7652 56.0279H58.8242V58.9689H61.7652V56.0279Z" fill="#E7636B"/>
<path d="M61.7652 53.0875H58.8242V56.0285H61.7652V53.0875Z" fill="#B5475A"/>
<path d="M61.7633 50.1461H58.8223V53.0878H61.7633V50.1461Z" fill="#AC8098"/>
<path d="M61.7652 47.2047H58.8242V50.1457H61.7652V47.2047Z" fill="#AC8098"/>
<path d="M61.7652 44.2642H58.8242V47.2052H61.7652V44.2642Z" fill="#AC8098"/>
<path d="M61.7633 41.3228H58.8223V44.2638H61.7633V41.3228Z" fill="#AC8098"/>
<path d="M61.7652 38.3814H58.8242V41.3224H61.7652V38.3814Z" fill="#AC8098"/>
<path d="M61.7652 35.441H58.8242V38.382H61.7652V35.441Z" fill="#AC8098"/>
<path d="M61.7633 32.4988H58.8223V35.4398H61.7633V32.4988Z" fill="#77577A"/>
<path d="M61.7652 29.5572H58.8242V32.4982H61.7652V29.5572Z" fill="#77577A"/>
<path d="M61.7633 26.6166H58.8223V29.5576H61.7633V26.6166Z" fill="#AC8098"/>
<path d="M61.7633 23.6755H58.8223V26.6166H61.7633V23.6755Z" fill="#E1BBC9"/>
<path d="M61.7652 20.7339H58.8242V23.675H61.7652V20.7339Z" fill="#FFF6F6"/>
<path d="M61.7633 17.7933H58.8223V20.7344H61.7633V17.7933Z" fill="#FFF6F6"/>
<path d="M64.7066 97.2047H61.7656V100.146H64.7066V97.2047Z" fill="#502E59"/>
<path d="M64.7066 94.2642H61.7656V97.2052H64.7066V94.2642Z" fill="#77577A"/>
<path d="M64.7066 91.3228H61.7656V94.2638H64.7066V91.3228Z" fill="#77577A"/>
<path d="M64.7066 88.3814H61.7656V91.3232H64.7066V88.3814Z" fill="#6C184F"/>
<path d="M64.7066 85.441H61.7656V88.382H64.7066V85.441Z" fill="#9D2C58"/>
<path d="M64.7066 82.4996H61.7656V85.4406H64.7066V82.4996Z" fill="#9D2C58"/>
<path d="M64.7066 79.5582H61.7656V82.4992H64.7066V79.5582Z" fill="#B5475A"/>
<path d="M64.7066 76.6168H61.7656V79.5578H64.7066V76.6168Z" fill="#B5475A"/>
<path d="M64.7066 73.6754H61.7656V76.6164H64.7066V73.6754Z" fill="#B5475A"/>
<path d="M64.7066 70.7339H61.7656V73.675H64.7066V70.7339Z" fill="#B5475A"/>
<path d="M64.7066 67.7935H61.7656V70.7345H64.7066V67.7935Z" fill="#E7636B"/>
<path d="M64.7066 64.8521H61.7656V67.7931H64.7066V64.8521Z" fill="#E7636B"/>
<path d="M64.7066 61.9107H61.7656V64.8517H64.7066V61.9107Z" fill="#B5475A"/>
<path d="M64.7066 58.9693H61.7656V61.9103H64.7066V58.9693Z" fill="#B5475A"/>
<path d="M64.7066 56.0279H61.7656V58.9689H64.7066V56.0279Z" fill="#E7636B"/>
<path d="M64.7066 53.0875H61.7656V56.0285H64.7066V53.0875Z" fill="#B5475A"/>
<path d="M64.7066 50.1461H61.7656V53.0878H64.7066V50.1461Z" fill="#AC8098"/>
<path d="M64.7066 47.2047H61.7656V50.1457H64.7066V47.2047Z" fill="#AC8098"/>
<path d="M64.7066 44.2642H61.7656V47.2052H64.7066V44.2642Z" fill="#AC8098"/>
<path d="M64.7066 41.3228H61.7656V44.2638H64.7066V41.3228Z" fill="#AC8098"/>
<path d="M64.7066 38.3814H61.7656V41.3224H64.7066V38.3814Z" fill="#AC8098"/>
<path d="M64.7066 35.441H61.7656V38.382H64.7066V35.441Z" fill="#77577A"/>
<path d="M64.7066 32.4986H61.7656V35.4396H64.7066V32.4986Z" fill="#77577A"/>
<path d="M64.7066 29.5572H61.7656V32.4982H64.7066V29.5572Z" fill="#77577A"/>
<path d="M64.7066 26.6168H61.7656V29.5578H64.7066V26.6168Z" fill="#AC8098"/>
<path d="M64.7066 23.6754H61.7656V26.6164H64.7066V23.6754Z" fill="#E1BBC9"/>
<path d="M64.7066 20.7339H61.7656V23.675H64.7066V20.7339Z" fill="#FFF6F6"/>
<path d="M64.7066 17.7935H61.7656V20.7345H64.7066V17.7935Z" fill="#FFF6F6"/>
<path d="M67.6481 97.2047H64.707V100.146H67.6481V97.2047Z" fill="#502E59"/>
<path d="M67.6481 94.2642H64.707V97.2052H67.6481V94.2642Z" fill="#77577A"/>
<path d="M67.6481 91.3228H64.707V94.2638H67.6481V91.3228Z" fill="#77577A"/>
<path d="M67.6481 88.3814H64.707V91.3232H67.6481V88.3814Z" fill="#6C184F"/>
<path d="M67.6481 85.441H64.707V88.382H67.6481V85.441Z" fill="#9D2C58"/>
<path d="M67.6481 82.4995H64.707V85.4405H67.6481V82.4995Z" fill="#9D2C58"/>
<path d="M67.6481 79.5582H64.707V82.4992H67.6481V79.5582Z" fill="#B5475A"/>
<path d="M67.6481 76.6166H64.707V79.5576H67.6481V76.6166Z" fill="#B5475A"/>
<path d="M67.6481 73.6755H64.707V76.6165H67.6481V73.6755Z" fill="#B5475A"/>
<path d="M67.6481 70.7339H64.707V73.675H67.6481V70.7339Z" fill="#B5475A"/>
<path d="M67.6481 67.7933H64.707V70.7344H67.6481V67.7933Z" fill="#B5475A"/>
<path d="M67.6481 64.8522H64.707V67.7933H67.6481V64.8522Z" fill="#E7636B"/>
<path d="M67.6481 61.9107H64.707V64.8517H67.6481V61.9107Z" fill="#E7636B"/>
<path d="M67.6481 58.9693H64.707V61.9103H67.6481V58.9693Z" fill="#B5475A"/>
<path d="M67.6481 56.0279H64.707V58.9689H67.6481V56.0279Z" fill="#E7636B"/>
<path d="M67.6481 53.0875H64.707V56.0285H67.6481V53.0875Z" fill="#E7636B"/>
<path d="M67.6481 50.1461H64.707V53.0878H67.6481V50.1461Z" fill="#B5475A"/>
<path d="M67.6481 47.2047H64.707V50.1457H67.6481V47.2047Z" fill="#AC8098"/>
<path d="M67.6481 44.2642H64.707V47.2052H67.6481V44.2642Z" fill="#AC8098"/>
<path d="M67.6481 41.3228H64.707V44.2638H67.6481V41.3228Z" fill="#AC8098"/>
<path d="M67.6481 38.3814H64.707V41.3224H67.6481V38.3814Z" fill="#77577A"/>
<path d="M67.6481 35.441H64.707V38.382H67.6481V35.441Z" fill="#77577A"/>
<path d="M67.6481 32.4988H64.707V35.4398H67.6481V32.4988Z" fill="#FFF6F6"/>
<path d="M67.6481 29.5572H64.707V32.4982H67.6481V29.5572Z" fill="#FFF6F6"/>
<path d="M67.6481 26.6166H64.707V29.5576H67.6481V26.6166Z" fill="#AC8098"/>
<path d="M67.6481 23.6755H64.707V26.6166H67.6481V23.6755Z" fill="#E1BBC9"/>
<path d="M67.6481 20.7339H64.707V23.675H67.6481V20.7339Z" fill="#FFF6F6"/>
<path d="M67.6481 17.7933H64.707V20.7344H67.6481V17.7933Z" fill="#FFF6F6"/>
<path d="M70.5895 94.2642H67.6484V97.2052H70.5895V94.2642Z" fill="#77577A"/>
<path d="M70.5875 91.3228H67.6465V94.2638H70.5875V91.3228Z" fill="#77577A"/>
<path d="M70.5895 88.3814H67.6484V91.3232H70.5895V88.3814Z" fill="#6C184F"/>
<path d="M70.5895 85.441H67.6484V88.382H70.5895V85.441Z" fill="#9D2C58"/>
<path d="M70.5875 82.4995H67.6465V85.4405H70.5875V82.4995Z" fill="#9D2C58"/>
<path d="M70.5895 79.5582H67.6484V82.4992H70.5895V79.5582Z" fill="#B5475A"/>
<path d="M70.5875 76.6166H67.6465V79.5576H70.5875V76.6166Z" fill="#B5475A"/>
<path d="M70.5875 73.6755H67.6465V76.6165H70.5875V73.6755Z" fill="#E7636B"/>
<path d="M70.5895 70.7339H67.6484V73.675H70.5895V70.7339Z" fill="#B5475A"/>
<path d="M70.5875 67.7933H67.6465V70.7344H70.5875V67.7933Z" fill="#B5475A"/>
<path d="M70.5875 64.8522H67.6465V67.7933H70.5875V64.8522Z" fill="#E7636B"/>
<path d="M70.5895 61.9107H67.6484V64.8517H70.5895V61.9107Z" fill="#E7636B"/>
<path d="M70.5875 58.9693H67.6465V61.9103H70.5875V58.9693Z" fill="#E7636B"/>
<path d="M70.5895 56.0279H67.6484V58.9689H70.5895V56.0279Z" fill="#E7636B"/>
<path d="M70.5895 53.0875H67.6484V56.0285H70.5895V53.0875Z" fill="#E7636B"/>
<path d="M70.5875 50.1461H67.6465V53.0878H70.5875V50.1461Z" fill="#B5475A"/>
<path d="M70.5895 47.2047H67.6484V50.1457H70.5895V47.2047Z" fill="#AC8098"/>
<path d="M70.5895 44.2642H67.6484V47.2052H70.5895V44.2642Z" fill="#AC8098"/>
<path d="M70.5875 41.3228H67.6465V44.2638H70.5875V41.3228Z" fill="#77577A"/>
<path d="M70.5895 38.3814H67.6484V41.3224H70.5895V38.3814Z" fill="#77577A"/>
<path d="M70.5895 35.441H67.6484V38.382H70.5895V35.441Z" fill="#FFF6F6"/>
<path d="M70.5875 32.4988H67.6465V35.4398H70.5875V32.4988Z" fill="#FFF6F6"/>
<path d="M70.5895 29.5572H67.6484V32.4982H70.5895V29.5572Z" fill="#FFF6F6"/>
<path d="M70.5875 26.6166H67.6465V29.5576H70.5875V26.6166Z" fill="#AC8098"/>
<path d="M70.5875 23.6755H67.6465V26.6166H70.5875V23.6755Z" fill="#E1BBC9"/>
<path d="M70.5895 20.7339H67.6484V23.675H70.5895V20.7339Z" fill="#FFF6F6"/>
<path d="M73.5289 94.2642H70.5879V97.2052H73.5289V94.2642Z" fill="#502E59"/>
<path d="M73.5289 91.3228H70.5879V94.2638H73.5289V91.3228Z" fill="#77577A"/>
<path d="M73.5289 88.3814H70.5879V91.3232H73.5289V88.3814Z" fill="#77577A"/>
<path d="M73.5289 85.441H70.5879V88.382H73.5289V85.441Z" fill="#6C184F"/>
<path d="M73.5289 82.4996H70.5879V85.4406H73.5289V82.4996Z" fill="#9D2C58"/>
<path d="M73.5289 79.5582H70.5879V82.4992H73.5289V79.5582Z" fill="#B5475A"/>
<path d="M73.5289 76.6168H70.5879V79.5578H73.5289V76.6168Z" fill="#B5475A"/>
<path d="M73.5289 73.6754H70.5879V76.6164H73.5289V73.6754Z" fill="#B5475A"/>
<path d="M73.5289 70.7339H70.5879V73.675H73.5289V70.7339Z" fill="#B5475A"/>
<path d="M73.5289 67.7935H70.5879V70.7345H73.5289V67.7935Z" fill="#B5475A"/>
<path d="M73.5289 64.8521H70.5879V67.7931H73.5289V64.8521Z" fill="#B5475A"/>
<path d="M73.5289 61.9107H70.5879V64.8517H73.5289V61.9107Z" fill="#E7636B"/>
<path d="M73.5289 58.9693H70.5879V61.9103H73.5289V58.9693Z" fill="#E7636B"/>
<path d="M73.5289 56.0279H70.5879V58.9689H73.5289V56.0279Z" fill="#F8B37E"/>
<path d="M73.5289 53.0875H70.5879V56.0285H73.5289V53.0875Z" fill="#E7636B"/>
<path d="M73.5289 50.1461H70.5879V53.0878H73.5289V50.1461Z" fill="#B5475A"/>
<path d="M73.5289 47.2047H70.5879V50.1457H73.5289V47.2047Z" fill="#B5475A"/>
<path d="M73.5289 44.2642H70.5879V47.2052H73.5289V44.2642Z" fill="#77577A"/>
<path d="M73.5289 41.3228H70.5879V44.2638H73.5289V41.3228Z" fill="#77577A"/>
<path d="M73.5289 38.3814H70.5879V41.3224H73.5289V38.3814Z" fill="#FFF6F6"/>
<path d="M73.5289 35.441H70.5879V38.382H73.5289V35.441Z" fill="#FFF6F6"/>
<path d="M73.5289 32.4986H70.5879V35.4396H73.5289V32.4986Z" fill="#FFF6F6"/>
<path d="M73.5289 29.5572H70.5879V32.4982H73.5289V29.5572Z" fill="#AC8098"/>
<path d="M73.5289 26.6168H70.5879V29.5578H73.5289V26.6168Z" fill="#77577A"/>
<path d="M73.5289 23.6754H70.5879V26.6164H73.5289V23.6754Z" fill="#FFF6F6"/>
<path d="M73.5289 20.7339H70.5879V23.675H73.5289V20.7339Z" fill="#FFF6F6"/>
<path d="M76.4703 94.2642H73.5293V97.2052H76.4703V94.2642Z" fill="#502E59"/>
<path d="M76.4703 91.3228H73.5293V94.2638H76.4703V91.3228Z" fill="#77577A"/>
<path d="M76.4703 88.3814H73.5293V91.3232H76.4703V88.3814Z" fill="#77577A"/>
<path d="M76.4703 85.441H73.5293V88.382H76.4703V85.441Z" fill="#6C184F"/>
<path d="M76.4703 82.4995H73.5293V85.4405H76.4703V82.4995Z" fill="#9D2C58"/>
<path d="M76.4703 79.5582H73.5293V82.4992H76.4703V79.5582Z" fill="#B5475A"/>
<path d="M76.4703 76.6166H73.5293V79.5576H76.4703V76.6166Z" fill="#B5475A"/>
<path d="M76.4703 73.6755H73.5293V76.6165H76.4703V73.6755Z" fill="#B5475A"/>
<path d="M76.4703 70.7339H73.5293V73.675H76.4703V70.7339Z" fill="#B5475A"/>
<path d="M76.4703 67.7933H73.5293V70.7344H76.4703V67.7933Z" fill="#B5475A"/>
<path d="M76.4703 64.8522H73.5293V67.7933H76.4703V64.8522Z" fill="#B5475A"/>
<path d="M76.4703 61.9107H73.5293V64.8517H76.4703V61.9107Z" fill="#E7636B"/>
<path d="M76.4703 58.9693H73.5293V61.9103H76.4703V58.9693Z" fill="#E7636B"/>
<path d="M76.4703 56.0279H73.5293V58.9689H76.4703V56.0279Z" fill="#F8B37E"/>
<path d="M76.4703 53.0875H73.5293V56.0285H76.4703V53.0875Z" fill="#F8B37E"/>
<path d="M76.4703 50.1461H73.5293V53.0878H76.4703V50.1461Z" fill="#E7636B"/>
<path d="M76.4703 47.2047H73.5293V50.1457H76.4703V47.2047Z" fill="#B5475A"/>
<path d="M76.4703 44.2642H73.5293V47.2052H76.4703V44.2642Z" fill="#77577A"/>
<path d="M76.4703 41.3228H73.5293V44.2638H76.4703V41.3228Z" fill="#77577A"/>
<path d="M76.4703 38.3814H73.5293V41.3224H76.4703V38.3814Z" fill="#FFF6F6"/>
<path d="M76.4703 35.441H73.5293V38.382H76.4703V35.441Z" fill="#FFF6F6"/>
<path d="M76.4703 32.4988H73.5293V35.4398H76.4703V32.4988Z" fill="#AC8098"/>
<path d="M76.4703 29.5572H73.5293V32.4982H76.4703V29.5572Z" fill="#77577A"/>
<path d="M76.4703 26.6166H73.5293V29.5576H76.4703V26.6166Z" fill="#E1BBC9"/>
<path d="M76.4703 23.6755H73.5293V26.6166H76.4703V23.6755Z" fill="#FFF6F6"/>
<path d="M76.4703 20.7339H73.5293V23.675H76.4703V20.7339Z" fill="#FFF6F6"/>
<path d="M79.4117 91.3228H76.4707V94.2638H79.4117V91.3228Z" fill="#502E59"/>
<path d="M79.4117 88.3814H76.4707V91.3232H79.4117V88.3814Z" fill="#77577A"/>
<path d="M79.4117 85.441H76.4707V88.382H79.4117V85.441Z" fill="#77577A"/>
<path d="M79.4117 82.4995H76.4707V85.4405H79.4117V82.4995Z" fill="#9D2C58"/>
<path d="M79.4117 79.5582H76.4707V82.4992H79.4117V79.5582Z" fill="#9D2C58"/>
<path d="M79.4117 76.6166H76.4707V79.5576H79.4117V76.6166Z" fill="#B5475A"/>
<path d="M79.4117 73.6755H76.4707V76.6165H79.4117V73.6755Z" fill="#B5475A"/>
<path d="M79.4117 70.7339H76.4707V73.675H79.4117V70.7339Z" fill="#B5475A"/>
<path d="M79.4117 67.7933H76.4707V70.7344H79.4117V67.7933Z" fill="#B5475A"/>
<path d="M79.4117 64.8522H76.4707V67.7933H79.4117V64.8522Z" fill="#B5475A"/>
<path d="M79.4117 61.9107H76.4707V64.8517H79.4117V61.9107Z" fill="#B5475A"/>
<path d="M79.4117 58.9693H76.4707V61.9103H79.4117V58.9693Z" fill="#E7636B"/>
<path d="M79.4117 56.0279H76.4707V58.9689H79.4117V56.0279Z" fill="#E7636B"/>
<path d="M79.4117 53.0875H76.4707V56.0285H79.4117V53.0875Z" fill="#F8B37E"/>
<path d="M79.4117 50.1461H76.4707V53.0878H79.4117V50.1461Z" fill="#E7636B"/>
<path d="M79.4117 47.2047H76.4707V50.1457H79.4117V47.2047Z" fill="#FFF6F6"/>
<path d="M79.4117 44.2642H76.4707V47.2052H79.4117V44.2642Z" fill="#FFF6F6"/>
<path d="M79.4117 41.3228H76.4707V44.2638H79.4117V41.3228Z" fill="#AC8098"/>
<path d="M79.4117 38.3814H76.4707V41.3224H79.4117V38.3814Z" fill="#AC8098"/>
<path d="M79.4117 35.441H76.4707V38.382H79.4117V35.441Z" fill="#AC8098"/>
<path d="M79.4117 32.4988H76.4707V35.4398H79.4117V32.4988Z" fill="#77577A"/>
<path d="M79.4117 29.5572H76.4707V32.4982H79.4117V29.5572Z" fill="#77577A"/>
<path d="M79.4117 26.6166H76.4707V29.5576H79.4117V26.6166Z" fill="#FFF6F6"/>
<path d="M79.4117 23.6755H76.4707V26.6166H79.4117V23.6755Z" fill="#FFF6F6"/>
<path d="M82.3531 88.3814H79.4121V91.3232H82.3531V88.3814Z" fill="#77577A"/>
<path d="M82.3531 85.441H79.4121V88.382H82.3531V85.441Z" fill="#77577A"/>
<path d="M82.3531 82.4996H79.4121V85.4406H82.3531V82.4996Z" fill="#6C184F"/>
<path d="M82.3531 79.5582H79.4121V82.4992H82.3531V79.5582Z" fill="#9D2C58"/>
<path d="M82.3531 76.6168H79.4121V79.5578H82.3531V76.6168Z" fill="#B5475A"/>
<path d="M82.3531 73.6754H79.4121V76.6164H82.3531V73.6754Z" fill="#B5475A"/>
<path d="M82.3531 70.7339H79.4121V73.675H82.3531V70.7339Z" fill="#B5475A"/>
<path d="M82.3531 67.7935H79.4121V70.7345H82.3531V67.7935Z" fill="#E7636B"/>
<path d="M82.3531 64.8521H79.4121V67.7931H82.3531V64.8521Z" fill="#B5475A"/>
<path d="M82.3531 61.9107H79.4121V64.8517H82.3531V61.9107Z" fill="#B5475A"/>
<path d="M82.3531 58.9693H79.4121V61.9103H82.3531V58.9693Z" fill="#B5475A"/>
<path d="M82.3531 56.0279H79.4121V58.9689H82.3531V56.0279Z" fill="#E7636B"/>
<path d="M82.3531 53.0875H79.4121V56.0285H82.3531V53.0875Z" fill="#E7636B"/>
<path d="M82.3531 50.1461H79.4121V53.0878H82.3531V50.1461Z" fill="#E7636B"/>
<path d="M82.3531 47.2047H79.4121V50.1457H82.3531V47.2047Z" fill="#FFF6F6"/>
<path d="M82.3531 44.2642H79.4121V47.2052H82.3531V44.2642Z" fill="#FFF6F6"/>
<path d="M82.3531 41.3228H79.4121V44.2638H82.3531V41.3228Z" fill="#AC8098"/>
<path d="M82.3531 38.3814H79.4121V41.3224H82.3531V38.3814Z" fill="#AC8098"/>
<path d="M82.3531 35.441H79.4121V38.382H82.3531V35.441Z" fill="#77577A"/>
<path d="M82.3531 32.4986H79.4121V35.4396H82.3531V32.4986Z" fill="#77577A"/>
<path d="M82.3531 29.5572H79.4121V32.4982H82.3531V29.5572Z" fill="#E1BBC9"/>
<path d="M82.3531 26.6168H79.4121V29.5578H82.3531V26.6168Z" fill="#FFF6F6"/>
<path d="M85.2945 88.3814H82.3535V91.3232H85.2945V88.3814Z" fill="#502E59"/>
<path d="M85.2945 85.441H82.3535V88.382H85.2945V85.441Z" fill="#77577A"/>
<path d="M85.2945 82.4995H82.3535V85.4405H85.2945V82.4995Z" fill="#77577A"/>
<path d="M85.2945 79.5582H82.3535V82.4992H85.2945V79.5582Z" fill="#9D2C58"/>
<path d="M85.2945 76.6166H82.3535V79.5576H85.2945V76.6166Z" fill="#9D2C58"/>
<path d="M85.2945 73.6755H82.3535V76.6165H85.2945V73.6755Z" fill="#B5475A"/>
<path d="M85.2945 70.7339H82.3535V73.675H85.2945V70.7339Z" fill="#B5475A"/>
<path d="M85.2945 67.7933H82.3535V70.7344H85.2945V67.7933Z" fill="#E7636B"/>
<path d="M85.2945 64.8522H82.3535V67.7933H85.2945V64.8522Z" fill="#E7636B"/>
<path d="M85.2945 61.9107H82.3535V64.8517H85.2945V61.9107Z" fill="#B5475A"/>
<path d="M85.2945 58.9693H82.3535V61.9103H85.2945V58.9693Z" fill="#B5475A"/>
<path d="M85.2945 56.0279H82.3535V58.9689H85.2945V56.0279Z" fill="#B5475A"/>
<path d="M85.2945 53.0875H82.3535V56.0285H85.2945V53.0875Z" fill="#E7636B"/>
<path d="M85.2945 50.1461H82.3535V53.0878H85.2945V50.1461Z" fill="#E7636B"/>
<path d="M85.2945 47.2047H82.3535V50.1457H85.2945V47.2047Z" fill="#E7636B"/>
<path d="M85.2945 44.2642H82.3535V47.2052H85.2945V44.2642Z" fill="#AC8098"/>
<path d="M85.2945 41.3228H82.3535V44.2638H85.2945V41.3228Z" fill="#AC8098"/>
<path d="M85.2945 38.3814H82.3535V41.3224H85.2945V38.3814Z" fill="#77577A"/>
<path d="M85.2945 35.441H82.3535V38.382H85.2945V35.441Z" fill="#77577A"/>
<path d="M85.2945 32.4988H82.3535V35.4398H85.2945V32.4988Z" fill="#E1BBC9"/>
<path d="M85.2945 29.5572H82.3535V32.4982H85.2945V29.5572Z" fill="#FFF6F6"/>
<path d="M85.2945 26.6166H82.3535V29.5576H85.2945V26.6166Z" fill="#FFF6F6"/>
<path d="M88.2359 85.441H85.2949V88.382H88.2359V85.441Z" fill="#77577A"/>
<path d="M88.2359 82.4996H85.2949V85.4406H88.2359V82.4996Z" fill="#77577A"/>
<path d="M88.2359 79.5582H85.2949V82.4992H88.2359V79.5582Z" fill="#77577A"/>
<path d="M88.2359 76.6168H85.2949V79.5578H88.2359V76.6168Z" fill="#6C184F"/>
<path d="M88.2359 73.6754H85.2949V76.6164H88.2359V73.6754Z" fill="#9D2C58"/>
<path d="M88.2359 70.7339H85.2949V73.675H88.2359V70.7339Z" fill="#B5475A"/>
<path d="M88.2359 67.7935H85.2949V70.7345H88.2359V67.7935Z" fill="#B5475A"/>
<path d="M88.2359 64.8521H85.2949V67.7931H88.2359V64.8521Z" fill="#B5475A"/>
<path d="M88.2359 61.9107H85.2949V64.8517H88.2359V61.9107Z" fill="#B5475A"/>
<path d="M88.2359 58.9693H85.2949V61.9103H88.2359V58.9693Z" fill="#B5475A"/>
<path d="M88.2359 56.0279H85.2949V58.9689H88.2359V56.0279Z" fill="#B5475A"/>
<path d="M88.2359 53.0875H85.2949V56.0285H88.2359V53.0875Z" fill="#B5475A"/>
<path d="M88.2359 50.1461H85.2949V53.0878H88.2359V50.1461Z" fill="#E7636B"/>
<path d="M88.2359 47.2047H85.2949V50.1457H88.2359V47.2047Z" fill="#E7636B"/>
<path d="M88.2359 44.2642H85.2949V47.2052H88.2359V44.2642Z" fill="#77577A"/>
<path d="M88.2359 41.3228H85.2949V44.2638H88.2359V41.3228Z" fill="#77577A"/>
<path d="M88.2359 38.3814H85.2949V41.3224H88.2359V38.3814Z" fill="#77577A"/>
<path d="M88.2359 35.441H85.2949V38.382H88.2359V35.441Z" fill="#E1BBC9"/>
<path d="M88.2359 32.4986H85.2949V35.4396H88.2359V32.4986Z" fill="#FFF6F6"/>
<path d="M88.2359 29.5572H85.2949V32.4982H88.2359V29.5572Z" fill="#FFF6F6"/>
<path d="M91.1773 82.4996H88.2363V85.4406H91.1773V82.4996Z" fill="#77577A"/>
<path d="M91.1773 79.5582H88.2363V82.4992H91.1773V79.5582Z" fill="#E1BBC9"/>
<path d="M91.1773 76.6168H88.2363V79.5578H91.1773V76.6168Z" fill="#E1BBC9"/>
<path d="M91.1773 73.6754H88.2363V76.6164H91.1773V73.6754Z" fill="#6C184F"/>
<path d="M91.1773 70.7339H88.2363V73.675H91.1773V70.7339Z" fill="#9D2C58"/>
<path d="M91.1773 67.7935H88.2363V70.7345H91.1773V67.7935Z" fill="#B5475A"/>
<path d="M91.1773 64.8521H88.2363V67.7931H91.1773V64.8521Z" fill="#B5475A"/>
<path d="M91.1773 61.9107H88.2363V64.8517H91.1773V61.9107Z" fill="#B5475A"/>
<path d="M91.1773 58.9693H88.2363V61.9103H91.1773V58.9693Z" fill="#B5475A"/>
<path d="M91.1773 56.0279H88.2363V58.9689H91.1773V56.0279Z" fill="#B5475A"/>
<path d="M91.1773 53.0875H88.2363V56.0285H91.1773V53.0875Z" fill="#B5475A"/>
<path d="M91.1773 50.1461H88.2363V53.0878H91.1773V50.1461Z" fill="#B5475A"/>
<path d="M91.1773 47.2047H88.2363V50.1457H91.1773V47.2047Z" fill="#B5475A"/>
<path d="M91.1773 44.2642H88.2363V47.2052H91.1773V44.2642Z" fill="#77577A"/>
<path d="M91.1773 41.3228H88.2363V44.2638H91.1773V41.3228Z" fill="#E1BBC9"/>
<path d="M91.1773 38.3814H88.2363V41.3224H91.1773V38.3814Z" fill="#FFF6F6"/>
<path d="M91.1773 35.441H88.2363V38.382H91.1773V35.441Z" fill="#FFF6F6"/>
<path d="M91.1773 32.4986H88.2363V35.4396H91.1773V32.4986Z" fill="#FFF6F6"/>
<path d="M94.1168 76.6166H91.1758V79.5576H94.1168V76.6166Z" fill="#E1BBC9"/>
<path d="M94.1168 73.6755H91.1758V76.6165H94.1168V73.6755Z" fill="#E1BBC9"/>
<path d="M94.1168 70.7339H91.1758V73.675H94.1168V70.7339Z" fill="#E1BBC9"/>
<path d="M94.1168 67.7933H91.1758V70.7344H94.1168V67.7933Z" fill="#6C184F"/>
<path d="M94.1168 64.8522H91.1758V67.7933H94.1168V64.8522Z" fill="#9D2C58"/>
<path d="M94.1168 61.9107H91.1758V64.8517H94.1168V61.9107Z" fill="#9D2C58"/>
<path d="M94.1168 58.9693H91.1758V61.9103H94.1168V58.9693Z" fill="#B5475A"/>
<path d="M94.1168 56.0279H91.1758V58.9689H94.1168V56.0279Z" fill="#B5475A"/>
<path d="M94.1168 53.0875H91.1758V56.0285H94.1168V53.0875Z" fill="#B5475A"/>
<path d="M94.1168 50.1461H91.1758V53.0878H94.1168V50.1461Z" fill="#9D2C58"/>
<path d="M94.1168 47.2047H91.1758V50.1457H94.1168V47.2047Z" fill="#E1BBC9"/>
<path d="M94.1168 44.2642H91.1758V47.2052H94.1168V44.2642Z" fill="#E1BBC9"/>
<path d="M94.1168 41.3228H91.1758V44.2638H94.1168V41.3228Z" fill="#FFF6F6"/>
<path d="M94.1168 38.3814H91.1758V41.3224H94.1168V38.3814Z" fill="#FFF6F6"/>
<path d="M97.059 73.6755H94.1172V76.6165H97.059V73.6755Z" fill="#E1BBC9"/>
<path d="M97.059 70.7339H94.1172V73.675H97.059V70.7339Z" fill="#E1BBC9"/>
<path d="M97.059 67.7933H94.1172V70.7344H97.059V67.7933Z" fill="#E1BBC9"/>
<path d="M97.059 64.8522H94.1172V67.7933H97.059V64.8522Z" fill="#E1BBC9"/>
<path d="M97.059 61.9107H94.1172V64.8517H97.059V61.9107Z" fill="#E1BBC9"/>
<path d="M97.059 58.9693H94.1172V61.9103H97.059V58.9693Z" fill="#E1BBC9"/>
<path d="M97.059 56.0279H94.1172V58.9689H97.059V56.0279Z" fill="#E1BBC9"/>
<path d="M97.059 53.0875H94.1172V56.0285H97.059V53.0875Z" fill="#E1BBC9"/>
<path d="M97.059 50.1461H94.1172V53.0878H97.059V50.1461Z" fill="#FFF6F6"/>
<path d="M97.059 47.2047H94.1172V50.1457H97.059V47.2047Z" fill="#FFF6F6"/>
<path d="M97.059 44.2642H94.1172V47.2052H97.059V44.2642Z" fill="#FFF6F6"/>
<path d="M97.059 41.3228H94.1172V44.2638H97.059V41.3228Z" fill="#FFF6F6"/>
<path d="M99.9996 64.8521H97.0586V67.7931H99.9996V64.8521Z" fill="#E1BBC9"/>
<path d="M99.9996 61.9107H97.0586V64.8517H99.9996V61.9107Z" fill="#E1BBC9"/>
<path d="M99.9996 58.9693H97.0586V61.9103H99.9996V58.9693Z" fill="#E1BBC9"/>
<path d="M99.9996 56.0279H97.0586V58.9689H99.9996V56.0279Z" fill="#FFF6F6"/>
<path d="M99.9996 53.0875H97.0586V56.0285H99.9996V53.0875Z" fill="#FFF6F6"/>
<path d="M99.9996 50.1461H97.0586V53.0878H99.9996V50.1461Z" fill="#FFF6F6"/>
</svg>
