<svg width="63" height="101" viewBox="0 0 63 101" fill="none" xmlns="http://www.w3.org/2000/svg">
<path d="M44.1643 18.8986H50.4128V12.6501H12.9219V18.8986H19.1703H44.1643Z" fill="#A8E5F0"/>
<path d="M12.9205 62.647H25.4175V56.3985H50.4115V37.6451H44.1629V31.3966H37.9145V25.1481H19.1689V37.6451H6.66406V62.647H12.9205ZM12.9205 43.8936H19.1689V56.3985H12.9205V43.8936Z" fill="#A8E5F0"/>
<path d="M50.4207 6.3941H12.9219V12.6426H50.4207V6.3941Z" fill="white"/>
<path d="M19.1703 31.3964H12.9219V37.6449H19.1703V31.3964Z" fill="white"/>
<path d="M19.1703 43.8929H12.9219V56.3899H19.1703V43.8929Z" fill="white"/>
<path d="M44.1641 87.6399V93.8963H56.6689V87.6399H50.4126H44.1641Z" fill="black"/>
<path d="M12.9126 31.3964H6.66406V37.6449H12.9126V31.3964Z" fill="black"/>
<path d="M50.4207 0.145874H12.9219V6.39437H50.4207V0.145874Z" fill="black"/>
<path d="M12.9205 6.3941H6.66406V18.899H12.9205V12.6505V6.3941Z" fill="black"/>
<path d="M19.1703 25.1483V18.8998H12.9219V31.3968H19.1703V25.1483Z" fill="black"/>
<path d="M56.6607 31.3964H50.4121V37.6449H56.6607V31.3964Z" fill="black"/>
<path d="M56.668 81.392V87.6405H62.9165V37.6446H56.668V56.398V81.392Z" fill="black"/>
<path d="M50.4126 18.8998H44.1641V31.3968H50.4126V18.8998Z" fill="black"/>
<path d="M50.4121 18.899H56.6684V6.3941H50.4121V12.6505V18.899Z" fill="black"/>
<path d="M6.66446 62.6465V37.6446H0.416016V87.6405H6.66446V81.392V62.6465Z" fill="black"/>
<path d="M12.9205 87.6399H6.66406V93.8963H19.1689V87.6399H12.9205Z" fill="black"/>
<path d="M44.1718 93.8973H19.1699V100.146H44.1718V93.8973Z" fill="black"/>
<path d="M56.6607 37.6446H50.4121V56.3901H56.6607V37.6446Z" fill="#62D2D6"/>
<path d="M50.4126 31.3964H44.1641V37.6449H50.4126V31.3964Z" fill="#62D2D6"/>
<path d="M19.1699 18.8999V25.1484H37.9155V31.3969H44.1639V18.8999H19.1699Z" fill="#62D2D6"/>
<path d="M44.1718 87.6399H19.1699V93.8884H44.1718V87.6399Z" fill="#425900"/>
<path d="M12.9126 81.3916H6.66406V87.6401H12.9126V81.3916Z" fill="#425900"/>
<path d="M56.6607 81.3916H50.4121V87.6401H56.6607V81.3916Z" fill="#425900"/>
<path d="M56.6607 56.3986H50.4121V81.4005H56.6607V56.3986Z" fill="#678C00"/>
<path d="M12.9126 62.6469H6.66406V81.3924H12.9126V62.6469Z" fill="#678C00"/>
<path d="M50.4126 81.3916H44.1641V87.6401H50.4126V81.3916Z" fill="#678C00"/>
<path d="M44.1625 62.6469H37.9141V68.8953H44.1625V62.6469Z" fill="#678C00"/>
<path d="M37.9146 75.1434H31.666V81.3919H37.9146V75.1434Z" fill="#678C00"/>
<path d="M19.1703 81.3916H12.9219V87.6401H19.1703V81.3916Z" fill="#678C00"/>
<path d="M25.4185 68.8951H19.1699V75.1436H25.4185V68.8951Z" fill="#678C00"/>
<path d="M50.4128 81.3926V56.3986H25.4189V62.6471H12.9219V81.3926H19.1703V87.6411H44.1643V81.3926H50.4128ZM25.4189 75.1441H19.1703V68.9114H25.4189V75.1441ZM37.9159 81.3926H31.6673V75.1441H37.9159V81.3926ZM37.9159 68.8956V62.6471H44.1643V68.9114L37.9159 68.8956Z" fill="#B0D838"/>
</svg>
