<svg width="101" height="115" viewBox="0 0 101 115" fill="none" xmlns="http://www.w3.org/2000/svg">
<path d="M28.9005 99.9998H14.6172V107.141H28.9005V99.9998Z" fill="#A8E5F0"/>
<path d="M86.0431 99.9998H71.7598V107.141H86.0431V99.9998Z" fill="#A8E5F0"/>
<path d="M86.0508 78.5758V85.7175V100.001H93.1923V78.5758H86.0508Z" fill="#A8E5F0"/>
<path d="M14.6162 85.7175V78.5758H7.47461V100.001H14.6162V85.7175Z" fill="#A8E5F0"/>
<path d="M57.4757 28.5747H64.6172V14.2915H36.0508V28.5747H43.1923H57.4757Z" fill="#683128"/>
<path d="M64.6262 7.14136H36.0508V14.283H64.6262V7.14136Z" fill="#935950"/>
<path d="M28.8996 57.1412H21.7578V64.2828H28.8996V57.1412Z" fill="white"/>
<path d="M21.7587 78.5763V71.4348V64.2931H14.6172V78.5763H21.7587Z" fill="white"/>
<path d="M43.1923 42.8586H36.0508V50.0002H43.1923V42.8586Z" fill="white"/>
<path d="M36.0419 49.9999H28.9004V57.1415H36.0419V49.9999Z" fill="white"/>
<path d="M28.9082 78.5763H36.05V71.4348V64.2931H28.9082V71.4348V78.5763Z" fill="white"/>
<path d="M78.9004 71.4348V78.5763H86.0512V64.2931H78.9004V71.4348Z" fill="white"/>
<path d="M71.7587 49.9999H64.6172V57.1415H71.7587V49.9999Z" fill="white"/>
<path d="M64.6162 42.8586H57.4746V50.0002H64.6162V42.8586Z" fill="white"/>
<path d="M36.0419 85.7171H28.9004V92.8587H36.0419V85.7171Z" fill="white"/>
<path d="M57.4767 28.5759H43.1934V42.8591H57.4767V28.5759Z" fill="white"/>
<path d="M78.9013 57.1412H71.7598V64.2828H78.9013V57.1412Z" fill="white"/>
<path d="M64.6262 0H36.0508V7.14161H64.6262V0Z" fill="black"/>
<path d="M93.1923 64.2931H86.0508V78.5763H93.1923V64.2931Z" fill="black"/>
<path d="M86.0422 57.1412H78.9004V64.2828H86.0422V57.1412Z" fill="black"/>
<path d="M7.47576 78.5758H0.333984V100.001H7.47576V78.5758Z" fill="black"/>
<path d="M78.9013 49.9999H71.7598V57.1415H78.9013V49.9999Z" fill="black"/>
<path d="M14.6162 64.2931H7.47461V78.5763H14.6162V64.2931Z" fill="black"/>
<path d="M14.6162 99.9998H7.47461V107.141H14.6162V99.9998Z" fill="black"/>
<path d="M43.1923 28.5759H36.0508V42.8591H43.1923V28.5759Z" fill="black"/>
<path d="M28.9093 107.141H14.6172V114.292H86.0514V107.141H71.7591H28.9093Z" fill="black"/>
<path d="M28.8996 49.9999H21.7578V57.1415H28.8996V49.9999Z" fill="black"/>
<path d="M36.0419 42.8586H28.9004V50.0002H36.0419V42.8586Z" fill="black"/>
<path d="M21.7587 57.1412H14.6172V64.2828H21.7587V57.1412Z" fill="black"/>
<path d="M100.333 78.5758H93.1914V100.001H100.333V78.5758Z" fill="black"/>
<path d="M64.6162 28.5759H57.4746V42.8591H64.6162V28.5759Z" fill="black"/>
<path d="M71.7587 42.8586H64.6172V50.0002H71.7587V42.8586Z" fill="black"/>
<path d="M64.6172 28.5752H71.7587V7.14136H64.6172V14.292V28.5752Z" fill="black"/>
<path d="M36.05 7.14136H28.9082V28.5752H36.05V14.292V7.14136Z" fill="black"/>
<path d="M93.1923 99.9998H86.0508V107.141H93.1923V99.9998Z" fill="black"/>
<path d="M43.1923 57.1412H36.0508V64.2828H43.1923V57.1412Z" fill="#B54BBD"/>
<path d="M43.1923 71.4344H36.0508V78.576H43.1923V71.4344Z" fill="#B54BBD"/>
<path d="M71.7588 78.5758H64.6172V85.7175H57.4757V92.859H43.1923V85.7175H36.0508V92.859V100.001H64.6172V92.859H78.9003V85.7175H71.7588V78.5758Z" fill="#B54BBD"/>
<path d="M57.4758 78.5758H50.334V85.7175H57.4758V78.5758Z" fill="#B54BBD"/>
<path d="M28.8996 85.7171H21.7578V92.8587H28.8996V85.7171Z" fill="#B54BBD"/>
<path d="M64.6162 71.4344H57.4746V78.576H64.6162V71.4344Z" fill="#B54BBD"/>
<path d="M50.3349 64.2931H43.1934V71.4348H50.3349V64.2931Z" fill="#B54BBD"/>
<path d="M57.4758 57.1412H50.334V64.2828H57.4758V57.1412Z" fill="#B54BBD"/>
<path d="M78.9013 71.4344H71.7598V78.576H78.9013V71.4344Z" fill="#B54BBD"/>
<path d="M86.0422 78.5758H78.9004V85.7175H86.0422V78.5758Z" fill="#B54BBD"/>
<path d="M21.7587 78.5758H14.6172V85.7175H21.7587V78.5758Z" fill="#B54BBD"/>
<path d="M28.8996 71.4344H21.7578V78.576H28.8996V71.4344Z" fill="#B54BBD"/>
<path d="M64.6162 78.5758H57.4746V85.7175H64.6162V78.5758Z" fill="#F690FE"/>
<path d="M78.9013 78.5758H71.7598V85.7175H78.9013V78.5758Z" fill="#F690FE"/>
<path d="M43.1923 64.2931H36.0508V71.4348H43.1923V64.2931Z" fill="#F690FE"/>
<path d="M28.9084 85.7174H36.0502H43.1917V92.8589H57.475V85.7174H50.3333V78.5757H57.475V71.4341H64.6166V78.5757H71.7581V71.4341H78.8997V64.2925H71.7581V57.1419H64.6166V50.0002H57.475V42.8586H43.1917V50.0002H36.0502V57.1419H43.1917V64.2925H50.3333V57.1419H57.475V64.2925H50.3333V71.4341H43.1917V78.5757H36.0502H28.9084H21.7578V85.7174H28.9084Z" fill="#F690FE"/>
<path d="M28.8996 64.2931H21.7578V71.4348H28.8996V64.2931Z" fill="#F690FE"/>
<path d="M36.0419 57.1412H28.9004V64.2828H36.0419V57.1412Z" fill="#F690FE"/>
<path d="M78.9006 92.8587H64.6175V100H36.0511V92.8587H28.9093H21.7587V85.7171H14.6172V100H28.9093V107.142H71.7591V100H86.0514V85.7171H78.9006V92.8587Z" fill="#8B358E"/>
</svg>
