<svg width="82" height="101" viewBox="0 0 82 101" fill="none" xmlns="http://www.w3.org/2000/svg">
<path d="M62.8731 81.3991V68.8932H56.6242V75.1502H50.3751V68.8932H37.877V62.6442H31.628V75.1502H25.379V56.3952V50.1462H19.122V56.3952H12.873V68.8932V81.3991H19.122V87.6482H56.6242V81.3991H62.8731Z" fill="#FCC129"/>
<path d="M62.872 25.1418H56.623V31.3908H62.872V25.1418Z" fill="#FCC129"/>
<path d="M75.377 12.6439H81.6261V6.39495H75.377V0.145874H69.1281V6.39495H62.8711V12.6439H69.1281V18.893H75.377V12.6439Z" fill="#FCC129"/>
<path d="M12.8711 37.648V31.3911H19.1201V25.1421H12.8711V18.893H6.62202V25.1421H0.373047V31.3911H6.62202V37.648H12.8711Z" fill="#FCC129"/>
<path d="M19.122 81.3986H12.873V87.6476H19.122V81.3986Z" fill="#A8E5F0"/>
<path d="M56.6232 87.6481H19.1211V93.8971H56.6232V87.6481Z" fill="#A8E5F0"/>
<path d="M12.8721 68.8932H6.62305V81.3914H12.8721V68.8932Z" fill="#A8E5F0"/>
<path d="M62.8711 62.644V68.893V81.3989H69.1281V56.395H62.8711V62.644Z" fill="#A8E5F0"/>
<path d="M62.872 81.3986H56.623V87.6476H62.872V81.3986Z" fill="#A8E5F0"/>
<path d="M37.8741 18.893H31.625V25.1421H37.8741V18.893Z" fill="#FF8B73"/>
<path d="M37.8741 6.39465H31.625V12.6436H37.8741V6.39465Z" fill="#FF8B73"/>
<path d="M44.126 6.39465H37.877V12.6436H44.126V6.39465Z" fill="#683128"/>
<path d="M44.126 18.893H37.877V25.1421H44.126V18.893Z" fill="#683128"/>
<path d="M44.1231 25.1418H37.8741H31.625V37.6477H44.1231V25.1418Z" fill="white"/>
<path d="M25.3702 43.8966H19.1211V50.1457H25.3702V43.8966Z" fill="white"/>
<path d="M19.122 50.1462H12.873V56.3952H19.122V50.1462Z" fill="white"/>
<path d="M31.6182 37.6478H25.3691V43.8968H31.6182V37.6478Z" fill="white"/>
<path d="M12.8721 56.395H6.62305V68.893H12.8721V56.395Z" fill="white"/>
<path d="M62.872 50.1462H56.623V56.3952H62.872V50.1462Z" fill="white"/>
<path d="M25.377 56.395V75.15H31.6259V62.644V56.395H25.377Z" fill="white"/>
<path d="M37.875 18.8925H44.1241H50.3731V12.6434H44.1241H37.875H31.6259H25.377V18.8925H31.6259H37.875Z" fill="white"/>
<path d="M56.6221 43.8966H50.373V50.1457H56.6221V43.8966Z" fill="white"/>
<path d="M37.8741 50.1462H31.625V56.3952H37.8741V50.1462Z" fill="white"/>
<path d="M50.374 37.6478H44.125V43.8968H50.374V37.6478Z" fill="white"/>
<path d="M31.6182 50.1462H25.3691V56.3952H31.6182V50.1462Z" fill="black"/>
<path d="M31.625 56.395V62.644H37.8741H62.8702V56.395H56.6212H37.8741H31.625Z" fill="black"/>
<path d="M62.872 87.6481H56.623V93.8971H62.872V87.6481Z" fill="black"/>
<path d="M56.6221 12.6434H50.373V18.8925H56.6221V12.6434Z" fill="black"/>
<path d="M75.3779 56.395H69.1289V81.3989H75.3779V56.395Z" fill="black"/>
<path d="M25.3702 12.6434H19.1211V18.8925H25.3702V12.6434Z" fill="black"/>
<path d="M12.8721 50.1462H6.62305V56.3952H12.8721V50.1462Z" fill="black"/>
<path d="M19.122 43.8966H12.873V50.1457H19.122V43.8966Z" fill="black"/>
<path d="M25.3702 37.6478H19.1211V43.8968H25.3702V37.6478Z" fill="black"/>
<path d="M12.8721 81.3986H6.62305V87.6476H12.8721V81.3986Z" fill="black"/>
<path d="M19.122 87.6481H12.873V93.8971H19.122V87.6481Z" fill="black"/>
<path d="M6.62202 56.395H0.373047V81.3989H6.62202V68.893V56.395Z" fill="black"/>
<path d="M31.6182 6.39465H25.3691V12.6436H31.6182V6.39465Z" fill="black"/>
<path d="M31.6259 25.1421V18.893H25.377V37.648H31.6259V25.1421Z" fill="black"/>
<path d="M44.1231 6.39495V0.145874H31.625V6.39495H37.8741H44.1231Z" fill="black"/>
<path d="M56.6232 93.8969H19.1211V100.146H56.6232V93.8969Z" fill="black"/>
<path d="M69.1202 81.3986H62.8711V87.6476H69.1202V81.3986Z" fill="black"/>
<path d="M44.125 25.1421V37.648H50.374V18.893H44.125V25.1421Z" fill="black"/>
<path d="M50.374 6.39465H44.125V12.6436H50.374V6.39465Z" fill="black"/>
<path d="M56.6221 37.6478H50.373V43.8968H56.6221V37.6478Z" fill="black"/>
<path d="M69.1202 50.1462H62.8711V56.3952H69.1202V50.1462Z" fill="black"/>
<path d="M62.872 43.8966H56.623V50.1457H62.872V43.8966Z" fill="black"/>
<path d="M37.875 50.1459V56.3949H56.6221V50.1459H50.3731V43.8968H44.1241V37.6478H31.6259V43.8968H25.377V50.1459H31.6259H37.875Z" fill="#465678"/>
<path d="M37.877 68.8935H50.375V75.1505H56.6241V68.8935H62.8731V62.6445H37.877V68.8935Z" fill="#C9612E"/>
</svg>
