<svg width="38" height="101" viewBox="0 0 38 101" fill="none" xmlns="http://www.w3.org/2000/svg">
<path d="M25.2528 19.0457H19.0039V25.2947V31.5437H12.747V56.5475H6.49805V62.7964H19.0039V56.5475H25.2528V50.2906H31.5018V31.5437H25.2528V19.0457Z" fill="#A8E5F0"/>
<path d="M19.0049 25.2944H12.7559V31.5434H19.0049V25.2944Z" fill="white"/>
<path d="M31.5018 6.54053H6.49805V12.7895H31.5018V6.54053Z" fill="white"/>
<path d="M12.747 31.5447H6.49805V56.5485H12.747V31.5447Z" fill="white"/>
<path d="M31.5038 0.291809H6.5V6.54081H31.5038V0.291809Z" fill="black"/>
<path d="M6.49902 75.2954V62.7975V56.5485V31.5447H0.25V87.7934H6.49902V81.5444V75.2954Z" fill="black"/>
<path d="M31.502 19.0464H37.7509V6.54053H31.502V12.7974V19.0464Z" fill="black"/>
<path d="M31.502 56.5485V62.7975V75.2954V81.5444V87.7934H37.7509V31.5447H31.502V50.2916V56.5485Z" fill="black"/>
<path d="M31.5029 19.0457H25.2539V31.5437H31.5029V19.0457Z" fill="black"/>
<path d="M12.747 87.7941H6.49805V94.043H12.747V87.7941Z" fill="black"/>
<path d="M31.5029 87.7941H25.2539V94.043H31.5029V87.7941Z" fill="black"/>
<path d="M6.49902 6.54053H0.25V19.0464H6.49902V12.7974V6.54053Z" fill="black"/>
<path d="M12.747 25.2947V19.0457H6.49805V31.5437H12.747V25.2947Z" fill="black"/>
<path d="M25.2538 94.0428H12.7559V100.292H25.2538V94.0428Z" fill="black"/>
<path d="M6.49805 12.797V19.046H12.747V25.295H19.0039V19.046H25.2528H31.5018V12.797H6.49805Z" fill="#62D2D6"/>
<path d="M12.747 75.295H6.49805V81.544H12.747V75.295Z" fill="#2A97BE"/>
<path d="M31.5029 75.295H25.2539V81.544H31.5029V75.295Z" fill="#2A97BE"/>
<path d="M31.5029 56.5474H25.2539V62.7963H31.5029V56.5474Z" fill="#2A97BE"/>
<path d="M25.2538 81.5438H12.7559V87.7928H25.2538V81.5438Z" fill="#2A97BE"/>
<path d="M19.0049 69.0463H12.7559V75.2953H19.0049V69.0463Z" fill="#2A97BE"/>
<path d="M12.747 75.2943V69.0453H19.0039V75.2943H12.747V81.5433H25.2528V75.2943H31.5018V62.7963H25.2528V56.5474H19.0039V62.7963H6.49805V75.2943H12.747Z" fill="#6BD5ED"/>
<path d="M31.5029 50.2909H25.2539V56.5399H31.5029V50.2909Z" fill="#6BD5ED"/>
<path d="M31.5029 81.5438H25.2539V87.7928H31.5029V81.5438Z" fill="#0E5B75"/>
<path d="M25.2538 87.7941H12.7559V94.043H25.2538V87.7941Z" fill="#0E5B75"/>
<path d="M12.747 81.5438H6.49805V87.7928H12.747V81.5438Z" fill="#0E5B75"/>
</svg>
