<svg width="76" height="101" viewBox="0 0 76 101" fill="none" xmlns="http://www.w3.org/2000/svg">
<path d="M62.6684 87.787H56.4199V94.0355H62.6684V87.787Z" fill="#A8E5F0"/>
<path d="M56.4107 56.5453H50.1621V62.7939H56.4107V56.5453Z" fill="#A8E5F0"/>
<path d="M12.6706 81.5391V75.2906V69.042H6.41406V87.7878H12.6706V81.5391Z" fill="#A8E5F0"/>
<path d="M62.668 81.5391V87.7878H68.9166V69.042H62.668V81.5391Z" fill="#A8E5F0"/>
<path d="M18.9106 87.787H12.6621V94.0355H18.9106V87.787Z" fill="#A8E5F0"/>
<path d="M50.1626 50.2877H43.9141V56.5362H50.1626V50.2877Z" fill="#A8E5F0"/>
<path d="M43.9146 19.046H37.666V50.2967H43.9146V19.046Z" fill="#A8E5F0"/>
<path d="M25.1685 56.5453H18.9199V62.7939H25.1685V56.5453Z" fill="#A8E5F0"/>
<path d="M50.1626 6.54016H43.9141V19.0374H50.1626V6.54016Z" fill="#A8E5F0"/>
<path d="M18.9106 62.7936H12.6621V69.0422H18.9106V62.7936Z" fill="#A8E5F0"/>
<path d="M56.4194 87.787H18.9199V94.0355H56.4194V87.787Z" fill="white"/>
<path d="M43.9137 56.5446V50.2882H37.6651V19.0452H43.9137V6.54016H25.168V19.0452H31.4165V50.2882H25.168V56.5446H43.9137Z" fill="white"/>
<path d="M31.4165 75.2908V69.0422H37.6651V62.7936H25.168V75.2908H31.4165Z" fill="white"/>
<path d="M18.9106 81.5386H12.6621V87.7873H18.9106V81.5386Z" fill="white"/>
<path d="M62.6684 81.5386H56.4199V87.7873H62.6684V81.5386Z" fill="white"/>
<path d="M68.9166 87.787H62.668V94.0355H68.9166V87.787Z" fill="black"/>
<path d="M68.9166 62.7936H62.668V69.0422H68.9166V62.7936Z" fill="black"/>
<path d="M50.1626 19.046H43.9141V50.2967H50.1626V19.046Z" fill="black"/>
<path d="M56.4107 50.2877H50.1621V56.5362H56.4107V50.2877Z" fill="black"/>
<path d="M62.6684 56.5453H56.4199V62.7939H62.6684V56.5453Z" fill="black"/>
<path d="M50.1623 6.54038V0.291809H25.168V6.54038H43.9137H50.1623Z" fill="black"/>
<path d="M6.41454 69.042H0.166016V87.7878H6.41454V69.042Z" fill="black"/>
<path d="M25.1685 6.54016H18.9199V19.0374H25.1685V6.54016Z" fill="black"/>
<path d="M75.1645 69.042H68.916V87.7878H75.1645V69.042Z" fill="black"/>
<path d="M56.4107 6.54016H50.1621V19.0374H56.4107V6.54016Z" fill="black"/>
<path d="M18.9106 56.5453H12.6621V62.7939H18.9106V56.5453Z" fill="black"/>
<path d="M25.1685 50.2877H18.9199V56.5362H25.1685V50.2877Z" fill="black"/>
<path d="M31.4165 19.046H25.168V50.2967H31.4165V19.046Z" fill="black"/>
<path d="M12.6627 62.7936H6.41406V69.0422H12.6627V62.7936Z" fill="black"/>
<path d="M62.6664 94.0353H56.4179H18.9184H12.6699V100.292H62.6664V94.0353Z" fill="black"/>
<path d="M12.6627 87.787H6.41406V94.0355H12.6627V87.787Z" fill="black"/>
<path d="M56.4179 81.5391V69.042H50.1614V75.2906H31.4156H25.1671H12.6699V81.5391H18.9184H56.4179Z" fill="#B54BBD"/>
<path d="M25.1671 62.7936H18.9184V69.0422H12.6699V75.2908H25.1671V62.7936Z" fill="#F690FE"/>
<path d="M37.6651 69.0424H31.4165V75.2911H50.1623V69.0424H56.4188V62.7939H50.1623V56.5453H43.9137H25.168V62.7939H37.6651V69.0424Z" fill="#F690FE"/>
<path d="M56.4194 81.5386H18.9199V87.7873H56.4194V81.5386Z" fill="#8B358E"/>
<path d="M62.6684 69.042H56.4199V81.5391H62.6684V69.042Z" fill="#8B358E"/>
</svg>
