<svg width="89" height="101" viewBox="0 0 89 101" fill="none" xmlns="http://www.w3.org/2000/svg">
<path d="M69.3368 19.0457H63.0879V25.2947H69.3368V19.0457Z" fill="#A8E5F0"/>
<path d="M63.0878 12.797H25.5859V19.046H63.0878V12.797Z" fill="#A8E5F0"/>
<path d="M25.5868 19.0457H19.3379V25.2947H25.5868V19.0457Z" fill="#A8E5F0"/>
<path d="M75.5859 44.0426V62.7975H81.8349V31.5447H75.5859V44.0426Z" fill="#A8E5F0"/>
<path d="M19.3369 25.2944H13.0879V31.5434H19.3369V25.2944Z" fill="#A8E5F0"/>
<path d="M13.079 62.7975V44.0426V31.5447H6.83008V62.7975H13.079Z" fill="#A8E5F0"/>
<path d="M75.585 25.2944H69.3359V31.5434H75.585V25.2944Z" fill="#A8E5F0"/>
<path d="M69.3367 56.548H63.0878V44.0422H25.5859V69.046H31.835V75.295H63.0878V62.797H69.3367H75.5857V44.0422H69.3367V56.548Z" fill="#F24C30"/>
<path d="M19.337 81.5439V87.7929H69.3367V81.5439H25.5859V75.295H19.337V44.0422H13.0801V62.797V81.5439H19.337Z" fill="#AC141D"/>
<path d="M63.0878 6.54053H25.5859V12.7895H63.0878V6.54053Z" fill="#683128"/>
<path d="M69.3368 56.5483V44.0425V37.7935H63.0879V44.0425V56.5483H69.3368Z" fill="white"/>
<path d="M63.0889 31.5447H56.8398V37.7937H63.0889V31.5447Z" fill="white"/>
<path d="M69.3368 62.7976H63.0879V75.2956H69.3368V62.7976Z" fill="white"/>
<path d="M75.5856 94.0428H13.0879V100.292H75.5856V94.0428Z" fill="black"/>
<path d="M63.0878 0.291809H25.5859V6.54081H63.0878V0.291809Z" fill="black"/>
<path d="M13.079 81.5438H6.83008V94.0418H13.079V81.5438Z" fill="black"/>
<path d="M0.582031 81.5444H6.83105V62.7975V31.5447H0.582031V81.5444Z" fill="black"/>
<path d="M81.8349 25.2944H75.5859V31.5434H81.8349V25.2944Z" fill="black"/>
<path d="M75.585 19.0457H69.3359V25.2947H75.585V19.0457Z" fill="black"/>
<path d="M81.8349 81.5438H75.5859V94.0418H81.8349V81.5438Z" fill="black"/>
<path d="M81.8359 81.5444H88.085V31.5447H81.8359V62.7975V81.5444Z" fill="black"/>
<path d="M19.3369 19.0457H13.0879V25.2947H19.3369V19.0457Z" fill="black"/>
<path d="M13.079 25.2944H6.83008V31.5434H13.079V25.2944Z" fill="black"/>
<path d="M25.5868 12.7974V6.54053H19.3379V19.0464H25.5868V12.7974Z" fill="black"/>
<path d="M63.0879 19.0464H69.3368V6.54053H63.0879V12.7974V19.0464Z" fill="black"/>
<path d="M81.8349 62.7976H75.5859V81.5446H81.8349V62.7976Z" fill="#62D2D6"/>
<path d="M69.3367 81.5438V87.7928H19.337V81.5438H13.0801V94.0418H75.5857V81.5438H69.3367Z" fill="#62D2D6"/>
<path d="M25.5859 44.0416H63.0877V37.7926H56.8308V31.5437H63.0877V37.7926H69.3367V44.0416H75.5857V31.5437H69.3367V25.2947H63.0877V19.0457H25.5859V25.2947H19.337V31.5437H13.0801V44.0416H19.337H25.5859Z" fill="#6BD5ED"/>
<path d="M13.079 62.7976H6.83008V81.5446H13.079V62.7976Z" fill="#62D2D6"/>
<path d="M69.3376 75.295H63.0886H31.8358V69.046H25.5868V44.0422H19.3379V75.295H25.5868V81.5439H69.3376H75.5866V62.797H69.3376V75.295Z" fill="#C40808"/>
</svg>
