<svg width="82" height="101" viewBox="0 0 82 101" fill="none" xmlns="http://www.w3.org/2000/svg">
<path d="M62.8789 62.7932V69.0418V81.5388H69.1275V56.5448H62.8789V62.7932Z" fill="#A8E5F0"/>
<path d="M62.8775 81.5378H56.6289V87.7862H62.8775V81.5378Z" fill="#A8E5F0"/>
<path d="M56.6297 87.7861H19.1309V94.0346H56.6297V87.7861Z" fill="#A8E5F0"/>
<path d="M12.8735 69.0413H6.625V81.5383H12.8735V69.0413Z" fill="#A8E5F0"/>
<path d="M19.1313 81.5378H12.8828V87.7862H19.1313V81.5378Z" fill="#A8E5F0"/>
<path d="M37.8755 6.54797H31.627V12.7965H37.8755V6.54797Z" fill="#FF8B73"/>
<path d="M37.8755 19.046H31.627V25.2946H37.8755V19.046Z" fill="#FF8B73"/>
<path d="M44.1234 19.046H37.875V25.2946H44.1234V19.046Z" fill="#683128"/>
<path d="M44.1234 6.54797H37.875V12.7965H44.1234V6.54797Z" fill="#683128"/>
<path d="M44.1239 25.2943H37.8755H31.627V37.7912H44.1239V25.2943Z" fill="white"/>
<path d="M37.8755 50.2965H31.627V56.5451H37.8755V50.2965Z" fill="white"/>
<path d="M25.3789 56.5448V75.2902H31.6274V62.7932V56.5448H25.3789Z" fill="white"/>
<path d="M50.3716 37.7908H44.123V44.0393H50.3716V37.7908Z" fill="white"/>
<path d="M56.6216 44.039H50.373V50.2875H56.6216V44.039Z" fill="white"/>
<path d="M62.8775 50.2965H56.6289V56.5451H62.8775V50.2965Z" fill="white"/>
<path d="M19.1313 50.2965H12.8828V56.5451H19.1313V50.2965Z" fill="white"/>
<path d="M31.6274 37.7908H25.3789V44.0393H31.6274V37.7908Z" fill="white"/>
<path d="M25.3794 44.039H19.1309V50.2875H25.3794V44.039Z" fill="white"/>
<path d="M37.8759 19.0462H44.1243H50.3729V12.7977H44.1243H37.8759H31.6274H25.3789V19.0462H31.6274H37.8759Z" fill="white"/>
<path d="M12.8735 56.5448H6.625V69.0418H12.8735V56.5448Z" fill="white"/>
<path d="M31.627 56.5448V62.7932H37.8755H62.8774V56.5448H56.6288H37.8755H31.627Z" fill="black"/>
<path d="M31.6274 50.2965H25.3789V56.5451H31.6274V50.2965Z" fill="black"/>
<path d="M12.8735 81.5378H6.625V87.7862H12.8735V81.5378Z" fill="black"/>
<path d="M19.1313 87.7861H12.8828V94.0346H19.1313V87.7861Z" fill="black"/>
<path d="M25.3794 12.7977H19.1309V19.0462H25.3794V12.7977Z" fill="black"/>
<path d="M62.8775 87.7861H56.6289V94.0346H62.8775V87.7861Z" fill="black"/>
<path d="M56.6297 94.0435H19.1309V100.292H56.6297V94.0435Z" fill="black"/>
<path d="M56.6216 12.7977H50.373V19.0462H56.6216V12.7977Z" fill="black"/>
<path d="M75.3754 56.5448H69.127V81.5467H75.3754V56.5448Z" fill="black"/>
<path d="M12.8735 50.2965H6.625V56.5451H12.8735V50.2965Z" fill="black"/>
<path d="M31.6274 25.2946V19.046H25.3789V37.7916H31.6274V25.2946Z" fill="black"/>
<path d="M44.1239 6.54833V0.291992H31.627V6.54833H37.8755H44.1239Z" fill="black"/>
<path d="M31.6274 6.54797H25.3789V12.7965H31.6274V6.54797Z" fill="black"/>
<path d="M6.6254 69.0418V56.5448H0.376953V81.5388H6.6254V69.0418Z" fill="black"/>
<path d="M19.1313 44.039H12.8828V50.2875H19.1313V44.039Z" fill="black"/>
<path d="M69.1275 81.5378H62.8789V87.7862H69.1275V81.5378Z" fill="black"/>
<path d="M62.8775 44.039H56.6289V50.2875H62.8775V44.039Z" fill="black"/>
<path d="M50.3716 6.54797H44.123V12.7965H50.3716V6.54797Z" fill="black"/>
<path d="M69.1275 50.2965H62.8789V56.5451H69.1275V50.2965Z" fill="black"/>
<path d="M56.6216 37.7908H50.373V44.0393H56.6216V37.7908Z" fill="black"/>
<path d="M44.123 25.2946V37.7916H50.3716V19.046H44.123V25.2946Z" fill="black"/>
<path d="M25.3794 37.7908H19.1309V44.0393H25.3794V37.7908Z" fill="black"/>
<path d="M37.875 69.0416H50.372V75.29H56.6283V69.0416H62.8769V62.793H37.875V69.0416Z" fill="#425900"/>
<path d="M12.8818 37.7916V31.543H19.1303V25.2946H12.8818V19.046H6.6254V25.2946H0.376953V31.543H6.6254V37.7916H12.8818Z" fill="#B0D838"/>
<path d="M62.8775 25.2943H56.6289V31.5427H62.8775V25.2943Z" fill="#B0D838"/>
<path d="M19.1313 81.539V87.7875H56.6301V81.539H62.8787V69.042H56.6301V75.2905H50.3738V69.042H37.8768V62.7935H31.6283V75.2905H25.3798V56.5451V50.2965H19.1313V56.5451H12.8828V69.042V81.539H19.1313Z" fill="#B0D838"/>
<path d="M75.3759 19.0453V12.7969H81.6244V6.54833H75.3759V0.291992H69.1275V6.54833H62.8789V12.7969H69.1275V19.0453H75.3759Z" fill="#B0D838"/>
<path d="M37.8759 50.2957V56.5442H56.6292V50.2957H50.3729V44.0393H44.1243V37.7908H31.6274V44.0393H25.3789V50.2957H31.6274H37.8759Z" fill="#465678"/>
</svg>
