<svg width="989" height="56" viewBox="0 0 989 56" fill="none" xmlns="http://www.w3.org/2000/svg">
<path d="M987 4H4V54H987V4Z" fill="#3F4961"/>
<path d="M4 4H2V54H4V4Z" fill="#8B98B8"/>
<path d="M2 4H0V56H2V4Z" fill="#A9ACB8"/>
<path d="M94 52H90V54H94V52Z" fill="#8B98B8"/>
<path d="M108 52H98V54H108V52Z" fill="#8B98B8"/>
<path d="M198 52H196V54H198V52Z" fill="#8B98B8"/>
<path d="M987 54V4H985V54H987Z" fill="#8B98B8"/>
<path d="M987 54H2V56H987V54Z" fill="#8B98B8"/>
<path d="M989 4H987V56H989V4Z" fill="#A9ACB8"/>
<path d="M4 2H2V4H4L4 2Z" fill="#A9ACB8"/>
<path d="M987 2H985V4H987V2Z" fill="#A9ACB8"/>
<path d="M190 4H182V6H190V4Z" fill="#8B98B8"/>
<path d="M975 2H967V4H975V2Z" fill="#A9ACB8"/>
<path d="M967 2H961V4H967V2Z" fill="#8B98B8"/>
<path d="M967 0H961V2H967V0Z" fill="#A9ACB8"/>
<path d="M961 4H959V6H961V4Z" fill="#8B98B8"/>
<path d="M961 2H959V4H961V2Z" fill="#A9ACB8"/>
<path d="M959 6H957V8H959V6Z" fill="#8B98B8"/>
<path d="M959 4H957V6H959V4Z" fill="#A9ACB8"/>
<path d="M957 4H955V6H957V4Z" fill="#8B98B8"/>
<path d="M957 2H955V4H957V2Z" fill="#A9ACB8"/>
<path d="M985 2H975V4H985V2Z" fill="#8B98B8"/>
<path d="M985 0H975V2H985V0Z" fill="#A9ACB8"/>
<path d="M955 2H4L4 4H955V2Z" fill="#8B98B8"/>
<path d="M955 0H4V2H955V0Z" fill="#A9ACB8"/>
</svg>
