<svg width="163" height="56" viewBox="0 0 163 56" fill="none" xmlns="http://www.w3.org/2000/svg">
<g id="Group 1171276107">
<g id="Group 1171276070">
<path id="Vector" d="M15.0845 0H10.0557V3.50085H15.0845V0Z" fill="#55162B"/>
<path id="Vector_2" d="M20.1128 0H15.084V3.50085H20.1128V0Z" fill="#55162B"/>
<path id="Vector_3" d="M25.1419 -7.62939e-06H20.113V3.50084H25.1419V-7.62939e-06Z" fill="#55162B"/>
<path id="Vector_4" d="M30.1685 -7.62939e-06H25.1396V3.50084H30.1685V-7.62939e-06Z" fill="#55162B"/>
<path id="Vector_5" d="M35.1978 0H30.1689V3.50085H35.1978V0Z" fill="#55162B"/>
<path id="Vector_6" d="M40.2239 0H35.1951V3.50085H40.2239V0Z" fill="#55162B"/>
<path id="Vector_7" d="M45.2525 -7.62939e-06H40.2236V3.50084H45.2525V-7.62939e-06Z" fill="#55162B"/>
<path id="Vector_8" d="M50.2789 -7.62939e-06H45.25V3.50084H50.2789V-7.62939e-06Z" fill="#55162B"/>
<path id="Vector_9" d="M55.3079 0H50.2791V3.50085H55.3079V0Z" fill="#55162B"/>
<path id="Vector_10" d="M60.3335 0H55.3047V3.50085H60.3335V0Z" fill="#55162B"/>
<path id="Vector_11" d="M146.604 0H60.0547V4H146.604V0Z" fill="#55162B"/>
<path id="Vector_12" d="M10.0579 3.49913H5.02905V6.99998H10.0579V3.49913Z" fill="#55162B"/>
<path id="Vector_13" d="M15.0845 3.49913H10.0557V6.99998H15.0845V3.49913Z" fill="#993328"/>
<path id="Vector_14" d="M20.1128 3.49913H15.084V6.99998H20.1128V3.49913Z" fill="#993328"/>
<path id="Vector_15" d="M25.1419 3.49915H20.113V7.00001H25.1419V3.49915Z" fill="#993328"/>
<path id="Vector_16" d="M30.1685 3.49915H25.1396V7.00001H30.1685V3.49915Z" fill="#993328"/>
<path id="Vector_17" d="M35.1978 3.49915H30.1689V7H35.1978V3.49915Z" fill="#993328"/>
<path id="Vector_18" d="M40.2239 3.49913H35.1951V6.99998H40.2239V3.49913Z" fill="#993328"/>
<path id="Vector_19" d="M45.2525 3.49915H40.2236V7.00001H45.2525V3.49915Z" fill="#993328"/>
<path id="Vector_20" d="M50.2789 3.49915H45.25V7.00001H50.2789V3.49915Z" fill="#993328"/>
<path id="Vector_21" d="M55.3079 3.49913H50.2791V6.99998H55.3079V3.49913Z" fill="#993328"/>
<path id="Vector_22" d="M60.3335 3.49915H55.3047V7H60.3335V3.49915Z" fill="#993328"/>
<path id="Vector_23" d="M146.604 3H60.0547V7H146.604V3Z" fill="#993328"/>
<path id="Vector_24" d="M5.02886 6.99999H0V10.5008H5.02886V6.99999Z" fill="#55162B"/>
<path id="Vector_25" d="M10.0579 6.99998H5.02905V10.5008H10.0579V6.99998Z" fill="#993328"/>
<path id="Vector_26" d="M15.0845 6.99998H10.0557V10.5008H15.0845V6.99998Z" fill="#993328"/>
<path id="Vector_27" d="M20.1128 6.99998H15.084V10.5008H20.1128V6.99998Z" fill="#FAF1D4"/>
<path id="Vector_28" d="M25.1419 6.99998H20.113V10.5008H25.1419V6.99998Z" fill="#FAF1D4"/>
<path id="Vector_29" d="M30.1685 6.99998H25.1396V10.5008H30.1685V6.99998Z" fill="#FAF1D4"/>
<path id="Vector_30" d="M35.1978 7H30.1689V10.5009H35.1978V7Z" fill="#EBC24F"/>
<path id="Vector_31" d="M40.2239 6.99998H35.1951V10.5008H40.2239V6.99998Z" fill="#EBC24F"/>
<path id="Vector_32" d="M45.2525 6.99998H40.2236V10.5008H45.2525V6.99998Z" fill="#FAF1D4"/>
<path id="Vector_33" d="M50.2789 6.99998H45.25V10.5008H50.2789V6.99998Z" fill="#EBC24F"/>
<path id="Vector_34" d="M55.3079 6.99998H50.2791V10.5008H55.3079V6.99998Z" fill="#EBC24F"/>
<path id="Vector_35" d="M60.3335 7H55.3047V10.5009H60.3335V7Z" fill="#EBC24F"/>
<path id="Vector_36" d="M146.604 7H60.0547V11H146.604V7Z" fill="#EBC24F"/>
<path id="Vector_37" d="M5.02886 10.4992H0V14H5.02886V10.4992Z" fill="#55162B"/>
<path id="Vector_38" d="M10.0579 10.4992H5.02905V14H10.0579V10.4992Z" fill="#993328"/>
<path id="Vector_39" d="M15.0845 10.4992H10.0557V14H15.0845V10.4992Z" fill="#FAF1D4"/>
<path id="Vector_40" d="M20.1128 10.4992H15.084V14H20.1128V10.4992Z" fill="#D2742E"/>
<path id="Vector_41" d="M25.1419 10.4992H20.113V14H25.1419V10.4992Z" fill="#D2742E"/>
<path id="Vector_42" d="M30.1685 10.4992H25.1396V14H30.1685V10.4992Z" fill="#D2742E"/>
<path id="Vector_43" d="M35.1978 10.4991H30.1689V14H35.1978V10.4991Z" fill="#D2742E"/>
<path id="Vector_44" d="M40.2239 10.4992H35.1951V14H40.2239V10.4992Z" fill="#D2742E"/>
<path id="Vector_45" d="M45.2525 10.4992H40.2236V14H45.2525V10.4992Z" fill="#D2742E"/>
<path id="Vector_46" d="M50.2789 10.4992H45.25V14H50.2789V10.4992Z" fill="#D2742E"/>
<path id="Vector_47" d="M55.3079 10.4992H50.2791V14H55.3079V10.4992Z" fill="#D2742E"/>
<path id="Vector_48" d="M60.3335 10.4991H55.3047V14H60.3335V10.4991Z" fill="#D2742E"/>
<path id="Vector_49" d="M146.604 10H60.0547V14H146.604V10Z" fill="#D2742E"/>
<path id="Vector_50" d="M5.02886 14H0V17.5008H5.02886V14Z" fill="#55162B"/>
<path id="Vector_51" d="M10.0579 14H5.02905V17.5009H10.0579V14Z" fill="#993328"/>
<path id="Vector_52" d="M15.0845 14H10.0557V17.5009H15.0845V14Z" fill="#EBC24F"/>
<path id="Vector_53" d="M20.1128 14H15.084V17.5009H20.1128V14Z" fill="#D2742E"/>
<path id="Vector_54" d="M25.1419 14H20.113V17.5008H25.1419V14Z" fill="#D2742E"/>
<path id="Vector_55" d="M30.1685 14H25.1396V17.5008H30.1685V14Z" fill="#D2742E"/>
<path id="Vector_56" d="M35.1978 14H30.1689V17.5009H35.1978V14Z" fill="#D2742E"/>
<path id="Vector_57" d="M40.2239 14H35.1951V17.5009H40.2239V14Z" fill="#D2742E"/>
<path id="Vector_58" d="M45.2525 14H40.2236V17.5008H45.2525V14Z" fill="#D2742E"/>
<path id="Vector_59" d="M50.2789 14H45.25V17.5008H50.2789V14Z" fill="#D2742E"/>
<path id="Vector_60" d="M55.3079 14H50.2791V17.5009H55.3079V14Z" fill="#D2742E"/>
<path id="Vector_61" d="M60.3335 14H55.3047V17.5009H60.3335V14Z" fill="#D2742E"/>
<path id="Vector_62" d="M146.604 14H60.0547V18H146.604V14Z" fill="#D2742E"/>
<path id="Vector_63" d="M5.02886 17.4992H0V21H5.02886V17.4992Z" fill="#55162B"/>
<path id="Vector_64" d="M10.0579 17.4991H5.02905V21H10.0579V17.4991Z" fill="#993328"/>
<path id="Vector_65" d="M15.0845 17.4991H10.0557V21H15.0845V17.4991Z" fill="#EBC24F"/>
<path id="Vector_66" d="M20.1128 17.4991H15.084V21H20.1128V17.4991Z" fill="#D2742E"/>
<path id="Vector_67" d="M25.1419 17.4991H20.113V21H25.1419V17.4991Z" fill="#D2742E"/>
<path id="Vector_68" d="M30.1685 17.4991H25.1396V21H30.1685V17.4991Z" fill="#D2742E"/>
<path id="Vector_69" d="M35.1978 17.4991H30.1689V21H35.1978V17.4991Z" fill="#D2742E"/>
<path id="Vector_70" d="M40.2239 17.4991H35.1951V21H40.2239V17.4991Z" fill="#D2742E"/>
<path id="Vector_71" d="M45.2525 17.4991H40.2236V21H45.2525V17.4991Z" fill="#D2742E"/>
<path id="Vector_72" d="M50.2789 17.4991H45.25V21H50.2789V17.4991Z" fill="#D2742E"/>
<path id="Vector_73" d="M55.3079 17.4991H50.2791V21H55.3079V17.4991Z" fill="#D2742E"/>
<path id="Vector_74" d="M60.3335 17.4991H55.3047V21H60.3335V17.4991Z" fill="#D2742E"/>
<path id="Vector_75" d="M146.604 17H60.0547V21H146.604V17Z" fill="#D2742E"/>
<path id="Vector_76" d="M5.02886 21H0V24.5008H5.02886V21Z" fill="#55162B"/>
<path id="Vector_77" d="M10.0579 21H5.02905V24.5008H10.0579V21Z" fill="#993328"/>
<path id="Vector_78" d="M15.0845 21H10.0557V24.5008H15.0845V21Z" fill="#D2742E"/>
<path id="Vector_79" d="M20.1128 21H15.084V24.5008H20.1128V21Z" fill="#D2742E"/>
<path id="Vector_80" d="M25.1419 21H20.113V24.5008H25.1419V21Z" fill="#D2742E"/>
<path id="Vector_81" d="M30.1685 21H25.1396V24.5008H30.1685V21Z" fill="#D2742E"/>
<path id="Vector_82" d="M35.1978 21H30.1689V24.5009H35.1978V21Z" fill="#D2742E"/>
<path id="Vector_83" d="M40.2239 21H35.1951V24.5008H40.2239V21Z" fill="#D2742E"/>
<path id="Vector_84" d="M45.2525 21H40.2236V24.5008H45.2525V21Z" fill="#D2742E"/>
<path id="Vector_85" d="M50.2789 21H45.25V24.5008H50.2789V21Z" fill="#D2742E"/>
<path id="Vector_86" d="M55.3079 21H50.2791V24.5008H55.3079V21Z" fill="#D2742E"/>
<path id="Vector_87" d="M60.3335 21H55.3047V24.5009H60.3335V21Z" fill="#D2742E"/>
<path id="Vector_88" d="M146.604 21H60.0547V25H146.604V21Z" fill="#D2742E"/>
<path id="Vector_89" d="M5.02886 24.4992H0V28H5.02886V24.4992Z" fill="#55162B"/>
<path id="Vector_90" d="M10.0579 24.4991H5.02905V28H10.0579V24.4991Z" fill="#993328"/>
<path id="Vector_91" d="M15.0845 24.4991H10.0557V28H15.0845V24.4991Z" fill="#D2742E"/>
<path id="Vector_92" d="M20.1128 24.4991H15.084V28H20.1128V24.4991Z" fill="#D2742E"/>
<path id="Vector_93" d="M25.1419 24.4991H20.113V28H25.1419V24.4991Z" fill="#D2742E"/>
<path id="Vector_94" d="M30.1685 24.4991H25.1396V28H30.1685V24.4991Z" fill="#D2742E"/>
<path id="Vector_95" d="M35.1978 24.4991H30.1689V28H35.1978V24.4991Z" fill="#D2742E"/>
<path id="Vector_96" d="M40.2239 24.4991H35.1951V28H40.2239V24.4991Z" fill="#D2742E"/>
<path id="Vector_97" d="M45.2525 24.4991H40.2236V28H45.2525V24.4991Z" fill="#D2742E"/>
<path id="Vector_98" d="M50.2789 24.4991H45.25V28H50.2789V24.4991Z" fill="#D2742E"/>
<path id="Vector_99" d="M55.3079 24.4991H50.2791V28H55.3079V24.4991Z" fill="#D2742E"/>
<path id="Vector_100" d="M60.3335 24.4991H55.3047V28H60.3335V24.4991Z" fill="#D2742E"/>
<path id="Vector_101" d="M146.604 24H60.0547V28H146.604V24Z" fill="#D2742E"/>
<path id="Vector_102" d="M5.02886 28H0V31.5008H5.02886V28Z" fill="#55162B"/>
<path id="Vector_103" d="M10.0579 28H5.02905V31.5008H10.0579V28Z" fill="#993328"/>
<path id="Vector_104" d="M15.0845 28H10.0557V31.5008H15.0845V28Z" fill="#D2742E"/>
<path id="Vector_105" d="M20.1128 28H15.084V31.5008H20.1128V28Z" fill="#D2742E"/>
<path id="Vector_106" d="M25.1419 28H20.113V31.5008H25.1419V28Z" fill="#D2742E"/>
<path id="Vector_107" d="M30.1685 28H25.1396V31.5008H30.1685V28Z" fill="#D2742E"/>
<path id="Vector_108" d="M35.1978 28H30.1689V31.5009H35.1978V28Z" fill="#D2742E"/>
<path id="Vector_109" d="M40.2239 28H35.1951V31.5008H40.2239V28Z" fill="#D2742E"/>
<path id="Vector_110" d="M45.2525 28H40.2236V31.5008H45.2525V28Z" fill="#D2742E"/>
<path id="Vector_111" d="M50.2789 28H45.25V31.5008H50.2789V28Z" fill="#D2742E"/>
<path id="Vector_112" d="M55.3079 28H50.2791V31.5008H55.3079V28Z" fill="#D2742E"/>
<path id="Vector_113" d="M60.3335 28H55.3047V31.5009H60.3335V28Z" fill="#D2742E"/>
<path id="Vector_114" d="M146.604 28H60.0547V32H146.604V28Z" fill="#D2742E"/>
<path id="Vector_115" d="M5.02886 31.4992H0V35H5.02886V31.4992Z" fill="#55162B"/>
<path id="Vector_116" d="M10.0579 31.4992H5.02905V35H10.0579V31.4992Z" fill="#993328"/>
<path id="Vector_117" d="M15.0845 31.4992H10.0557V35H15.0845V31.4992Z" fill="#D2742E"/>
<path id="Vector_118" d="M20.1128 31.4992H15.084V35H20.1128V31.4992Z" fill="#D2742E"/>
<path id="Vector_119" d="M25.1419 31.4991H20.113V35H25.1419V31.4991Z" fill="#D2742E"/>
<path id="Vector_120" d="M30.1685 31.4991H25.1396V35H30.1685V31.4991Z" fill="#D2742E"/>
<path id="Vector_121" d="M35.1978 31.4991H30.1689V35H35.1978V31.4991Z" fill="#D2742E"/>
<path id="Vector_122" d="M40.2239 31.4992H35.1951V35H40.2239V31.4992Z" fill="#D2742E"/>
<path id="Vector_123" d="M45.2525 31.4991H40.2236V35H45.2525V31.4991Z" fill="#D2742E"/>
<path id="Vector_124" d="M50.2789 31.4991H45.25V35H50.2789V31.4991Z" fill="#D2742E"/>
<path id="Vector_125" d="M55.3079 31.4992H50.2791V35H55.3079V31.4992Z" fill="#D2742E"/>
<path id="Vector_126" d="M60.3335 31.4991H55.3047V35H60.3335V31.4991Z" fill="#D2742E"/>
<path id="Vector_127" d="M146.604 31H60.0547V35H146.604V31Z" fill="#D2742E"/>
<path id="Vector_128" d="M5.02886 35H0V38.5008H5.02886V35Z" fill="#55162B"/>
<path id="Vector_129" d="M10.0579 35H5.02905V38.5008H10.0579V35Z" fill="#993328"/>
<path id="Vector_130" d="M15.0845 35H10.0557V38.5008H15.0845V35Z" fill="#D2742E"/>
<path id="Vector_131" d="M20.1128 35H15.084V38.5008H20.1128V35Z" fill="#D2742E"/>
<path id="Vector_132" d="M25.1419 35H20.113V38.5008H25.1419V35Z" fill="#D2742E"/>
<path id="Vector_133" d="M30.1685 35H25.1396V38.5008H30.1685V35Z" fill="#D2742E"/>
<path id="Vector_134" d="M35.1978 35H30.1689V38.5009H35.1978V35Z" fill="#D2742E"/>
<path id="Vector_135" d="M40.2239 35H35.1951V38.5008H40.2239V35Z" fill="#D2742E"/>
<path id="Vector_136" d="M45.2525 35H40.2236V38.5008H45.2525V35Z" fill="#D2742E"/>
<path id="Vector_137" d="M50.2789 35H45.25V38.5008H50.2789V35Z" fill="#D2742E"/>
<path id="Vector_138" d="M55.3079 35H50.2791V38.5008H55.3079V35Z" fill="#D2742E"/>
<path id="Vector_139" d="M60.3335 35H55.3047V38.5009H60.3335V35Z" fill="#D2742E"/>
<path id="Vector_140" d="M146.604 35H60.0547V39H146.604V35Z" fill="#D2742E"/>
<path id="Vector_141" d="M5.02886 38.4991H0V42H5.02886V38.4991Z" fill="#55162B"/>
<path id="Vector_142" d="M10.0579 38.4991H5.02905V42H10.0579V38.4991Z" fill="#993328"/>
<path id="Vector_143" d="M15.0845 38.4991H10.0557V42H15.0845V38.4991Z" fill="#D2742E"/>
<path id="Vector_144" d="M20.1128 38.4991H15.084V42H20.1128V38.4991Z" fill="#D2742E"/>
<path id="Vector_145" d="M25.1419 38.4991H20.113V42H25.1419V38.4991Z" fill="#D2742E"/>
<path id="Vector_146" d="M30.1685 38.4991H25.1396V42H30.1685V38.4991Z" fill="#D2742E"/>
<path id="Vector_147" d="M35.1978 38.4991H30.1689V42H35.1978V38.4991Z" fill="#D2742E"/>
<path id="Vector_148" d="M40.2239 38.4991H35.1951V42H40.2239V38.4991Z" fill="#D2742E"/>
<path id="Vector_149" d="M45.2525 38.4991H40.2236V42H45.2525V38.4991Z" fill="#D2742E"/>
<path id="Vector_150" d="M50.2789 38.4991H45.25V42H50.2789V38.4991Z" fill="#D2742E"/>
<path id="Vector_151" d="M55.3079 38.4991H50.2791V42H55.3079V38.4991Z" fill="#D2742E"/>
<path id="Vector_152" d="M60.3335 38.4991H55.3047V42H60.3335V38.4991Z" fill="#D2742E"/>
<path id="Vector_153" d="M146.604 38H60.0547V42H146.604V38Z" fill="#D2742E"/>
<path id="Vector_154" d="M5.02886 42H0V45.5008H5.02886V42Z" fill="#55162B"/>
<path id="Vector_155" d="M10.0579 42H5.02905V45.5008H10.0579V42Z" fill="#993328"/>
<path id="Vector_156" d="M15.0845 42H10.0557V45.5008H15.0845V42Z" fill="#D2742E"/>
<path id="Vector_157" d="M20.1128 42H15.084V45.5008H20.1128V42Z" fill="#D2742E"/>
<path id="Vector_158" d="M25.1419 42H20.113V45.5008H25.1419V42Z" fill="#D2742E"/>
<path id="Vector_159" d="M30.1685 42H25.1396V45.5008H30.1685V42Z" fill="#D2742E"/>
<path id="Vector_160" d="M35.1978 42H30.1689V45.5009H35.1978V42Z" fill="#D2742E"/>
<path id="Vector_161" d="M40.2239 42H35.1951V45.5008H40.2239V42Z" fill="#D2742E"/>
<path id="Vector_162" d="M45.2525 42H40.2236V45.5008H45.2525V42Z" fill="#D2742E"/>
<path id="Vector_163" d="M50.2789 42H45.25V45.5008H50.2789V42Z" fill="#D2742E"/>
<path id="Vector_164" d="M55.3079 42H50.2791V45.5008H55.3079V42Z" fill="#D2742E"/>
<path id="Vector_165" d="M60.3335 42H55.3047V45.5009H60.3335V42Z" fill="#D2742E"/>
<path id="Vector_166" d="M146.604 42H60.0547V46H146.604V42Z" fill="#D2742E"/>
<path id="Vector_167" d="M5.02886 45.4991H0V49H5.02886V45.4991Z" fill="#55162B"/>
<path id="Vector_168" d="M10.0579 45.4992H5.02905V49H10.0579V45.4992Z" fill="#993328"/>
<path id="Vector_169" d="M15.0845 45.4992H10.0557V49H15.0845V45.4992Z" fill="#993328"/>
<path id="Vector_170" d="M20.1128 45.4992H15.084V49H20.1128V45.4992Z" fill="#D2742E"/>
<path id="Vector_171" d="M25.1419 45.4991H20.113V49H25.1419V45.4991Z" fill="#D2742E"/>
<path id="Vector_172" d="M30.1685 45.4991H25.1396V49H30.1685V45.4991Z" fill="#D2742E"/>
<path id="Vector_173" d="M35.1978 45.4991H30.1689V49H35.1978V45.4991Z" fill="#D2742E"/>
<path id="Vector_174" d="M40.2239 45.4992H35.1951V49H40.2239V45.4992Z" fill="#D2742E"/>
<path id="Vector_175" d="M45.2525 45.4991H40.2236V49H45.2525V45.4991Z" fill="#D2742E"/>
<path id="Vector_176" d="M50.2789 45.4991H45.25V49H50.2789V45.4991Z" fill="#D2742E"/>
<path id="Vector_177" d="M55.3079 45.4992H50.2791V49H55.3079V45.4992Z" fill="#D2742E"/>
<path id="Vector_178" d="M60.3335 45.4991H55.3047V49H60.3335V45.4991Z" fill="#D2742E"/>
<path id="Vector_179" d="M146.604 45H60.0547V49H146.604V45Z" fill="#D2742E"/>
<path id="Vector_180" d="M10.0579 49H5.02905V52.5008H10.0579V49Z" fill="#55162B"/>
<path id="Vector_181" d="M15.0845 49H10.0557V52.5008H15.0845V49Z" fill="#993328"/>
<path id="Vector_182" d="M20.1128 49H15.084V52.5008H20.1128V49Z" fill="#993328"/>
<path id="Vector_183" d="M25.1419 49H20.113V52.5008H25.1419V49Z" fill="#993328"/>
<path id="Vector_184" d="M30.1685 49H25.1396V52.5008H30.1685V49Z" fill="#993328"/>
<path id="Vector_185" d="M35.1978 49H30.1689V52.5009H35.1978V49Z" fill="#993328"/>
<path id="Vector_186" d="M40.2239 49H35.1951V52.5008H40.2239V49Z" fill="#993328"/>
<path id="Vector_187" d="M45.2525 49H40.2236V52.5008H45.2525V49Z" fill="#993328"/>
<path id="Vector_188" d="M50.2789 49H45.25V52.5008H50.2789V49Z" fill="#993328"/>
<path id="Vector_189" d="M55.3079 49H50.2791V52.5008H55.3079V49Z" fill="#993328"/>
<path id="Vector_190" d="M60.3335 49H55.3047V52.5009H60.3335V49Z" fill="#993328"/>
<path id="Vector_191" d="M146.604 49H60.0547V53H146.604V49Z" fill="#993328"/>
<path id="Vector_192" d="M15.0845 52.4991H10.0557V56H15.0845V52.4991Z" fill="#55162B"/>
<path id="Vector_193" d="M20.1128 52.4991H15.084V56H20.1128V52.4991Z" fill="#55162B"/>
<path id="Vector_194" d="M25.1419 52.4991H20.113V56H25.1419V52.4991Z" fill="#55162B"/>
<path id="Vector_195" d="M30.1685 52.4991H25.1396V56H30.1685V52.4991Z" fill="#55162B"/>
<path id="Vector_196" d="M35.1978 52.4991H30.1689V56H35.1978V52.4991Z" fill="#55162B"/>
<path id="Vector_197" d="M40.2239 52.4991H35.1951V56H40.2239V52.4991Z" fill="#55162B"/>
<path id="Vector_198" d="M45.2525 52.4991H40.2236V56H45.2525V52.4991Z" fill="#55162B"/>
<path id="Vector_199" d="M50.2789 52.4991H45.25V56H50.2789V52.4991Z" fill="#55162B"/>
<path id="Vector_200" d="M55.3079 52.4991H50.2791V56H55.3079V52.4991Z" fill="#55162B"/>
<path id="Vector_201" d="M60.3335 52.4991H55.3047V56H60.3335V52.4991Z" fill="#55162B"/>
<path id="Vector_202" d="M146.604 52H60.0547V56H146.604V52Z" fill="#55162B"/>
</g>
<path id="Vector_203" d="M151.902 0H146.604V4H151.902V0Z" fill="#55162B"/>
<path id="Vector_204" d="M151.902 3H146.604V7H151.902V3Z" fill="#993328"/>
<path id="Vector_205" d="M157.201 3H151.902V7H157.201V3Z" fill="#55162B"/>
<path id="Vector_206" d="M151.902 7H146.604V11H151.902V7Z" fill="#993328"/>
<path id="Vector_207" d="M157.201 7H151.902V11H157.201V7Z" fill="#993328"/>
<path id="Vector_208" d="M162.5 7H157.201V11H162.5V7Z" fill="#55162B"/>
<path id="Vector_209" d="M151.902 10H146.604V14H151.902V10Z" fill="#EBC24F"/>
<path id="Vector_210" d="M157.201 10H151.902V14H157.201V10Z" fill="#993328"/>
<path id="Vector_211" d="M162.5 10H157.201V14H162.5V10Z" fill="#55162B"/>
<path id="Vector_212" d="M151.902 14H146.604V18H151.902V14Z" fill="#D2742E"/>
<path id="Vector_213" d="M157.201 14H151.902V18H157.201V14Z" fill="#993328"/>
<path id="Vector_214" d="M162.5 14H157.201V18H162.5V14Z" fill="#55162B"/>
<path id="Vector_215" d="M151.902 17H146.604V21H151.902V17Z" fill="#D2742E"/>
<path id="Vector_216" d="M157.201 17H151.902V21H157.201V17Z" fill="#993328"/>
<path id="Vector_217" d="M162.5 17H157.201V21H162.5V17Z" fill="#55162B"/>
<path id="Vector_218" d="M151.902 21H146.604V25H151.902V21Z" fill="#D2742E"/>
<path id="Vector_219" d="M157.201 21H151.902V25H157.201V21Z" fill="#993328"/>
<path id="Vector_220" d="M162.5 21H157.201V25H162.5V21Z" fill="#55162B"/>
<path id="Vector_221" d="M151.902 24H146.604V28H151.902V24Z" fill="#D2742E"/>
<path id="Vector_222" d="M157.201 24H151.902V28H157.201V24Z" fill="#993328"/>
<path id="Vector_223" d="M162.5 24H157.201V28H162.5V24Z" fill="#55162B"/>
<path id="Vector_224" d="M151.902 28H146.604V32H151.902V28Z" fill="#D2742E"/>
<path id="Vector_225" d="M157.201 28H151.902V32H157.201V28Z" fill="#993328"/>
<path id="Vector_226" d="M162.5 28H157.201V32H162.5V28Z" fill="#55162B"/>
<path id="Vector_227" d="M151.902 31H146.604V35H151.902V31Z" fill="#D2742E"/>
<path id="Vector_228" d="M157.201 31H151.902V35H157.201V31Z" fill="#993328"/>
<path id="Vector_229" d="M162.5 31H157.201V35H162.5V31Z" fill="#55162B"/>
<path id="Vector_230" d="M151.902 35H146.604V39H151.902V35Z" fill="#D2742E"/>
<path id="Vector_231" d="M157.201 35H151.902V39H157.201V35Z" fill="#993328"/>
<path id="Vector_232" d="M162.5 35H157.201V39H162.5V35Z" fill="#55162B"/>
<path id="Vector_233" d="M151.902 38H146.604V42H151.902V38Z" fill="#D2742E"/>
<path id="Vector_234" d="M157.201 38H151.902V42H157.201V38Z" fill="#993328"/>
<path id="Vector_235" d="M162.5 38H157.201V42H162.5V38Z" fill="#55162B"/>
<path id="Vector_236" d="M151.902 42H146.604V46H151.902V42Z" fill="#D2742E"/>
<path id="Vector_237" d="M157.201 42H151.902V46H157.201V42Z" fill="#993328"/>
<path id="Vector_238" d="M162.5 42H157.201V46H162.5V42Z" fill="#55162B"/>
<path id="Vector_239" d="M151.902 45H146.604V49H151.902V45Z" fill="#993328"/>
<path id="Vector_240" d="M157.201 45H151.902V49H157.201V45Z" fill="#993328"/>
<path id="Vector_241" d="M162.5 45H157.201V49H162.5V45Z" fill="#55162B"/>
<path id="Vector_242" d="M151.902 49H146.604V53H151.902V49Z" fill="#993328"/>
<path id="Vector_243" d="M157.201 49H151.902V53H157.201V49Z" fill="#55162B"/>
<path id="Vector_244" d="M151.902 52H146.604V56H151.902V52Z" fill="#55162B"/>
</g>
</svg>
