<svg width="529" height="56" viewBox="0 0 529 56" preserveAspectRatio="none" fill="none" xmlns="http://www.w3.org/2000/svg">
<path d="M527 4H4V54H527V4Z" fill="#3F4961"/>
<path d="M4 4H2C2 4 2 34.4738 2 54C2.78105 54 4 54 4 54V4Z" fill="#8B98B8"/>
<path d="M2 4H0V54C0 54 1.21895 54 2 54C2 34.4738 2 4 2 4Z" fill="#A9ACB8"/>
<path d="M307 52H303V54H307V52Z" fill="#8B98B8"/>
<path d="M321 52H311V54H321V52Z" fill="#8B98B8"/>
<path d="M411 52H409V54H411V52Z" fill="#8B98B8"/>
<path d="M527 54V4H525V54H527Z" fill="#8B98B8"/>
<path d="M527 54H4L4 56H527V54Z" fill="#8B98B8"/>
<path d="M529 4H527V56H529V4Z" fill="#A9ACB8"/>
<path d="M4 2H2V4H4L4 2Z" fill="#A9ACB8"/>
<path d="M4 54C4 54 2.78105 54 2 54C2 54.781 2 56 2 56H4L4 54Z" fill="#A9ACB8"/>
<path d="M527 2H525V4H527V2Z" fill="#A9ACB8"/>
<path d="M149 4H141V6H149V4Z" fill="#8B98B8"/>
<path d="M515 2H507V4H515V2Z" fill="#A9ACB8"/>
<path d="M507 2H501V4H507V2Z" fill="#8B98B8"/>
<path d="M507 0H501V2H507V0Z" fill="#A9ACB8"/>
<path d="M501 4H499V6H501V4Z" fill="#8B98B8"/>
<path d="M501 2H499V4H501V2Z" fill="#A9ACB8"/>
<path d="M499 6H497V8H499V6Z" fill="#8B98B8"/>
<path d="M499 4H497V6H499V4Z" fill="#A9ACB8"/>
<path d="M497 4H495V6H497V4Z" fill="#8B98B8"/>
<path d="M497 2H495V4H497V2Z" fill="#A9ACB8"/>
<path d="M525 2H515V4H525V2Z" fill="#8B98B8"/>
<path d="M525 0H515V2H525V0Z" fill="#A9ACB8"/>
<path d="M495 2H4L4 4H495V2Z" fill="#8B98B8"/>
<path d="M495 0H4V2H495V0Z" fill="#A9ACB8"/>
<path d="M2 54H0V56H2V54Z" fill="#A9ACB8"/>
</svg>
