<svg width="35" height="40" viewBox="0 0 35 40" fill="none" xmlns="http://www.w3.org/2000/svg">
<path d="M11.4295 32.3797H9.52441V34.2847H11.4295V32.3797Z" fill="#8A2A25"/>
<path d="M7.61918 36.1898H5.71411V38.0949H7.61918V36.1898Z" fill="#8A2A25"/>
<path d="M9.52421 34.2846H7.61914V36.1896H9.52421V34.2846Z" fill="#8A2A25"/>
<path d="M9.52421 36.1898H7.61914V38.0949H9.52421V36.1898Z" fill="#8A2A25"/>
<path d="M13.3335 34.2846H11.4285V36.1896H13.3335V34.2846Z" fill="#8A2A25"/>
<path d="M15.2386 34.2846H13.3335V36.1896H15.2386V34.2846Z" fill="#8A2A25"/>
<path d="M15.2386 32.3797H13.3335V34.2847H15.2386V32.3797Z" fill="#8A2A25"/>
<path d="M20.9532 32.3796H19.0481V34.2847H20.9532V32.3796Z" fill="#8A2A25"/>
<path d="M22.8572 34.2846H20.9521V36.1896H22.8572V34.2846Z" fill="#8A2A25"/>
<path d="M20.9532 34.2846H19.0481V36.1896H20.9532V34.2846Z" fill="#8A2A25"/>
<path d="M15.2386 36.1898H13.3335V38.0949H15.2386V36.1898Z" fill="#8A2A25"/>
<path d="M13.3335 36.1899H11.4285V38.0949H13.3335V36.1899Z" fill="#8A2A25"/>
<path d="M20.9532 36.1899H19.0481V38.0949H20.9532V36.1899Z" fill="#8A2A25"/>
<path d="M22.858 36.1898H20.9529V38.0949H22.858V36.1898Z" fill="#8A2A25"/>
<path d="M24.7622 32.3796H22.8572V34.2847H24.7622V32.3796Z" fill="#8A2A25"/>
<path d="M26.667 34.2846H24.762V36.1896H26.667V34.2846Z" fill="#8A2A25"/>
<path d="M26.667 36.1899H24.762V38.0949H26.667V36.1899Z" fill="#8A2A25"/>
<path d="M28.5721 36.1899H26.667V38.0949H28.5721V36.1899Z" fill="#8A2A25"/>
<path d="M17.1438 32.3795H15.2388V34.2846H17.1438V32.3795Z" fill="#6B1D19"/>
<path d="M17.1438 34.2845H15.2388V36.1895H17.1438V34.2845Z" fill="#6B1D19"/>
<path d="M17.1438 36.1898H15.2388V38.0949H17.1438V36.1898Z" fill="#6B1D19"/>
<path d="M19.0476 34.2845H17.1426V36.1895H19.0476V34.2845Z" fill="#6B1D19"/>
<path d="M19.0476 32.3795H17.1426V34.2846H19.0476V32.3795Z" fill="#6B1D19"/>
<path d="M19.0476 36.1898H17.1426V38.0949H19.0476V36.1898Z" fill="#6B1D19"/>
<path d="M24.762 36.1897H22.8569V38.0948H24.762V36.1897Z" fill="#6B1D19"/>
<path d="M24.762 34.2845H22.8569V36.1895H24.762V34.2845Z" fill="#6B1D19"/>
<path d="M22.858 32.3796H20.9529V34.2846H22.858V32.3796Z" fill="#6B1D19"/>
<path d="M13.3335 32.3796H11.4285V34.2846H13.3335V32.3796Z" fill="#6B1D19"/>
<path d="M11.4292 34.2845H9.52417V36.1895H11.4292V34.2845Z" fill="#6B1D19"/>
<path d="M11.4292 36.1898H9.52417V38.0949H11.4292V36.1898Z" fill="#6B1D19"/>
<path d="M3.80986 38.094H1.90479V39.999H3.80986V38.094Z" fill="#6B1D19"/>
<path d="M5.71489 38.094H3.80981V39.999H5.71489V38.094Z" fill="#6B1D19"/>
<path d="M7.61894 38.094H5.71387V39.999H7.61894V38.094Z" fill="#6B1D19"/>
<path d="M9.52421 38.094H7.61914V39.999H9.52421V38.094Z" fill="#6B1D19"/>
<path d="M11.4292 38.094H9.52417V39.999H11.4292V38.094Z" fill="#6B1D19"/>
<path d="M13.3335 38.094H11.4285V39.999H13.3335V38.094Z" fill="#6B1D19"/>
<path d="M9.52421 32.3795H7.61914V34.2846H9.52421V32.3795Z" fill="#6B1D19"/>
<path d="M7.61894 34.2845H5.71387V36.1895H7.61894V34.2845Z" fill="#6B1D19"/>
<path d="M5.71489 36.1897H3.80981V38.0948H5.71489V36.1897Z" fill="#6B1D19"/>
<path d="M15.2383 38.094H13.3333V39.999H15.2383V38.094Z" fill="#6B1D19"/>
<path d="M20.9529 38.094H19.0479V39.999H20.9529V38.094Z" fill="#6B1D19"/>
<path d="M19.0476 38.094H17.1426V39.999H19.0476V38.094Z" fill="#6B1D19"/>
<path d="M17.1438 38.094H15.2388V39.999H17.1438V38.094Z" fill="#6B1D19"/>
<path d="M22.857 38.094H20.9519V39.999H22.857V38.094Z" fill="#6B1D19"/>
<path d="M24.762 38.094H22.8569V39.999H24.762V38.094Z" fill="#6B1D19"/>
<path d="M26.667 38.094H24.762V39.999H26.667V38.094Z" fill="#6B1D19"/>
<path d="M28.5723 38.094H26.6672V39.999H28.5723V38.094Z" fill="#6B1D19"/>
<path d="M30.4766 38.094H28.5715V39.999H30.4766V38.094Z" fill="#6B1D19"/>
<path d="M26.667 32.3796H24.762V34.2846H26.667V32.3796Z" fill="#6B1D19"/>
<path d="M28.5723 34.2845H26.6672V36.1895H28.5723V34.2845Z" fill="#6B1D19"/>
<path d="M30.4766 36.1898H28.5715V38.0949H30.4766V36.1898Z" fill="#6B1D19"/>
<path d="M32.3814 38.094H30.4763V39.999H32.3814V38.094Z" fill="#6B1D19"/>
<path d="M24.7622 28.5708H22.8572V30.4759H24.7622V28.5708Z" fill="#965EB7"/>
<path d="M26.6673 26.6656H24.7622V28.5707H26.6673V26.6656Z" fill="#965EB7"/>
<path d="M28.5723 24.7614H26.6672V26.6664H28.5723V24.7614Z" fill="#965EB7"/>
<path d="M28.5723 19.0472H26.6672V20.9523H28.5723V19.0472Z" fill="#965EB7"/>
<path d="M30.4764 20.9515H28.5713V22.8565H30.4764V20.9515Z" fill="#965EB7"/>
<path d="M30.4764 19.0473H28.5713V20.9524H30.4764V19.0473Z" fill="#965EB7"/>
<path d="M30.4764 17.142H28.5713V19.047H30.4764V17.142Z" fill="#965EB7"/>
<path d="M28.5723 17.142H26.6672V19.047H28.5723V17.142Z" fill="#965EB7"/>
<path d="M30.4764 15.237H28.5713V17.1421H30.4764V15.237Z" fill="#965EB7"/>
<path d="M28.5723 15.2371H26.6672V17.1422H28.5723V15.2371Z" fill="#965EB7"/>
<path d="M26.6673 15.2371H24.7622V17.1422H26.6673V15.2371Z" fill="#965EB7"/>
<path d="M30.4764 13.3329H28.5713V15.2379H30.4764V13.3329Z" fill="#965EB7"/>
<path d="M28.5723 13.3329H26.6672V15.2379H28.5723V13.3329Z" fill="#965EB7"/>
<path d="M26.6673 13.3329H24.7622V15.238H26.6673V13.3329Z" fill="#965EB7"/>
<path d="M5.71513 11.4279H3.81006V13.333H5.71513V11.4279Z" fill="#965EB7"/>
<path d="M7.61942 11.4279H5.71436V13.333H7.61942V11.4279Z" fill="#965EB7"/>
<path d="M9.52421 11.4279H7.61914V13.333H9.52421V11.4279Z" fill="#965EB7"/>
<path d="M11.4295 11.4279H9.52441V13.333H11.4295V11.4279Z" fill="#965EB7"/>
<path d="M13.3333 11.4279H11.4282V13.333H13.3333V11.4279Z" fill="#965EB7"/>
<path d="M15.2388 11.4279H13.3337V13.333H15.2388V11.4279Z" fill="#965EB7"/>
<path d="M30.4764 11.4279H28.5713V13.333H30.4764V11.4279Z" fill="#965EB7"/>
<path d="M28.5723 11.4279H26.6672V13.333H28.5723V11.4279Z" fill="#965EB7"/>
<path d="M26.6673 11.4279H24.7622V13.333H26.6673V11.4279Z" fill="#965EB7"/>
<path d="M20.9529 11.4279H19.0479V13.333H20.9529V11.4279Z" fill="#965EB7"/>
<path d="M22.8582 11.4279H20.9531V13.333H22.8582V11.4279Z" fill="#965EB7"/>
<path d="M11.4295 9.523H9.52441V11.4281H11.4295V9.523Z" fill="#965EB7"/>
<path d="M9.52421 9.523H7.61914V11.4281H9.52421V9.523Z" fill="#965EB7"/>
<path d="M7.61942 9.523H5.71436V11.4281H7.61942V9.523Z" fill="#965EB7"/>
<path d="M15.2388 9.523H13.3337V11.4281H15.2388V9.523Z" fill="#965EB7"/>
<path d="M17.1436 9.523H15.2385V11.4281H17.1436V9.523Z" fill="#965EB7"/>
<path d="M19.0479 9.523H17.1428V11.4281H19.0479V9.523Z" fill="#965EB7"/>
<path d="M7.61942 9.523H5.71436V11.4281H7.61942V9.523Z" fill="#965EB7"/>
<path d="M9.52421 9.523H7.61914V11.4281H9.52421V9.523Z" fill="#965EB7"/>
<path d="M17.1436 9.523H15.2385V11.4281H17.1436V9.523Z" fill="#965EB7"/>
<path d="M19.0479 9.523H17.1428V11.4281H19.0479V9.523Z" fill="#965EB7"/>
<path d="M19.0479 7.61884H17.1428V9.5239H19.0479V7.61884Z" fill="#965EB7"/>
<path d="M17.1436 7.61884H15.2385V9.5239H17.1436V7.61884Z" fill="#965EB7"/>
<path d="M20.9529 7.61884H19.0479V9.5239H20.9529V7.61884Z" fill="#965EB7"/>
<path d="M22.8582 7.61884H20.9531V9.5239H22.8582V7.61884Z" fill="#965EB7"/>
<path d="M28.5723 7.61884H26.6672V9.5239H28.5723V7.61884Z" fill="#965EB7"/>
<path d="M26.6673 7.61884H24.7622V9.5239H26.6673V7.61884Z" fill="#965EB7"/>
<path d="M7.61942 7.61884H5.71436V9.5239H7.61942V7.61884Z" fill="#965EB7"/>
<path d="M9.52421 7.61884H7.61914V9.5239H9.52421V7.61884Z" fill="#965EB7"/>
<path d="M17.1438 5.71359H15.2388V7.61864H17.1438V5.71359Z" fill="#965EB7"/>
<path d="M19.0479 5.71359H17.1428V7.61864H19.0479V5.71359Z" fill="#965EB7"/>
<path d="M20.9529 5.71351H19.0479V7.61857H20.9529V5.71351Z" fill="#965EB7"/>
<path d="M15.2388 5.71359H13.3337V7.61864H15.2388V5.71359Z" fill="#965EB7"/>
<path d="M22.8582 5.71351H20.9531V7.61857H22.8582V5.71351Z" fill="#965EB7"/>
<path d="M11.4295 5.71351H9.52441V7.61857H11.4295V5.71351Z" fill="#965EB7"/>
<path d="M9.52421 5.71351H7.61914V7.61857H9.52421V5.71351Z" fill="#965EB7"/>
<path d="M26.6673 5.71359H24.7622V7.61864H26.6673V5.71359Z" fill="#965EB7"/>
<path d="M24.7622 3.80861H22.8572V5.71366H24.7622V3.80861Z" fill="#965EB7"/>
<path d="M22.857 3.80857H20.9519V5.71363H22.857V3.80857Z" fill="#965EB7"/>
<path d="M20.9529 3.80857H19.0479V5.71363H20.9529V3.80857Z" fill="#965EB7"/>
<path d="M17.1438 3.80861H15.2388V5.71366H17.1438V3.80861Z" fill="#965EB7"/>
<path d="M11.4295 3.80857H9.52441V5.71363H11.4295V3.80857Z" fill="#965EB7"/>
<path d="M13.3333 3.80857H11.4282V5.71363H13.3333V3.80857Z" fill="#965EB7"/>
<path d="M15.2388 3.80861H13.3337V5.71366H15.2388V3.80861Z" fill="#965EB7"/>
<path d="M19.0479 3.80861H17.1428V5.71366H19.0479V3.80861Z" fill="#965EB7"/>
<path d="M17.1438 1.90441H15.2388V3.80947H17.1438V1.90441Z" fill="#965EB7"/>
<path d="M19.0479 1.90441H17.1428V3.80947H19.0479V1.90441Z" fill="#965EB7"/>
<path d="M15.2388 1.90441H13.3337V3.80947H15.2388V1.90441Z" fill="#965EB7"/>
<path d="M20.9529 1.90441H19.0479V3.80947H20.9529V1.90441Z" fill="#965EB7"/>
<path d="M5.71513 20.9515H3.81006V22.8565H5.71513V20.9515Z" fill="#965EB7"/>
<path d="M7.61918 19.0472H5.71411V20.9523H7.61918V19.0472Z" fill="#965EB7"/>
<path d="M7.61942 24.7614H5.71436V26.6664H7.61942V24.7614Z" fill="#965EB7"/>
<path d="M9.52421 26.6655H7.61914V28.5706H9.52421V26.6655Z" fill="#965EB7"/>
<path d="M11.4295 28.5708H9.52441V30.4759H11.4295V28.5708Z" fill="#965EB7"/>
<path d="M5.71513 19.0473H3.81006V20.9524H5.71513V19.0473Z" fill="#965EB7"/>
<path d="M5.71513 17.142H3.81006V19.047H5.71513V17.142Z" fill="#965EB7"/>
<path d="M7.61942 17.142H5.71436V19.047H7.61942V17.142Z" fill="#965EB7"/>
<path d="M5.71513 15.2371H3.81006V17.1422H5.71513V15.2371Z" fill="#965EB7"/>
<path d="M7.61918 15.2371H5.71411V17.1422H7.61918V15.2371Z" fill="#965EB7"/>
<path d="M9.52421 15.237H7.61914V17.1421H9.52421V15.237Z" fill="#965EB7"/>
<path d="M11.4295 13.3329H9.52441V15.2379H11.4295V13.3329Z" fill="#965EB7"/>
<path d="M9.52421 13.3329H7.61914V15.2379H9.52421V13.3329Z" fill="#965EB7"/>
<path d="M7.61942 13.3329H5.71436V15.2379H7.61942V13.3329Z" fill="#965EB7"/>
<path d="M5.71513 13.3329H3.81006V15.238H5.71513V13.3329Z" fill="#965EB7"/>
<path d="M24.7622 5.71291H22.8572V7.61796H24.7622V5.71291Z" fill="white"/>
<path d="M24.7622 7.61784H22.8572V9.5229H24.7622V7.61784Z" fill="white"/>
<path d="M24.7622 13.3323H22.8572V15.2373H24.7622V13.3323Z" fill="white"/>
<path d="M24.7622 11.4273H22.8572V13.3324H24.7622V11.4273Z" fill="white"/>
<path d="M26.6678 9.52201H24.7627V11.4271H26.6678V9.52201Z" fill="white"/>
<path d="M28.5726 9.52201H26.6675V11.4271H28.5726V9.52201Z" fill="white"/>
<path d="M20.9532 9.52208H19.0481V11.4271H20.9532V9.52208Z" fill="white"/>
<path d="M24.7622 9.52201H22.8572V11.4271H24.7622V9.52201Z" fill="white"/>
<path d="M22.8582 9.52201H20.9531V11.4271H22.8582V9.52201Z" fill="white"/>
<path d="M15.2386 20.9512H13.3335V22.8563H15.2386V20.9512Z" fill="white"/>
<path d="M15.2386 17.1421H13.3335V19.0472H15.2386V17.1421Z" fill="white"/>
<path d="M17.1438 19.0471H15.2388V20.9521H17.1438V19.0471Z" fill="white"/>
<path d="M15.2386 19.0471H13.3335V20.9521H15.2386V19.0471Z" fill="white"/>
<path d="M13.3335 19.0471H11.4285V20.9521H13.3335V19.0471Z" fill="white"/>
<path d="M13.3338 9.52201H11.4287V11.4271H13.3338V9.52201Z" fill="white"/>
<path d="M13.3335 5.71291H11.4285V7.61796H13.3335V5.71291Z" fill="white"/>
<path d="M15.2386 7.61784H13.3335V9.5229H15.2386V7.61784Z" fill="white"/>
<path d="M13.3338 7.61784H11.4287V9.5229H13.3338V7.61784Z" fill="white"/>
<path d="M11.4295 7.61784H9.52441V9.5229H11.4295V7.61784Z" fill="white"/>
<path d="M5.71464 9.523H3.80957V11.4281H5.71464V9.523Z" fill="#965EB7"/>
<path d="M30.4764 9.523H28.5713V11.4281H30.4764V9.523Z" fill="#965EB7"/>
<path d="M5.71464 9.523H3.80957V11.4281H5.71464V9.523Z" fill="#612D78"/>
<path d="M30.4764 9.523H28.5713V11.4281H30.4764V9.523Z" fill="#965EB7"/>
<path d="M3.80961 11.4279H1.90454V13.333H3.80961V11.4279Z" fill="#612D78"/>
<path d="M32.3811 11.4279H30.4761V13.333H32.3811V11.4279Z" fill="#612D78"/>
<path d="M5.71464 7.61884H3.80957V9.5239H5.71464V7.61884Z" fill="#612D78"/>
<path d="M7.61869 5.71351H5.71362V7.61857H7.61869V5.71351Z" fill="#612D78"/>
<path d="M9.52421 3.80857H7.61914V5.71363H9.52421V3.80857Z" fill="#612D78"/>
<path d="M13.3333 1.90441H11.4282V3.80947H13.3333V1.90441Z" fill="#612D78"/>
<path d="M30.4764 7.61884H28.5713V9.5239H30.4764V7.61884Z" fill="#612D78"/>
<path d="M28.5721 5.71351H26.667V7.61857H28.5721V5.71351Z" fill="#612D78"/>
<path d="M26.6668 3.80861H24.7617V5.71366H26.6668V3.80861Z" fill="#612D78"/>
<path d="M22.8577 1.90441H20.9526V3.80947H22.8577V1.90441Z" fill="#612D78"/>
<path d="M32.3811 13.3329H30.4761V15.2379H32.3811V13.3329Z" fill="#612D78"/>
<path d="M32.3811 15.237H30.4761V17.1421H32.3811V15.237Z" fill="#612D78"/>
<path d="M32.3811 17.142H30.4761V19.047H32.3811V17.142Z" fill="#612D78"/>
<path d="M32.3811 19.0473H30.4761V20.9524H32.3811V19.0473Z" fill="#612D78"/>
<path d="M32.3811 20.9515H30.4761V22.8565H32.3811V20.9515Z" fill="#612D78"/>
<path d="M3.80961 13.3329H1.90454V15.238H3.80961V13.3329Z" fill="#612D78"/>
<path d="M3.80961 19.0473H1.90454V20.9524H3.80961V19.0473Z" fill="#612D78"/>
<path d="M3.80961 15.2371H1.90454V17.1422H3.80961V15.2371Z" fill="#612D78"/>
<path d="M3.80961 17.142H1.90454V19.047H3.80961V17.142Z" fill="#612D78"/>
<path d="M3.80961 20.9515H1.90454V22.8565H3.80961V20.9515Z" fill="#612D78"/>
<path d="M30.4764 24.7614H28.5713V26.6664H30.4764V24.7614Z" fill="#612D78"/>
<path d="M28.5721 26.6655H26.667V28.5706H28.5721V26.6655Z" fill="#612D78"/>
<path d="M26.6668 28.5708H24.7617V30.4759H26.6668V28.5708Z" fill="#612D78"/>
<path d="M5.71464 24.7614H3.80957V26.6664H5.71464V24.7614Z" fill="#612D78"/>
<path d="M7.61869 26.6655H5.71362V28.5706H7.61869V26.6655Z" fill="#612D78"/>
<path d="M9.52421 28.5708H7.61914V30.4759H9.52421V28.5708Z" fill="#612D78"/>
<path d="M5.71464 22.8564H3.80957V24.7615H5.71464V22.8564Z" fill="#612D78"/>
<path d="M30.4764 22.8564H28.5713V24.7615H30.4764V22.8564Z" fill="#612D78"/>
<path d="M30.4764 9.523H28.5713V11.4281H30.4764V9.523Z" fill="#612D78"/>
<path d="M15.2391 0H13.334V1.90505H15.2391V0Z" fill="#51197A"/>
<path d="M17.1438 0H15.2388V1.90505H17.1438V0Z" fill="#51197A"/>
<path d="M13.3338 0H11.4287V1.90505H13.3338V0Z" fill="#51197A"/>
<path d="M11.4295 1.90494H9.52441V3.80999H11.4295V1.90494Z" fill="#51197A"/>
<path d="M9.52446 1.90494H7.61938V3.80999H9.52446V1.90494Z" fill="#51197A"/>
<path d="M7.61942 3.8091H5.71436V5.71416H7.61942V3.8091Z" fill="#51197A"/>
<path d="M5.71537 5.71443H3.8103V7.61949H5.71537V5.71443Z" fill="#51197A"/>
<path d="M19.0481 0H17.1431V1.90505H19.0481V0Z" fill="#51197A"/>
<path d="M20.9532 0H19.0481V1.90505H20.9532V0Z" fill="#51197A"/>
<path d="M22.858 0H20.9529V1.90505H22.858V0Z" fill="#51197A"/>
<path d="M24.7622 1.90494H22.8572V3.80999H24.7622V1.90494Z" fill="#51197A"/>
<path d="M26.6675 1.90494H24.7625V3.80999H26.6675V1.90494Z" fill="#51197A"/>
<path d="M28.5726 3.8091H26.6675V5.71416H28.5726V3.8091Z" fill="#51197A"/>
<path d="M30.4766 5.71443H28.5715V7.61949H30.4766V5.71443Z" fill="#51197A"/>
<path d="M3.8101 9.52351H1.90503V11.4286H3.8101V9.52351Z" fill="#51197A"/>
<path d="M3.8101 7.61932H1.90503V9.52438H3.8101V7.61932Z" fill="#51197A"/>
<path d="M32.3816 9.52351H30.4766V11.4286H32.3816V9.52351Z" fill="#51197A"/>
<path d="M32.3816 7.61932H30.4766V9.52438H32.3816V7.61932Z" fill="#51197A"/>
<path d="M34.2867 11.4285H32.3816V13.3335H34.2867V11.4285Z" fill="#51197A"/>
<path d="M34.2867 13.3334H32.3816V15.2385H34.2867V13.3334Z" fill="#51197A"/>
<path d="M34.2867 15.2376H32.3816V17.1426H34.2867V15.2376Z" fill="#51197A"/>
<path d="M34.2867 17.1429H32.3816V19.048H34.2867V17.1429Z" fill="#51197A"/>
<path d="M1.90507 11.4285H0V13.3336H1.90507V11.4285Z" fill="#51197A"/>
<path d="M1.90507 13.3334H0V15.2385H1.90507V13.3334Z" fill="#51197A"/>
<path d="M1.90507 19.0478H0V20.9529H1.90507V19.0478Z" fill="#51197A"/>
<path d="M1.90507 15.2376H0V17.1426H1.90507V15.2376Z" fill="#51197A"/>
<path d="M1.90507 17.1429H0V19.048H1.90507V17.1429Z" fill="#51197A"/>
<path d="M1.90507 20.952H0V22.8571H1.90507V20.952Z" fill="#51197A"/>
<path d="M3.8101 22.857H1.90503V24.7621H3.8101V22.857Z" fill="#51197A"/>
<path d="M5.71537 26.6664H3.8103V28.5715H5.71537V26.6664Z" fill="#51197A"/>
<path d="M7.61942 28.5714H5.71436V30.4764H7.61942V28.5714Z" fill="#51197A"/>
<path d="M9.52446 30.4763H7.61938V32.3814H9.52446V30.4763Z" fill="#51197A"/>
<path d="M11.4295 30.4764H9.52441V32.3815H11.4295V30.4764Z" fill="#51197A"/>
<path d="M13.3338 30.4764H11.4287V32.3815H13.3338V30.4764Z" fill="#51197A"/>
<path d="M15.2391 30.4763H13.334V32.3814H15.2391V30.4763Z" fill="#51197A"/>
<path d="M17.1438 30.4763H15.2388V32.3814H17.1438V30.4763Z" fill="#51197A"/>
<path d="M19.0481 30.4763H17.1431V32.3814H19.0481V30.4763Z" fill="#51197A"/>
<path d="M20.9532 30.4764H19.0481V32.3815H20.9532V30.4764Z" fill="#51197A"/>
<path d="M22.8572 30.4764H20.9521V32.3815H22.8572V30.4764Z" fill="#51197A"/>
<path d="M24.7622 30.4764H22.8572V32.3815H24.7622V30.4764Z" fill="#51197A"/>
<path d="M34.2867 19.0478H32.3816V20.9529H34.2867V19.0478Z" fill="#51197A"/>
<path d="M34.2867 20.952H32.3816V22.8571H34.2867V20.952Z" fill="#51197A"/>
<path d="M32.3816 22.857H30.4766V24.7621H32.3816V22.857Z" fill="#51197A"/>
<path d="M30.4766 26.6664H28.5715V28.5715H30.4766V26.6664Z" fill="#51197A"/>
<path d="M28.5726 28.5713H26.6675V30.4764H28.5726V28.5713Z" fill="#51197A"/>
<path d="M26.6675 30.4763H24.7625V32.3814H26.6675V30.4763Z" fill="#51197A"/>
<path d="M32.3816 24.7623H30.4766V26.6673H32.3816V24.7623Z" fill="#51197A"/>
<path d="M3.8101 24.7623H1.90503V26.6673H3.8101V24.7623Z" fill="#51197A"/>
<path d="M17.1436 22.8567H15.2385V24.7618H17.1436V22.8567Z" fill="#EBCAFF"/>
<path d="M17.1436 24.7617H15.2385V26.6667H17.1436V24.7617Z" fill="#EBCAFF"/>
<path d="M20.9532 26.6662H19.0481V28.5713H20.9532V26.6662Z" fill="#EBCAFF"/>
<path d="M22.8572 26.6662H20.9521V28.5713H22.8572V26.6662Z" fill="#EBCAFF"/>
<path d="M19.0476 26.6662H17.1426V28.5713H19.0476V26.6662Z" fill="#EBCAFF"/>
<path d="M17.1436 26.6662H15.2385V28.5713H17.1436V26.6662Z" fill="#EBCAFF"/>
<path d="M17.1436 28.5712H15.2385V30.4762H17.1436V28.5712Z" fill="#EBCAFF"/>
<path d="M19.0476 28.5712H17.1426V30.4762H19.0476V28.5712Z" fill="#EBCAFF"/>
<path d="M20.9532 28.5712H19.0481V30.4762H20.9532V28.5712Z" fill="#EBCAFF"/>
<path d="M22.8572 28.5712H20.9521V30.4762H22.8572V28.5712Z" fill="#EBCAFF"/>
<path d="M22.858 20.9518H20.9529V22.8569H22.858V20.9518Z" fill="#EBCAFF"/>
<path d="M20.9532 20.9518H19.0481V22.8568H20.9532V20.9518Z" fill="#EBCAFF"/>
<path d="M19.0479 20.9518H17.1428V22.8569H19.0479V20.9518Z" fill="#EBCAFF"/>
<path d="M17.1436 20.9518H15.2385V22.8568H17.1436V20.9518Z" fill="#EBCAFF"/>
<path d="M24.7622 26.6662H22.8572V28.5713H24.7622V26.6662Z" fill="#EBCAFF"/>
<path d="M24.7622 24.7617H22.8572V26.6667H24.7622V24.7617Z" fill="#EBCAFF"/>
<path d="M24.7622 22.8567H22.8572V24.7618H24.7622V22.8567Z" fill="#EBCAFF"/>
<path d="M24.7622 20.9518H22.8572V22.8568H24.7622V20.9518Z" fill="#EBCAFF"/>
<path d="M26.667 24.7617H24.762V26.6667H26.667V24.7617Z" fill="#EBCAFF"/>
<path d="M26.6673 22.8568H24.7622V24.7619H26.6673V22.8568Z" fill="#EBCAFF"/>
<path d="M26.6673 20.9518H24.7622V22.8569H26.6673V20.9518Z" fill="#EBCAFF"/>
<path d="M15.2386 28.5712H13.3335V30.4762H15.2386V28.5712Z" fill="#EBCAFF"/>
<path d="M15.2386 26.6662H13.3335V28.5713H15.2386V26.6662Z" fill="#EBCAFF"/>
<path d="M15.2386 24.7617H13.3335V26.6667H15.2386V24.7617Z" fill="#EBCAFF"/>
<path d="M15.2386 22.8567H13.3335V24.7618H15.2386V22.8567Z" fill="#EBCAFF"/>
<path d="M13.3335 28.5712H11.4285V30.4762H13.3335V28.5712Z" fill="#EBCAFF"/>
<path d="M13.3335 24.7617H11.4285V26.6667H13.3335V24.7617Z" fill="#EBCAFF"/>
<path d="M13.3335 26.6662H11.4285V28.5713H13.3335V26.6662Z" fill="#EBCAFF"/>
<path d="M13.3335 22.8567H11.4285V24.7618H13.3335V22.8567Z" fill="#EBCAFF"/>
<path d="M28.5721 22.8567H26.667V24.7618H28.5721V22.8567Z" fill="#EBCAFF"/>
<path d="M28.5721 20.9518H26.667V22.8568H28.5721V20.9518Z" fill="#EBCAFF"/>
<path d="M26.6673 19.0476H24.7622V20.9527H26.6673V19.0476Z" fill="#EBCAFF"/>
<path d="M24.7622 19.0476H22.8572V20.9527H24.7622V19.0476Z" fill="#EBCAFF"/>
<path d="M19.0479 19.0476H17.1428V20.9527H19.0479V19.0476Z" fill="#EBCAFF"/>
<path d="M20.9532 19.0476H19.0481V20.9527H20.9532V19.0476Z" fill="#EBCAFF"/>
<path d="M22.8572 19.0476H20.9521V20.9527H22.8572V19.0476Z" fill="#EBCAFF"/>
<path d="M11.4295 26.6662H9.52441V28.5713H11.4295V26.6662Z" fill="#EBCAFF"/>
<path d="M11.4295 24.7617H9.52441V26.6667H11.4295V24.7617Z" fill="#EBCAFF"/>
<path d="M11.4295 22.8567H9.52441V24.7618H11.4295V22.8567Z" fill="#EBCAFF"/>
<path d="M9.52421 22.8568H7.61914V24.7619H9.52421V22.8568Z" fill="#EBCAFF"/>
<path d="M9.52421 24.7617H7.61914V26.6667H9.52421V24.7617Z" fill="#EBCAFF"/>
<path d="M13.3335 20.9518H11.4285V22.8568H13.3335V20.9518Z" fill="#EBCAFF"/>
<path d="M11.4295 20.9518H9.52441V22.8568H11.4295V20.9518Z" fill="#EBCAFF"/>
<path d="M9.52421 20.9518H7.61914V22.8569H9.52421V20.9518Z" fill="#EBCAFF"/>
<path d="M9.52421 19.0476H7.61914V20.9527H9.52421V19.0476Z" fill="#EBCAFF"/>
<path d="M11.4295 19.0476H9.52441V20.9527H11.4295V19.0476Z" fill="#EBCAFF"/>
<path d="M26.667 17.1427H24.762V19.0477H26.667V17.1427Z" fill="#EBCAFF"/>
<path d="M24.7622 17.1427H22.8572V19.0477H24.7622V17.1427Z" fill="#EBCAFF"/>
<path d="M22.858 17.1427H20.9529V19.0477H22.858V17.1427Z" fill="#EBCAFF"/>
<path d="M20.9532 17.1427H19.0481V19.0477H20.9532V17.1427Z" fill="#EBCAFF"/>
<path d="M17.1436 17.1427H15.2385V19.0477H17.1436V17.1427Z" fill="#EBCAFF"/>
<path d="M19.0476 17.1427H17.1426V19.0477H19.0476V17.1427Z" fill="#EBCAFF"/>
<path d="M13.3335 17.1427H11.4285V19.0477H13.3335V17.1427Z" fill="#EBCAFF"/>
<path d="M11.4295 17.1427H9.52441V19.0477H11.4295V17.1427Z" fill="#EBCAFF"/>
<path d="M9.52421 17.1427H7.61914V19.0477H9.52421V17.1427Z" fill="#EBCAFF"/>
<path d="M7.61918 20.9518H5.71411V22.8569H7.61918V20.9518Z" fill="#EBCAFF"/>
<path d="M7.61918 22.8568H5.71411V24.7619H7.61918V22.8568Z" fill="#EBCAFF"/>
<path d="M24.7622 15.2374H22.8572V17.1424H24.7622V15.2374Z" fill="#EBCAFF"/>
<path d="M20.9532 15.2374H19.0481V17.1424H20.9532V15.2374Z" fill="#EBCAFF"/>
<path d="M22.8572 15.2374H20.9521V17.1424H22.8572V15.2374Z" fill="#EBCAFF"/>
<path d="M17.1436 15.2374H15.2385V17.1424H17.1436V15.2374Z" fill="#EBCAFF"/>
<path d="M19.0476 15.2374H17.1426V17.1424H19.0476V15.2374Z" fill="#EBCAFF"/>
<path d="M13.3335 15.2374H11.4285V17.1424H13.3335V15.2374Z" fill="#EBCAFF"/>
<path d="M15.2386 15.2374H13.3335V17.1424H15.2386V15.2374Z" fill="#EBCAFF"/>
<path d="M11.4295 15.2374H9.52441V17.1424H11.4295V15.2374Z" fill="#EBCAFF"/>
<path d="M22.858 13.3332H20.9529V15.2383H22.858V13.3332Z" fill="#EBCAFF"/>
<path d="M20.9532 13.3332H19.0481V15.2383H20.9532V13.3332Z" fill="#EBCAFF"/>
<path d="M19.0476 13.3332H17.1426V15.2383H19.0476V13.3332Z" fill="#EBCAFF"/>
<path d="M17.1436 13.3332H15.2385V15.2383H17.1436V13.3332Z" fill="#EBCAFF"/>
<path d="M15.2386 13.3332H13.3335V15.2383H15.2386V13.3332Z" fill="#EBCAFF"/>
<path d="M13.3335 13.3332H11.4285V15.2383H13.3335V13.3332Z" fill="#EBCAFF"/>
<path d="M19.0479 11.4283H17.1428V13.3334H19.0479V11.4283Z" fill="#EBCAFF"/>
<path d="M17.1436 11.4283H15.2385V13.3333H17.1436V11.4283Z" fill="#EBCAFF"/>
<path d="M19.0479 22.8568H17.1428V24.7619H19.0479V22.8568Z" fill="#EBCAFF"/>
<path d="M19.0476 24.7617H17.1426V26.6667H19.0476V24.7617Z" fill="#EBCAFF"/>
<path d="M20.9532 22.8567H19.0481V24.7618H20.9532V22.8567Z" fill="#EBCAFF"/>
<path d="M20.9532 24.7617H19.0481V26.6667H20.9532V24.7617Z" fill="#EBCAFF"/>
<path d="M22.8572 22.8567H20.9521V24.7618H22.8572V22.8567Z" fill="#EBCAFF"/>
<path d="M22.858 24.7617H20.9529V26.6667H22.858V24.7617Z" fill="#EBCAFF"/>
</svg>
