<svg width="340" height="72" viewBox="0 0 340 72" fill="none" xmlns="http://www.w3.org/2000/svg">
<path d="M14.3133 0H9.80859V4.49941H14.3133V0Z" fill="#292666"/>
<path d="M18.8172 0H14.3125V4.49941H18.8172V0Z" fill="#292666"/>
<path d="M23.3211 0H18.8164V4.49941H23.3211V0Z" fill="#292666"/>
<path d="M27.825 0H23.3203V4.49941H27.825V0Z" fill="#292666"/>
<path d="M32.325 0H27.8203V4.49941H32.325V0Z" fill="#292666"/>
<path d="M36.8328 0H32.3281V4.49941H36.8328V0Z" fill="#292666"/>
<path d="M41.3328 0H36.8281V4.49941H41.3328V0Z" fill="#292666"/>
<path d="M45.8406 0H41.3359V4.49941H45.8406V0Z" fill="#292666"/>
<path d="M50.3523 0H45.8477V4.49941H50.3523V0Z" fill="#292666"/>
<path d="M63.7586 0H59.2539V4.49941H63.7586V0Z" fill="#292666"/>
<path d="M77.1609 0H72.6562V4.49941H77.1609V0Z" fill="#292666"/>
<path d="M90.5633 0H86.0586V4.49941H90.5633V0Z" fill="#292666"/>
<path d="M103.97 0H99.4648V4.49941H103.97V0Z" fill="#292666"/>
<path d="M117.372 0H112.867V4.49941H117.372V0Z" fill="#292666"/>
<path d="M130.778 0H126.273V4.49941H130.778V0Z" fill="#292666"/>
<path d="M144.18 0H139.676V4.49941H144.18V0Z" fill="#292666"/>
<path d="M157.587 0H153.082V4.49941H157.587V0Z" fill="#292666"/>
<path d="M170.989 0H166.484V4.49941H170.989V0Z" fill="#292666"/>
<path d="M206.805 0H202.301V4.49941H206.805V0Z" fill="#292666"/>
<path d="M259.813 0H255.309V4.49941H259.813V0Z" fill="#292666"/>
<path d="M304.012 0H299.508V4.49941H304.012V0Z" fill="#292666"/>
<path d="M184.395 0H179.891V4.49941H184.395V0Z" fill="#292666"/>
<path d="M237.403 0H232.898V4.49941H237.403V0Z" fill="#292666"/>
<path d="M273.22 0H268.715V4.49941H273.22V0Z" fill="#292666"/>
<path d="M220.208 0H215.703V4.49941H220.208V0Z" fill="#292666"/>
<path d="M317.415 0H312.91V4.49941H317.415V0Z" fill="#292666"/>
<path d="M54.8562 0H50.3516V4.49941H54.8562V0Z" fill="#292666"/>
<path d="M68.2625 0H63.7578V4.49941H68.2625V0Z" fill="#292666"/>
<path d="M81.6648 0H77.1602V4.49941H81.6648V0Z" fill="#292666"/>
<path d="M95.0711 0H90.5664V4.49941H95.0711V0Z" fill="#292666"/>
<path d="M108.473 0H103.969V4.49941H108.473V0Z" fill="#292666"/>
<path d="M121.876 0H117.371V4.49941H121.876V0Z" fill="#292666"/>
<path d="M135.282 0H130.777V4.49941H135.282V0Z" fill="#292666"/>
<path d="M148.684 0H144.18V4.49941H148.684V0Z" fill="#292666"/>
<path d="M250.915 0H246.41V4.49941H250.915V0Z" fill="#292666"/>
<path d="M162.091 0H157.586V4.49941H162.091V0Z" fill="#292666"/>
<path d="M197.907 0H193.402V4.49941H197.907V0Z" fill="#292666"/>
<path d="M264.317 0H259.812V4.49941H264.317V0Z" fill="#292666"/>
<path d="M295.114 0H290.609V4.49941H295.114V0Z" fill="#292666"/>
<path d="M241.907 0H237.402V4.49941H241.907V0Z" fill="#292666"/>
<path d="M175.493 0H170.988V4.49941H175.493V0Z" fill="#292666"/>
<path d="M277.723 0H273.219V4.49941H277.723V0Z" fill="#292666"/>
<path d="M211.309 0H206.805V4.49941H211.309V0Z" fill="#292666"/>
<path d="M308.516 0H304.012V4.49941H308.516V0Z" fill="#292666"/>
<path d="M188.899 0H184.395V4.49941H188.899V0Z" fill="#292666"/>
<path d="M286.106 0H281.602V4.49941H286.106V0Z" fill="#292666"/>
<path d="M224.716 0H220.211V4.49941H224.716V0Z" fill="#292666"/>
<path d="M321.923 0H317.418V4.49941H321.923V0Z" fill="#292666"/>
<path d="M59.3601 0H54.8555V4.49941H59.3601V0Z" fill="#292666"/>
<path d="M72.7625 0H68.2578V4.49941H72.7625V0Z" fill="#292666"/>
<path d="M86.1687 0H81.6641V4.49941H86.1687V0Z" fill="#292666"/>
<path d="M99.5711 0H95.0664V4.49941H99.5711V0Z" fill="#292666"/>
<path d="M255.419 0H250.914V4.49941H255.419V0Z" fill="#292666"/>
<path d="M112.977 0H108.473V4.49941H112.977V0Z" fill="#292666"/>
<path d="M126.38 0H121.875V4.49941H126.38V0Z" fill="#292666"/>
<path d="M139.786 0H135.281V4.49941H139.786V0Z" fill="#292666"/>
<path d="M268.821 0H264.316V4.49941H268.821V0Z" fill="#292666"/>
<path d="M153.188 0H148.684V4.49941H153.188V0Z" fill="#292666"/>
<path d="M246.411 0H241.906V4.49941H246.411V0Z" fill="#292666"/>
<path d="M166.595 0H162.09V4.49941H166.595V0Z" fill="#292666"/>
<path d="M282.223 0H277.719V4.49941H282.223V0Z" fill="#292666"/>
<path d="M202.407 0H197.902V4.49941H202.407V0Z" fill="#292666"/>
<path d="M299.614 0H295.109V4.49941H299.614V0Z" fill="#292666"/>
<path d="M179.997 0H175.492V4.49941H179.997V0Z" fill="#292666"/>
<path d="M233.005 0H228.5V4.49941H233.005V0Z" fill="#292666"/>
<path d="M215.813 0H211.309V4.49941H215.813V0Z" fill="#292666"/>
<path d="M313.02 0H308.516V4.49941H313.02V0Z" fill="#292666"/>
<path d="M193.403 0H188.898V4.49941H193.403V0Z" fill="#292666"/>
<path d="M290.61 0H286.105V4.49941H290.61V0Z" fill="#292666"/>
<path d="M229.216 0H224.711V4.49941H229.216V0Z" fill="#292666"/>
<path d="M326.423 0H321.918V4.49941H326.423V0Z" fill="#292666"/>
<path d="M9.80936 4.49713H5.30469V8.99654H9.80936V4.49713Z" fill="#292666"/>
<path d="M14.3133 4.49713H9.80859V8.99654H14.3133V4.49713Z" fill="#374EA0"/>
<path d="M18.8172 4.49713H14.3125V8.99654H18.8172V4.49713Z" fill="#374EA0"/>
<path d="M23.3211 4.49713H18.8164V8.99654H23.3211V4.49713Z" fill="#374EA0"/>
<path d="M27.825 4.49713H23.3203V8.99654H27.825V4.49713Z" fill="#374EA0"/>
<path d="M32.325 4.49713H27.8203V8.99654H32.325V4.49713Z" fill="#374EA0"/>
<path d="M36.8328 4.49713H32.3281V8.99654H36.8328V4.49713Z" fill="#374EA0"/>
<path d="M41.3328 4.49713H36.8281V8.99654H41.3328V4.49713Z" fill="#374EA0"/>
<path d="M45.8406 4.49713H41.3359V8.99654H45.8406V4.49713Z" fill="#374EA0"/>
<path d="M50.3523 4.49713H45.8477V8.99654H50.3523V4.49713Z" fill="#374EA0"/>
<path d="M259.813 4.49713H255.309V8.99654H259.813V4.49713Z" fill="#374EA0"/>
<path d="M63.7586 4.49713H59.2539V8.99654H63.7586V4.49713Z" fill="#374EA0"/>
<path d="M77.1609 4.49713H72.6562V8.99654H77.1609V4.49713Z" fill="#374EA0"/>
<path d="M90.5633 4.49713H86.0586V8.99654H90.5633V4.49713Z" fill="#374EA0"/>
<path d="M273.22 4.49713H268.715V8.99654H273.22V4.49713Z" fill="#374EA0"/>
<path d="M103.97 4.49713H99.4648V8.99654H103.97V4.49713Z" fill="#374EA0"/>
<path d="M117.372 4.49713H112.867V8.99654H117.372V4.49713Z" fill="#374EA0"/>
<path d="M130.778 4.49713H126.273V8.99654H130.778V4.49713Z" fill="#374EA0"/>
<path d="M144.18 4.49713H139.676V8.99654H144.18V4.49713Z" fill="#374EA0"/>
<path d="M157.587 4.49713H153.082V8.99654H157.587V4.49713Z" fill="#374EA0"/>
<path d="M170.989 4.49713H166.484V8.99654H170.989V4.49713Z" fill="#374EA0"/>
<path d="M206.805 4.49713H202.301V8.99654H206.805V4.49713Z" fill="#374EA0"/>
<path d="M304.012 4.49713H299.508V8.99654H304.012V4.49713Z" fill="#374EA0"/>
<path d="M184.395 4.49713H179.891V8.99654H184.395V4.49713Z" fill="#374EA0"/>
<path d="M237.403 4.49713H232.898V8.99654H237.403V4.49713Z" fill="#374EA0"/>
<path d="M250.915 4.49713H246.41V8.99654H250.915V4.49713Z" fill="#374EA0"/>
<path d="M220.208 4.49713H215.703V8.99654H220.208V4.49713Z" fill="#374EA0"/>
<path d="M317.415 4.49713H312.91V8.99654H317.415V4.49713Z" fill="#374EA0"/>
<path d="M264.317 4.49713H259.812V8.99654H264.317V4.49713Z" fill="#374EA0"/>
<path d="M54.8562 4.49713H50.3516V8.99654H54.8562V4.49713Z" fill="#374EA0"/>
<path d="M241.907 4.49713H237.402V8.99654H241.907V4.49713Z" fill="#374EA0"/>
<path d="M68.2625 4.49713H63.7578V8.99654H68.2625V4.49713Z" fill="#374EA0"/>
<path d="M277.723 4.49713H273.219V8.99654H277.723V4.49713Z" fill="#374EA0"/>
<path d="M81.6648 4.49713H77.1602V8.99654H81.6648V4.49713Z" fill="#374EA0"/>
<path d="M95.0711 4.49713H90.5664V8.99654H95.0711V4.49713Z" fill="#374EA0"/>
<path d="M108.473 4.49713H103.969V8.99654H108.473V4.49713Z" fill="#374EA0"/>
<path d="M121.876 4.49713H117.371V8.99654H121.876V4.49713Z" fill="#374EA0"/>
<path d="M135.282 4.49713H130.777V8.99654H135.282V4.49713Z" fill="#374EA0"/>
<path d="M148.684 4.49713H144.18V8.99654H148.684V4.49713Z" fill="#374EA0"/>
<path d="M162.091 4.49713H157.586V8.99654H162.091V4.49713Z" fill="#374EA0"/>
<path d="M197.907 4.49713H193.402V8.99654H197.907V4.49713Z" fill="#374EA0"/>
<path d="M295.114 4.49713H290.609V8.99654H295.114V4.49713Z" fill="#374EA0"/>
<path d="M175.493 4.49713H170.988V8.99654H175.493V4.49713Z" fill="#374EA0"/>
<path d="M255.419 4.49713H250.914V8.99654H255.419V4.49713Z" fill="#374EA0"/>
<path d="M211.309 4.49713H206.805V8.99654H211.309V4.49713Z" fill="#374EA0"/>
<path d="M308.516 4.49713H304.012V8.99654H308.516V4.49713Z" fill="#374EA0"/>
<path d="M188.899 4.49713H184.395V8.99654H188.899V4.49713Z" fill="#374EA0"/>
<path d="M268.821 4.49713H264.316V8.99654H268.821V4.49713Z" fill="#374EA0"/>
<path d="M286.106 4.49713H281.602V8.99654H286.106V4.49713Z" fill="#374EA0"/>
<path d="M246.411 4.49713H241.906V8.99654H246.411V4.49713Z" fill="#374EA0"/>
<path d="M224.716 4.49713H220.211V8.99654H224.716V4.49713Z" fill="#374EA0"/>
<path d="M282.223 4.49713H277.719V8.99654H282.223V4.49713Z" fill="#374EA0"/>
<path d="M321.923 4.49713H317.418V8.99654H321.923V4.49713Z" fill="#374EA0"/>
<path d="M59.3601 4.49713H54.8555V8.99654H59.3601V4.49713Z" fill="#374EA0"/>
<path d="M72.7625 4.49713H68.2578V8.99654H72.7625V4.49713Z" fill="#374EA0"/>
<path d="M86.1687 4.49713H81.6641V8.99654H86.1687V4.49713Z" fill="#374EA0"/>
<path d="M99.5711 4.49713H95.0664V8.99654H99.5711V4.49713Z" fill="#374EA0"/>
<path d="M112.977 4.49713H108.473V8.99654H112.977V4.49713Z" fill="#374EA0"/>
<path d="M126.38 4.49713H121.875V8.99654H126.38V4.49713Z" fill="#374EA0"/>
<path d="M139.786 4.49713H135.281V8.99654H139.786V4.49713Z" fill="#374EA0"/>
<path d="M153.188 4.49713H148.684V8.99654H153.188V4.49713Z" fill="#374EA0"/>
<path d="M166.595 4.49713H162.09V8.99654H166.595V4.49713Z" fill="#374EA0"/>
<path d="M202.407 4.49713H197.902V8.99654H202.407V4.49713Z" fill="#374EA0"/>
<path d="M299.614 4.49713H295.109V8.99654H299.614V4.49713Z" fill="#374EA0"/>
<path d="M179.997 4.49713H175.492V8.99654H179.997V4.49713Z" fill="#374EA0"/>
<path d="M233.005 4.49713H228.5V8.99654H233.005V4.49713Z" fill="#374EA0"/>
<path d="M215.813 4.49713H211.309V8.99654H215.813V4.49713Z" fill="#374EA0"/>
<path d="M313.02 4.49713H308.516V8.99654H313.02V4.49713Z" fill="#374EA0"/>
<path d="M193.403 4.49713H188.898V8.99654H193.403V4.49713Z" fill="#374EA0"/>
<path d="M290.61 4.49713H286.105V8.99654H290.61V4.49713Z" fill="#374EA0"/>
<path d="M229.216 4.49713H224.711V8.99654H229.216V4.49713Z" fill="#374EA0"/>
<path d="M326.423 4.49713H321.918V8.99654H326.423V4.49713Z" fill="#374EA0"/>
<path d="M5.30545 8.99664H0.800781V13.496H5.30545V8.99664Z" fill="#292666"/>
<path d="M259.813 8.9967H255.309V13.4961H259.813V8.9967Z" fill="#ACDAE1"/>
<path d="M9.80936 8.9967H5.30469V13.4961H9.80936V8.9967Z" fill="#374EA0"/>
<path d="M14.3133 8.9967H9.80859V13.4961H14.3133V8.9967Z" fill="#374EA0"/>
<path d="M18.8172 8.9967H14.3125V13.4961H18.8172V8.9967Z" fill="#FAF1D4"/>
<path d="M273.22 8.9967H268.715V13.4961H273.22V8.9967Z" fill="#ACDAE1"/>
<path d="M23.3211 8.9967H18.8164V13.4961H23.3211V8.9967Z" fill="#FAF1D4"/>
<path d="M27.825 8.9967H23.3203V13.4961H27.825V8.9967Z" fill="#FAF1D4"/>
<path d="M32.325 8.9967H27.8203V13.4961H32.325V8.9967Z" fill="#ACDAE1"/>
<path d="M36.8328 8.9967H32.3281V13.4961H36.8328V8.9967Z" fill="#ACDAE1"/>
<path d="M41.3328 8.9967H36.8281V13.4961H41.3328V8.9967Z" fill="#FAF1D4"/>
<path d="M45.8406 8.9967H41.3359V13.4961H45.8406V8.9967Z" fill="#ACDAE1"/>
<path d="M50.3523 8.9967H45.8477V13.4961H50.3523V8.9967Z" fill="#ACDAE1"/>
<path d="M63.7586 8.9967H59.2539V13.4961H63.7586V8.9967Z" fill="#ACDAE1"/>
<path d="M77.1609 8.9967H72.6562V13.4961H77.1609V8.9967Z" fill="#ACDAE1"/>
<path d="M90.5633 8.9967H86.0586V13.4961H90.5633V8.9967Z" fill="#ACDAE1"/>
<path d="M250.915 8.9967H246.41V13.4961H250.915V8.9967Z" fill="#ACDAE1"/>
<path d="M103.97 8.9967H99.4648V13.4961H103.97V8.9967Z" fill="#ACDAE1"/>
<path d="M117.372 8.9967H112.867V13.4961H117.372V8.9967Z" fill="#ACDAE1"/>
<path d="M264.317 8.9967H259.812V13.4961H264.317V8.9967Z" fill="#ACDAE1"/>
<path d="M130.778 8.9967H126.273V13.4961H130.778V8.9967Z" fill="#ACDAE1"/>
<path d="M241.907 8.9967H237.402V13.4961H241.907V8.9967Z" fill="#ACDAE1"/>
<path d="M144.18 8.9967H139.676V13.4961H144.18V8.9967Z" fill="#ACDAE1"/>
<path d="M277.723 8.9967H273.219V13.4961H277.723V8.9967Z" fill="#ACDAE1"/>
<path d="M157.587 8.9967H153.082V13.4961H157.587V8.9967Z" fill="#ACDAE1"/>
<path d="M170.989 8.9967H166.484V13.4961H170.989V8.9967Z" fill="#ACDAE1"/>
<path d="M206.805 8.9967H202.301V13.4961H206.805V8.9967Z" fill="#ACDAE1"/>
<path d="M304.012 8.9967H299.508V13.4961H304.012V8.9967Z" fill="#ACDAE1"/>
<path d="M184.395 8.9967H179.891V13.4961H184.395V8.9967Z" fill="#ACDAE1"/>
<path d="M237.403 8.9967H232.898V13.4961H237.403V8.9967Z" fill="#ACDAE1"/>
<path d="M220.208 8.9967H215.703V13.4961H220.208V8.9967Z" fill="#ACDAE1"/>
<path d="M317.415 8.9967H312.91V13.4961H317.415V8.9967Z" fill="#ACDAE1"/>
<path d="M54.8562 8.9967H50.3516V13.4961H54.8562V8.9967Z" fill="#ACDAE1"/>
<path d="M68.2625 8.9967H63.7578V13.4961H68.2625V8.9967Z" fill="#ACDAE1"/>
<path d="M255.419 8.9967H250.914V13.4961H255.419V8.9967Z" fill="#ACDAE1"/>
<path d="M81.6648 8.9967H77.1602V13.4961H81.6648V8.9967Z" fill="#ACDAE1"/>
<path d="M95.0711 8.9967H90.5664V13.4961H95.0711V8.9967Z" fill="#ACDAE1"/>
<path d="M108.473 8.9967H103.969V13.4961H108.473V8.9967Z" fill="#ACDAE1"/>
<path d="M268.821 8.9967H264.316V13.4961H268.821V8.9967Z" fill="#ACDAE1"/>
<path d="M121.876 8.9967H117.371V13.4961H121.876V8.9967Z" fill="#ACDAE1"/>
<path d="M246.411 8.9967H241.906V13.4961H246.411V8.9967Z" fill="#ACDAE1"/>
<path d="M135.282 8.9967H130.777V13.4961H135.282V8.9967Z" fill="#ACDAE1"/>
<path d="M282.223 8.9967H277.719V13.4961H282.223V8.9967Z" fill="#ACDAE1"/>
<path d="M148.684 8.9967H144.18V13.4961H148.684V8.9967Z" fill="#ACDAE1"/>
<path d="M162.091 8.9967H157.586V13.4961H162.091V8.9967Z" fill="#ACDAE1"/>
<path d="M197.907 8.9967H193.402V13.4961H197.907V8.9967Z" fill="#ACDAE1"/>
<path d="M295.114 8.9967H290.609V13.4961H295.114V8.9967Z" fill="#ACDAE1"/>
<path d="M175.493 8.9967H170.988V13.4961H175.493V8.9967Z" fill="#ACDAE1"/>
<path d="M211.309 8.9967H206.805V13.4961H211.309V8.9967Z" fill="#ACDAE1"/>
<path d="M308.516 8.9967H304.012V13.4961H308.516V8.9967Z" fill="#ACDAE1"/>
<path d="M188.899 8.9967H184.395V13.4961H188.899V8.9967Z" fill="#ACDAE1"/>
<path d="M286.106 8.9967H281.602V13.4961H286.106V8.9967Z" fill="#ACDAE1"/>
<path d="M224.716 8.9967H220.211V13.4961H224.716V8.9967Z" fill="#ACDAE1"/>
<path d="M321.923 8.9967H317.418V13.4961H321.923V8.9967Z" fill="#ACDAE1"/>
<path d="M59.3601 8.9967H54.8555V13.4961H59.3601V8.9967Z" fill="#ACDAE1"/>
<path d="M72.7625 8.9967H68.2578V13.4961H72.7625V8.9967Z" fill="#ACDAE1"/>
<path d="M86.1687 8.9967H81.6641V13.4961H86.1687V8.9967Z" fill="#ACDAE1"/>
<path d="M99.5711 8.9967H95.0664V13.4961H99.5711V8.9967Z" fill="#ACDAE1"/>
<path d="M112.977 8.9967H108.473V13.4961H112.977V8.9967Z" fill="#ACDAE1"/>
<path d="M126.38 8.9967H121.875V13.4961H126.38V8.9967Z" fill="#ACDAE1"/>
<path d="M139.786 8.9967H135.281V13.4961H139.786V8.9967Z" fill="#ACDAE1"/>
<path d="M153.188 8.9967H148.684V13.4961H153.188V8.9967Z" fill="#ACDAE1"/>
<path d="M166.595 8.9967H162.09V13.4961H166.595V8.9967Z" fill="#ACDAE1"/>
<path d="M202.407 8.9967H197.902V13.4961H202.407V8.9967Z" fill="#ACDAE1"/>
<path d="M259.813 13.4938H255.309V17.9932H259.813V13.4938Z" fill="#67A1D2"/>
<path d="M299.614 8.9967H295.109V13.4961H299.614V8.9967Z" fill="#ACDAE1"/>
<path d="M179.997 8.9967H175.492V13.4961H179.997V8.9967Z" fill="#ACDAE1"/>
<path d="M233.005 8.9967H228.5V13.4961H233.005V8.9967Z" fill="#ACDAE1"/>
<path d="M273.22 13.4938H268.715V17.9932H273.22V13.4938Z" fill="#67A1D2"/>
<path d="M215.813 8.9967H211.309V13.4961H215.813V8.9967Z" fill="#ACDAE1"/>
<path d="M313.02 8.9967H308.516V13.4961H313.02V8.9967Z" fill="#ACDAE1"/>
<path d="M193.403 8.9967H188.898V13.4961H193.403V8.9967Z" fill="#ACDAE1"/>
<path d="M290.61 8.9967H286.105V13.4961H290.61V8.9967Z" fill="#ACDAE1"/>
<path d="M229.216 8.9967H224.711V13.4961H229.216V8.9967Z" fill="#ACDAE1"/>
<path d="M326.423 8.9967H321.918V13.4961H326.423V8.9967Z" fill="#ACDAE1"/>
<path d="M5.30545 13.4938H0.800781V17.9932H5.30545V13.4938Z" fill="#292666"/>
<path d="M9.80936 13.4938H5.30469V17.9932H9.80936V13.4938Z" fill="#374EA0"/>
<path d="M14.3133 13.4938H9.80859V17.9932H14.3133V13.4938Z" fill="#FAF1D4"/>
<path d="M18.8172 13.4938H14.3125V17.9932H18.8172V13.4938Z" fill="#67A1D2"/>
<path d="M250.915 13.4938H246.41V17.9932H250.915V13.4938Z" fill="#67A1D2"/>
<path d="M23.3211 13.4938H18.8164V17.9932H23.3211V13.4938Z" fill="#67A1D2"/>
<path d="M27.825 13.4938H23.3203V17.9932H27.825V13.4938Z" fill="#67A1D2"/>
<path d="M264.317 13.4938H259.812V17.9932H264.317V13.4938Z" fill="#67A1D2"/>
<path d="M32.325 13.4938H27.8203V17.9932H32.325V13.4938Z" fill="#67A1D2"/>
<path d="M241.907 13.4938H237.402V17.9932H241.907V13.4938Z" fill="#67A1D2"/>
<path d="M36.8328 13.4938H32.3281V17.9932H36.8328V13.4938Z" fill="#67A1D2"/>
<path d="M277.723 13.4938H273.219V17.9932H277.723V13.4938Z" fill="#67A1D2"/>
<path d="M41.3328 13.4938H36.8281V17.9932H41.3328V13.4938Z" fill="#67A1D2"/>
<path d="M45.8406 13.4938H41.3359V17.9932H45.8406V13.4938Z" fill="#67A1D2"/>
<path d="M50.3523 13.4938H45.8477V17.9932H50.3523V13.4938Z" fill="#67A1D2"/>
<path d="M63.7586 13.4938H59.2539V17.9932H63.7586V13.4938Z" fill="#67A1D2"/>
<path d="M77.1609 13.4938H72.6562V17.9932H77.1609V13.4938Z" fill="#67A1D2"/>
<path d="M90.5633 13.4938H86.0586V17.9932H90.5633V13.4938Z" fill="#67A1D2"/>
<path d="M103.97 13.4938H99.4648V17.9932H103.97V13.4938Z" fill="#67A1D2"/>
<path d="M117.372 13.4938H112.867V17.9932H117.372V13.4938Z" fill="#67A1D2"/>
<path d="M130.778 13.4938H126.273V17.9932H130.778V13.4938Z" fill="#67A1D2"/>
<path d="M144.18 13.4938H139.676V17.9932H144.18V13.4938Z" fill="#67A1D2"/>
<path d="M255.419 13.4938H250.914V17.9932H255.419V13.4938Z" fill="#67A1D2"/>
<path d="M157.587 13.4938H153.082V17.9932H157.587V13.4938Z" fill="#67A1D2"/>
<path d="M170.989 13.4938H166.484V17.9932H170.989V13.4938Z" fill="#67A1D2"/>
<path d="M206.805 13.4938H202.301V17.9932H206.805V13.4938Z" fill="#67A1D2"/>
<path d="M268.821 13.4938H264.316V17.9932H268.821V13.4938Z" fill="#67A1D2"/>
<path d="M304.012 13.4938H299.508V17.9932H304.012V13.4938Z" fill="#67A1D2"/>
<path d="M246.411 13.4938H241.906V17.9932H246.411V13.4938Z" fill="#67A1D2"/>
<path d="M184.395 13.4938H179.891V17.9932H184.395V13.4938Z" fill="#67A1D2"/>
<path d="M282.223 13.4938H277.719V17.9932H282.223V13.4938Z" fill="#67A1D2"/>
<path d="M237.403 13.4938H232.898V17.9932H237.403V13.4938Z" fill="#67A1D2"/>
<path d="M220.208 13.4938H215.703V17.9932H220.208V13.4938Z" fill="#67A1D2"/>
<path d="M317.415 13.4938H312.91V17.9932H317.415V13.4938Z" fill="#67A1D2"/>
<path d="M54.8562 13.4938H50.3516V17.9932H54.8562V13.4938Z" fill="#67A1D2"/>
<path d="M68.2625 13.4938H63.7578V17.9932H68.2625V13.4938Z" fill="#67A1D2"/>
<path d="M81.6648 13.4938H77.1602V17.9932H81.6648V13.4938Z" fill="#67A1D2"/>
<path d="M95.0711 13.4938H90.5664V17.9932H95.0711V13.4938Z" fill="#67A1D2"/>
<path d="M108.473 13.4938H103.969V17.9932H108.473V13.4938Z" fill="#67A1D2"/>
<path d="M121.876 13.4938H117.371V17.9932H121.876V13.4938Z" fill="#67A1D2"/>
<path d="M135.282 13.4938H130.777V17.9932H135.282V13.4938Z" fill="#67A1D2"/>
<path d="M148.684 13.4938H144.18V17.9932H148.684V13.4938Z" fill="#67A1D2"/>
<path d="M162.091 13.4938H157.586V17.9932H162.091V13.4938Z" fill="#67A1D2"/>
<path d="M197.907 13.4938H193.402V17.9932H197.907V13.4938Z" fill="#67A1D2"/>
<path d="M295.114 13.4938H290.609V17.9932H295.114V13.4938Z" fill="#67A1D2"/>
<path d="M175.493 13.4938H170.988V17.9932H175.493V13.4938Z" fill="#67A1D2"/>
<path d="M211.309 13.4938H206.805V17.9932H211.309V13.4938Z" fill="#67A1D2"/>
<path d="M308.516 13.4938H304.012V17.9932H308.516V13.4938Z" fill="#67A1D2"/>
<path d="M188.899 13.4938H184.395V17.9932H188.899V13.4938Z" fill="#67A1D2"/>
<path d="M286.106 13.4938H281.602V17.9932H286.106V13.4938Z" fill="#67A1D2"/>
<path d="M224.716 13.4938H220.211V17.9932H224.716V13.4938Z" fill="#67A1D2"/>
<path d="M321.923 13.4938H317.418V17.9932H321.923V13.4938Z" fill="#67A1D2"/>
<path d="M259.813 17.9932H255.309V22.4926H259.813V17.9932Z" fill="#67A1D2"/>
<path d="M59.3601 13.4938H54.8555V17.9932H59.3601V13.4938Z" fill="#67A1D2"/>
<path d="M72.7625 13.4938H68.2578V17.9932H72.7625V13.4938Z" fill="#67A1D2"/>
<path d="M86.1687 13.4938H81.6641V17.9932H86.1687V13.4938Z" fill="#67A1D2"/>
<path d="M273.22 17.9932H268.715V22.4926H273.22V17.9932Z" fill="#67A1D2"/>
<path d="M99.5711 13.4938H95.0664V17.9932H99.5711V13.4938Z" fill="#67A1D2"/>
<path d="M112.977 13.4938H108.473V17.9932H112.977V13.4938Z" fill="#67A1D2"/>
<path d="M126.38 13.4938H121.875V17.9932H126.38V13.4938Z" fill="#67A1D2"/>
<path d="M139.786 13.4938H135.281V17.9932H139.786V13.4938Z" fill="#67A1D2"/>
<path d="M153.188 13.4938H148.684V17.9932H153.188V13.4938Z" fill="#67A1D2"/>
<path d="M166.595 13.4938H162.09V17.9932H166.595V13.4938Z" fill="#67A1D2"/>
<path d="M202.407 13.4938H197.902V17.9932H202.407V13.4938Z" fill="#67A1D2"/>
<path d="M299.614 13.4938H295.109V17.9932H299.614V13.4938Z" fill="#67A1D2"/>
<path d="M179.997 13.4938H175.492V17.9932H179.997V13.4938Z" fill="#67A1D2"/>
<path d="M233.005 13.4938H228.5V17.9932H233.005V13.4938Z" fill="#67A1D2"/>
<path d="M250.915 17.9932H246.41V22.4926H250.915V17.9932Z" fill="#67A1D2"/>
<path d="M215.813 13.4938H211.309V17.9932H215.813V13.4938Z" fill="#67A1D2"/>
<path d="M313.02 13.4938H308.516V17.9932H313.02V13.4938Z" fill="#67A1D2"/>
<path d="M264.317 17.9932H259.812V22.4926H264.317V17.9932Z" fill="#67A1D2"/>
<path d="M193.403 13.4938H188.898V17.9932H193.403V13.4938Z" fill="#67A1D2"/>
<path d="M241.907 17.9932H237.402V22.4926H241.907V17.9932Z" fill="#67A1D2"/>
<path d="M290.61 13.4938H286.105V17.9932H290.61V13.4938Z" fill="#67A1D2"/>
<path d="M277.723 17.9932H273.219V22.4926H277.723V17.9932Z" fill="#67A1D2"/>
<path d="M229.216 13.4938H224.711V17.9932H229.216V13.4938Z" fill="#67A1D2"/>
<path d="M326.423 13.4938H321.918V17.9932H326.423V13.4938Z" fill="#67A1D2"/>
<path d="M5.30545 17.9932H0.800781V22.4926H5.30545V17.9932Z" fill="#292666"/>
<path d="M9.80936 17.9932H5.30469V22.4926H9.80936V17.9932Z" fill="#374EA0"/>
<path d="M14.3133 17.9932H9.80859V22.4926H14.3133V17.9932Z" fill="#ACDAE1"/>
<path d="M18.8172 17.9932H14.3125V22.4926H18.8172V17.9932Z" fill="#67A1D2"/>
<path d="M23.3211 17.9932H18.8164V22.4926H23.3211V17.9932Z" fill="#67A1D2"/>
<path d="M27.825 17.9932H23.3203V22.4926H27.825V17.9932Z" fill="#67A1D2"/>
<path d="M32.325 17.9932H27.8203V22.4926H32.325V17.9932Z" fill="#67A1D2"/>
<path d="M36.8328 17.9932H32.3281V22.4926H36.8328V17.9932Z" fill="#67A1D2"/>
<path d="M255.419 17.9932H250.914V22.4926H255.419V17.9932Z" fill="#67A1D2"/>
<path d="M41.3328 17.9932H36.8281V22.4926H41.3328V17.9932Z" fill="#67A1D2"/>
<path d="M45.8406 17.9932H41.3359V22.4926H45.8406V17.9932Z" fill="#67A1D2"/>
<path d="M50.3523 17.9932H45.8477V22.4926H50.3523V17.9932Z" fill="#67A1D2"/>
<path d="M268.821 17.9932H264.316V22.4926H268.821V17.9932Z" fill="#67A1D2"/>
<path d="M63.7586 17.9932H59.2539V22.4926H63.7586V17.9932Z" fill="#67A1D2"/>
<path d="M246.411 17.9932H241.906V22.4926H246.411V17.9932Z" fill="#67A1D2"/>
<path d="M77.1609 17.9932H72.6562V22.4926H77.1609V17.9932Z" fill="#67A1D2"/>
<path d="M282.223 17.9932H277.719V22.4926H282.223V17.9932Z" fill="#67A1D2"/>
<path d="M90.5633 17.9932H86.0586V22.4926H90.5633V17.9932Z" fill="#67A1D2"/>
<path d="M103.97 17.9932H99.4648V22.4926H103.97V17.9932Z" fill="#67A1D2"/>
<path d="M117.372 17.9932H112.867V22.4926H117.372V17.9932Z" fill="#67A1D2"/>
<path d="M130.778 17.9932H126.273V22.4926H130.778V17.9932Z" fill="#67A1D2"/>
<path d="M144.18 17.9932H139.676V22.4926H144.18V17.9932Z" fill="#67A1D2"/>
<path d="M157.587 17.9932H153.082V22.4926H157.587V17.9932Z" fill="#67A1D2"/>
<path d="M170.989 17.9932H166.484V22.4926H170.989V17.9932Z" fill="#67A1D2"/>
<path d="M206.805 17.9932H202.301V22.4926H206.805V17.9932Z" fill="#67A1D2"/>
<path d="M304.012 17.9932H299.508V22.4926H304.012V17.9932Z" fill="#67A1D2"/>
<path d="M184.395 17.9932H179.891V22.4926H184.395V17.9932Z" fill="#67A1D2"/>
<path d="M237.403 17.9932H232.898V22.4926H237.403V17.9932Z" fill="#67A1D2"/>
<path d="M220.208 17.9932H215.703V22.4926H220.208V17.9932Z" fill="#67A1D2"/>
<path d="M317.415 17.9932H312.91V22.4926H317.415V17.9932Z" fill="#67A1D2"/>
<path d="M54.8562 17.9932H50.3516V22.4926H54.8562V17.9932Z" fill="#67A1D2"/>
<path d="M68.2625 17.9932H63.7578V22.4926H68.2625V17.9932Z" fill="#67A1D2"/>
<path d="M81.6648 17.9932H77.1602V22.4926H81.6648V17.9932Z" fill="#67A1D2"/>
<path d="M95.0711 17.9932H90.5664V22.4926H95.0711V17.9932Z" fill="#67A1D2"/>
<path d="M108.473 17.9932H103.969V22.4926H108.473V17.9932Z" fill="#67A1D2"/>
<path d="M121.876 17.9932H117.371V22.4926H121.876V17.9932Z" fill="#67A1D2"/>
<path d="M135.282 17.9932H130.777V22.4926H135.282V17.9932Z" fill="#67A1D2"/>
<path d="M148.684 17.9932H144.18V22.4926H148.684V17.9932Z" fill="#67A1D2"/>
<path d="M259.813 22.4905H255.309V26.9899H259.813V22.4905Z" fill="#67A1D2"/>
<path d="M162.091 17.9932H157.586V22.4926H162.091V17.9932Z" fill="#67A1D2"/>
<path d="M197.907 17.9932H193.402V22.4926H197.907V17.9932Z" fill="#67A1D2"/>
<path d="M295.114 17.9932H290.609V22.4926H295.114V17.9932Z" fill="#67A1D2"/>
<path d="M273.22 22.4905H268.715V26.9899H273.22V22.4905Z" fill="#67A1D2"/>
<path d="M175.493 17.9932H170.988V22.4926H175.493V17.9932Z" fill="#67A1D2"/>
<path d="M211.309 17.9932H206.805V22.4926H211.309V17.9932Z" fill="#67A1D2"/>
<path d="M308.516 17.9932H304.012V22.4926H308.516V17.9932Z" fill="#67A1D2"/>
<path d="M188.899 17.9932H184.395V22.4926H188.899V17.9932Z" fill="#67A1D2"/>
<path d="M286.106 17.9932H281.602V22.4926H286.106V17.9932Z" fill="#67A1D2"/>
<path d="M224.716 17.9932H220.211V22.4926H224.716V17.9932Z" fill="#67A1D2"/>
<path d="M321.923 17.9932H317.418V22.4926H321.923V17.9932Z" fill="#67A1D2"/>
<path d="M59.3601 17.9932H54.8555V22.4926H59.3601V17.9932Z" fill="#67A1D2"/>
<path d="M72.7625 17.9932H68.2578V22.4926H72.7625V17.9932Z" fill="#67A1D2"/>
<path d="M86.1687 17.9932H81.6641V22.4926H86.1687V17.9932Z" fill="#67A1D2"/>
<path d="M250.915 22.4905H246.41V26.9899H250.915V22.4905Z" fill="#67A1D2"/>
<path d="M99.5711 17.9932H95.0664V22.4926H99.5711V17.9932Z" fill="#67A1D2"/>
<path d="M112.977 17.9932H108.473V22.4926H112.977V17.9932Z" fill="#67A1D2"/>
<path d="M264.317 22.4905H259.812V26.9899H264.317V22.4905Z" fill="#67A1D2"/>
<path d="M126.38 17.9932H121.875V22.4926H126.38V17.9932Z" fill="#67A1D2"/>
<path d="M241.907 22.4905H237.402V26.9899H241.907V22.4905Z" fill="#67A1D2"/>
<path d="M139.786 17.9932H135.281V22.4926H139.786V17.9932Z" fill="#67A1D2"/>
<path d="M277.723 22.4905H273.219V26.9899H277.723V22.4905Z" fill="#67A1D2"/>
<path d="M153.188 17.9932H148.684V22.4926H153.188V17.9932Z" fill="#67A1D2"/>
<path d="M166.595 17.9932H162.09V22.4926H166.595V17.9932Z" fill="#67A1D2"/>
<path d="M202.407 17.9932H197.902V22.4926H202.407V17.9932Z" fill="#67A1D2"/>
<path d="M299.614 17.9932H295.109V22.4926H299.614V17.9932Z" fill="#67A1D2"/>
<path d="M179.997 17.9932H175.492V22.4926H179.997V17.9932Z" fill="#67A1D2"/>
<path d="M233.005 17.9932H228.5V22.4926H233.005V17.9932Z" fill="#67A1D2"/>
<path d="M215.813 17.9932H211.309V22.4926H215.813V17.9932Z" fill="#67A1D2"/>
<path d="M313.02 17.9932H308.516V22.4926H313.02V17.9932Z" fill="#67A1D2"/>
<path d="M193.403 17.9932H188.898V22.4926H193.403V17.9932Z" fill="#67A1D2"/>
<path d="M290.61 17.9932H286.105V22.4926H290.61V17.9932Z" fill="#67A1D2"/>
<path d="M255.419 22.4905H250.914V26.9899H255.419V22.4905Z" fill="#67A1D2"/>
<path d="M229.216 17.9932H224.711V22.4926H229.216V17.9932Z" fill="#67A1D2"/>
<path d="M326.423 17.9932H321.918V22.4926H326.423V17.9932Z" fill="#67A1D2"/>
<path d="M5.30545 22.4905H0.800781V26.9899H5.30545V22.4905Z" fill="#292666"/>
<path d="M268.821 22.4905H264.316V26.9899H268.821V22.4905Z" fill="#67A1D2"/>
<path d="M9.80936 22.4905H5.30469V26.9899H9.80936V22.4905Z" fill="#374EA0"/>
<path d="M246.411 22.4905H241.906V26.9899H246.411V22.4905Z" fill="#67A1D2"/>
<path d="M14.3133 22.4905H9.80859V26.9899H14.3133V22.4905Z" fill="#ACDAE1"/>
<path d="M282.223 22.4905H277.719V26.9899H282.223V22.4905Z" fill="#67A1D2"/>
<path d="M18.8172 22.4905H14.3125V26.9899H18.8172V22.4905Z" fill="#67A1D2"/>
<path d="M23.3211 22.4905H18.8164V26.9899H23.3211V22.4905Z" fill="#67A1D2"/>
<path d="M27.825 22.4905H23.3203V26.9899H27.825V22.4905Z" fill="#67A1D2"/>
<path d="M32.325 22.4905H27.8203V26.9899H32.325V22.4905Z" fill="#67A1D2"/>
<path d="M36.8328 22.4905H32.3281V26.9899H36.8328V22.4905Z" fill="#67A1D2"/>
<path d="M41.3328 22.4905H36.8281V26.9899H41.3328V22.4905Z" fill="#67A1D2"/>
<path d="M45.8406 22.4905H41.3359V26.9899H45.8406V22.4905Z" fill="#67A1D2"/>
<path d="M50.3523 22.4905H45.8477V26.9899H50.3523V22.4905Z" fill="#67A1D2"/>
<path d="M63.7586 22.4905H59.2539V26.9899H63.7586V22.4905Z" fill="#67A1D2"/>
<path d="M77.1609 22.4905H72.6562V26.9899H77.1609V22.4905Z" fill="#67A1D2"/>
<path d="M90.5633 22.4905H86.0586V26.9899H90.5633V22.4905Z" fill="#67A1D2"/>
<path d="M103.97 22.4905H99.4648V26.9899H103.97V22.4905Z" fill="#67A1D2"/>
<path d="M117.372 22.4905H112.867V26.9899H117.372V22.4905Z" fill="#67A1D2"/>
<path d="M130.778 22.4905H126.273V26.9899H130.778V22.4905Z" fill="#67A1D2"/>
<path d="M144.18 22.4905H139.676V26.9899H144.18V22.4905Z" fill="#67A1D2"/>
<path d="M157.587 22.4905H153.082V26.9899H157.587V22.4905Z" fill="#67A1D2"/>
<path d="M170.989 22.4905H166.484V26.9899H170.989V22.4905Z" fill="#67A1D2"/>
<path d="M206.805 22.4905H202.301V26.9899H206.805V22.4905Z" fill="#67A1D2"/>
<path d="M304.012 22.4905H299.508V26.9899H304.012V22.4905Z" fill="#67A1D2"/>
<path d="M184.395 22.4905H179.891V26.9899H184.395V22.4905Z" fill="#67A1D2"/>
<path d="M237.403 22.4905H232.898V26.9899H237.403V22.4905Z" fill="#67A1D2"/>
<path d="M259.813 26.9899H255.309V31.4893H259.813V26.9899Z" fill="#67A1D2"/>
<path d="M220.208 22.4905H215.703V26.9899H220.208V22.4905Z" fill="#67A1D2"/>
<path d="M317.415 22.4905H312.91V26.9899H317.415V22.4905Z" fill="#67A1D2"/>
<path d="M54.8562 22.4905H50.3516V26.9899H54.8562V22.4905Z" fill="#67A1D2"/>
<path d="M273.22 26.9899H268.715V31.4893H273.22V26.9899Z" fill="#67A1D2"/>
<path d="M68.2625 22.4905H63.7578V26.9899H68.2625V22.4905Z" fill="#67A1D2"/>
<path d="M81.6648 22.4905H77.1602V26.9899H81.6648V22.4905Z" fill="#67A1D2"/>
<path d="M95.0711 22.4905H90.5664V26.9899H95.0711V22.4905Z" fill="#67A1D2"/>
<path d="M108.473 22.4905H103.969V26.9899H108.473V22.4905Z" fill="#67A1D2"/>
<path d="M121.876 22.4905H117.371V26.9899H121.876V22.4905Z" fill="#67A1D2"/>
<path d="M135.282 22.4905H130.777V26.9899H135.282V22.4905Z" fill="#67A1D2"/>
<path d="M148.684 22.4905H144.18V26.9899H148.684V22.4905Z" fill="#67A1D2"/>
<path d="M162.091 22.4905H157.586V26.9899H162.091V22.4905Z" fill="#67A1D2"/>
<path d="M197.907 22.4905H193.402V26.9899H197.907V22.4905Z" fill="#67A1D2"/>
<path d="M295.114 22.4905H290.609V26.9899H295.114V22.4905Z" fill="#67A1D2"/>
<path d="M250.915 26.9899H246.41V31.4893H250.915V26.9899Z" fill="#67A1D2"/>
<path d="M175.493 22.4905H170.988V26.9899H175.493V22.4905Z" fill="#67A1D2"/>
<path d="M211.309 22.4905H206.805V26.9899H211.309V22.4905Z" fill="#67A1D2"/>
<path d="M264.317 26.9899H259.812V31.4893H264.317V26.9899Z" fill="#67A1D2"/>
<path d="M308.516 22.4905H304.012V26.9899H308.516V22.4905Z" fill="#67A1D2"/>
<path d="M241.907 26.9899H237.402V31.4893H241.907V26.9899Z" fill="#67A1D2"/>
<path d="M188.899 22.4905H184.395V26.9899H188.899V22.4905Z" fill="#67A1D2"/>
<path d="M277.723 26.9899H273.219V31.4893H277.723V26.9899Z" fill="#67A1D2"/>
<path d="M286.106 22.4905H281.602V26.9899H286.106V22.4905Z" fill="#67A1D2"/>
<path d="M224.716 22.4905H220.211V26.9899H224.716V22.4905Z" fill="#67A1D2"/>
<path d="M321.923 22.4905H317.418V26.9899H321.923V22.4905Z" fill="#67A1D2"/>
<path d="M59.3601 22.4905H54.8555V26.9899H59.3601V22.4905Z" fill="#67A1D2"/>
<path d="M72.7625 22.4905H68.2578V26.9899H72.7625V22.4905Z" fill="#67A1D2"/>
<path d="M86.1687 22.4905H81.6641V26.9899H86.1687V22.4905Z" fill="#67A1D2"/>
<path d="M99.5711 22.4905H95.0664V26.9899H99.5711V22.4905Z" fill="#67A1D2"/>
<path d="M112.977 22.4905H108.473V26.9899H112.977V22.4905Z" fill="#67A1D2"/>
<path d="M126.38 22.4905H121.875V26.9899H126.38V22.4905Z" fill="#67A1D2"/>
<path d="M139.786 22.4905H135.281V26.9899H139.786V22.4905Z" fill="#67A1D2"/>
<path d="M255.419 26.9899H250.914V31.4893H255.419V26.9899Z" fill="#67A1D2"/>
<path d="M153.188 22.4905H148.684V26.9899H153.188V22.4905Z" fill="#67A1D2"/>
<path d="M166.595 22.4905H162.09V26.9899H166.595V22.4905Z" fill="#67A1D2"/>
<path d="M202.407 22.4905H197.902V26.9899H202.407V22.4905Z" fill="#67A1D2"/>
<path d="M268.821 26.9899H264.316V31.4893H268.821V26.9899Z" fill="#67A1D2"/>
<path d="M299.614 22.4905H295.109V26.9899H299.614V22.4905Z" fill="#67A1D2"/>
<path d="M246.411 26.9899H241.906V31.4893H246.411V26.9899Z" fill="#67A1D2"/>
<path d="M179.997 22.4905H175.492V26.9899H179.997V22.4905Z" fill="#67A1D2"/>
<path d="M282.223 26.9899H277.719V31.4893H282.223V26.9899Z" fill="#67A1D2"/>
<path d="M233.005 22.4905H228.5V26.9899H233.005V22.4905Z" fill="#67A1D2"/>
<path d="M215.813 22.4905H211.309V26.9899H215.813V22.4905Z" fill="#67A1D2"/>
<path d="M313.02 22.4905H308.516V26.9899H313.02V22.4905Z" fill="#67A1D2"/>
<path d="M193.403 22.4905H188.898V26.9899H193.403V22.4905Z" fill="#67A1D2"/>
<path d="M290.61 22.4905H286.105V26.9899H290.61V22.4905Z" fill="#67A1D2"/>
<path d="M229.216 22.4905H224.711V26.9899H229.216V22.4905Z" fill="#67A1D2"/>
<path d="M326.423 22.4905H321.918V26.9899H326.423V22.4905Z" fill="#67A1D2"/>
<path d="M5.30545 26.9899H0.800781V31.4893H5.30545V26.9899Z" fill="#292666"/>
<path d="M9.80936 26.9899H5.30469V31.4893H9.80936V26.9899Z" fill="#374EA0"/>
<path d="M14.3133 26.9899H9.80859V31.4893H14.3133V26.9899Z" fill="#67A1D2"/>
<path d="M18.8172 26.9899H14.3125V31.4893H18.8172V26.9899Z" fill="#67A1D2"/>
<path d="M23.3211 26.9899H18.8164V31.4893H23.3211V26.9899Z" fill="#67A1D2"/>
<path d="M27.825 26.9899H23.3203V31.4893H27.825V26.9899Z" fill="#67A1D2"/>
<path d="M32.325 26.9899H27.8203V31.4893H32.325V26.9899Z" fill="#67A1D2"/>
<path d="M36.8328 26.9899H32.3281V31.4893H36.8328V26.9899Z" fill="#67A1D2"/>
<path d="M41.3328 26.9899H36.8281V31.4893H41.3328V26.9899Z" fill="#67A1D2"/>
<path d="M45.8406 26.9899H41.3359V31.4893H45.8406V26.9899Z" fill="#67A1D2"/>
<path d="M50.3523 26.9899H45.8477V31.4893H50.3523V26.9899Z" fill="#67A1D2"/>
<path d="M63.7586 26.9899H59.2539V31.4893H63.7586V26.9899Z" fill="#67A1D2"/>
<path d="M77.1609 26.9899H72.6562V31.4893H77.1609V26.9899Z" fill="#67A1D2"/>
<path d="M90.5633 26.9899H86.0586V31.4893H90.5633V26.9899Z" fill="#67A1D2"/>
<path d="M259.813 31.4871H255.309V35.9865H259.813V31.4871Z" fill="#67A1D2"/>
<path d="M103.97 26.9899H99.4648V31.4893H103.97V26.9899Z" fill="#67A1D2"/>
<path d="M117.372 26.9899H112.867V31.4893H117.372V26.9899Z" fill="#67A1D2"/>
<path d="M130.778 26.9899H126.273V31.4893H130.778V26.9899Z" fill="#67A1D2"/>
<path d="M273.22 31.4871H268.715V35.9865H273.22V31.4871Z" fill="#67A1D2"/>
<path d="M144.18 26.9899H139.676V31.4893H144.18V26.9899Z" fill="#67A1D2"/>
<path d="M157.587 26.9899H153.082V31.4893H157.587V26.9899Z" fill="#67A1D2"/>
<path d="M170.989 26.9899H166.484V31.4893H170.989V26.9899Z" fill="#67A1D2"/>
<path d="M206.805 26.9899H202.301V31.4893H206.805V26.9899Z" fill="#67A1D2"/>
<path d="M304.012 26.9899H299.508V31.4893H304.012V26.9899Z" fill="#67A1D2"/>
<path d="M184.395 26.9899H179.891V31.4893H184.395V26.9899Z" fill="#67A1D2"/>
<path d="M237.403 26.9899H232.898V31.4893H237.403V26.9899Z" fill="#67A1D2"/>
<path d="M220.208 26.9899H215.703V31.4893H220.208V26.9899Z" fill="#67A1D2"/>
<path d="M317.415 26.9899H312.91V31.4893H317.415V26.9899Z" fill="#67A1D2"/>
<path d="M54.8562 26.9899H50.3516V31.4893H54.8562V26.9899Z" fill="#67A1D2"/>
<path d="M250.915 31.4871H246.41V35.9865H250.915V31.4871Z" fill="#67A1D2"/>
<path d="M68.2625 26.9899H63.7578V31.4893H68.2625V26.9899Z" fill="#67A1D2"/>
<path d="M81.6648 26.9899H77.1602V31.4893H81.6648V26.9899Z" fill="#67A1D2"/>
<path d="M264.317 31.4871H259.812V35.9865H264.317V31.4871Z" fill="#67A1D2"/>
<path d="M95.0711 26.9899H90.5664V31.4893H95.0711V26.9899Z" fill="#67A1D2"/>
<path d="M241.907 31.4871H237.402V35.9865H241.907V31.4871Z" fill="#67A1D2"/>
<path d="M108.473 26.9899H103.969V31.4893H108.473V26.9899Z" fill="#67A1D2"/>
<path d="M277.723 31.4871H273.219V35.9865H277.723V31.4871Z" fill="#67A1D2"/>
<path d="M121.876 26.9899H117.371V31.4893H121.876V26.9899Z" fill="#67A1D2"/>
<path d="M135.282 26.9899H130.777V31.4893H135.282V26.9899Z" fill="#67A1D2"/>
<path d="M148.684 26.9899H144.18V31.4893H148.684V26.9899Z" fill="#67A1D2"/>
<path d="M162.091 26.9899H157.586V31.4893H162.091V26.9899Z" fill="#67A1D2"/>
<path d="M197.907 26.9899H193.402V31.4893H197.907V26.9899Z" fill="#67A1D2"/>
<path d="M295.114 26.9899H290.609V31.4893H295.114V26.9899Z" fill="#67A1D2"/>
<path d="M175.493 26.9899H170.988V31.4893H175.493V26.9899Z" fill="#67A1D2"/>
<path d="M211.309 26.9899H206.805V31.4893H211.309V26.9899Z" fill="#67A1D2"/>
<path d="M308.516 26.9899H304.012V31.4893H308.516V26.9899Z" fill="#67A1D2"/>
<path d="M188.899 26.9899H184.395V31.4893H188.899V26.9899Z" fill="#67A1D2"/>
<path d="M255.419 31.4871H250.914V35.9865H255.419V31.4871Z" fill="#67A1D2"/>
<path d="M286.106 26.9899H281.602V31.4893H286.106V26.9899Z" fill="#67A1D2"/>
<path d="M224.716 26.9899H220.211V31.4893H224.716V26.9899Z" fill="#67A1D2"/>
<path d="M321.923 26.9899H317.418V31.4893H321.923V26.9899Z" fill="#67A1D2"/>
<path d="M268.821 31.4871H264.316V35.9865H268.821V31.4871Z" fill="#67A1D2"/>
<path d="M59.3601 26.9899H54.8555V31.4893H59.3601V26.9899Z" fill="#67A1D2"/>
<path d="M246.411 31.4871H241.906V35.9865H246.411V31.4871Z" fill="#67A1D2"/>
<path d="M72.7625 26.9899H68.2578V31.4893H72.7625V26.9899Z" fill="#67A1D2"/>
<path d="M282.223 31.4871H277.719V35.9865H282.223V31.4871Z" fill="#67A1D2"/>
<path d="M86.1687 26.9899H81.6641V31.4893H86.1687V26.9899Z" fill="#67A1D2"/>
<path d="M99.5711 26.9899H95.0664V31.4893H99.5711V26.9899Z" fill="#67A1D2"/>
<path d="M112.977 26.9899H108.473V31.4893H112.977V26.9899Z" fill="#67A1D2"/>
<path d="M126.38 26.9899H121.875V31.4893H126.38V26.9899Z" fill="#67A1D2"/>
<path d="M139.786 26.9899H135.281V31.4893H139.786V26.9899Z" fill="#67A1D2"/>
<path d="M153.188 26.9899H148.684V31.4893H153.188V26.9899Z" fill="#67A1D2"/>
<path d="M166.595 26.9899H162.09V31.4893H166.595V26.9899Z" fill="#67A1D2"/>
<path d="M202.407 26.9899H197.902V31.4893H202.407V26.9899Z" fill="#67A1D2"/>
<path d="M299.614 26.9899H295.109V31.4893H299.614V26.9899Z" fill="#67A1D2"/>
<path d="M179.997 26.9899H175.492V31.4893H179.997V26.9899Z" fill="#67A1D2"/>
<path d="M233.005 26.9899H228.5V31.4893H233.005V26.9899Z" fill="#67A1D2"/>
<path d="M215.813 26.9899H211.309V31.4893H215.813V26.9899Z" fill="#67A1D2"/>
<path d="M313.02 26.9899H308.516V31.4893H313.02V26.9899Z" fill="#67A1D2"/>
<path d="M193.403 26.9899H188.898V31.4893H193.403V26.9899Z" fill="#67A1D2"/>
<path d="M290.61 26.9899H286.105V31.4893H290.61V26.9899Z" fill="#67A1D2"/>
<path d="M229.216 26.9899H224.711V31.4893H229.216V26.9899Z" fill="#67A1D2"/>
<path d="M326.423 26.9899H321.918V31.4893H326.423V26.9899Z" fill="#67A1D2"/>
<path d="M5.30545 31.4871H0.800781V35.9865H5.30545V31.4871Z" fill="#292666"/>
<path d="M9.80936 31.4871H5.30469V35.9865H9.80936V31.4871Z" fill="#374EA0"/>
<path d="M14.3133 31.4871H9.80859V35.9865H14.3133V31.4871Z" fill="#67A1D2"/>
<path d="M18.8172 31.4871H14.3125V35.9865H18.8172V31.4871Z" fill="#67A1D2"/>
<path d="M259.813 35.9864H255.309V40.4858H259.813V35.9864Z" fill="#67A1D2"/>
<path d="M23.3211 31.4871H18.8164V35.9865H23.3211V31.4871Z" fill="#67A1D2"/>
<path d="M27.825 31.4871H23.3203V35.9865H27.825V31.4871Z" fill="#67A1D2"/>
<path d="M32.325 31.4871H27.8203V35.9865H32.325V31.4871Z" fill="#67A1D2"/>
<path d="M273.22 35.9864H268.715V40.4858H273.22V35.9864Z" fill="#67A1D2"/>
<path d="M36.8328 31.4871H32.3281V35.9865H36.8328V31.4871Z" fill="#67A1D2"/>
<path d="M41.3328 31.4871H36.8281V35.9865H41.3328V31.4871Z" fill="#67A1D2"/>
<path d="M45.8406 31.4871H41.3359V35.9865H45.8406V31.4871Z" fill="#67A1D2"/>
<path d="M50.3523 31.4871H45.8477V35.9865H50.3523V31.4871Z" fill="#67A1D2"/>
<path d="M63.7586 31.4871H59.2539V35.9865H63.7586V31.4871Z" fill="#67A1D2"/>
<path d="M77.1609 31.4871H72.6562V35.9865H77.1609V31.4871Z" fill="#67A1D2"/>
<path d="M90.5633 31.4871H86.0586V35.9865H90.5633V31.4871Z" fill="#67A1D2"/>
<path d="M103.97 31.4871H99.4648V35.9865H103.97V31.4871Z" fill="#67A1D2"/>
<path d="M117.372 31.4871H112.867V35.9865H117.372V31.4871Z" fill="#67A1D2"/>
<path d="M130.778 31.4871H126.273V35.9865H130.778V31.4871Z" fill="#67A1D2"/>
<path d="M250.915 35.9864H246.41V40.4858H250.915V35.9864Z" fill="#67A1D2"/>
<path d="M144.18 31.4871H139.676V35.9865H144.18V31.4871Z" fill="#67A1D2"/>
<path d="M157.587 31.4871H153.082V35.9865H157.587V31.4871Z" fill="#67A1D2"/>
<path d="M264.317 35.9864H259.812V40.4858H264.317V35.9864Z" fill="#67A1D2"/>
<path d="M170.989 31.4871H166.484V35.9865H170.989V31.4871Z" fill="#67A1D2"/>
<path d="M241.907 35.9864H237.402V40.4858H241.907V35.9864Z" fill="#67A1D2"/>
<path d="M206.805 31.4871H202.301V35.9865H206.805V31.4871Z" fill="#67A1D2"/>
<path d="M277.723 35.9864H273.219V40.4858H277.723V35.9864Z" fill="#67A1D2"/>
<path d="M304.012 31.4871H299.508V35.9865H304.012V31.4871Z" fill="#67A1D2"/>
<path d="M184.395 31.4871H179.891V35.9865H184.395V31.4871Z" fill="#67A1D2"/>
<path d="M237.403 31.4871H232.898V35.9865H237.403V31.4871Z" fill="#67A1D2"/>
<path d="M220.208 31.4871H215.703V35.9865H220.208V31.4871Z" fill="#67A1D2"/>
<path d="M317.415 31.4871H312.91V35.9865H317.415V31.4871Z" fill="#67A1D2"/>
<path d="M54.8562 31.4871H50.3516V35.9865H54.8562V31.4871Z" fill="#67A1D2"/>
<path d="M68.2625 31.4871H63.7578V35.9865H68.2625V31.4871Z" fill="#67A1D2"/>
<path d="M81.6648 31.4871H77.1602V35.9865H81.6648V31.4871Z" fill="#67A1D2"/>
<path d="M95.0711 31.4871H90.5664V35.9865H95.0711V31.4871Z" fill="#67A1D2"/>
<path d="M108.473 31.4871H103.969V35.9865H108.473V31.4871Z" fill="#67A1D2"/>
<path d="M255.419 35.9864H250.914V40.4858H255.419V35.9864Z" fill="#67A1D2"/>
<path d="M121.876 31.4871H117.371V35.9865H121.876V31.4871Z" fill="#67A1D2"/>
<path d="M135.282 31.4871H130.777V35.9865H135.282V31.4871Z" fill="#67A1D2"/>
<path d="M148.684 31.4871H144.18V35.9865H148.684V31.4871Z" fill="#67A1D2"/>
<path d="M268.821 35.9864H264.316V40.4858H268.821V35.9864Z" fill="#67A1D2"/>
<path d="M162.091 31.4871H157.586V35.9865H162.091V31.4871Z" fill="#67A1D2"/>
<path d="M246.411 35.9864H241.906V40.4858H246.411V35.9864Z" fill="#67A1D2"/>
<path d="M197.907 31.4871H193.402V35.9865H197.907V31.4871Z" fill="#67A1D2"/>
<path d="M282.223 35.9864H277.719V40.4858H282.223V35.9864Z" fill="#67A1D2"/>
<path d="M295.114 31.4871H290.609V35.9865H295.114V31.4871Z" fill="#67A1D2"/>
<path d="M175.493 31.4871H170.988V35.9865H175.493V31.4871Z" fill="#67A1D2"/>
<path d="M211.309 31.4871H206.805V35.9865H211.309V31.4871Z" fill="#67A1D2"/>
<path d="M308.516 31.4871H304.012V35.9865H308.516V31.4871Z" fill="#67A1D2"/>
<path d="M188.899 31.4871H184.395V35.9865H188.899V31.4871Z" fill="#67A1D2"/>
<path d="M286.106 31.4871H281.602V35.9865H286.106V31.4871Z" fill="#67A1D2"/>
<path d="M224.716 31.4871H220.211V35.9865H224.716V31.4871Z" fill="#67A1D2"/>
<path d="M321.923 31.4871H317.418V35.9865H321.923V31.4871Z" fill="#67A1D2"/>
<path d="M59.3601 31.4871H54.8555V35.9865H59.3601V31.4871Z" fill="#67A1D2"/>
<path d="M72.7625 31.4871H68.2578V35.9865H72.7625V31.4871Z" fill="#67A1D2"/>
<path d="M86.1687 31.4871H81.6641V35.9865H86.1687V31.4871Z" fill="#67A1D2"/>
<path d="M99.5711 31.4871H95.0664V35.9865H99.5711V31.4871Z" fill="#67A1D2"/>
<path d="M112.977 31.4871H108.473V35.9865H112.977V31.4871Z" fill="#67A1D2"/>
<path d="M126.38 31.4871H121.875V35.9865H126.38V31.4871Z" fill="#67A1D2"/>
<path d="M139.786 31.4871H135.281V35.9865H139.786V31.4871Z" fill="#67A1D2"/>
<path d="M153.188 31.4871H148.684V35.9865H153.188V31.4871Z" fill="#67A1D2"/>
<path d="M166.595 31.4871H162.09V35.9865H166.595V31.4871Z" fill="#67A1D2"/>
<path d="M202.407 31.4871H197.902V35.9865H202.407V31.4871Z" fill="#67A1D2"/>
<path d="M299.614 31.4871H295.109V35.9865H299.614V31.4871Z" fill="#67A1D2"/>
<path d="M179.997 31.4871H175.492V35.9865H179.997V31.4871Z" fill="#67A1D2"/>
<path d="M233.005 31.4871H228.5V35.9865H233.005V31.4871Z" fill="#67A1D2"/>
<path d="M259.813 40.4838H255.309V44.9832H259.813V40.4838Z" fill="#67A1D2"/>
<path d="M215.813 31.4871H211.309V35.9865H215.813V31.4871Z" fill="#67A1D2"/>
<path d="M313.02 31.4871H308.516V35.9865H313.02V31.4871Z" fill="#67A1D2"/>
<path d="M193.403 31.4871H188.898V35.9865H193.403V31.4871Z" fill="#67A1D2"/>
<path d="M273.22 40.4838H268.715V44.9832H273.22V40.4838Z" fill="#67A1D2"/>
<path d="M290.61 31.4871H286.105V35.9865H290.61V31.4871Z" fill="#67A1D2"/>
<path d="M229.216 31.4871H224.711V35.9865H229.216V31.4871Z" fill="#67A1D2"/>
<path d="M326.423 31.4871H321.918V35.9865H326.423V31.4871Z" fill="#67A1D2"/>
<path d="M5.30545 35.9865H0.800781V40.4859H5.30545V35.9865Z" fill="#292666"/>
<path d="M9.80936 35.9864H5.30469V40.4858H9.80936V35.9864Z" fill="#374EA0"/>
<path d="M14.3133 35.9864H9.80859V40.4858H14.3133V35.9864Z" fill="#67A1D2"/>
<path d="M18.8172 35.9864H14.3125V40.4858H18.8172V35.9864Z" fill="#67A1D2"/>
<path d="M23.3211 35.9864H18.8164V40.4858H23.3211V35.9864Z" fill="#67A1D2"/>
<path d="M27.825 35.9864H23.3203V40.4858H27.825V35.9864Z" fill="#67A1D2"/>
<path d="M32.325 35.9864H27.8203V40.4858H32.325V35.9864Z" fill="#67A1D2"/>
<path d="M250.915 40.4838H246.41V44.9832H250.915V40.4838Z" fill="#67A1D2"/>
<path d="M36.8328 35.9864H32.3281V40.4858H36.8328V35.9864Z" fill="#67A1D2"/>
<path d="M41.3328 35.9864H36.8281V40.4858H41.3328V35.9864Z" fill="#67A1D2"/>
<path d="M264.317 40.4838H259.812V44.9832H264.317V40.4838Z" fill="#67A1D2"/>
<path d="M45.8406 35.9864H41.3359V40.4858H45.8406V35.9864Z" fill="#67A1D2"/>
<path d="M241.907 40.4838H237.402V44.9832H241.907V40.4838Z" fill="#67A1D2"/>
<path d="M50.3523 35.9864H45.8477V40.4858H50.3523V35.9864Z" fill="#67A1D2"/>
<path d="M277.723 40.4838H273.219V44.9832H277.723V40.4838Z" fill="#67A1D2"/>
<path d="M63.7586 35.9864H59.2539V40.4858H63.7586V35.9864Z" fill="#67A1D2"/>
<path d="M77.1609 35.9864H72.6562V40.4858H77.1609V35.9864Z" fill="#67A1D2"/>
<path d="M90.5633 35.9864H86.0586V40.4858H90.5633V35.9864Z" fill="#67A1D2"/>
<path d="M103.97 35.9864H99.4648V40.4858H103.97V35.9864Z" fill="#67A1D2"/>
<path d="M117.372 35.9864H112.867V40.4858H117.372V35.9864Z" fill="#67A1D2"/>
<path d="M130.778 35.9864H126.273V40.4858H130.778V35.9864Z" fill="#67A1D2"/>
<path d="M144.18 35.9864H139.676V40.4858H144.18V35.9864Z" fill="#67A1D2"/>
<path d="M157.587 35.9864H153.082V40.4858H157.587V35.9864Z" fill="#67A1D2"/>
<path d="M170.989 35.9864H166.484V40.4858H170.989V35.9864Z" fill="#67A1D2"/>
<path d="M206.805 35.9864H202.301V40.4858H206.805V35.9864Z" fill="#67A1D2"/>
<path d="M255.419 40.4838H250.914V44.9832H255.419V40.4838Z" fill="#67A1D2"/>
<path d="M304.012 35.9864H299.508V40.4858H304.012V35.9864Z" fill="#67A1D2"/>
<path d="M184.395 35.9864H179.891V40.4858H184.395V35.9864Z" fill="#67A1D2"/>
<path d="M237.403 35.9864H232.898V40.4858H237.403V35.9864Z" fill="#67A1D2"/>
<path d="M268.821 40.4838H264.316V44.9832H268.821V40.4838Z" fill="#67A1D2"/>
<path d="M220.208 35.9864H215.703V40.4858H220.208V35.9864Z" fill="#67A1D2"/>
<path d="M246.411 40.4838H241.906V44.9832H246.411V40.4838Z" fill="#67A1D2"/>
<path d="M317.415 35.9864H312.91V40.4858H317.415V35.9864Z" fill="#67A1D2"/>
<path d="M282.223 40.4838H277.719V44.9832H282.223V40.4838Z" fill="#67A1D2"/>
<path d="M54.8562 35.9864H50.3516V40.4858H54.8562V35.9864Z" fill="#67A1D2"/>
<path d="M68.2625 35.9864H63.7578V40.4858H68.2625V35.9864Z" fill="#67A1D2"/>
<path d="M81.6648 35.9864H77.1602V40.4858H81.6648V35.9864Z" fill="#67A1D2"/>
<path d="M95.0711 35.9864H90.5664V40.4858H95.0711V35.9864Z" fill="#67A1D2"/>
<path d="M108.473 35.9864H103.969V40.4858H108.473V35.9864Z" fill="#67A1D2"/>
<path d="M121.876 35.9864H117.371V40.4858H121.876V35.9864Z" fill="#67A1D2"/>
<path d="M135.282 35.9864H130.777V40.4858H135.282V35.9864Z" fill="#67A1D2"/>
<path d="M148.684 35.9864H144.18V40.4858H148.684V35.9864Z" fill="#67A1D2"/>
<path d="M162.091 35.9864H157.586V40.4858H162.091V35.9864Z" fill="#67A1D2"/>
<path d="M197.907 35.9864H193.402V40.4858H197.907V35.9864Z" fill="#67A1D2"/>
<path d="M295.114 35.9864H290.609V40.4858H295.114V35.9864Z" fill="#67A1D2"/>
<path d="M175.493 35.9864H170.988V40.4858H175.493V35.9864Z" fill="#67A1D2"/>
<path d="M211.309 35.9864H206.805V40.4858H211.309V35.9864Z" fill="#67A1D2"/>
<path d="M308.516 35.9864H304.012V40.4858H308.516V35.9864Z" fill="#67A1D2"/>
<path d="M188.899 35.9864H184.395V40.4858H188.899V35.9864Z" fill="#67A1D2"/>
<path d="M286.106 35.9864H281.602V40.4858H286.106V35.9864Z" fill="#67A1D2"/>
<path d="M224.716 35.9864H220.211V40.4858H224.716V35.9864Z" fill="#67A1D2"/>
<path d="M321.923 35.9864H317.418V40.4858H321.923V35.9864Z" fill="#67A1D2"/>
<path d="M59.3601 35.9864H54.8555V40.4858H59.3601V35.9864Z" fill="#67A1D2"/>
<path d="M72.7625 35.9864H68.2578V40.4858H72.7625V35.9864Z" fill="#67A1D2"/>
<path d="M86.1687 35.9864H81.6641V40.4858H86.1687V35.9864Z" fill="#67A1D2"/>
<path d="M259.813 44.9831H255.309V49.4825H259.813V44.9831Z" fill="#67A1D2"/>
<path d="M99.5711 35.9864H95.0664V40.4858H99.5711V35.9864Z" fill="#67A1D2"/>
<path d="M112.977 35.9864H108.473V40.4858H112.977V35.9864Z" fill="#67A1D2"/>
<path d="M126.38 35.9864H121.875V40.4858H126.38V35.9864Z" fill="#67A1D2"/>
<path d="M273.22 44.9831H268.715V49.4825H273.22V44.9831Z" fill="#67A1D2"/>
<path d="M139.786 35.9864H135.281V40.4858H139.786V35.9864Z" fill="#67A1D2"/>
<path d="M153.188 35.9864H148.684V40.4858H153.188V35.9864Z" fill="#67A1D2"/>
<path d="M166.595 35.9864H162.09V40.4858H166.595V35.9864Z" fill="#67A1D2"/>
<path d="M202.407 35.9864H197.902V40.4858H202.407V35.9864Z" fill="#67A1D2"/>
<path d="M299.614 35.9864H295.109V40.4858H299.614V35.9864Z" fill="#67A1D2"/>
<path d="M179.997 35.9864H175.492V40.4858H179.997V35.9864Z" fill="#67A1D2"/>
<path d="M233.005 35.9864H228.5V40.4858H233.005V35.9864Z" fill="#67A1D2"/>
<path d="M215.813 35.9864H211.309V40.4858H215.813V35.9864Z" fill="#67A1D2"/>
<path d="M313.02 35.9864H308.516V40.4858H313.02V35.9864Z" fill="#67A1D2"/>
<path d="M193.403 35.9864H188.898V40.4858H193.403V35.9864Z" fill="#67A1D2"/>
<path d="M250.915 44.9831H246.41V49.4825H250.915V44.9831Z" fill="#67A1D2"/>
<path d="M290.61 35.9864H286.105V40.4858H290.61V35.9864Z" fill="#67A1D2"/>
<path d="M229.216 35.9864H224.711V40.4858H229.216V35.9864Z" fill="#67A1D2"/>
<path d="M264.317 44.9831H259.812V49.4825H264.317V44.9831Z" fill="#67A1D2"/>
<path d="M326.423 35.9864H321.918V40.4858H326.423V35.9864Z" fill="#67A1D2"/>
<path d="M241.907 44.9831H237.402V49.4825H241.907V44.9831Z" fill="#67A1D2"/>
<path d="M5.30545 40.4837H0.800781V44.9831H5.30545V40.4837Z" fill="#292666"/>
<path d="M277.723 44.9831H273.219V49.4825H277.723V44.9831Z" fill="#67A1D2"/>
<path d="M9.80936 40.4838H5.30469V44.9832H9.80936V40.4838Z" fill="#374EA0"/>
<path d="M14.3133 40.4838H9.80859V44.9832H14.3133V40.4838Z" fill="#67A1D2"/>
<path d="M18.8172 40.4838H14.3125V44.9832H18.8172V40.4838Z" fill="#67A1D2"/>
<path d="M23.3211 40.4838H18.8164V44.9832H23.3211V40.4838Z" fill="#67A1D2"/>
<path d="M27.825 40.4838H23.3203V44.9832H27.825V40.4838Z" fill="#67A1D2"/>
<path d="M32.325 40.4838H27.8203V44.9832H32.325V40.4838Z" fill="#67A1D2"/>
<path d="M36.8328 40.4838H32.3281V44.9832H36.8328V40.4838Z" fill="#67A1D2"/>
<path d="M41.3328 40.4838H36.8281V44.9832H41.3328V40.4838Z" fill="#67A1D2"/>
<path d="M45.8406 40.4838H41.3359V44.9832H45.8406V40.4838Z" fill="#67A1D2"/>
<path d="M50.3523 40.4838H45.8477V44.9832H50.3523V40.4838Z" fill="#67A1D2"/>
<path d="M255.419 44.9831H250.914V49.4825H255.419V44.9831Z" fill="#67A1D2"/>
<path d="M63.7586 40.4838H59.2539V44.9832H63.7586V40.4838Z" fill="#67A1D2"/>
<path d="M77.1609 40.4838H72.6562V44.9832H77.1609V40.4838Z" fill="#67A1D2"/>
<path d="M90.5633 40.4838H86.0586V44.9832H90.5633V40.4838Z" fill="#67A1D2"/>
<path d="M268.821 44.9831H264.316V49.4825H268.821V44.9831Z" fill="#67A1D2"/>
<path d="M103.97 40.4838H99.4648V44.9832H103.97V40.4838Z" fill="#67A1D2"/>
<path d="M246.411 44.9831H241.906V49.4825H246.411V44.9831Z" fill="#67A1D2"/>
<path d="M117.372 40.4838H112.867V44.9832H117.372V40.4838Z" fill="#67A1D2"/>
<path d="M282.223 44.9831H277.719V49.4825H282.223V44.9831Z" fill="#67A1D2"/>
<path d="M130.778 40.4838H126.273V44.9832H130.778V40.4838Z" fill="#67A1D2"/>
<path d="M144.18 40.4838H139.676V44.9832H144.18V40.4838Z" fill="#67A1D2"/>
<path d="M157.587 40.4838H153.082V44.9832H157.587V40.4838Z" fill="#67A1D2"/>
<path d="M170.989 40.4838H166.484V44.9832H170.989V40.4838Z" fill="#67A1D2"/>
<path d="M206.805 40.4838H202.301V44.9832H206.805V40.4838Z" fill="#67A1D2"/>
<path d="M304.012 40.4838H299.508V44.9832H304.012V40.4838Z" fill="#67A1D2"/>
<path d="M184.395 40.4838H179.891V44.9832H184.395V40.4838Z" fill="#67A1D2"/>
<path d="M237.403 40.4838H232.898V44.9832H237.403V40.4838Z" fill="#67A1D2"/>
<path d="M220.208 40.4838H215.703V44.9832H220.208V40.4838Z" fill="#67A1D2"/>
<path d="M317.415 40.4838H312.91V44.9832H317.415V40.4838Z" fill="#67A1D2"/>
<path d="M54.8562 40.4838H50.3516V44.9832H54.8562V40.4838Z" fill="#67A1D2"/>
<path d="M68.2625 40.4838H63.7578V44.9832H68.2625V40.4838Z" fill="#67A1D2"/>
<path d="M81.6648 40.4838H77.1602V44.9832H81.6648V40.4838Z" fill="#67A1D2"/>
<path d="M95.0711 40.4838H90.5664V44.9832H95.0711V40.4838Z" fill="#67A1D2"/>
<path d="M108.473 40.4838H103.969V44.9832H108.473V40.4838Z" fill="#67A1D2"/>
<path d="M121.876 40.4838H117.371V44.9832H121.876V40.4838Z" fill="#67A1D2"/>
<path d="M135.282 40.4838H130.777V44.9832H135.282V40.4838Z" fill="#67A1D2"/>
<path d="M148.684 40.4838H144.18V44.9832H148.684V40.4838Z" fill="#67A1D2"/>
<path d="M162.091 40.4838H157.586V44.9832H162.091V40.4838Z" fill="#67A1D2"/>
<path d="M197.907 40.4838H193.402V44.9832H197.907V40.4838Z" fill="#67A1D2"/>
<path d="M295.114 40.4838H290.609V44.9832H295.114V40.4838Z" fill="#67A1D2"/>
<path d="M259.813 49.4802H255.309V53.9796H259.813V49.4802Z" fill="#67A1D2"/>
<path d="M175.493 40.4838H170.988V44.9832H175.493V40.4838Z" fill="#67A1D2"/>
<path d="M211.309 40.4838H206.805V44.9832H211.309V40.4838Z" fill="#67A1D2"/>
<path d="M308.516 40.4838H304.012V44.9832H308.516V40.4838Z" fill="#67A1D2"/>
<path d="M273.22 49.4802H268.715V53.9796H273.22V49.4802Z" fill="#67A1D2"/>
<path d="M188.899 40.4838H184.395V44.9832H188.899V40.4838Z" fill="#67A1D2"/>
<path d="M286.106 40.4838H281.602V44.9832H286.106V40.4838Z" fill="#67A1D2"/>
<path d="M224.716 40.4838H220.211V44.9832H224.716V40.4838Z" fill="#67A1D2"/>
<path d="M321.923 40.4838H317.418V44.9832H321.923V40.4838Z" fill="#67A1D2"/>
<path d="M59.3601 40.4838H54.8555V44.9832H59.3601V40.4838Z" fill="#67A1D2"/>
<path d="M72.7625 40.4838H68.2578V44.9832H72.7625V40.4838Z" fill="#67A1D2"/>
<path d="M86.1687 40.4838H81.6641V44.9832H86.1687V40.4838Z" fill="#67A1D2"/>
<path d="M99.5711 40.4838H95.0664V44.9832H99.5711V40.4838Z" fill="#67A1D2"/>
<path d="M112.977 40.4838H108.473V44.9832H112.977V40.4838Z" fill="#67A1D2"/>
<path d="M126.38 40.4838H121.875V44.9832H126.38V40.4838Z" fill="#67A1D2"/>
<path d="M250.915 49.4802H246.41V53.9796H250.915V49.4802Z" fill="#67A1D2"/>
<path d="M139.786 40.4838H135.281V44.9832H139.786V40.4838Z" fill="#67A1D2"/>
<path d="M153.188 40.4838H148.684V44.9832H153.188V40.4838Z" fill="#67A1D2"/>
<path d="M264.317 49.4802H259.812V53.9796H264.317V49.4802Z" fill="#67A1D2"/>
<path d="M166.595 40.4838H162.09V44.9832H166.595V40.4838Z" fill="#67A1D2"/>
<path d="M241.907 49.4802H237.402V53.9796H241.907V49.4802Z" fill="#67A1D2"/>
<path d="M202.407 40.4838H197.902V44.9832H202.407V40.4838Z" fill="#67A1D2"/>
<path d="M277.723 49.4802H273.219V53.9796H277.723V49.4802Z" fill="#67A1D2"/>
<path d="M299.614 40.4838H295.109V44.9832H299.614V40.4838Z" fill="#67A1D2"/>
<path d="M179.997 40.4838H175.492V44.9832H179.997V40.4838Z" fill="#67A1D2"/>
<path d="M233.005 40.4838H228.5V44.9832H233.005V40.4838Z" fill="#67A1D2"/>
<path d="M215.813 40.4838H211.309V44.9832H215.813V40.4838Z" fill="#67A1D2"/>
<path d="M313.02 40.4838H308.516V44.9832H313.02V40.4838Z" fill="#67A1D2"/>
<path d="M193.403 40.4838H188.898V44.9832H193.403V40.4838Z" fill="#67A1D2"/>
<path d="M290.61 40.4838H286.105V44.9832H290.61V40.4838Z" fill="#67A1D2"/>
<path d="M229.216 40.4838H224.711V44.9832H229.216V40.4838Z" fill="#67A1D2"/>
<path d="M326.423 40.4838H321.918V44.9832H326.423V40.4838Z" fill="#67A1D2"/>
<path d="M5.30545 44.9831H0.800781V49.4825H5.30545V44.9831Z" fill="#292666"/>
<path d="M255.419 49.4802H250.914V53.9796H255.419V49.4802Z" fill="#67A1D2"/>
<path d="M9.80936 44.9831H5.30469V49.4825H9.80936V44.9831Z" fill="#374EA0"/>
<path d="M14.3133 44.9831H9.80859V49.4825H14.3133V44.9831Z" fill="#67A1D2"/>
<path d="M18.8172 44.9831H14.3125V49.4825H18.8172V44.9831Z" fill="#67A1D2"/>
<path d="M268.821 49.4802H264.316V53.9796H268.821V49.4802Z" fill="#67A1D2"/>
<path d="M23.3211 44.9831H18.8164V49.4825H23.3211V44.9831Z" fill="#67A1D2"/>
<path d="M246.411 49.4802H241.906V53.9796H246.411V49.4802Z" fill="#67A1D2"/>
<path d="M27.825 44.9831H23.3203V49.4825H27.825V44.9831Z" fill="#67A1D2"/>
<path d="M282.223 49.4802H277.719V53.9796H282.223V49.4802Z" fill="#67A1D2"/>
<path d="M32.325 44.9831H27.8203V49.4825H32.325V44.9831Z" fill="#67A1D2"/>
<path d="M36.8328 44.9831H32.3281V49.4825H36.8328V44.9831Z" fill="#67A1D2"/>
<path d="M41.3328 44.9831H36.8281V49.4825H41.3328V44.9831Z" fill="#67A1D2"/>
<path d="M45.8406 44.9831H41.3359V49.4825H45.8406V44.9831Z" fill="#67A1D2"/>
<path d="M50.3523 44.9831H45.8477V49.4825H50.3523V44.9831Z" fill="#67A1D2"/>
<path d="M63.7586 44.9831H59.2539V49.4825H63.7586V44.9831Z" fill="#67A1D2"/>
<path d="M77.1609 44.9831H72.6562V49.4825H77.1609V44.9831Z" fill="#67A1D2"/>
<path d="M90.5633 44.9831H86.0586V49.4825H90.5633V44.9831Z" fill="#67A1D2"/>
<path d="M103.97 44.9831H99.4648V49.4825H103.97V44.9831Z" fill="#67A1D2"/>
<path d="M117.372 44.9831H112.867V49.4825H117.372V44.9831Z" fill="#67A1D2"/>
<path d="M130.778 44.9831H126.273V49.4825H130.778V44.9831Z" fill="#67A1D2"/>
<path d="M144.18 44.9831H139.676V49.4825H144.18V44.9831Z" fill="#67A1D2"/>
<path d="M157.587 44.9831H153.082V49.4825H157.587V44.9831Z" fill="#67A1D2"/>
<path d="M170.989 44.9831H166.484V49.4825H170.989V44.9831Z" fill="#67A1D2"/>
<path d="M206.805 44.9831H202.301V49.4825H206.805V44.9831Z" fill="#67A1D2"/>
<path d="M304.012 44.9831H299.508V49.4825H304.012V44.9831Z" fill="#67A1D2"/>
<path d="M184.395 44.9831H179.891V49.4825H184.395V44.9831Z" fill="#67A1D2"/>
<path d="M237.403 44.9831H232.898V49.4825H237.403V44.9831Z" fill="#67A1D2"/>
<path d="M220.208 44.9831H215.703V49.4825H220.208V44.9831Z" fill="#67A1D2"/>
<path d="M317.415 44.9831H312.91V49.4825H317.415V44.9831Z" fill="#67A1D2"/>
<path d="M54.8562 44.9831H50.3516V49.4825H54.8562V44.9831Z" fill="#67A1D2"/>
<path d="M259.813 53.9798H255.309V58.4792H259.813V53.9798Z" fill="#67A1D2"/>
<path d="M68.2625 44.9831H63.7578V49.4825H68.2625V44.9831Z" fill="#67A1D2"/>
<path d="M81.6648 44.9831H77.1602V49.4825H81.6648V44.9831Z" fill="#67A1D2"/>
<path d="M95.0711 44.9831H90.5664V49.4825H95.0711V44.9831Z" fill="#67A1D2"/>
<path d="M273.22 53.9798H268.715V58.4792H273.22V53.9798Z" fill="#67A1D2"/>
<path d="M108.473 44.9831H103.969V49.4825H108.473V44.9831Z" fill="#67A1D2"/>
<path d="M121.876 44.9831H117.371V49.4825H121.876V44.9831Z" fill="#67A1D2"/>
<path d="M135.282 44.9831H130.777V49.4825H135.282V44.9831Z" fill="#67A1D2"/>
<path d="M148.684 44.9831H144.18V49.4825H148.684V44.9831Z" fill="#67A1D2"/>
<path d="M162.091 44.9831H157.586V49.4825H162.091V44.9831Z" fill="#67A1D2"/>
<path d="M197.907 44.9831H193.402V49.4825H197.907V44.9831Z" fill="#67A1D2"/>
<path d="M295.114 44.9831H290.609V49.4825H295.114V44.9831Z" fill="#67A1D2"/>
<path d="M175.493 44.9831H170.988V49.4825H175.493V44.9831Z" fill="#67A1D2"/>
<path d="M211.309 44.9831H206.805V49.4825H211.309V44.9831Z" fill="#67A1D2"/>
<path d="M308.516 44.9831H304.012V49.4825H308.516V44.9831Z" fill="#67A1D2"/>
<path d="M250.915 53.9798H246.41V58.4792H250.915V53.9798Z" fill="#67A1D2"/>
<path d="M188.899 44.9831H184.395V49.4825H188.899V44.9831Z" fill="#67A1D2"/>
<path d="M286.106 44.9831H281.602V49.4825H286.106V44.9831Z" fill="#67A1D2"/>
<path d="M264.317 53.9798H259.812V58.4792H264.317V53.9798Z" fill="#67A1D2"/>
<path d="M224.716 44.9831H220.211V49.4825H224.716V44.9831Z" fill="#67A1D2"/>
<path d="M241.907 53.9798H237.402V58.4792H241.907V53.9798Z" fill="#67A1D2"/>
<path d="M321.923 44.9831H317.418V49.4825H321.923V44.9831Z" fill="#67A1D2"/>
<path d="M277.723 53.9798H273.219V58.4792H277.723V53.9798Z" fill="#67A1D2"/>
<path d="M59.3601 44.9831H54.8555V49.4825H59.3601V44.9831Z" fill="#67A1D2"/>
<path d="M72.7625 44.9831H68.2578V49.4825H72.7625V44.9831Z" fill="#67A1D2"/>
<path d="M86.1687 44.9831H81.6641V49.4825H86.1687V44.9831Z" fill="#67A1D2"/>
<path d="M99.5711 44.9831H95.0664V49.4825H99.5711V44.9831Z" fill="#67A1D2"/>
<path d="M112.977 44.9831H108.473V49.4825H112.977V44.9831Z" fill="#67A1D2"/>
<path d="M126.38 44.9831H121.875V49.4825H126.38V44.9831Z" fill="#67A1D2"/>
<path d="M139.786 44.9831H135.281V49.4825H139.786V44.9831Z" fill="#67A1D2"/>
<path d="M153.188 44.9831H148.684V49.4825H153.188V44.9831Z" fill="#67A1D2"/>
<path d="M166.595 44.9831H162.09V49.4825H166.595V44.9831Z" fill="#67A1D2"/>
<path d="M202.407 44.9831H197.902V49.4825H202.407V44.9831Z" fill="#67A1D2"/>
<path d="M255.419 53.9798H250.914V58.4792H255.419V53.9798Z" fill="#67A1D2"/>
<path d="M299.614 44.9831H295.109V49.4825H299.614V44.9831Z" fill="#67A1D2"/>
<path d="M179.997 44.9831H175.492V49.4825H179.997V44.9831Z" fill="#67A1D2"/>
<path d="M233.005 44.9831H228.5V49.4825H233.005V44.9831Z" fill="#67A1D2"/>
<path d="M268.821 53.9798H264.316V58.4792H268.821V53.9798Z" fill="#67A1D2"/>
<path d="M215.813 44.9831H211.309V49.4825H215.813V44.9831Z" fill="#67A1D2"/>
<path d="M246.411 53.9798H241.906V58.4792H246.411V53.9798Z" fill="#67A1D2"/>
<path d="M313.02 44.9831H308.516V49.4825H313.02V44.9831Z" fill="#67A1D2"/>
<path d="M282.223 53.9798H277.719V58.4792H282.223V53.9798Z" fill="#67A1D2"/>
<path d="M193.403 44.9831H188.898V49.4825H193.403V44.9831Z" fill="#67A1D2"/>
<path d="M290.61 44.9831H286.105V49.4825H290.61V44.9831Z" fill="#67A1D2"/>
<path d="M229.216 44.9831H224.711V49.4825H229.216V44.9831Z" fill="#67A1D2"/>
<path d="M326.423 44.9831H321.918V49.4825H326.423V44.9831Z" fill="#67A1D2"/>
<path d="M5.30545 49.4803H0.800781V53.9798H5.30545V49.4803Z" fill="#292666"/>
<path d="M9.80936 49.4802H5.30469V53.9796H9.80936V49.4802Z" fill="#374EA0"/>
<path d="M14.3133 49.4802H9.80859V53.9796H14.3133V49.4802Z" fill="#67A1D2"/>
<path d="M18.8172 49.4802H14.3125V53.9796H18.8172V49.4802Z" fill="#67A1D2"/>
<path d="M23.3211 49.4802H18.8164V53.9796H23.3211V49.4802Z" fill="#67A1D2"/>
<path d="M27.825 49.4802H23.3203V53.9796H27.825V49.4802Z" fill="#67A1D2"/>
<path d="M32.325 49.4802H27.8203V53.9796H32.325V49.4802Z" fill="#67A1D2"/>
<path d="M36.8328 49.4802H32.3281V53.9796H36.8328V49.4802Z" fill="#67A1D2"/>
<path d="M41.3328 49.4802H36.8281V53.9796H41.3328V49.4802Z" fill="#67A1D2"/>
<path d="M45.8406 49.4802H41.3359V53.9796H45.8406V49.4802Z" fill="#67A1D2"/>
<path d="M50.3523 49.4802H45.8477V53.9796H50.3523V49.4802Z" fill="#67A1D2"/>
<path d="M63.7586 49.4802H59.2539V53.9796H63.7586V49.4802Z" fill="#67A1D2"/>
<path d="M77.1609 49.4802H72.6562V53.9796H77.1609V49.4802Z" fill="#67A1D2"/>
<path d="M90.5633 49.4802H86.0586V53.9796H90.5633V49.4802Z" fill="#67A1D2"/>
<path d="M103.97 49.4802H99.4648V53.9796H103.97V49.4802Z" fill="#67A1D2"/>
<path d="M117.372 49.4802H112.867V53.9796H117.372V49.4802Z" fill="#67A1D2"/>
<path d="M130.778 49.4802H126.273V53.9796H130.778V49.4802Z" fill="#67A1D2"/>
<path d="M259.813 58.4769H255.309V62.9763H259.813V58.4769Z" fill="#67A1D2"/>
<path d="M144.18 49.4802H139.676V53.9796H144.18V49.4802Z" fill="#67A1D2"/>
<path d="M157.587 49.4802H153.082V53.9796H157.587V49.4802Z" fill="#67A1D2"/>
<path d="M170.989 49.4802H166.484V53.9796H170.989V49.4802Z" fill="#67A1D2"/>
<path d="M273.22 58.4769H268.715V62.9763H273.22V58.4769Z" fill="#67A1D2"/>
<path d="M206.805 49.4802H202.301V53.9796H206.805V49.4802Z" fill="#67A1D2"/>
<path d="M304.012 49.4802H299.508V53.9796H304.012V49.4802Z" fill="#67A1D2"/>
<path d="M184.395 49.4802H179.891V53.9796H184.395V49.4802Z" fill="#67A1D2"/>
<path d="M237.403 49.4802H232.898V53.9796H237.403V49.4802Z" fill="#67A1D2"/>
<path d="M220.208 49.4802H215.703V53.9796H220.208V49.4802Z" fill="#67A1D2"/>
<path d="M317.415 49.4802H312.91V53.9796H317.415V49.4802Z" fill="#67A1D2"/>
<path d="M54.8562 49.4802H50.3516V53.9796H54.8562V49.4802Z" fill="#67A1D2"/>
<path d="M68.2625 49.4802H63.7578V53.9796H68.2625V49.4802Z" fill="#67A1D2"/>
<path d="M81.6648 49.4802H77.1602V53.9796H81.6648V49.4802Z" fill="#67A1D2"/>
<path d="M95.0711 49.4802H90.5664V53.9796H95.0711V49.4802Z" fill="#67A1D2"/>
<path d="M250.915 58.4769H246.41V62.9763H250.915V58.4769Z" fill="#67A1D2"/>
<path d="M108.473 49.4802H103.969V53.9796H108.473V49.4802Z" fill="#67A1D2"/>
<path d="M121.876 49.4802H117.371V53.9796H121.876V49.4802Z" fill="#67A1D2"/>
<path d="M264.317 58.4769H259.812V62.9763H264.317V58.4769Z" fill="#67A1D2"/>
<path d="M135.282 49.4802H130.777V53.9796H135.282V49.4802Z" fill="#67A1D2"/>
<path d="M241.907 58.4769H237.402V62.9763H241.907V58.4769Z" fill="#67A1D2"/>
<path d="M148.684 49.4802H144.18V53.9796H148.684V49.4802Z" fill="#67A1D2"/>
<path d="M277.723 58.4769H273.219V62.9763H277.723V58.4769Z" fill="#67A1D2"/>
<path d="M162.091 49.4802H157.586V53.9796H162.091V49.4802Z" fill="#67A1D2"/>
<path d="M197.907 49.4802H193.402V53.9796H197.907V49.4802Z" fill="#67A1D2"/>
<path d="M295.114 49.4802H290.609V53.9796H295.114V49.4802Z" fill="#67A1D2"/>
<path d="M175.493 49.4802H170.988V53.9796H175.493V49.4802Z" fill="#67A1D2"/>
<path d="M211.309 49.4802H206.805V53.9796H211.309V49.4802Z" fill="#67A1D2"/>
<path d="M308.516 49.4802H304.012V53.9796H308.516V49.4802Z" fill="#67A1D2"/>
<path d="M188.899 49.4802H184.395V53.9796H188.899V49.4802Z" fill="#67A1D2"/>
<path d="M286.106 49.4802H281.602V53.9796H286.106V49.4802Z" fill="#67A1D2"/>
<path d="M224.716 49.4802H220.211V53.9796H224.716V49.4802Z" fill="#67A1D2"/>
<path d="M321.923 49.4802H317.418V53.9796H321.923V49.4802Z" fill="#67A1D2"/>
<path d="M255.419 58.4769H250.914V62.9763H255.419V58.4769Z" fill="#67A1D2"/>
<path d="M59.3601 49.4802H54.8555V53.9796H59.3601V49.4802Z" fill="#67A1D2"/>
<path d="M72.7625 49.4802H68.2578V53.9796H72.7625V49.4802Z" fill="#67A1D2"/>
<path d="M86.1687 49.4802H81.6641V53.9796H86.1687V49.4802Z" fill="#67A1D2"/>
<path d="M268.821 58.4769H264.316V62.9763H268.821V58.4769Z" fill="#67A1D2"/>
<path d="M99.5711 49.4802H95.0664V53.9796H99.5711V49.4802Z" fill="#67A1D2"/>
<path d="M246.411 58.4769H241.906V62.9763H246.411V58.4769Z" fill="#67A1D2"/>
<path d="M112.977 49.4802H108.473V53.9796H112.977V49.4802Z" fill="#67A1D2"/>
<path d="M282.223 58.4769H277.719V62.9763H282.223V58.4769Z" fill="#67A1D2"/>
<path d="M126.38 49.4802H121.875V53.9796H126.38V49.4802Z" fill="#67A1D2"/>
<path d="M139.786 49.4802H135.281V53.9796H139.786V49.4802Z" fill="#67A1D2"/>
<path d="M153.188 49.4802H148.684V53.9796H153.188V49.4802Z" fill="#67A1D2"/>
<path d="M166.595 49.4802H162.09V53.9796H166.595V49.4802Z" fill="#67A1D2"/>
<path d="M202.407 49.4802H197.902V53.9796H202.407V49.4802Z" fill="#67A1D2"/>
<path d="M299.614 49.4802H295.109V53.9796H299.614V49.4802Z" fill="#67A1D2"/>
<path d="M179.997 49.4802H175.492V53.9796H179.997V49.4802Z" fill="#67A1D2"/>
<path d="M233.005 49.4802H228.5V53.9796H233.005V49.4802Z" fill="#67A1D2"/>
<path d="M215.813 49.4802H211.309V53.9796H215.813V49.4802Z" fill="#67A1D2"/>
<path d="M313.02 49.4802H308.516V53.9796H313.02V49.4802Z" fill="#67A1D2"/>
<path d="M193.403 49.4802H188.898V53.9796H193.403V49.4802Z" fill="#67A1D2"/>
<path d="M290.61 49.4802H286.105V53.9796H290.61V49.4802Z" fill="#67A1D2"/>
<path d="M229.216 49.4802H224.711V53.9796H229.216V49.4802Z" fill="#67A1D2"/>
<path d="M326.423 49.4802H321.918V53.9796H326.423V49.4802Z" fill="#67A1D2"/>
<path d="M5.30545 53.9797H0.800781V58.4791H5.30545V53.9797Z" fill="#292666"/>
<path d="M9.80936 53.9798H5.30469V58.4792H9.80936V53.9798Z" fill="#374EA0"/>
<path d="M14.3133 53.9798H9.80859V58.4792H14.3133V53.9798Z" fill="#67A1D2"/>
<path d="M18.8172 53.9798H14.3125V58.4792H18.8172V53.9798Z" fill="#67A1D2"/>
<path d="M23.3211 53.9798H18.8164V58.4792H23.3211V53.9798Z" fill="#67A1D2"/>
<path d="M27.825 53.9798H23.3203V58.4792H27.825V53.9798Z" fill="#67A1D2"/>
<path d="M259.813 62.9763H255.309V67.4757H259.813V62.9763Z" fill="#374EA0"/>
<path d="M32.325 53.9798H27.8203V58.4792H32.325V53.9798Z" fill="#67A1D2"/>
<path d="M36.8328 53.9798H32.3281V58.4792H36.8328V53.9798Z" fill="#67A1D2"/>
<path d="M41.3328 53.9798H36.8281V58.4792H41.3328V53.9798Z" fill="#67A1D2"/>
<path d="M273.22 62.9763H268.715V67.4757H273.22V62.9763Z" fill="#374EA0"/>
<path d="M45.8406 53.9798H41.3359V58.4792H45.8406V53.9798Z" fill="#67A1D2"/>
<path d="M50.3523 53.9798H45.8477V58.4792H50.3523V53.9798Z" fill="#67A1D2"/>
<path d="M63.7586 53.9798H59.2539V58.4792H63.7586V53.9798Z" fill="#67A1D2"/>
<path d="M77.1609 53.9798H72.6562V58.4792H77.1609V53.9798Z" fill="#67A1D2"/>
<path d="M90.5633 53.9798H86.0586V58.4792H90.5633V53.9798Z" fill="#67A1D2"/>
<path d="M103.97 53.9798H99.4648V58.4792H103.97V53.9798Z" fill="#67A1D2"/>
<path d="M117.372 53.9798H112.867V58.4792H117.372V53.9798Z" fill="#67A1D2"/>
<path d="M130.778 53.9798H126.273V58.4792H130.778V53.9798Z" fill="#67A1D2"/>
<path d="M144.18 53.9798H139.676V58.4792H144.18V53.9798Z" fill="#67A1D2"/>
<path d="M157.587 53.9798H153.082V58.4792H157.587V53.9798Z" fill="#67A1D2"/>
<path d="M250.915 62.9763H246.41V67.4757H250.915V62.9763Z" fill="#374EA0"/>
<path d="M170.989 53.9798H166.484V58.4792H170.989V53.9798Z" fill="#67A1D2"/>
<path d="M206.805 53.9798H202.301V58.4792H206.805V53.9798Z" fill="#67A1D2"/>
<path d="M264.317 62.9763H259.812V67.4757H264.317V62.9763Z" fill="#374EA0"/>
<path d="M304.012 53.9798H299.508V58.4792H304.012V53.9798Z" fill="#67A1D2"/>
<path d="M241.907 62.9763H237.402V67.4757H241.907V62.9763Z" fill="#374EA0"/>
<path d="M184.395 53.9798H179.891V58.4792H184.395V53.9798Z" fill="#67A1D2"/>
<path d="M277.723 62.9763H273.219V67.4757H277.723V62.9763Z" fill="#374EA0"/>
<path d="M237.403 53.9798H232.898V58.4792H237.403V53.9798Z" fill="#67A1D2"/>
<path d="M220.208 53.9798H215.703V58.4792H220.208V53.9798Z" fill="#67A1D2"/>
<path d="M317.415 53.9798H312.91V58.4792H317.415V53.9798Z" fill="#67A1D2"/>
<path d="M54.8562 53.9798H50.3516V58.4792H54.8562V53.9798Z" fill="#67A1D2"/>
<path d="M68.2625 53.9798H63.7578V58.4792H68.2625V53.9798Z" fill="#67A1D2"/>
<path d="M81.6648 53.9798H77.1602V58.4792H81.6648V53.9798Z" fill="#67A1D2"/>
<path d="M95.0711 53.9798H90.5664V58.4792H95.0711V53.9798Z" fill="#67A1D2"/>
<path d="M108.473 53.9798H103.969V58.4792H108.473V53.9798Z" fill="#67A1D2"/>
<path d="M121.876 53.9798H117.371V58.4792H121.876V53.9798Z" fill="#67A1D2"/>
<path d="M135.282 53.9798H130.777V58.4792H135.282V53.9798Z" fill="#67A1D2"/>
<path d="M255.419 62.9763H250.914V67.4757H255.419V62.9763Z" fill="#374EA0"/>
<path d="M148.684 53.9798H144.18V58.4792H148.684V53.9798Z" fill="#67A1D2"/>
<path d="M162.091 53.9798H157.586V58.4792H162.091V53.9798Z" fill="#67A1D2"/>
<path d="M197.907 53.9798H193.402V58.4792H197.907V53.9798Z" fill="#67A1D2"/>
<path d="M268.821 62.9763H264.316V67.4757H268.821V62.9763Z" fill="#374EA0"/>
<path d="M295.114 53.9798H290.609V58.4792H295.114V53.9798Z" fill="#67A1D2"/>
<path d="M246.411 62.9763H241.906V67.4757H246.411V62.9763Z" fill="#374EA0"/>
<path d="M175.493 53.9798H170.988V58.4792H175.493V53.9798Z" fill="#67A1D2"/>
<path d="M282.223 62.9763H277.719V67.4757H282.223V62.9763Z" fill="#374EA0"/>
<path d="M211.309 53.9798H206.805V58.4792H211.309V53.9798Z" fill="#67A1D2"/>
<path d="M308.516 53.9798H304.012V58.4792H308.516V53.9798Z" fill="#67A1D2"/>
<path d="M188.899 53.9798H184.395V58.4792H188.899V53.9798Z" fill="#67A1D2"/>
<path d="M286.106 53.9798H281.602V58.4792H286.106V53.9798Z" fill="#67A1D2"/>
<path d="M224.716 53.9798H220.211V58.4792H224.716V53.9798Z" fill="#67A1D2"/>
<path d="M321.923 53.9798H317.418V58.4792H321.923V53.9798Z" fill="#67A1D2"/>
<path d="M59.3601 53.9798H54.8555V58.4792H59.3601V53.9798Z" fill="#67A1D2"/>
<path d="M72.7625 53.9798H68.2578V58.4792H72.7625V53.9798Z" fill="#67A1D2"/>
<path d="M86.1687 53.9798H81.6641V58.4792H86.1687V53.9798Z" fill="#67A1D2"/>
<path d="M99.5711 53.9798H95.0664V58.4792H99.5711V53.9798Z" fill="#67A1D2"/>
<path d="M112.977 53.9798H108.473V58.4792H112.977V53.9798Z" fill="#67A1D2"/>
<path d="M126.38 53.9798H121.875V58.4792H126.38V53.9798Z" fill="#67A1D2"/>
<path d="M139.786 53.9798H135.281V58.4792H139.786V53.9798Z" fill="#67A1D2"/>
<path d="M153.188 53.9798H148.684V58.4792H153.188V53.9798Z" fill="#67A1D2"/>
<path d="M166.595 53.9798H162.09V58.4792H166.595V53.9798Z" fill="#67A1D2"/>
<path d="M202.407 53.9798H197.902V58.4792H202.407V53.9798Z" fill="#67A1D2"/>
<path d="M299.614 53.9798H295.109V58.4792H299.614V53.9798Z" fill="#67A1D2"/>
<path d="M179.997 53.9798H175.492V58.4792H179.997V53.9798Z" fill="#67A1D2"/>
<path d="M233.005 53.9798H228.5V58.4792H233.005V53.9798Z" fill="#67A1D2"/>
<path d="M259.813 67.4736H255.309V71.973H259.813V67.4736Z" fill="#292666"/>
<path d="M215.813 53.9798H211.309V58.4792H215.813V53.9798Z" fill="#67A1D2"/>
<path d="M313.02 53.9798H308.516V58.4792H313.02V53.9798Z" fill="#67A1D2"/>
<path d="M193.403 53.9798H188.898V58.4792H193.403V53.9798Z" fill="#67A1D2"/>
<path d="M273.22 67.4736H268.715V71.973H273.22V67.4736Z" fill="#292666"/>
<path d="M290.61 53.9798H286.105V58.4792H290.61V53.9798Z" fill="#67A1D2"/>
<path d="M229.216 53.9798H224.711V58.4792H229.216V53.9798Z" fill="#67A1D2"/>
<path d="M326.423 53.9798H321.918V58.4792H326.423V53.9798Z" fill="#67A1D2"/>
<path d="M5.30545 58.4769H0.800781V62.9763H5.30545V58.4769Z" fill="#292666"/>
<path d="M9.80936 58.4769H5.30469V62.9763H9.80936V58.4769Z" fill="#374EA0"/>
<path d="M14.3133 58.4769H9.80859V62.9763H14.3133V58.4769Z" fill="#374EA0"/>
<path d="M18.8172 58.4769H14.3125V62.9763H18.8172V58.4769Z" fill="#67A1D2"/>
<path d="M23.3211 58.4769H18.8164V62.9763H23.3211V58.4769Z" fill="#67A1D2"/>
<path d="M27.825 58.4769H23.3203V62.9763H27.825V58.4769Z" fill="#67A1D2"/>
<path d="M32.325 58.4769H27.8203V62.9763H32.325V58.4769Z" fill="#67A1D2"/>
<path d="M250.915 67.4736H246.41V71.973H250.915V67.4736Z" fill="#292666"/>
<path d="M36.8328 58.4769H32.3281V62.9763H36.8328V58.4769Z" fill="#67A1D2"/>
<path d="M41.3328 58.4769H36.8281V62.9763H41.3328V58.4769Z" fill="#67A1D2"/>
<path d="M264.317 67.4736H259.812V71.973H264.317V67.4736Z" fill="#292666"/>
<path d="M45.8406 58.4769H41.3359V62.9763H45.8406V58.4769Z" fill="#67A1D2"/>
<path d="M241.907 67.4736H237.402V71.973H241.907V67.4736Z" fill="#292666"/>
<path d="M50.3523 58.4769H45.8477V62.9763H50.3523V58.4769Z" fill="#67A1D2"/>
<path d="M277.723 67.4736H273.219V71.973H277.723V67.4736Z" fill="#292666"/>
<path d="M63.7586 58.4769H59.2539V62.9763H63.7586V58.4769Z" fill="#67A1D2"/>
<path d="M77.1609 58.4769H72.6562V62.9763H77.1609V58.4769Z" fill="#67A1D2"/>
<path d="M90.5633 58.4769H86.0586V62.9763H90.5633V58.4769Z" fill="#67A1D2"/>
<path d="M103.97 58.4769H99.4648V62.9763H103.97V58.4769Z" fill="#67A1D2"/>
<path d="M117.372 58.4769H112.867V62.9763H117.372V58.4769Z" fill="#67A1D2"/>
<path d="M130.778 58.4769H126.273V62.9763H130.778V58.4769Z" fill="#67A1D2"/>
<path d="M144.18 58.4769H139.676V62.9763H144.18V58.4769Z" fill="#67A1D2"/>
<path d="M157.587 58.4769H153.082V62.9763H157.587V58.4769Z" fill="#67A1D2"/>
<path d="M170.989 58.4769H166.484V62.9763H170.989V58.4769Z" fill="#67A1D2"/>
<path d="M206.805 58.4769H202.301V62.9763H206.805V58.4769Z" fill="#67A1D2"/>
<path d="M255.419 67.4736H250.914V71.973H255.419V67.4736Z" fill="#292666"/>
<path d="M304.012 58.4769H299.508V62.9763H304.012V58.4769Z" fill="#67A1D2"/>
<path d="M184.395 58.4769H179.891V62.9763H184.395V58.4769Z" fill="#67A1D2"/>
<path d="M237.403 58.4769H232.898V62.9763H237.403V58.4769Z" fill="#67A1D2"/>
<path d="M268.821 67.4736H264.316V71.973H268.821V67.4736Z" fill="#292666"/>
<path d="M220.208 58.4769H215.703V62.9763H220.208V58.4769Z" fill="#67A1D2"/>
<path d="M246.411 67.4736H241.906V71.973H246.411V67.4736Z" fill="#292666"/>
<path d="M317.415 58.4769H312.91V62.9763H317.415V58.4769Z" fill="#67A1D2"/>
<path d="M282.223 67.4736H277.719V71.973H282.223V67.4736Z" fill="#292666"/>
<path d="M54.8562 58.4769H50.3516V62.9763H54.8562V58.4769Z" fill="#67A1D2"/>
<path d="M68.2625 58.4769H63.7578V62.9763H68.2625V58.4769Z" fill="#67A1D2"/>
<path d="M81.6648 58.4769H77.1602V62.9763H81.6648V58.4769Z" fill="#67A1D2"/>
<path d="M95.0711 58.4769H90.5664V62.9763H95.0711V58.4769Z" fill="#67A1D2"/>
<path d="M108.473 58.4769H103.969V62.9763H108.473V58.4769Z" fill="#67A1D2"/>
<path d="M121.876 58.4769H117.371V62.9763H121.876V58.4769Z" fill="#67A1D2"/>
<path d="M135.282 58.4769H130.777V62.9763H135.282V58.4769Z" fill="#67A1D2"/>
<path d="M148.684 58.4769H144.18V62.9763H148.684V58.4769Z" fill="#67A1D2"/>
<path d="M162.091 58.4769H157.586V62.9763H162.091V58.4769Z" fill="#67A1D2"/>
<path d="M197.907 58.4769H193.402V62.9763H197.907V58.4769Z" fill="#67A1D2"/>
<path d="M295.114 58.4769H290.609V62.9763H295.114V58.4769Z" fill="#67A1D2"/>
<path d="M175.493 58.4769H170.988V62.9763H175.493V58.4769Z" fill="#67A1D2"/>
<path d="M211.309 58.4769H206.805V62.9763H211.309V58.4769Z" fill="#67A1D2"/>
<path d="M308.516 58.4769H304.012V62.9763H308.516V58.4769Z" fill="#67A1D2"/>
<path d="M188.899 58.4769H184.395V62.9763H188.899V58.4769Z" fill="#67A1D2"/>
<path d="M286.106 58.4769H281.602V62.9763H286.106V58.4769Z" fill="#67A1D2"/>
<path d="M224.716 58.4769H220.211V62.9763H224.716V58.4769Z" fill="#67A1D2"/>
<path d="M321.923 58.4769H317.418V62.9763H321.923V58.4769Z" fill="#67A1D2"/>
<path d="M59.3601 58.4769H54.8555V62.9763H59.3601V58.4769Z" fill="#67A1D2"/>
<path d="M72.7625 58.4769H68.2578V62.9763H72.7625V58.4769Z" fill="#67A1D2"/>
<path d="M86.1687 58.4769H81.6641V62.9763H86.1687V58.4769Z" fill="#67A1D2"/>
<path d="M99.5711 58.4769H95.0664V62.9763H99.5711V58.4769Z" fill="#67A1D2"/>
<path d="M112.977 58.4769H108.473V62.9763H112.977V58.4769Z" fill="#67A1D2"/>
<path d="M126.38 58.4769H121.875V62.9763H126.38V58.4769Z" fill="#67A1D2"/>
<path d="M139.786 58.4769H135.281V62.9763H139.786V58.4769Z" fill="#67A1D2"/>
<path d="M153.188 58.4769H148.684V62.9763H153.188V58.4769Z" fill="#67A1D2"/>
<path d="M166.595 58.4769H162.09V62.9763H166.595V58.4769Z" fill="#67A1D2"/>
<path d="M202.407 58.4769H197.902V62.9763H202.407V58.4769Z" fill="#67A1D2"/>
<path d="M299.614 58.4769H295.109V62.9763H299.614V58.4769Z" fill="#67A1D2"/>
<path d="M179.997 58.4769H175.492V62.9763H179.997V58.4769Z" fill="#67A1D2"/>
<path d="M233.005 58.4769H228.5V62.9763H233.005V58.4769Z" fill="#67A1D2"/>
<path d="M215.813 58.4769H211.309V62.9763H215.813V58.4769Z" fill="#67A1D2"/>
<path d="M313.02 58.4769H308.516V62.9763H313.02V58.4769Z" fill="#67A1D2"/>
<path d="M193.403 58.4769H188.898V62.9763H193.403V58.4769Z" fill="#67A1D2"/>
<path d="M290.61 58.4769H286.105V62.9763H290.61V58.4769Z" fill="#67A1D2"/>
<path d="M229.216 58.4769H224.711V62.9763H229.216V58.4769Z" fill="#67A1D2"/>
<path d="M326.423 58.4769H321.918V62.9763H326.423V58.4769Z" fill="#67A1D2"/>
<path d="M9.80936 62.9763H5.30469V67.4757H9.80936V62.9763Z" fill="#292666"/>
<path d="M14.3133 62.9763H9.80859V67.4757H14.3133V62.9763Z" fill="#374EA0"/>
<path d="M18.8172 62.9763H14.3125V67.4757H18.8172V62.9763Z" fill="#374EA0"/>
<path d="M23.3211 62.9763H18.8164V67.4757H23.3211V62.9763Z" fill="#374EA0"/>
<path d="M27.825 62.9763H23.3203V67.4757H27.825V62.9763Z" fill="#374EA0"/>
<path d="M32.325 62.9763H27.8203V67.4757H32.325V62.9763Z" fill="#374EA0"/>
<path d="M36.8328 62.9763H32.3281V67.4757H36.8328V62.9763Z" fill="#374EA0"/>
<path d="M41.3328 62.9763H36.8281V67.4757H41.3328V62.9763Z" fill="#374EA0"/>
<path d="M45.8406 62.9763H41.3359V67.4757H45.8406V62.9763Z" fill="#374EA0"/>
<path d="M50.3523 62.9763H45.8477V67.4757H50.3523V62.9763Z" fill="#374EA0"/>
<path d="M63.7586 62.9763H59.2539V67.4757H63.7586V62.9763Z" fill="#374EA0"/>
<path d="M77.1609 62.9763H72.6562V67.4757H77.1609V62.9763Z" fill="#374EA0"/>
<path d="M90.5633 62.9763H86.0586V67.4757H90.5633V62.9763Z" fill="#374EA0"/>
<path d="M103.97 62.9763H99.4648V67.4757H103.97V62.9763Z" fill="#374EA0"/>
<path d="M117.372 62.9763H112.867V67.4757H117.372V62.9763Z" fill="#374EA0"/>
<path d="M130.778 62.9763H126.273V67.4757H130.778V62.9763Z" fill="#374EA0"/>
<path d="M144.18 62.9763H139.676V67.4757H144.18V62.9763Z" fill="#374EA0"/>
<path d="M157.587 62.9763H153.082V67.4757H157.587V62.9763Z" fill="#374EA0"/>
<path d="M170.989 62.9763H166.484V67.4757H170.989V62.9763Z" fill="#374EA0"/>
<path d="M206.805 62.9763H202.301V67.4757H206.805V62.9763Z" fill="#374EA0"/>
<path d="M304.012 62.9763H299.508V67.4757H304.012V62.9763Z" fill="#374EA0"/>
<path d="M184.395 62.9763H179.891V67.4757H184.395V62.9763Z" fill="#374EA0"/>
<path d="M237.403 62.9763H232.898V67.4757H237.403V62.9763Z" fill="#374EA0"/>
<path d="M220.208 62.9763H215.703V67.4757H220.208V62.9763Z" fill="#374EA0"/>
<path d="M317.415 62.9763H312.91V67.4757H317.415V62.9763Z" fill="#374EA0"/>
<path d="M54.8562 62.9763H50.3516V67.4757H54.8562V62.9763Z" fill="#374EA0"/>
<path d="M68.2625 62.9763H63.7578V67.4757H68.2625V62.9763Z" fill="#374EA0"/>
<path d="M81.6648 62.9763H77.1602V67.4757H81.6648V62.9763Z" fill="#374EA0"/>
<path d="M95.0711 62.9763H90.5664V67.4757H95.0711V62.9763Z" fill="#374EA0"/>
<path d="M108.473 62.9763H103.969V67.4757H108.473V62.9763Z" fill="#374EA0"/>
<path d="M121.876 62.9763H117.371V67.4757H121.876V62.9763Z" fill="#374EA0"/>
<path d="M135.282 62.9763H130.777V67.4757H135.282V62.9763Z" fill="#374EA0"/>
<path d="M148.684 62.9763H144.18V67.4757H148.684V62.9763Z" fill="#374EA0"/>
<path d="M162.091 62.9763H157.586V67.4757H162.091V62.9763Z" fill="#374EA0"/>
<path d="M197.907 62.9763H193.402V67.4757H197.907V62.9763Z" fill="#374EA0"/>
<path d="M295.114 62.9763H290.609V67.4757H295.114V62.9763Z" fill="#374EA0"/>
<path d="M175.493 62.9763H170.988V67.4757H175.493V62.9763Z" fill="#374EA0"/>
<path d="M211.309 62.9763H206.805V67.4757H211.309V62.9763Z" fill="#374EA0"/>
<path d="M308.516 62.9763H304.012V67.4757H308.516V62.9763Z" fill="#374EA0"/>
<path d="M188.899 62.9763H184.395V67.4757H188.899V62.9763Z" fill="#374EA0"/>
<path d="M286.106 62.9763H281.602V67.4757H286.106V62.9763Z" fill="#374EA0"/>
<path d="M224.716 62.9763H220.211V67.4757H224.716V62.9763Z" fill="#374EA0"/>
<path d="M321.923 62.9763H317.418V67.4757H321.923V62.9763Z" fill="#374EA0"/>
<path d="M59.3601 62.9763H54.8555V67.4757H59.3601V62.9763Z" fill="#374EA0"/>
<path d="M72.7625 62.9763H68.2578V67.4757H72.7625V62.9763Z" fill="#374EA0"/>
<path d="M86.1687 62.9763H81.6641V67.4757H86.1687V62.9763Z" fill="#374EA0"/>
<path d="M99.5711 62.9763H95.0664V67.4757H99.5711V62.9763Z" fill="#374EA0"/>
<path d="M112.977 62.9763H108.473V67.4757H112.977V62.9763Z" fill="#374EA0"/>
<path d="M126.38 62.9763H121.875V67.4757H126.38V62.9763Z" fill="#374EA0"/>
<path d="M139.786 62.9763H135.281V67.4757H139.786V62.9763Z" fill="#374EA0"/>
<path d="M153.188 62.9763H148.684V67.4757H153.188V62.9763Z" fill="#374EA0"/>
<path d="M166.595 62.9763H162.09V67.4757H166.595V62.9763Z" fill="#374EA0"/>
<path d="M202.407 62.9763H197.902V67.4757H202.407V62.9763Z" fill="#374EA0"/>
<path d="M299.614 62.9763H295.109V67.4757H299.614V62.9763Z" fill="#374EA0"/>
<path d="M179.997 62.9763H175.492V67.4757H179.997V62.9763Z" fill="#374EA0"/>
<path d="M233.005 62.9763H228.5V67.4757H233.005V62.9763Z" fill="#374EA0"/>
<path d="M215.813 62.9763H211.309V67.4757H215.813V62.9763Z" fill="#374EA0"/>
<path d="M313.02 62.9763H308.516V67.4757H313.02V62.9763Z" fill="#374EA0"/>
<path d="M193.403 62.9763H188.898V67.4757H193.403V62.9763Z" fill="#374EA0"/>
<path d="M290.61 62.9763H286.105V67.4757H290.61V62.9763Z" fill="#374EA0"/>
<path d="M229.216 62.9763H224.711V67.4757H229.216V62.9763Z" fill="#374EA0"/>
<path d="M326.423 62.9763H321.918V67.4757H326.423V62.9763Z" fill="#374EA0"/>
<path d="M14.3133 67.4736H9.80859V71.973H14.3133V67.4736Z" fill="#292666"/>
<path d="M18.8172 67.4736H14.3125V71.973H18.8172V67.4736Z" fill="#292666"/>
<path d="M23.3211 67.4736H18.8164V71.973H23.3211V67.4736Z" fill="#292666"/>
<path d="M27.825 67.4736H23.3203V71.973H27.825V67.4736Z" fill="#292666"/>
<path d="M32.325 67.4736H27.8203V71.973H32.325V67.4736Z" fill="#292666"/>
<path d="M36.8328 67.4736H32.3281V71.973H36.8328V67.4736Z" fill="#292666"/>
<path d="M41.3328 67.4736H36.8281V71.973H41.3328V67.4736Z" fill="#292666"/>
<path d="M45.8406 67.4736H41.3359V71.973H45.8406V67.4736Z" fill="#292666"/>
<path d="M50.3523 67.4736H45.8477V71.973H50.3523V67.4736Z" fill="#292666"/>
<path d="M63.7586 67.4736H59.2539V71.973H63.7586V67.4736Z" fill="#292666"/>
<path d="M77.1609 67.4736H72.6562V71.973H77.1609V67.4736Z" fill="#292666"/>
<path d="M90.5633 67.4736H86.0586V71.973H90.5633V67.4736Z" fill="#292666"/>
<path d="M103.97 67.4736H99.4648V71.973H103.97V67.4736Z" fill="#292666"/>
<path d="M117.372 67.4736H112.867V71.973H117.372V67.4736Z" fill="#292666"/>
<path d="M130.778 67.4736H126.273V71.973H130.778V67.4736Z" fill="#292666"/>
<path d="M144.18 67.4736H139.676V71.973H144.18V67.4736Z" fill="#292666"/>
<path d="M157.587 67.4736H153.082V71.973H157.587V67.4736Z" fill="#292666"/>
<path d="M170.989 67.4736H166.484V71.973H170.989V67.4736Z" fill="#292666"/>
<path d="M206.805 67.4736H202.301V71.973H206.805V67.4736Z" fill="#292666"/>
<path d="M304.012 67.4736H299.508V71.973H304.012V67.4736Z" fill="#292666"/>
<path d="M184.395 67.4736H179.891V71.973H184.395V67.4736Z" fill="#292666"/>
<path d="M237.403 67.4736H232.898V71.973H237.403V67.4736Z" fill="#292666"/>
<path d="M220.208 67.4736H215.703V71.973H220.208V67.4736Z" fill="#292666"/>
<path d="M317.415 67.4736H312.91V71.973H317.415V67.4736Z" fill="#292666"/>
<path d="M54.8562 67.4736H50.3516V71.973H54.8562V67.4736Z" fill="#292666"/>
<path d="M68.2625 67.4736H63.7578V71.973H68.2625V67.4736Z" fill="#292666"/>
<path d="M81.6648 67.4736H77.1602V71.973H81.6648V67.4736Z" fill="#292666"/>
<path d="M95.0711 67.4736H90.5664V71.973H95.0711V67.4736Z" fill="#292666"/>
<path d="M108.473 67.4736H103.969V71.973H108.473V67.4736Z" fill="#292666"/>
<path d="M121.876 67.4736H117.371V71.973H121.876V67.4736Z" fill="#292666"/>
<path d="M135.282 67.4736H130.777V71.973H135.282V67.4736Z" fill="#292666"/>
<path d="M148.684 67.4736H144.18V71.973H148.684V67.4736Z" fill="#292666"/>
<path d="M162.091 67.4736H157.586V71.973H162.091V67.4736Z" fill="#292666"/>
<path d="M197.907 67.4736H193.402V71.973H197.907V67.4736Z" fill="#292666"/>
<path d="M295.114 67.4736H290.609V71.973H295.114V67.4736Z" fill="#292666"/>
<path d="M175.493 67.4736H170.988V71.973H175.493V67.4736Z" fill="#292666"/>
<path d="M211.309 67.4736H206.805V71.973H211.309V67.4736Z" fill="#292666"/>
<path d="M308.516 67.4736H304.012V71.973H308.516V67.4736Z" fill="#292666"/>
<path d="M188.899 67.4736H184.395V71.973H188.899V67.4736Z" fill="#292666"/>
<path d="M286.106 67.4736H281.602V71.973H286.106V67.4736Z" fill="#292666"/>
<path d="M224.716 67.4736H220.211V71.973H224.716V67.4736Z" fill="#292666"/>
<path d="M321.923 67.4736H317.418V71.973H321.923V67.4736Z" fill="#292666"/>
<path d="M59.3601 67.4736H54.8555V71.973H59.3601V67.4736Z" fill="#292666"/>
<path d="M72.7625 67.4736H68.2578V71.973H72.7625V67.4736Z" fill="#292666"/>
<path d="M86.1687 67.4736H81.6641V71.973H86.1687V67.4736Z" fill="#292666"/>
<path d="M99.5711 67.4736H95.0664V71.973H99.5711V67.4736Z" fill="#292666"/>
<path d="M112.977 67.4736H108.473V71.973H112.977V67.4736Z" fill="#292666"/>
<path d="M126.38 67.4736H121.875V71.973H126.38V67.4736Z" fill="#292666"/>
<path d="M139.786 67.4736H135.281V71.973H139.786V67.4736Z" fill="#292666"/>
<path d="M153.188 67.4736H148.684V71.973H153.188V67.4736Z" fill="#292666"/>
<path d="M166.595 67.4736H162.09V71.973H166.595V67.4736Z" fill="#292666"/>
<path d="M202.407 67.4736H197.902V71.973H202.407V67.4736Z" fill="#292666"/>
<path d="M299.614 67.4736H295.109V71.973H299.614V67.4736Z" fill="#292666"/>
<path d="M179.997 67.4736H175.492V71.973H179.997V67.4736Z" fill="#292666"/>
<path d="M233.005 67.4736H228.5V71.973H233.005V67.4736Z" fill="#292666"/>
<path d="M215.813 67.4736H211.309V71.973H215.813V67.4736Z" fill="#292666"/>
<path d="M313.02 67.4736H308.516V71.973H313.02V67.4736Z" fill="#292666"/>
<path d="M193.403 67.4736H188.898V71.973H193.403V67.4736Z" fill="#292666"/>
<path d="M290.61 67.4736H286.105V71.973H290.61V67.4736Z" fill="#292666"/>
<path d="M229.216 67.4736H224.711V71.973H229.216V67.4736Z" fill="#292666"/>
<path d="M326.423 67.4736H321.918V71.973H326.423V67.4736Z" fill="#292666"/>
<path d="M330.199 0H325.699V4.49941H330.199V0Z" fill="#292666"/>
<path d="M330.199 4.49713H325.699V8.99654H330.199V4.49713Z" fill="#374EA0"/>
<path d="M334.695 4.49713H330.195V8.99654H334.695V4.49713Z" fill="#2D2F4A"/>
<path d="M330.199 8.9967H325.699V13.4961H330.199V8.9967Z" fill="#374EA0"/>
<path d="M334.695 8.9967H330.195V13.4961H334.695V8.9967Z" fill="#374EA0"/>
<path d="M339.195 8.9967H334.695V13.4961H339.195V8.9967Z" fill="#292666"/>
<path d="M330.199 13.4938H325.699V17.9932H330.199V13.4938Z" fill="#ACDAE1"/>
<path d="M334.695 13.4938H330.195V17.9932H334.695V13.4938Z" fill="#374EA0"/>
<path d="M339.195 13.4938H334.695V17.9932H339.195V13.4938Z" fill="#292666"/>
<path d="M330.199 17.9932H325.699V22.4926H330.199V17.9932Z" fill="#67A1D2"/>
<path d="M334.695 17.9932H330.195V22.4926H334.695V17.9932Z" fill="#374EA0"/>
<path d="M339.195 17.9932H334.695V22.4926H339.195V17.9932Z" fill="#292666"/>
<path d="M330.199 22.4905H325.699V26.9899H330.199V22.4905Z" fill="#67A1D2"/>
<path d="M334.695 22.4905H330.195V26.9899H334.695V22.4905Z" fill="#374EA0"/>
<path d="M339.195 22.4905H334.695V26.9899H339.195V22.4905Z" fill="#292666"/>
<path d="M330.199 26.9899H325.699V31.4893H330.199V26.9899Z" fill="#67A1D2"/>
<path d="M334.695 26.9899H330.195V31.4893H334.695V26.9899Z" fill="#374EA0"/>
<path d="M339.195 26.9899H334.695V31.4893H339.195V26.9899Z" fill="#292666"/>
<path d="M330.199 31.4871H325.699V35.9865H330.199V31.4871Z" fill="#67A1D2"/>
<path d="M334.695 31.4871H330.195V35.9865H334.695V31.4871Z" fill="#374EA0"/>
<path d="M339.195 31.4871H334.695V35.9865H339.195V31.4871Z" fill="#292666"/>
<path d="M330.199 35.9864H325.699V40.4858H330.199V35.9864Z" fill="#67A1D2"/>
<path d="M334.695 35.9864H330.195V40.4858H334.695V35.9864Z" fill="#374EA0"/>
<path d="M339.195 35.9864H334.695V40.4858H339.195V35.9864Z" fill="#292666"/>
<path d="M330.199 40.4838H325.699V44.9832H330.199V40.4838Z" fill="#67A1D2"/>
<path d="M334.695 40.4838H330.195V44.9832H334.695V40.4838Z" fill="#374EA0"/>
<path d="M339.195 40.4838H334.695V44.9832H339.195V40.4838Z" fill="#292666"/>
<path d="M330.199 44.9831H325.699V49.4825H330.199V44.9831Z" fill="#67A1D2"/>
<path d="M334.695 44.9831H330.195V49.4825H334.695V44.9831Z" fill="#374EA0"/>
<path d="M339.195 44.9831H334.695V49.4825H339.195V44.9831Z" fill="#292666"/>
<path d="M330.199 49.4802H325.699V53.9796H330.199V49.4802Z" fill="#67A1D2"/>
<path d="M334.695 49.4802H330.195V53.9796H334.695V49.4802Z" fill="#374EA0"/>
<path d="M339.195 49.4802H334.695V53.9796H339.195V49.4802Z" fill="#292666"/>
<path d="M330.199 53.9798H325.699V58.4792H330.199V53.9798Z" fill="#67A1D2"/>
<path d="M334.695 53.9798H330.195V58.4792H334.695V53.9798Z" fill="#374EA0"/>
<path d="M339.195 53.9798H334.695V58.4792H339.195V53.9798Z" fill="#292666"/>
<path d="M330.199 58.4769H325.699V62.9763H330.199V58.4769Z" fill="#374EA0"/>
<path d="M334.695 58.4769H330.195V62.9763H334.695V58.4769Z" fill="#374EA0"/>
<path d="M339.195 58.4769H334.695V62.9763H339.195V58.4769Z" fill="#292666"/>
<path d="M330.199 62.9763H325.699V67.4757H330.199V62.9763Z" fill="#374EA0"/>
<path d="M334.695 62.9763H330.195V67.4757H334.695V62.9763Z" fill="#292666"/>
<path d="M330.199 67.4736H325.699V71.973H330.199V67.4736Z" fill="#292666"/>
</svg>
