<svg width="140" height="50" viewBox="0 0 140 50" fill="none" xmlns="http://www.w3.org/2000/svg">
<path d="M14.6702 0H9.7793V3.84701H14.6702V0Z" fill="#55162B"/>
<path d="M19.5608 0H14.6699V3.84701H19.5608V0Z" fill="#55162B"/>
<path d="M24.4514 0H19.5605V3.84701H24.4514V0Z" fill="#55162B"/>
<path d="M29.3401 0H24.4492V3.84701H29.3401V0Z" fill="#55162B"/>
<path d="M34.2307 0H29.3398V3.84701H34.2307V0Z" fill="#55162B"/>
<path d="M39.1194 0H34.2285V3.84701H39.1194V0Z" fill="#55162B"/>
<path d="M44.01 0H39.1191V3.84701H44.01V0Z" fill="#55162B"/>
<path d="M48.8987 0H44.0078V3.84701H48.8987V0Z" fill="#55162B"/>
<path d="M67.5569 0.00012207H62.666V3.84713H67.5569V0.00012207Z" fill="#55162B"/>
<path d="M87.1155 0H82.2246V3.84701H87.1155V0Z" fill="#55162B"/>
<path d="M110.811 0H105.92V3.84701H110.811V0Z" fill="#55162B"/>
<path d="M53.7893 0H48.8984V3.84701H53.7893V0Z" fill="#55162B"/>
<path d="M92.0061 0H87.1152V3.84701H92.0061V0Z" fill="#55162B"/>
<path d="M72.4475 0.00012207H67.5566V3.84713H72.4475V0.00012207Z" fill="#55162B"/>
<path d="M115.703 0H110.812V3.84701H115.703V0Z" fill="#55162B"/>
<path d="M96.8948 0H92.0039V3.84701H96.8948V0Z" fill="#55162B"/>
<path d="M58.678 0H53.7871V3.84701H58.678V0Z" fill="#55162B"/>
<path d="M82.2268 0H77.3359V3.84701H82.2268V0Z" fill="#55162B"/>
<path d="M101.785 0H96.8945V3.84701H101.785V0Z" fill="#55162B"/>
<path d="M77.3362 0.00012207H72.4453V3.84713H77.3362V0.00012207Z" fill="#55162B"/>
<path d="M120.59 0H115.699V3.84701H120.59V0Z" fill="#55162B"/>
<path d="M63.5686 0H58.6777V3.84701H63.5686V0Z" fill="#55162B"/>
<path d="M105.922 0H101.031V3.84701H105.922V0Z" fill="#55162B"/>
<path d="M125.481 0H120.59V3.84701H125.481V0Z" fill="#55162B"/>
<path d="M130.221 0H125.33V3.84701H130.221V0Z" fill="#55162B"/>
<path d="M9.78149 3.84515H4.89062V7.69216H9.78149V3.84515Z" fill="#55162B"/>
<path d="M14.6702 3.84515H9.7793V7.69216H14.6702V3.84515Z" fill="#993328"/>
<path d="M19.5608 3.84515H14.6699V7.69216H19.5608V3.84515Z" fill="#993328"/>
<path d="M24.4514 3.84515H19.5605V7.69216H24.4514V3.84515Z" fill="#993328"/>
<path d="M29.3401 3.84515H24.4492V7.69216H29.3401V3.84515Z" fill="#993328"/>
<path d="M87.1155 3.84515H82.2246V7.69216H87.1155V3.84515Z" fill="#993328"/>
<path d="M34.2307 3.84515H29.3398V7.69216H34.2307V3.84515Z" fill="#993328"/>
<path d="M39.1194 3.84515H34.2285V7.69216H39.1194V3.84515Z" fill="#993328"/>
<path d="M92.0061 3.84515H87.1152V7.69216H92.0061V3.84515Z" fill="#993328"/>
<path d="M44.01 3.84515H39.1191V7.69216H44.01V3.84515Z" fill="#993328"/>
<path d="M48.8987 3.84515H44.0078V7.69216H48.8987V3.84515Z" fill="#993328"/>
<path d="M96.8948 3.84515H92.0039V7.69216H96.8948V3.84515Z" fill="#993328"/>
<path d="M67.5569 3.84528H62.666V7.69228H67.5569V3.84528Z" fill="#993328"/>
<path d="M82.2268 3.84515H77.3359V7.69216H82.2268V3.84515Z" fill="#993328"/>
<path d="M101.785 3.84515H96.8945V7.69216H101.785V3.84515Z" fill="#993328"/>
<path d="M110.811 3.84515H105.92V7.69216H110.811V3.84515Z" fill="#993328"/>
<path d="M53.7893 3.84515H48.8984V7.69216H53.7893V3.84515Z" fill="#993328"/>
<path d="M72.4475 3.84528H67.5566V7.69228H72.4475V3.84528Z" fill="#993328"/>
<path d="M115.703 3.84515H110.812V7.69216H115.703V3.84515Z" fill="#993328"/>
<path d="M58.678 3.84515H53.7871V7.69216H58.678V3.84515Z" fill="#993328"/>
<path d="M77.3362 3.84528H72.4453V7.69228H77.3362V3.84528Z" fill="#993328"/>
<path d="M120.59 3.84515H115.699V7.69216H120.59V3.84515Z" fill="#993328"/>
<path d="M63.5686 3.84515H58.6777V7.69216H63.5686V3.84515Z" fill="#993328"/>
<path d="M105.922 3.84515H101.031V7.69216H105.922V3.84515Z" fill="#993328"/>
<path d="M125.481 3.84515H120.59V7.69216H125.481V3.84515Z" fill="#993328"/>
<path d="M130.221 3.84515H125.33V7.69216H130.221V3.84515Z" fill="#993328"/>
<path d="M135.112 3.84515H130.221V7.69216H135.112V3.84515Z" fill="#55162B"/>
<path d="M4.89086 7.69208H0V11.5391H4.89086V7.69208Z" fill="#55162B"/>
<path d="M87.1155 7.69208H82.2246V11.5391H87.1155V7.69208Z" fill="#EBC24F"/>
<path d="M9.78149 7.69208H4.89062V11.5391H9.78149V7.69208Z" fill="#993328"/>
<path d="M14.6702 7.69208H9.7793V11.5391H14.6702V7.69208Z" fill="#993328"/>
<path d="M92.0061 7.69208H87.1152V11.5391H92.0061V7.69208Z" fill="#EBC24F"/>
<path d="M19.5608 7.69208H14.6699V11.5391H19.5608V7.69208Z" fill="#FAF1D4"/>
<path d="M24.4514 7.69208H19.5605V11.5391H24.4514V7.69208Z" fill="#FAF1D4"/>
<path d="M96.8948 7.69208H92.0039V11.5391H96.8948V7.69208Z" fill="#EBC24F"/>
<path d="M29.3401 7.69208H24.4492V11.5391H29.3401V7.69208Z" fill="#FAF1D4"/>
<path d="M82.2268 7.69208H77.3359V11.5391H82.2268V7.69208Z" fill="#EBC24F"/>
<path d="M101.785 7.69208H96.8945V11.5391H101.785V7.69208Z" fill="#EBC24F"/>
<path d="M34.2307 7.69208H29.3398V11.5391H34.2307V7.69208Z" fill="#EBC24F"/>
<path d="M39.1194 7.69208H34.2285V11.5391H39.1194V7.69208Z" fill="#EBC24F"/>
<path d="M44.01 7.69208H39.1191V11.5391H44.01V7.69208Z" fill="#FAF1D4"/>
<path d="M48.8987 7.69208H44.0078V11.5391H48.8987V7.69208Z" fill="#EBC24F"/>
<path d="M67.5569 7.6922H62.666V11.5392H67.5569V7.6922Z" fill="#EBC24F"/>
<path d="M110.811 7.69208H105.92V11.5391H110.811V7.69208Z" fill="#EBC24F"/>
<path d="M53.7893 7.69208H48.8984V11.5391H53.7893V7.69208Z" fill="#EBC24F"/>
<path d="M72.4475 7.6922H67.5566V11.5392H72.4475V7.6922Z" fill="#EBC24F"/>
<path d="M115.703 7.69208H110.812V11.5391H115.703V7.69208Z" fill="#EBC24F"/>
<path d="M58.678 7.69208H53.7871V11.5391H58.678V7.69208Z" fill="#EBC24F"/>
<path d="M77.3362 7.6922H72.4453V11.5392H77.3362V7.6922Z" fill="#EBC24F"/>
<path d="M120.59 7.69208H115.699V11.5391H120.59V7.69208Z" fill="#EBC24F"/>
<path d="M63.5686 7.69208H58.6777V11.5391H63.5686V7.69208Z" fill="#EBC24F"/>
<path d="M105.922 7.69208H101.031V11.5391H105.922V7.69208Z" fill="#EBC24F"/>
<path d="M87.1155 11.5372H82.2246V15.3842H87.1155V11.5372Z" fill="#D2742E"/>
<path d="M125.481 7.69208H120.59V11.5391H125.481V7.69208Z" fill="#EBC24F"/>
<path d="M130.221 7.69208H125.33V11.5391H130.221V7.69208Z" fill="#993328"/>
<path d="M92.0061 11.5372H87.1152V15.3842H92.0061V11.5372Z" fill="#D2742E"/>
<path d="M135.112 7.69208H130.221V11.5391H135.112V7.69208Z" fill="#993328"/>
<path d="M140 7.69208H135.109V11.5391H140V7.69208Z" fill="#55162B"/>
<path d="M96.8948 11.5372H92.0039V15.3842H96.8948V11.5372Z" fill="#D2742E"/>
<path d="M4.89086 11.5372H0V15.3842H4.89086V11.5372Z" fill="#55162B"/>
<path d="M82.2268 11.5372H77.3359V15.3842H82.2268V11.5372Z" fill="#D2742E"/>
<path d="M101.785 11.5372H96.8945V15.3842H101.785V11.5372Z" fill="#D2742E"/>
<path d="M9.78149 11.5372H4.89062V15.3842H9.78149V11.5372Z" fill="#993328"/>
<path d="M14.6702 11.5372H9.7793V15.3842H14.6702V11.5372Z" fill="#FAF1D4"/>
<path d="M19.5608 11.5372H14.6699V15.3842H19.5608V11.5372Z" fill="#D2742E"/>
<path d="M24.4514 11.5372H19.5605V15.3842H24.4514V11.5372Z" fill="#D2742E"/>
<path d="M29.3401 11.5372H24.4492V15.3842H29.3401V11.5372Z" fill="#D2742E"/>
<path d="M34.2307 11.5372H29.3398V15.3842H34.2307V11.5372Z" fill="#D2742E"/>
<path d="M39.1194 11.5372H34.2285V15.3842H39.1194V11.5372Z" fill="#D2742E"/>
<path d="M44.01 11.5372H39.1191V15.3842H44.01V11.5372Z" fill="#D2742E"/>
<path d="M48.8987 11.5372H44.0078V15.3842H48.8987V11.5372Z" fill="#D2742E"/>
<path d="M67.5569 11.5374H62.666V15.3844H67.5569V11.5374Z" fill="#D2742E"/>
<path d="M110.811 11.5372H105.92V15.3842H110.811V11.5372Z" fill="#D2742E"/>
<path d="M53.7893 11.5372H48.8984V15.3842H53.7893V11.5372Z" fill="#D2742E"/>
<path d="M72.4475 11.5374H67.5566V15.3844H72.4475V11.5374Z" fill="#D2742E"/>
<path d="M115.703 11.5372H110.812V15.3842H115.703V11.5372Z" fill="#D2742E"/>
<path d="M87.1155 15.3842H82.2246V19.2312H87.1155V15.3842Z" fill="#D2742E"/>
<path d="M58.678 11.5372H53.7871V15.3842H58.678V11.5372Z" fill="#D2742E"/>
<path d="M77.3362 11.5374H72.4453V15.3844H77.3362V11.5374Z" fill="#D2742E"/>
<path d="M92.0061 15.3842H87.1152V19.2312H92.0061V15.3842Z" fill="#D2742E"/>
<path d="M120.59 11.5372H115.699V15.3842H120.59V11.5372Z" fill="#D2742E"/>
<path d="M63.5686 11.5372H58.6777V15.3842H63.5686V11.5372Z" fill="#D2742E"/>
<path d="M96.8948 15.3842H92.0039V19.2312H96.8948V15.3842Z" fill="#D2742E"/>
<path d="M82.2268 15.3842H77.3359V19.2312H82.2268V15.3842Z" fill="#D2742E"/>
<path d="M105.922 11.5372H101.031V15.3842H105.922V11.5372Z" fill="#D2742E"/>
<path d="M101.785 15.3842H96.8945V19.2312H101.785V15.3842Z" fill="#D2742E"/>
<path d="M125.481 11.5372H120.59V15.3842H125.481V11.5372Z" fill="#D2742E"/>
<path d="M130.221 11.5375H125.33V15.3845H130.221V11.5375Z" fill="#EBC24F"/>
<path d="M135.112 11.5375H130.221V15.3845H135.112V11.5375Z" fill="#993328"/>
<path d="M140 11.5375H135.109V15.3845H140V11.5375Z" fill="#55162B"/>
<path d="M4.89086 15.3842H0V19.2312H4.89086V15.3842Z" fill="#55162B"/>
<path d="M9.78149 15.3842H4.89062V19.2312H9.78149V15.3842Z" fill="#993328"/>
<path d="M14.6702 15.3842H9.7793V19.2312H14.6702V15.3842Z" fill="#EBC24F"/>
<path d="M19.5608 15.3842H14.6699V19.2312H19.5608V15.3842Z" fill="#D2742E"/>
<path d="M24.4514 15.3842H19.5605V19.2312H24.4514V15.3842Z" fill="#D2742E"/>
<path d="M29.3401 15.3842H24.4492V19.2312H29.3401V15.3842Z" fill="#D2742E"/>
<path d="M34.2307 15.3842H29.3398V19.2312H34.2307V15.3842Z" fill="#D2742E"/>
<path d="M39.1194 15.3842H34.2285V19.2312H39.1194V15.3842Z" fill="#D2742E"/>
<path d="M44.01 15.3842H39.1191V19.2312H44.01V15.3842Z" fill="#D2742E"/>
<path d="M48.8987 15.3842H44.0078V19.2312H48.8987V15.3842Z" fill="#D2742E"/>
<path d="M87.1155 19.2293H82.2246V23.0763H87.1155V19.2293Z" fill="#D2742E"/>
<path d="M67.5569 15.3842H62.666V19.2312H67.5569V15.3842Z" fill="#D2742E"/>
<path d="M110.811 15.3842H105.92V19.2312H110.811V15.3842Z" fill="#D2742E"/>
<path d="M92.0061 19.2293H87.1152V23.0763H92.0061V19.2293Z" fill="#D2742E"/>
<path d="M53.7893 15.3842H48.8984V19.2312H53.7893V15.3842Z" fill="#D2742E"/>
<path d="M72.4475 15.3842H67.5566V19.2312H72.4475V15.3842Z" fill="#D2742E"/>
<path d="M96.8948 19.2293H92.0039V23.0763H96.8948V19.2293Z" fill="#D2742E"/>
<path d="M115.703 15.3842H110.812V19.2312H115.703V15.3842Z" fill="#D2742E"/>
<path d="M82.2268 19.2293H77.3359V23.0763H82.2268V19.2293Z" fill="#D2742E"/>
<path d="M101.785 19.2293H96.8945V23.0763H101.785V19.2293Z" fill="#D2742E"/>
<path d="M58.678 15.3842H53.7871V19.2312H58.678V15.3842Z" fill="#D2742E"/>
<path d="M77.3362 15.3842H72.4453V19.2312H77.3362V15.3842Z" fill="#D2742E"/>
<path d="M120.59 15.3842H115.699V19.2312H120.59V15.3842Z" fill="#D2742E"/>
<path d="M63.5686 15.3842H58.6777V19.2312H63.5686V15.3842Z" fill="#D2742E"/>
<path d="M105.922 15.3842H101.031V19.2312H105.922V15.3842Z" fill="#D2742E"/>
<path d="M125.481 15.3842H120.59V19.2312H125.481V15.3842Z" fill="#D2742E"/>
<path d="M130.221 15.3844H125.33V19.2314H130.221V15.3844Z" fill="#D2742E"/>
<path d="M135.112 15.3844H130.221V19.2314H135.112V15.3844Z" fill="#993328"/>
<path d="M140 15.3844H135.109V19.2314H140V15.3844Z" fill="#55162B"/>
<path d="M4.89086 19.2293H0V23.0763H4.89086V19.2293Z" fill="#55162B"/>
<path d="M9.78149 19.2293H4.89062V23.0763H9.78149V19.2293Z" fill="#993328"/>
<path d="M14.6702 19.2293H9.7793V23.0763H14.6702V19.2293Z" fill="#EBC24F"/>
<path d="M19.5608 19.2293H14.6699V23.0763H19.5608V19.2293Z" fill="#D2742E"/>
<path d="M24.4514 19.2293H19.5605V23.0763H24.4514V19.2293Z" fill="#D2742E"/>
<path d="M87.1155 23.0762H82.2246V26.9232H87.1155V23.0762Z" fill="#D2742E"/>
<path d="M29.3401 19.2293H24.4492V23.0763H29.3401V19.2293Z" fill="#D2742E"/>
<path d="M34.2307 19.2293H29.3398V23.0763H34.2307V19.2293Z" fill="#D2742E"/>
<path d="M92.0061 23.0762H87.1152V26.9232H92.0061V23.0762Z" fill="#D2742E"/>
<path d="M39.1194 19.2293H34.2285V23.0763H39.1194V19.2293Z" fill="#D2742E"/>
<path d="M44.01 19.2293H39.1191V23.0763H44.01V19.2293Z" fill="#D2742E"/>
<path d="M96.8948 23.0762H92.0039V26.9232H96.8948V23.0762Z" fill="#D2742E"/>
<path d="M48.8987 19.2293H44.0078V23.0763H48.8987V19.2293Z" fill="#D2742E"/>
<path d="M82.2268 23.0762H77.3359V26.9232H82.2268V23.0762Z" fill="#D2742E"/>
<path d="M101.785 23.0762H96.8945V26.9232H101.785V23.0762Z" fill="#D2742E"/>
<path d="M67.5569 19.2294H62.666V23.0764H67.5569V19.2294Z" fill="#D2742E"/>
<path d="M110.811 19.2293H105.92V23.0763H110.811V19.2293Z" fill="#D2742E"/>
<path d="M53.7893 19.2293H48.8984V23.0763H53.7893V19.2293Z" fill="#D2742E"/>
<path d="M72.4475 19.2294H67.5566V23.0764H72.4475V19.2294Z" fill="#D2742E"/>
<path d="M115.703 19.2293H110.812V23.0763H115.703V19.2293Z" fill="#D2742E"/>
<path d="M58.678 19.2293H53.7871V23.0763H58.678V19.2293Z" fill="#D2742E"/>
<path d="M77.3362 19.2294H72.4453V23.0764H77.3362V19.2294Z" fill="#D2742E"/>
<path d="M120.59 19.2293H115.699V23.0763H120.59V19.2293Z" fill="#D2742E"/>
<path d="M63.5686 19.2293H58.6777V23.0763H63.5686V19.2293Z" fill="#D2742E"/>
<path d="M105.922 19.2293H101.031V23.0763H105.922V19.2293Z" fill="#D2742E"/>
<path d="M125.481 19.2293H120.59V23.0763H125.481V19.2293Z" fill="#D2742E"/>
<path d="M130.221 19.2293H125.33V23.0763H130.221V19.2293Z" fill="#D2742E"/>
<path d="M135.112 19.2293H130.221V23.0763H135.112V19.2293Z" fill="#993328"/>
<path d="M140 19.2293H135.109V23.0763H140V19.2293Z" fill="#55162B"/>
<path d="M87.1155 26.9214H82.2246V30.7684H87.1155V26.9214Z" fill="#D2742E"/>
<path d="M4.89086 23.0762H0V26.9232H4.89086V23.0762Z" fill="#55162B"/>
<path d="M9.78149 23.0762H4.89062V26.9232H9.78149V23.0762Z" fill="#993328"/>
<path d="M92.0061 26.9214H87.1152V30.7684H92.0061V26.9214Z" fill="#D2742E"/>
<path d="M14.6702 23.0762H9.7793V26.9232H14.6702V23.0762Z" fill="#D2742E"/>
<path d="M19.5608 23.0762H14.6699V26.9232H19.5608V23.0762Z" fill="#D2742E"/>
<path d="M96.8948 26.9214H92.0039V30.7684H96.8948V26.9214Z" fill="#D2742E"/>
<path d="M24.4514 23.0762H19.5605V26.9232H24.4514V23.0762Z" fill="#D2742E"/>
<path d="M82.2268 26.9214H77.3359V30.7684H82.2268V26.9214Z" fill="#D2742E"/>
<path d="M101.785 26.9214H96.8945V30.7684H101.785V26.9214Z" fill="#D2742E"/>
<path d="M29.3401 23.0762H24.4492V26.9232H29.3401V23.0762Z" fill="#D2742E"/>
<path d="M34.2307 23.0762H29.3398V26.9232H34.2307V23.0762Z" fill="#D2742E"/>
<path d="M39.1194 23.0762H34.2285V26.9232H39.1194V23.0762Z" fill="#D2742E"/>
<path d="M44.01 23.0762H39.1191V26.9232H44.01V23.0762Z" fill="#D2742E"/>
<path d="M48.8987 23.0762H44.0078V26.9232H48.8987V23.0762Z" fill="#D2742E"/>
<path d="M67.5569 23.0763H62.666V26.9233H67.5569V23.0763Z" fill="#D2742E"/>
<path d="M110.811 23.0762H105.92V26.9232H110.811V23.0762Z" fill="#D2742E"/>
<path d="M53.7893 23.0762H48.8984V26.9232H53.7893V23.0762Z" fill="#D2742E"/>
<path d="M72.4475 23.0763H67.5566V26.9233H72.4475V23.0763Z" fill="#D2742E"/>
<path d="M115.703 23.0762H110.812V26.9232H115.703V23.0762Z" fill="#D2742E"/>
<path d="M58.678 23.0762H53.7871V26.9232H58.678V23.0762Z" fill="#D2742E"/>
<path d="M77.3362 23.0763H72.4453V26.9233H77.3362V23.0763Z" fill="#D2742E"/>
<path d="M120.59 23.0762H115.699V26.9232H120.59V23.0762Z" fill="#D2742E"/>
<path d="M63.5686 23.0762H58.6777V26.9232H63.5686V23.0762Z" fill="#D2742E"/>
<path d="M87.1155 30.7685H82.2246V34.6155H87.1155V30.7685Z" fill="#D2742E"/>
<path d="M105.922 23.0762H101.031V26.9232H105.922V23.0762Z" fill="#D2742E"/>
<path d="M125.481 23.0762H120.59V26.9232H125.481V23.0762Z" fill="#D2742E"/>
<path d="M92.0061 30.7685H87.1152V34.6155H92.0061V30.7685Z" fill="#D2742E"/>
<path d="M130.221 23.0764H125.33V26.9234H130.221V23.0764Z" fill="#D2742E"/>
<path d="M135.112 23.0764H130.221V26.9234H135.112V23.0764Z" fill="#993328"/>
<path d="M96.8948 30.7685H92.0039V34.6155H96.8948V30.7685Z" fill="#D2742E"/>
<path d="M140 23.0764H135.109V26.9234H140V23.0764Z" fill="#55162B"/>
<path d="M82.2268 30.7685H77.3359V34.6155H82.2268V30.7685Z" fill="#D2742E"/>
<path d="M101.785 30.7685H96.8945V34.6155H101.785V30.7685Z" fill="#D2742E"/>
<path d="M4.89086 26.9214H0V30.7684H4.89086V26.9214Z" fill="#55162B"/>
<path d="M9.78149 26.9214H4.89062V30.7684H9.78149V26.9214Z" fill="#993328"/>
<path d="M14.6702 26.9214H9.7793V30.7684H14.6702V26.9214Z" fill="#D2742E"/>
<path d="M19.5608 26.9214H14.6699V30.7684H19.5608V26.9214Z" fill="#D2742E"/>
<path d="M24.4514 26.9214H19.5605V30.7684H24.4514V26.9214Z" fill="#D2742E"/>
<path d="M29.3401 26.9214H24.4492V30.7684H29.3401V26.9214Z" fill="#D2742E"/>
<path d="M34.2307 26.9214H29.3398V30.7684H34.2307V26.9214Z" fill="#D2742E"/>
<path d="M39.1194 26.9214H34.2285V30.7684H39.1194V26.9214Z" fill="#D2742E"/>
<path d="M44.01 26.9214H39.1191V30.7684H44.01V26.9214Z" fill="#D2742E"/>
<path d="M48.8987 26.9214H44.0078V30.7684H48.8987V26.9214Z" fill="#D2742E"/>
<path d="M67.5569 26.9215H62.666V30.7685H67.5569V26.9215Z" fill="#D2742E"/>
<path d="M110.811 26.9214H105.92V30.7684H110.811V26.9214Z" fill="#D2742E"/>
<path d="M53.7893 26.9214H48.8984V30.7684H53.7893V26.9214Z" fill="#D2742E"/>
<path d="M72.4475 26.9215H67.5566V30.7685H72.4475V26.9215Z" fill="#D2742E"/>
<path d="M87.1155 34.6134H82.2246V38.4604H87.1155V34.6134Z" fill="#D2742E"/>
<path d="M115.703 26.9214H110.812V30.7684H115.703V26.9214Z" fill="#D2742E"/>
<path d="M58.678 26.9214H53.7871V30.7684H58.678V26.9214Z" fill="#D2742E"/>
<path d="M92.0061 34.6134H87.1152V38.4604H92.0061V34.6134Z" fill="#D2742E"/>
<path d="M77.3362 26.9215H72.4453V30.7685H77.3362V26.9215Z" fill="#D2742E"/>
<path d="M120.59 26.9214H115.699V30.7684H120.59V26.9214Z" fill="#D2742E"/>
<path d="M96.8948 34.6134H92.0039V38.4604H96.8948V34.6134Z" fill="#D2742E"/>
<path d="M63.5686 26.9214H58.6777V30.7684H63.5686V26.9214Z" fill="#D2742E"/>
<path d="M82.2268 34.6134H77.3359V38.4604H82.2268V34.6134Z" fill="#D2742E"/>
<path d="M101.785 34.6134H96.8945V38.4604H101.785V34.6134Z" fill="#D2742E"/>
<path d="M105.922 26.9214H101.031V30.7684H105.922V26.9214Z" fill="#D2742E"/>
<path d="M125.481 26.9214H120.59V30.7684H125.481V26.9214Z" fill="#D2742E"/>
<path d="M130.221 26.9214H125.33V30.7684H130.221V26.9214Z" fill="#D2742E"/>
<path d="M135.112 26.9214H130.221V30.7684H135.112V26.9214Z" fill="#993328"/>
<path d="M140 26.9214H135.109V30.7684H140V26.9214Z" fill="#55162B"/>
<path d="M4.89086 30.7685H0V34.6155H4.89086V30.7685Z" fill="#55162B"/>
<path d="M9.78149 30.7685H4.89062V34.6155H9.78149V30.7685Z" fill="#993328"/>
<path d="M14.6702 30.7685H9.7793V34.6155H14.6702V30.7685Z" fill="#D2742E"/>
<path d="M19.5608 30.7685H14.6699V34.6155H19.5608V30.7685Z" fill="#D2742E"/>
<path d="M24.4514 30.7685H19.5605V34.6155H24.4514V30.7685Z" fill="#D2742E"/>
<path d="M29.3401 30.7685H24.4492V34.6155H29.3401V30.7685Z" fill="#D2742E"/>
<path d="M34.2307 30.7685H29.3398V34.6155H34.2307V30.7685Z" fill="#D2742E"/>
<path d="M39.1194 30.7685H34.2285V34.6155H39.1194V30.7685Z" fill="#D2742E"/>
<path d="M44.01 30.7685H39.1191V34.6155H44.01V30.7685Z" fill="#D2742E"/>
<path d="M87.1155 38.4608H82.2246V42.3078H87.1155V38.4608Z" fill="#D2742E"/>
<path d="M48.8987 30.7685H44.0078V34.6155H48.8987V30.7685Z" fill="#D2742E"/>
<path d="M67.5569 30.7686H62.666V34.6156H67.5569V30.7686Z" fill="#D2742E"/>
<path d="M92.0061 38.4608H87.1152V42.3078H92.0061V38.4608Z" fill="#D2742E"/>
<path d="M110.811 30.7685H105.92V34.6155H110.811V30.7685Z" fill="#D2742E"/>
<path d="M53.7893 30.7685H48.8984V34.6155H53.7893V30.7685Z" fill="#D2742E"/>
<path d="M96.8948 38.4608H92.0039V42.3078H96.8948V38.4608Z" fill="#D2742E"/>
<path d="M72.4475 30.7686H67.5566V34.6156H72.4475V30.7686Z" fill="#D2742E"/>
<path d="M82.2268 38.4608H77.3359V42.3078H82.2268V38.4608Z" fill="#D2742E"/>
<path d="M101.785 38.4608H96.8945V42.3078H101.785V38.4608Z" fill="#D2742E"/>
<path d="M115.703 30.7685H110.812V34.6155H115.703V30.7685Z" fill="#D2742E"/>
<path d="M58.678 30.7685H53.7871V34.6155H58.678V30.7685Z" fill="#D2742E"/>
<path d="M77.3362 30.7686H72.4453V34.6156H77.3362V30.7686Z" fill="#D2742E"/>
<path d="M120.59 30.7685H115.699V34.6155H120.59V30.7685Z" fill="#D2742E"/>
<path d="M63.5686 30.7685H58.6777V34.6155H63.5686V30.7685Z" fill="#D2742E"/>
<path d="M105.922 30.7685H101.031V34.6155H105.922V30.7685Z" fill="#D2742E"/>
<path d="M125.481 30.7685H120.59V34.6155H125.481V30.7685Z" fill="#D2742E"/>
<path d="M130.221 30.7687H125.33V34.6157H130.221V30.7687Z" fill="#D2742E"/>
<path d="M135.112 30.7687H130.221V34.6157H135.112V30.7687Z" fill="#993328"/>
<path d="M140 30.7687H135.109V34.6157H140V30.7687Z" fill="#55162B"/>
<path d="M4.89086 34.6134H0V38.4604H4.89086V34.6134Z" fill="#55162B"/>
<path d="M9.78149 34.6134H4.89062V38.4604H9.78149V34.6134Z" fill="#993328"/>
<path d="M14.6702 34.6134H9.7793V38.4604H14.6702V34.6134Z" fill="#D2742E"/>
<path d="M19.5608 34.6134H14.6699V38.4604H19.5608V34.6134Z" fill="#D2742E"/>
<path d="M87.1155 42.3057H82.2246V46.1527H87.1155V42.3057Z" fill="#D2742E"/>
<path d="M24.4514 34.6134H19.5605V38.4604H24.4514V34.6134Z" fill="#D2742E"/>
<path d="M29.3401 34.6134H24.4492V38.4604H29.3401V34.6134Z" fill="#D2742E"/>
<path d="M92.0061 42.3057H87.1152V46.1527H92.0061V42.3057Z" fill="#D2742E"/>
<path d="M34.2307 34.6134H29.3398V38.4604H34.2307V34.6134Z" fill="#D2742E"/>
<path d="M39.1194 34.6134H34.2285V38.4604H39.1194V34.6134Z" fill="#D2742E"/>
<path d="M96.8948 42.3057H92.0039V46.1527H96.8948V42.3057Z" fill="#D2742E"/>
<path d="M44.01 34.6134H39.1191V38.4604H44.01V34.6134Z" fill="#D2742E"/>
<path d="M82.2268 42.3057H77.3359V46.1527H82.2268V42.3057Z" fill="#D2742E"/>
<path d="M101.785 42.3057H96.8945V46.1527H101.785V42.3057Z" fill="#D2742E"/>
<path d="M48.8987 34.6134H44.0078V38.4604H48.8987V34.6134Z" fill="#D2742E"/>
<path d="M67.5569 34.6135H62.666V38.4605H67.5569V34.6135Z" fill="#D2742E"/>
<path d="M110.811 34.6134H105.92V38.4604H110.811V34.6134Z" fill="#D2742E"/>
<path d="M53.7893 34.6134H48.8984V38.4604H53.7893V34.6134Z" fill="#D2742E"/>
<path d="M72.4475 34.6135H67.5566V38.4605H72.4475V34.6135Z" fill="#D2742E"/>
<path d="M115.703 34.6134H110.812V38.4604H115.703V34.6134Z" fill="#D2742E"/>
<path d="M58.678 34.6134H53.7871V38.4604H58.678V34.6134Z" fill="#D2742E"/>
<path d="M77.3362 34.6135H72.4453V38.4605H77.3362V34.6135Z" fill="#D2742E"/>
<path d="M120.59 34.6134H115.699V38.4604H120.59V34.6134Z" fill="#D2742E"/>
<path d="M63.5686 34.6134H58.6777V38.4604H63.5686V34.6134Z" fill="#D2742E"/>
<path d="M105.922 34.6134H101.031V38.4604H105.922V34.6134Z" fill="#D2742E"/>
<path d="M125.481 34.6134H120.59V38.4604H125.481V34.6134Z" fill="#D2742E"/>
<path d="M130.221 34.6136H125.33V38.4607H130.221V34.6136Z" fill="#D2742E"/>
<path d="M135.112 34.6136H130.221V38.4607H135.112V34.6136Z" fill="#993328"/>
<path d="M87.1155 46.1529H82.2246V49.9999H87.1155V46.1529Z" fill="#D2742E"/>
<path d="M140 34.6136H135.109V38.4607H140V34.6136Z" fill="#55162B"/>
<path d="M4.89086 38.4608H0V42.3078H4.89086V38.4608Z" fill="#55162B"/>
<path d="M92.0061 46.1529H87.1152V49.9999H92.0061V46.1529Z" fill="#D2742E"/>
<path d="M9.78149 38.4608H4.89062V42.3078H9.78149V38.4608Z" fill="#993328"/>
<path d="M14.6702 38.4608H9.7793V42.3078H14.6702V38.4608Z" fill="#D2742E"/>
<path d="M96.8948 46.1529H92.0039V49.9999H96.8948V46.1529Z" fill="#D2742E"/>
<path d="M19.5608 38.4608H14.6699V42.3078H19.5608V38.4608Z" fill="#D2742E"/>
<path d="M82.2268 46.1529H77.3359V49.9999H82.2268V46.1529Z" fill="#D2742E"/>
<path d="M101.785 46.1529H96.8945V49.9999H101.785V46.1529Z" fill="#D2742E"/>
<path d="M24.4514 38.4608H19.5605V42.3078H24.4514V38.4608Z" fill="#D2742E"/>
<path d="M29.3401 38.4608H24.4492V42.3078H29.3401V38.4608Z" fill="#D2742E"/>
<path d="M34.2307 38.4608H29.3398V42.3078H34.2307V38.4608Z" fill="#D2742E"/>
<path d="M39.1194 38.4608H34.2285V42.3078H39.1194V38.4608Z" fill="#D2742E"/>
<path d="M44.01 38.4608H39.1191V42.3078H44.01V38.4608Z" fill="#D2742E"/>
<path d="M48.8987 38.4608H44.0078V42.3078H48.8987V38.4608Z" fill="#D2742E"/>
<path d="M67.5569 38.4609H62.666V42.3079H67.5569V38.4609Z" fill="#D2742E"/>
<path d="M110.811 38.4608H105.92V42.3078H110.811V38.4608Z" fill="#D2742E"/>
<path d="M53.7893 38.4608H48.8984V42.3078H53.7893V38.4608Z" fill="#D2742E"/>
<path d="M72.4475 38.4609H67.5566V42.3079H72.4475V38.4609Z" fill="#D2742E"/>
<path d="M115.703 38.4608H110.812V42.3078H115.703V38.4608Z" fill="#D2742E"/>
<path d="M58.678 38.4608H53.7871V42.3078H58.678V38.4608Z" fill="#D2742E"/>
<path d="M77.3362 38.4609H72.4453V42.3079H77.3362V38.4609Z" fill="#D2742E"/>
<path d="M120.59 38.4608H115.699V42.3078H120.59V38.4608Z" fill="#D2742E"/>
<path d="M63.5686 38.4608H58.6777V42.3078H63.5686V38.4608Z" fill="#D2742E"/>
<path d="M105.922 38.4608H101.031V42.3078H105.922V38.4608Z" fill="#D2742E"/>
<path d="M125.481 38.4608H120.59V42.3078H125.481V38.4608Z" fill="#D2742E"/>
<path d="M130.221 38.4608H125.33V42.3078H130.221V38.4608Z" fill="#D2742E"/>
<path d="M135.112 38.4608H130.221V42.3078H135.112V38.4608Z" fill="#993328"/>
<path d="M140 38.4608H135.109V42.3078H140V38.4608Z" fill="#55162B"/>
<path d="M4.89086 42.3057H0V46.1527H4.89086V42.3057Z" fill="#55162B"/>
<path d="M9.78149 42.3057H4.89062V46.1527H9.78149V42.3057Z" fill="#993328"/>
<path d="M14.6702 42.3057H9.7793V46.1527H14.6702V42.3057Z" fill="#D2742E"/>
<path d="M19.5608 42.3057H14.6699V46.1527H19.5608V42.3057Z" fill="#D2742E"/>
<path d="M24.4514 42.3057H19.5605V46.1527H24.4514V42.3057Z" fill="#D2742E"/>
<path d="M29.3401 42.3057H24.4492V46.1527H29.3401V42.3057Z" fill="#D2742E"/>
<path d="M34.2307 42.3057H29.3398V46.1527H34.2307V42.3057Z" fill="#D2742E"/>
<path d="M39.1194 42.3057H34.2285V46.1527H39.1194V42.3057Z" fill="#D2742E"/>
<path d="M44.01 42.3057H39.1191V46.1527H44.01V42.3057Z" fill="#D2742E"/>
<path d="M48.8987 42.3057H44.0078V46.1527H48.8987V42.3057Z" fill="#D2742E"/>
<path d="M67.5569 42.3058H62.666V46.1529H67.5569V42.3058Z" fill="#D2742E"/>
<path d="M110.811 42.3057H105.92V46.1527H110.811V42.3057Z" fill="#D2742E"/>
<path d="M53.7893 42.3057H48.8984V46.1527H53.7893V42.3057Z" fill="#D2742E"/>
<path d="M72.4475 42.3058H67.5566V46.1529H72.4475V42.3058Z" fill="#D2742E"/>
<path d="M115.703 42.3057H110.812V46.1527H115.703V42.3057Z" fill="#D2742E"/>
<path d="M58.678 42.3057H53.7871V46.1527H58.678V42.3057Z" fill="#D2742E"/>
<path d="M77.3362 42.3058H72.4453V46.1529H77.3362V42.3058Z" fill="#D2742E"/>
<path d="M120.59 42.3057H115.699V46.1527H120.59V42.3057Z" fill="#D2742E"/>
<path d="M63.5686 42.3057H58.6777V46.1527H63.5686V42.3057Z" fill="#D2742E"/>
<path d="M105.922 42.3057H101.031V46.1527H105.922V42.3057Z" fill="#D2742E"/>
<path d="M125.481 42.3057H120.59V46.1527H125.481V42.3057Z" fill="#D2742E"/>
<path d="M130.221 42.306H125.33V46.153H130.221V42.306Z" fill="#D2742E"/>
<path d="M135.112 42.306H130.221V46.153H135.112V42.306Z" fill="#993328"/>
<path d="M140 42.306H135.109V46.153H140V42.306Z" fill="#55162B"/>
<path d="M4.89086 46.1529H0V49.9999H4.89086V46.1529Z" fill="#55162B"/>
<path d="M9.78149 46.1529H4.89062V49.9999H9.78149V46.1529Z" fill="#993328"/>
<path d="M14.6702 46.1529H9.7793V49.9999H14.6702V46.1529Z" fill="#D2742E"/>
<path d="M19.5608 46.1529H14.6699V49.9999H19.5608V46.1529Z" fill="#D2742E"/>
<path d="M24.4514 46.1529H19.5605V49.9999H24.4514V46.1529Z" fill="#D2742E"/>
<path d="M29.3401 46.1529H24.4492V49.9999H29.3401V46.1529Z" fill="#D2742E"/>
<path d="M34.2307 46.1529H29.3398V49.9999H34.2307V46.1529Z" fill="#D2742E"/>
<path d="M39.1194 46.1529H34.2285V49.9999H39.1194V46.1529Z" fill="#D2742E"/>
<path d="M44.01 46.1529H39.1191V49.9999H44.01V46.1529Z" fill="#D2742E"/>
<path d="M48.8987 46.1529H44.0078V49.9999H48.8987V46.1529Z" fill="#D2742E"/>
<path d="M67.5569 46.153H62.666V50H67.5569V46.153Z" fill="#D2742E"/>
<path d="M110.811 46.1529H105.92V49.9999H110.811V46.1529Z" fill="#D2742E"/>
<path d="M53.7893 46.1529H48.8984V49.9999H53.7893V46.1529Z" fill="#D2742E"/>
<path d="M72.4475 46.153H67.5566V50H72.4475V46.153Z" fill="#D2742E"/>
<path d="M115.703 46.1529H110.812V49.9999H115.703V46.1529Z" fill="#D2742E"/>
<path d="M58.678 46.1529H53.7871V49.9999H58.678V46.1529Z" fill="#D2742E"/>
<path d="M77.3362 46.153H72.4453V50H77.3362V46.153Z" fill="#D2742E"/>
<path d="M120.59 46.1529H115.699V49.9999H120.59V46.1529Z" fill="#D2742E"/>
<path d="M63.5686 46.1529H58.6777V49.9999H63.5686V46.1529Z" fill="#D2742E"/>
<path d="M105.922 46.1529H101.031V49.9999H105.922V46.1529Z" fill="#D2742E"/>
<path d="M125.481 46.1529H120.59V49.9999H125.481V46.1529Z" fill="#D2742E"/>
<path d="M130.221 46.1529H125.33V49.9999H130.221V46.1529Z" fill="#D2742E"/>
<path d="M135.112 46.1529H130.221V49.9999H135.112V46.1529Z" fill="#993328"/>
<path d="M140 46.1529H135.109V49.9999H140V46.1529Z" fill="#55162B"/>
</svg>
