<svg width="297" height="56" viewBox="0 0 297 56" fill="none" xmlns="http://www.w3.org/2000/svg">
<path d="M10.887 0H7.25781V3.50085H10.887V0Z" fill="#3B6113"/>
<path d="M14.5159 0H10.8867V3.50085H14.5159V0Z" fill="#3B6113"/>
<path d="M18.1448 0H14.5156V3.50085H18.1448V0Z" fill="#3B6113"/>
<path d="M21.7698 0H18.1406V3.50085H21.7698V0Z" fill="#3B6113"/>
<path d="M25.4026 0H21.7734V3.50085H25.4026V0Z" fill="#3B6113"/>
<path d="M29.0276 0H25.3984V3.50085H29.0276V0Z" fill="#3B6113"/>
<path d="M32.6565 0H29.0273V3.50085H32.6565V0Z" fill="#3B6113"/>
<path d="M36.2854 0H32.6562V3.50085H36.2854V0Z" fill="#3B6113"/>
<path d="M39.9143 0H36.2852V3.50085H39.9143V0Z" fill="#3B6113"/>
<path d="M43.5393 0H39.9102V3.50085H43.5393V0Z" fill="#3B6113"/>
<path d="M286.114 0H43.5391V4H286.114V0Z" fill="#3B6113"/>
<path d="M7.25805 3.49902H3.62891V6.99988H7.25805V3.49902Z" fill="#3B6113"/>
<path d="M10.887 3.49902H7.25781V6.99988H10.887V3.49902Z" fill="#2C470F"/>
<path d="M14.5159 3.49902H10.8867V6.99988H14.5159V3.49902Z" fill="#2C470F"/>
<path d="M18.1448 3.49927H14.5156V7.00012H18.1448V3.49927Z" fill="#2C470F"/>
<path d="M21.7698 3.49927H18.1406V7.00012H21.7698V3.49927Z" fill="#2C470F"/>
<path d="M25.4026 3.49902H21.7734V6.99988H25.4026V3.49902Z" fill="#2C470F"/>
<path d="M29.0276 3.49902H25.3984V6.99988H29.0276V3.49902Z" fill="#2C470F"/>
<path d="M32.6565 3.49927H29.0273V7.00012H32.6565V3.49927Z" fill="#2C470F"/>
<path d="M36.2854 3.49927H32.6562V7.00012H36.2854V3.49927Z" fill="#2C470F"/>
<path d="M39.9143 3.49902H36.2852V6.99988H39.9143V3.49902Z" fill="#2C470F"/>
<path d="M43.5393 3.49902H39.9102V6.99988H43.5393V3.49902Z" fill="#2C470F"/>
<path d="M286.114 3H43.5391V7H286.114V3Z" fill="#2C470F"/>
<path d="M3.62915 7H0V10.5009H3.62915V7Z" fill="#3B6113"/>
<path d="M7.25805 7H3.62891V10.5009H7.25805V7Z" fill="#2C470F"/>
<path d="M10.887 7H7.25781V10.5009H10.887V7Z" fill="#2C470F"/>
<path d="M14.5159 7H10.8867V10.5009H14.5159V7Z" fill="#FAF1D4"/>
<path d="M18.1448 7H14.5156V10.5009H18.1448V7Z" fill="#FAF1D4"/>
<path d="M21.7698 7H18.1406V10.5009H21.7698V7Z" fill="#FAF1D4"/>
<path d="M25.4026 7H21.7734V10.5009H25.4026V7Z" fill="#8AD639"/>
<path d="M29.0276 7H25.3984V10.5009H29.0276V7Z" fill="#8AD639"/>
<path d="M32.6565 7H29.0273V10.5009H32.6565V7Z" fill="#FAF1D4"/>
<path d="M36.2854 7H32.6562V10.5009H36.2854V7Z" fill="#8AD639"/>
<path d="M39.9143 7H36.2852V10.5009H39.9143V7Z" fill="#8AD639"/>
<path d="M43.5393 7H39.9102V10.5009H43.5393V7Z" fill="#8AD639"/>
<path d="M286.114 7H43.5391V11H286.114V7Z" fill="#8AD639"/>
<path d="M3.62915 10.4993H0V14.0001H3.62915V10.4993Z" fill="#3B6113"/>
<path d="M7.25805 10.4993H3.62891V14.0001H7.25805V10.4993Z" fill="#2C470F"/>
<path d="M10.887 10.4993H7.25781V14.0001H10.887V10.4993Z" fill="#FAF1D4"/>
<path d="M14.5159 10.4993H10.8867V14.0001H14.5159V10.4993Z" fill="#6DAA2C"/>
<path d="M18.1448 10.4993H14.5156V14.0001H18.1448V10.4993Z" fill="#6DAA2C"/>
<path d="M21.7698 10.4993H18.1406V14.0001H21.7698V10.4993Z" fill="#6DAA2C"/>
<path d="M25.4026 10.4993H21.7734V14.0001H25.4026V10.4993Z" fill="#6DAA2C"/>
<path d="M29.0276 10.4993H25.3984V14.0001H29.0276V10.4993Z" fill="#6DAA2C"/>
<path d="M32.6565 10.4993H29.0273V14.0001H32.6565V10.4993Z" fill="#6DAA2C"/>
<path d="M36.2854 10.4993H32.6562V14.0001H36.2854V10.4993Z" fill="#6DAA2C"/>
<path d="M39.9143 10.4993H36.2852V14.0001H39.9143V10.4993Z" fill="#6DAA2C"/>
<path d="M43.5393 10.4993H39.9102V14.0001H43.5393V10.4993Z" fill="#6DAA2C"/>
<path d="M286.114 10H43.5391V14H286.114V10Z" fill="#6DAA2C"/>
<path d="M3.62915 14H0V17.5009H3.62915V14Z" fill="#3B6113"/>
<path d="M7.25805 14H3.62891V17.5009H7.25805V14Z" fill="#2C470F"/>
<path d="M10.887 14H7.25781V17.5009H10.887V14Z" fill="#8AD639"/>
<path d="M14.5159 14H10.8867V17.5009H14.5159V14Z" fill="#6DAA2C"/>
<path d="M18.1448 14H14.5156V17.5009H18.1448V14Z" fill="#6DAA2C"/>
<path d="M21.7698 14H18.1406V17.5009H21.7698V14Z" fill="#6DAA2C"/>
<path d="M25.4026 14H21.7734V17.5009H25.4026V14Z" fill="#6DAA2C"/>
<path d="M29.0276 14H25.3984V17.5009H29.0276V14Z" fill="#6DAA2C"/>
<path d="M32.6565 14H29.0273V17.5009H32.6565V14Z" fill="#6DAA2C"/>
<path d="M36.2854 14H32.6562V17.5009H36.2854V14Z" fill="#6DAA2C"/>
<path d="M39.9143 14H36.2852V17.5009H39.9143V14Z" fill="#6DAA2C"/>
<path d="M43.5393 14H39.9102V17.5009H43.5393V14Z" fill="#6DAA2C"/>
<path d="M286.114 14H43.5391V18H286.114V14Z" fill="#6DAA2C"/>
<path d="M3.62915 17.4993H0V21.0001H3.62915V17.4993Z" fill="#3B6113"/>
<path d="M7.25805 17.499H3.62891V20.9999H7.25805V17.499Z" fill="#2C470F"/>
<path d="M10.887 17.499H7.25781V20.9999H10.887V17.499Z" fill="#8AD639"/>
<path d="M14.5159 17.499H10.8867V20.9999H14.5159V17.499Z" fill="#6DAA2C"/>
<path d="M18.1448 17.4993H14.5156V21.0001H18.1448V17.4993Z" fill="#6DAA2C"/>
<path d="M21.7698 17.4993H18.1406V21.0001H21.7698V17.4993Z" fill="#6DAA2C"/>
<path d="M25.4026 17.499H21.7734V20.9999H25.4026V17.499Z" fill="#6DAA2C"/>
<path d="M29.0276 17.499H25.3984V20.9999H29.0276V17.499Z" fill="#6DAA2C"/>
<path d="M32.6565 17.4993H29.0273V21.0001H32.6565V17.4993Z" fill="#6DAA2C"/>
<path d="M36.2854 17.4993H32.6562V21.0001H36.2854V17.4993Z" fill="#6DAA2C"/>
<path d="M39.9143 17.499H36.2852V20.9999H39.9143V17.499Z" fill="#6DAA2C"/>
<path d="M43.5393 17.499H39.9102V20.9999H43.5393V17.499Z" fill="#6DAA2C"/>
<path d="M286.114 17H43.5391V21H286.114V17Z" fill="#6DAA2C"/>
<path d="M3.62915 21H0V24.5009H3.62915V21Z" fill="#3B6113"/>
<path d="M7.25805 21H3.62891V24.5009H7.25805V21Z" fill="#2C470F"/>
<path d="M10.887 21H7.25781V24.5009H10.887V21Z" fill="#6DAA2C"/>
<path d="M14.5159 21H10.8867V24.5009H14.5159V21Z" fill="#6DAA2C"/>
<path d="M18.1448 21H14.5156V24.5009H18.1448V21Z" fill="#6DAA2C"/>
<path d="M21.7698 21H18.1406V24.5009H21.7698V21Z" fill="#6DAA2C"/>
<path d="M25.4026 21H21.7734V24.5009H25.4026V21Z" fill="#6DAA2C"/>
<path d="M29.0276 21H25.3984V24.5009H29.0276V21Z" fill="#6DAA2C"/>
<path d="M32.6565 21H29.0273V24.5009H32.6565V21Z" fill="#6DAA2C"/>
<path d="M36.2854 21H32.6562V24.5009H36.2854V21Z" fill="#6DAA2C"/>
<path d="M39.9143 21H36.2852V24.5009H39.9143V21Z" fill="#6DAA2C"/>
<path d="M43.5393 21H39.9102V24.5009H43.5393V21Z" fill="#6DAA2C"/>
<path d="M286.114 21H43.5391V25H286.114V21Z" fill="#6DAA2C"/>
<path d="M3.62915 24.4993H0V28.0001H3.62915V24.4993Z" fill="#3B6113"/>
<path d="M7.25805 24.499H3.62891V27.9999H7.25805V24.499Z" fill="#2C470F"/>
<path d="M10.887 24.499H7.25781V27.9999H10.887V24.499Z" fill="#6DAA2C"/>
<path d="M14.5159 24.499H10.8867V27.9999H14.5159V24.499Z" fill="#6DAA2C"/>
<path d="M18.1448 24.4993H14.5156V28.0001H18.1448V24.4993Z" fill="#6DAA2C"/>
<path d="M21.7698 24.4993H18.1406V28.0001H21.7698V24.4993Z" fill="#6DAA2C"/>
<path d="M25.4026 24.499H21.7734V27.9999H25.4026V24.499Z" fill="#6DAA2C"/>
<path d="M29.0276 24.499H25.3984V27.9999H29.0276V24.499Z" fill="#6DAA2C"/>
<path d="M32.6565 24.4993H29.0273V28.0001H32.6565V24.4993Z" fill="#6DAA2C"/>
<path d="M36.2854 24.4993H32.6562V28.0001H36.2854V24.4993Z" fill="#6DAA2C"/>
<path d="M39.9143 24.499H36.2852V27.9999H39.9143V24.499Z" fill="#6DAA2C"/>
<path d="M43.5393 24.499H39.9102V27.9999H43.5393V24.499Z" fill="#6DAA2C"/>
<path d="M286.114 24H43.5391V28H286.114V24Z" fill="#6DAA2C"/>
<path d="M3.62915 28H0V31.5009H3.62915V28Z" fill="#3B6113"/>
<path d="M7.25805 28H3.62891V31.5009H7.25805V28Z" fill="#2C470F"/>
<path d="M10.887 28H7.25781V31.5009H10.887V28Z" fill="#6DAA2C"/>
<path d="M14.5159 28H10.8867V31.5009H14.5159V28Z" fill="#6DAA2C"/>
<path d="M18.1448 28H14.5156V31.5009H18.1448V28Z" fill="#6DAA2C"/>
<path d="M21.7698 28H18.1406V31.5009H21.7698V28Z" fill="#6DAA2C"/>
<path d="M25.4026 28H21.7734V31.5009H25.4026V28Z" fill="#6DAA2C"/>
<path d="M29.0276 28H25.3984V31.5009H29.0276V28Z" fill="#6DAA2C"/>
<path d="M32.6565 28H29.0273V31.5009H32.6565V28Z" fill="#6DAA2C"/>
<path d="M36.2854 28H32.6562V31.5009H36.2854V28Z" fill="#6DAA2C"/>
<path d="M39.9143 28H36.2852V31.5009H39.9143V28Z" fill="#6DAA2C"/>
<path d="M43.5393 28H39.9102V31.5009H43.5393V28Z" fill="#6DAA2C"/>
<path d="M286.114 28H43.5391V32H286.114V28Z" fill="#6DAA2C"/>
<path d="M3.62915 31.4993H0V35.0001H3.62915V31.4993Z" fill="#3B6113"/>
<path d="M7.25805 31.4993H3.62891V35.0001H7.25805V31.4993Z" fill="#2C470F"/>
<path d="M10.887 31.4993H7.25781V35.0001H10.887V31.4993Z" fill="#6DAA2C"/>
<path d="M14.5159 31.4993H10.8867V35.0001H14.5159V31.4993Z" fill="#6DAA2C"/>
<path d="M18.1448 31.499H14.5156V34.9999H18.1448V31.499Z" fill="#6DAA2C"/>
<path d="M21.7698 31.499H18.1406V34.9999H21.7698V31.499Z" fill="#6DAA2C"/>
<path d="M25.4026 31.4993H21.7734V35.0001H25.4026V31.4993Z" fill="#6DAA2C"/>
<path d="M29.0276 31.4993H25.3984V35.0001H29.0276V31.4993Z" fill="#6DAA2C"/>
<path d="M32.6565 31.499H29.0273V34.9999H32.6565V31.499Z" fill="#6DAA2C"/>
<path d="M36.2854 31.499H32.6562V34.9999H36.2854V31.499Z" fill="#6DAA2C"/>
<path d="M39.9143 31.4993H36.2852V35.0001H39.9143V31.4993Z" fill="#6DAA2C"/>
<path d="M43.5393 31.4993H39.9102V35.0001H43.5393V31.4993Z" fill="#6DAA2C"/>
<path d="M286.114 31H43.5391V35H286.114V31Z" fill="#6DAA2C"/>
<path d="M3.62915 35H0V38.5009H3.62915V35Z" fill="#3B6113"/>
<path d="M7.25805 35H3.62891V38.5009H7.25805V35Z" fill="#2C470F"/>
<path d="M10.887 35H7.25781V38.5009H10.887V35Z" fill="#6DAA2C"/>
<path d="M14.5159 35H10.8867V38.5009H14.5159V35Z" fill="#6DAA2C"/>
<path d="M18.1448 35H14.5156V38.5009H18.1448V35Z" fill="#6DAA2C"/>
<path d="M21.7698 35H18.1406V38.5009H21.7698V35Z" fill="#6DAA2C"/>
<path d="M25.4026 35H21.7734V38.5009H25.4026V35Z" fill="#6DAA2C"/>
<path d="M29.0276 35H25.3984V38.5009H29.0276V35Z" fill="#6DAA2C"/>
<path d="M32.6565 35H29.0273V38.5009H32.6565V35Z" fill="#6DAA2C"/>
<path d="M36.2854 35H32.6562V38.5009H36.2854V35Z" fill="#6DAA2C"/>
<path d="M39.9143 35H36.2852V38.5009H39.9143V35Z" fill="#6DAA2C"/>
<path d="M43.5393 35H39.9102V38.5009H43.5393V35Z" fill="#6DAA2C"/>
<path d="M286.114 35H43.5391V39H286.114V35Z" fill="#6DAA2C"/>
<path d="M3.62915 38.4993H0V42.0001H3.62915V38.4993Z" fill="#3B6113"/>
<path d="M7.25805 38.499H3.62891V41.9999H7.25805V38.499Z" fill="#2C470F"/>
<path d="M10.887 38.499H7.25781V41.9999H10.887V38.499Z" fill="#6DAA2C"/>
<path d="M14.5159 38.499H10.8867V41.9999H14.5159V38.499Z" fill="#6DAA2C"/>
<path d="M18.1448 38.499H14.5156V41.9999H18.1448V38.499Z" fill="#6DAA2C"/>
<path d="M21.7698 38.499H18.1406V41.9999H21.7698V38.499Z" fill="#6DAA2C"/>
<path d="M25.4026 38.499H21.7734V41.9999H25.4026V38.499Z" fill="#6DAA2C"/>
<path d="M29.0276 38.499H25.3984V41.9999H29.0276V38.499Z" fill="#6DAA2C"/>
<path d="M32.6565 38.499H29.0273V41.9999H32.6565V38.499Z" fill="#6DAA2C"/>
<path d="M36.2854 38.499H32.6562V41.9999H36.2854V38.499Z" fill="#6DAA2C"/>
<path d="M39.9143 38.499H36.2852V41.9999H39.9143V38.499Z" fill="#6DAA2C"/>
<path d="M43.5393 38.499H39.9102V41.9999H43.5393V38.499Z" fill="#6DAA2C"/>
<path d="M286.114 38H43.5391V42H286.114V38Z" fill="#6DAA2C"/>
<path d="M3.62915 42H0V45.5009H3.62915V42Z" fill="#3B6113"/>
<path d="M7.25805 42H3.62891V45.5009H7.25805V42Z" fill="#2C470F"/>
<path d="M10.887 42H7.25781V45.5009H10.887V42Z" fill="#6DAA2C"/>
<path d="M14.5159 42H10.8867V45.5009H14.5159V42Z" fill="#6DAA2C"/>
<path d="M18.1448 42H14.5156V45.5009H18.1448V42Z" fill="#6DAA2C"/>
<path d="M21.7698 42H18.1406V45.5009H21.7698V42Z" fill="#6DAA2C"/>
<path d="M25.4026 42H21.7734V45.5009H25.4026V42Z" fill="#6DAA2C"/>
<path d="M29.0276 42H25.3984V45.5009H29.0276V42Z" fill="#6DAA2C"/>
<path d="M32.6565 42H29.0273V45.5009H32.6565V42Z" fill="#6DAA2C"/>
<path d="M36.2854 42H32.6562V45.5009H36.2854V42Z" fill="#6DAA2C"/>
<path d="M39.9143 42H36.2852V45.5009H39.9143V42Z" fill="#6DAA2C"/>
<path d="M43.5393 42H39.9102V45.5009H43.5393V42Z" fill="#6DAA2C"/>
<path d="M286.114 42H43.5391V46H286.114V42Z" fill="#6DAA2C"/>
<path d="M3.62915 45.4993H0V49.0001H3.62915V45.4993Z" fill="#3B6113"/>
<path d="M7.25805 45.4993H3.62891V49.0001H7.25805V45.4993Z" fill="#2C470F"/>
<path d="M10.887 45.4993H7.25781V49.0001H10.887V45.4993Z" fill="#2C470F"/>
<path d="M14.5159 45.4993H10.8867V49.0001H14.5159V45.4993Z" fill="#6DAA2C"/>
<path d="M18.1448 45.499H14.5156V48.9999H18.1448V45.499Z" fill="#6DAA2C"/>
<path d="M21.7698 45.499H18.1406V48.9999H21.7698V45.499Z" fill="#6DAA2C"/>
<path d="M25.4026 45.4993H21.7734V49.0001H25.4026V45.4993Z" fill="#6DAA2C"/>
<path d="M29.0276 45.4993H25.3984V49.0001H29.0276V45.4993Z" fill="#6DAA2C"/>
<path d="M32.6565 45.499H29.0273V48.9999H32.6565V45.499Z" fill="#6DAA2C"/>
<path d="M36.2854 45.499H32.6562V48.9999H36.2854V45.499Z" fill="#6DAA2C"/>
<path d="M39.9143 45.4993H36.2852V49.0001H39.9143V45.4993Z" fill="#6DAA2C"/>
<path d="M43.5393 45.4993H39.9102V49.0001H43.5393V45.4993Z" fill="#6DAA2C"/>
<path d="M286.114 45H43.5391V49H286.114V45Z" fill="#6DAA2C"/>
<path d="M7.25805 49H3.62891V52.5009H7.25805V49Z" fill="#3B6113"/>
<path d="M10.887 49H7.25781V52.5009H10.887V49Z" fill="#2C470F"/>
<path d="M14.5159 49H10.8867V52.5009H14.5159V49Z" fill="#2C470F"/>
<path d="M18.1448 49H14.5156V52.5009H18.1448V49Z" fill="#2C470F"/>
<path d="M21.7698 49H18.1406V52.5009H21.7698V49Z" fill="#2C470F"/>
<path d="M25.4026 49H21.7734V52.5009H25.4026V49Z" fill="#2C470F"/>
<path d="M29.0276 49H25.3984V52.5009H29.0276V49Z" fill="#2C470F"/>
<path d="M32.6565 49H29.0273V52.5009H32.6565V49Z" fill="#2C470F"/>
<path d="M36.2854 49H32.6562V52.5009H36.2854V49Z" fill="#2C470F"/>
<path d="M39.9143 49H36.2852V52.5009H39.9143V49Z" fill="#2C470F"/>
<path d="M43.5393 49H39.9102V52.5009H43.5393V49Z" fill="#2C470F"/>
<path d="M286.114 49H43.5391V53H286.114V49Z" fill="#2C470F"/>
<path d="M10.887 52.499H7.25781V55.9999H10.887V52.499Z" fill="#3B6113"/>
<path d="M14.5159 52.499H10.8867V55.9999H14.5159V52.499Z" fill="#3B6113"/>
<path d="M18.1448 52.499H14.5156V55.9999H18.1448V52.499Z" fill="#3B6113"/>
<path d="M21.7698 52.499H18.1406V55.9999H21.7698V52.499Z" fill="#3B6113"/>
<path d="M25.4026 52.499H21.7734V55.9999H25.4026V52.499Z" fill="#3B6113"/>
<path d="M29.0276 52.499H25.3984V55.9999H29.0276V52.499Z" fill="#3B6113"/>
<path d="M32.6565 52.499H29.0273V55.9999H32.6565V52.499Z" fill="#3B6113"/>
<path d="M36.2854 52.499H32.6562V55.9999H36.2854V52.499Z" fill="#3B6113"/>
<path d="M39.9143 52.499H36.2852V55.9999H39.9143V52.499Z" fill="#3B6113"/>
<path d="M43.5393 52.499H39.9102V55.9999H43.5393V52.499Z" fill="#3B6113"/>
<path d="M286.114 52H43.5391V56H286.114V52Z" fill="#3B6113"/>
<path d="M289.742 0H286.113V3.50085H289.742V0Z" fill="#3B6113"/>
<path d="M289.742 3.49902H286.113V6.99988H289.742V3.49902Z" fill="#2C470F"/>
<path d="M293.371 3.49902H289.742V6.99988H293.371V3.49902Z" fill="#3B6113"/>
<path d="M289.742 7H286.113V10.5009H289.742V7Z" fill="#2C470F"/>
<path d="M293.371 7H289.742V10.5009H293.371V7Z" fill="#2C470F"/>
<path d="M297 7H293.371V10.5009H297V7Z" fill="#3B6113"/>
<path d="M289.742 10.499H286.113V13.9999H289.742V10.499Z" fill="#8AD639"/>
<path d="M293.371 10.499H289.742V13.9999H293.371V10.499Z" fill="#2C470F"/>
<path d="M297 10.499H293.371V13.9999H297V10.499Z" fill="#3B6113"/>
<path d="M289.742 14H286.113V17.5009H289.742V14Z" fill="#6DAA2C"/>
<path d="M293.371 14H289.742V17.5009H293.371V14Z" fill="#2C470F"/>
<path d="M297 14H293.371V17.5009H297V14Z" fill="#3B6113"/>
<path d="M289.742 17.499H286.113V20.9999H289.742V17.499Z" fill="#6DAA2C"/>
<path d="M293.371 17.499H289.742V20.9999H293.371V17.499Z" fill="#2C470F"/>
<path d="M297 17.499H293.371V20.9999H297V17.499Z" fill="#3B6113"/>
<path d="M289.742 21H286.113V24.5009H289.742V21Z" fill="#6DAA2C"/>
<path d="M293.371 21H289.742V24.5009H293.371V21Z" fill="#2C470F"/>
<path d="M297 21H293.371V24.5009H297V21Z" fill="#3B6113"/>
<path d="M289.742 24.499H286.113V27.9999H289.742V24.499Z" fill="#6DAA2C"/>
<path d="M293.371 24.499H289.742V27.9999H293.371V24.499Z" fill="#2C470F"/>
<path d="M297 24.499H293.371V27.9999H297V24.499Z" fill="#3B6113"/>
<path d="M289.742 28H286.113V31.5009H289.742V28Z" fill="#6DAA2C"/>
<path d="M293.371 28H289.742V31.5009H293.371V28Z" fill="#2C470F"/>
<path d="M297 28H293.371V31.5009H297V28Z" fill="#3B6113"/>
<path d="M289.742 31.499H286.113V34.9999H289.742V31.499Z" fill="#6DAA2C"/>
<path d="M293.371 31.499H289.742V34.9999H293.371V31.499Z" fill="#2C470F"/>
<path d="M297 31.499H293.371V34.9999H297V31.499Z" fill="#3B6113"/>
<path d="M289.742 35H286.113V38.5009H289.742V35Z" fill="#6DAA2C"/>
<path d="M293.371 35H289.742V38.5009H293.371V35Z" fill="#2C470F"/>
<path d="M297 35H293.371V38.5009H297V35Z" fill="#3B6113"/>
<path d="M289.742 38.499H286.113V41.9999H289.742V38.499Z" fill="#6DAA2C"/>
<path d="M293.371 38.499H289.742V41.9999H293.371V38.499Z" fill="#2C470F"/>
<path d="M297 38.499H293.371V41.9999H297V38.499Z" fill="#3B6113"/>
<path d="M289.742 42H286.113V45.5009H289.742V42Z" fill="#6DAA2C"/>
<path d="M293.371 42H289.742V45.5009H293.371V42Z" fill="#2C470F"/>
<path d="M297 42H293.371V45.5009H297V42Z" fill="#3B6113"/>
<path d="M289.742 45.499H286.113V48.9999H289.742V45.499Z" fill="#2C470F"/>
<path d="M293.371 45.499H289.742V48.9999H293.371V45.499Z" fill="#2C470F"/>
<path d="M297 45.499H293.371V48.9999H297V45.499Z" fill="#3B6113"/>
<path d="M289.742 49H286.113V52.5009H289.742V49Z" fill="#2C470F"/>
<path d="M293.371 49H289.742V52.5009H293.371V49Z" fill="#3B6113"/>
<path d="M289.742 52.499H286.113V55.9999H289.742V52.499Z" fill="#3B6113"/>
</svg>
