<svg width="80" height="80" viewBox="0 0 80 80" fill="none" xmlns="http://www.w3.org/2000/svg">
<g id="off">
<path id="Vector" d="M30.0015 24.9962H25.0023V29.9953H30.0015V24.9962Z" fill="white"/>
<path id="Vector_2" d="M40.0007 14.9976H35.0015V19.9968H40.0007V14.9976Z" fill="white"/>
<path id="Vector_3" d="M35.0017 19.9966H30.0025V24.9958H35.0017V19.9966Z" fill="white"/>
<path id="Vector_4" d="M60.0028 30.0013H55.0036V35.0006H60.0028V30.0013Z" fill="#DD831A"/>
<path id="Vector_5" d="M75.001 30.0013H70.0018V35.0006H75.001V30.0013Z" fill="#DD831A"/>
<path id="Vector_6" d="M80 24.9962H75.0008V29.9953H80V24.9962Z" fill="#DD831A"/>
<path id="Vector_7" d="M55.0038 24.9962H50.0047V29.9953H55.0038V24.9962Z" fill="#DD831A"/>
<path id="Vector_8" d="M60.0028 44.9989H55.0036V49.998H60.0028V44.9989Z" fill="#DD831A"/>
<path id="Vector_9" d="M55.0038 49.9979H50.0047V54.9971H55.0038V49.9979Z" fill="#DD831A"/>
<path id="Vector_10" d="M75.001 44.9989H70.0018V49.998H75.001V44.9989Z" fill="#DD831A"/>
<path id="Vector_11" d="M44.999 0H39.9935V4.99918H34.9943V9.9984H29.9951V14.9975H24.9959V19.9968H19.9967V24.996H0V54.9974H20.0031V59.9965H25.0022V65.002H30.0014V70.0012H35.0006V75.0004H39.9998V79.9996H44.999V0ZM39.9935 19.9968H34.9943V24.996H29.9951V30.0014H24.9959V24.996H29.9951V19.9968H34.9943V14.9975H39.9935V19.9968Z" fill="#DD831A"/>
<path id="Vector_12" d="M80 49.9979H75.0008V54.9971H80V49.9979Z" fill="#DD831A"/>
<path id="Vector_13" d="M70.0022 35.0003H60.0039V44.9987H70.0022V35.0003Z" fill="#DD831A"/>
</g>
</svg>
