<svg width="80" height="80" viewBox="0 0 80 80" fill="none" xmlns="http://www.w3.org/2000/svg">
<g id="on">
<path id="Vector" d="M40.0001 14.9978H35.0008V19.9971H40.0001V14.9978Z" fill="white"/>
<path id="Vector_2" d="M35.001 19.9969H30.0018V24.9962H35.001V19.9969Z" fill="white"/>
<path id="Vector_3" d="M30.0007 24.9966H25.0015V29.9958H30.0007V24.9966Z" fill="white"/>
<path id="Vector_4" d="M70.0019 30.0018H65.0026V50.0051H70.0019V30.0018Z" fill="#DD831A"/>
<path id="Vector_5" d="M55.0034 44.9996H50.0042V49.9988H55.0034V44.9996Z" fill="#DD831A"/>
<path id="Vector_6" d="M60.0037 19.9969H55.0045V24.9962H60.0037V19.9969Z" fill="#DD831A"/>
<path id="Vector_7" d="M65.0028 24.9966H60.0035V29.9958H65.0028V24.9966Z" fill="#DD831A"/>
<path id="Vector_8" d="M75.0009 14.9978H70.0017V24.9964H75.0009V14.9978Z" fill="#DD831A"/>
<path id="Vector_9" d="M70.0019 9.99811H65.0026V14.9973H70.0019V9.99811Z" fill="#DD831A"/>
<path id="Vector_10" d="M65.0028 49.9987H60.0035V54.998H65.0028V49.9987Z" fill="#DD831A"/>
<path id="Vector_11" d="M60.0037 54.9984H55.0045V59.9976H60.0037V54.9984Z" fill="#DD831A"/>
<path id="Vector_12" d="M70.0019 65.0026H65.0026V70.0018H70.0019V65.0026Z" fill="#DD831A"/>
<path id="Vector_13" d="M80 24.9966H75.0007V54.9984H80V24.9966Z" fill="#DD831A"/>
<path id="Vector_14" d="M0 54.9982H20.0033V59.9974H25.0026V65.003H30.0019V70.0023H35.0137V75.0015H40.013V80.0008H45.0123V0H40.0004V4.99926H35.0137V9.99855H30.0019V14.9978H25.0026V19.9971H20.0033V24.9964H0V54.9982ZM25.0026 24.9964H30.0019V19.9971H35.0137V14.9978H40.013V19.9971H35.0137V24.9964H30.0019V30.0019H25.0026V24.9964Z" fill="#DD831A"/>
<path id="Vector_15" d="M75.0009 54.9984H70.0017V64.9969H75.0009V54.9984Z" fill="#DD831A"/>
<path id="Vector_16" d="M55.0034 30.0018H50.0042V35.0011H55.0034V30.0018Z" fill="#DD831A"/>
<path id="Vector_17" d="M60.0037 35.0009H55.0045V44.9994H60.0037V35.0009Z" fill="#DD831A"/>
</g>
</svg>
