<svg width="140" height="64" viewBox="0 0 140 64" fill="none" xmlns="http://www.w3.org/2000/svg">
<g id="Group 1171276107">
<g id="Group 1171276126">
<path id="Vector" d="M40 0H36V4H40V0Z" fill="#55162B"/>
<path id="Vector_2" d="M44 0H40V4H44V0Z" fill="#55162B"/>
<path id="Vector_3" d="M48 0H44V4H48V0Z" fill="#55162B"/>
<path id="Vector_4" d="M40 4H36V8H40V4Z" fill="#993328"/>
<path id="Vector_5" d="M44 4H40V8H44V4Z" fill="#993328"/>
<path id="Vector_6" d="M48 4H44V8H48V4Z" fill="#993328"/>
<path id="Vector_7" d="M40 8H36V12H40V8Z" fill="#EBC24F"/>
<path id="Vector_8" d="M44 8H40V12H44V8Z" fill="#EBC24F"/>
<path id="Vector_9" d="M48 8H44V12H48V8Z" fill="#EBC24F"/>
<path id="Vector_10" d="M40 12H36V16H40V12Z" fill="#D2742E"/>
<path id="Vector_11" d="M44 12H40V16H44V12Z" fill="#D2742E"/>
<path id="Vector_12" d="M48 12H44V16H48V12Z" fill="#D2742E"/>
<path id="Vector_13" d="M40 16H36V20H40V16Z" fill="#D2742E"/>
<path id="Vector_14" d="M44 16H40V20H44V16Z" fill="#D2742E"/>
<path id="Vector_15" d="M48 16H44V20H48V16Z" fill="#D2742E"/>
<path id="Vector_16" d="M40 20H36V24H40V20Z" fill="#D2742E"/>
<path id="Vector_17" d="M44 20H40V24H44V20Z" fill="#D2742E"/>
<path id="Vector_18" d="M48 20H44V24H48V20Z" fill="#D2742E"/>
<path id="Vector_19" d="M40 24H36V28H40V24Z" fill="#D2742E"/>
<path id="Vector_20" d="M44 24H40V28H44V24Z" fill="#D2742E"/>
<path id="Vector_21" d="M48 24H44V28H48V24Z" fill="#D2742E"/>
<path id="Vector_22" d="M40 28H36V32H40V28Z" fill="#D2742E"/>
<path id="Vector_23" d="M44 28H40V32H44V28Z" fill="#D2742E"/>
<path id="Vector_24" d="M48 28H44V32H48V28Z" fill="#D2742E"/>
<path id="Vector_25" d="M40 32H36V36H40V32Z" fill="#D2742E"/>
<path id="Vector_26" d="M44 32H40V36H44V32Z" fill="#D2742E"/>
<path id="Vector_27" d="M48 32H44V36H48V32Z" fill="#D2742E"/>
<path id="Vector_28" d="M40 36H36V40H40V36Z" fill="#D2742E"/>
<path id="Vector_29" d="M44 36H40V40H44V36Z" fill="#D2742E"/>
<path id="Vector_30" d="M48 36H44V40H48V36Z" fill="#D2742E"/>
<path id="Vector_31" d="M40 40H36V44H40V40Z" fill="#D2742E"/>
<path id="Vector_32" d="M44 40H40V44H44V40Z" fill="#D2742E"/>
<path id="Vector_33" d="M48 40H44V44H48V40Z" fill="#D2742E"/>
<path id="Vector_34" d="M40 44H36V48H40V44Z" fill="#D2742E"/>
<path id="Vector_35" d="M44 44H40V48H44V44Z" fill="#D2742E"/>
<path id="Vector_36" d="M48 44H44V48H48V44Z" fill="#D2742E"/>
<path id="Vector_37" d="M40 48H36V52H40V48Z" fill="#D2742E"/>
<path id="Vector_38" d="M44 48H40V52H44V48Z" fill="#D2742E"/>
<path id="Vector_39" d="M48 48H44V52H48V48Z" fill="#D2742E"/>
<path id="Vector_40" d="M40 52H36V56H40V52Z" fill="#D2742E"/>
<path id="Vector_41" d="M44 52H40V56H44V52Z" fill="#D2742E"/>
<path id="Vector_42" d="M48 52H44V56H48V52Z" fill="#D2742E"/>
<path id="Vector_43" d="M40 56H36V60H40V56Z" fill="#993328"/>
<path id="Vector_44" d="M44 56H40V60H44V56Z" fill="#993328"/>
<path id="Vector_45" d="M48 56H44V60H48V56Z" fill="#993328"/>
<path id="Vector_46" d="M12 0H8V4H12V0Z" fill="#55162B"/>
<path id="Vector_47" d="M16 0H12V4H16V0Z" fill="#55162B"/>
<path id="Vector_48" d="M20 0H16V4H20V0Z" fill="#55162B"/>
<path id="Vector_49" d="M24 0H20V4H24V0Z" fill="#55162B"/>
<path id="Vector_50" d="M28 0H24V4H28V0Z" fill="#55162B"/>
<path id="Vector_51" d="M32 0H28V4H32V0Z" fill="#55162B"/>
<path id="Vector_52" d="M36 0H32V4H36V0Z" fill="#55162B"/>
<path id="Vector_53" d="M8 4H4V8H8V4Z" fill="#55162B"/>
<path id="Vector_54" d="M12 4H8V8H12V4Z" fill="#993328"/>
<path id="Vector_55" d="M16 4H12V8H16V4Z" fill="#993328"/>
<path id="Vector_56" d="M20 4H16V8H20V4Z" fill="#993328"/>
<path id="Vector_57" d="M24 4H20V8H24V4Z" fill="#993328"/>
<path id="Vector_58" d="M28 4H24V8H28V4Z" fill="#993328"/>
<path id="Vector_59" d="M32 4H28V8H32V4Z" fill="#993328"/>
<path id="Vector_60" d="M36 4H32V8H36V4Z" fill="#993328"/>
<path id="Vector_61" d="M4 8H0V12H4V8Z" fill="#55162B"/>
<path id="Vector_62" d="M8 8H4V12H8V8Z" fill="#993328"/>
<path id="Vector_63" d="M12 8H8V12H12V8Z" fill="#993328"/>
<path id="Vector_64" d="M16 8H12V12H16V8Z" fill="#FAF1D4"/>
<path id="Vector_65" d="M20 8H16V12H20V8Z" fill="#FAF1D4"/>
<path id="Vector_66" d="M24 8H20V12H24V8Z" fill="#FAF1D4"/>
<path id="Vector_67" d="M28 8H24V12H28V8Z" fill="#EBC24F"/>
<path id="Vector_68" d="M32 8H28V12H32V8Z" fill="#EBC24F"/>
<path id="Vector_69" d="M36 8H32V12H36V8Z" fill="#FAF1D4"/>
<path id="Vector_70" d="M4 12H0V16H4V12Z" fill="#55162B"/>
<path id="Vector_71" d="M8 12H4V16H8V12Z" fill="#993328"/>
<path id="Vector_72" d="M12 12H8V16H12V12Z" fill="#FAF1D4"/>
<path id="Vector_73" d="M16 12H12V16H16V12Z" fill="#D2742E"/>
<path id="Vector_74" d="M20 12H16V16H20V12Z" fill="#D2742E"/>
<path id="Vector_75" d="M24 12H20V16H24V12Z" fill="#D2742E"/>
<path id="Vector_76" d="M28 12H24V16H28V12Z" fill="#D2742E"/>
<path id="Vector_77" d="M32 12H28V16H32V12Z" fill="#D2742E"/>
<path id="Vector_78" d="M36 12H32V16H36V12Z" fill="#D2742E"/>
<path id="Vector_79" d="M4 16H0V20H4V16Z" fill="#55162B"/>
<path id="Vector_80" d="M8 16H4V20H8V16Z" fill="#993328"/>
<path id="Vector_81" d="M12 16H8V20H12V16Z" fill="#EBC24F"/>
<path id="Vector_82" d="M16 16H12V20H16V16Z" fill="#D2742E"/>
<path id="Vector_83" d="M20 16H16V20H20V16Z" fill="#D2742E"/>
<path id="Vector_84" d="M24 16H20V20H24V16Z" fill="#D2742E"/>
<path id="Vector_85" d="M28 16H24V20H28V16Z" fill="#D2742E"/>
<path id="Vector_86" d="M32 16H28V20H32V16Z" fill="#D2742E"/>
<path id="Vector_87" d="M36 16H32V20H36V16Z" fill="#D2742E"/>
<path id="Vector_88" d="M4 20H0V24H4V20Z" fill="#55162B"/>
<path id="Vector_89" d="M8 20H4V24H8V20Z" fill="#993328"/>
<path id="Vector_90" d="M12 20H8V24H12V20Z" fill="#EBC24F"/>
<path id="Vector_91" d="M16 20H12V24H16V20Z" fill="#D2742E"/>
<path id="Vector_92" d="M20 20H16V24H20V20Z" fill="#D2742E"/>
<path id="Vector_93" d="M24 20H20V24H24V20Z" fill="#D2742E"/>
<path id="Vector_94" d="M28 20H24V24H28V20Z" fill="#D2742E"/>
<path id="Vector_95" d="M32 20H28V24H32V20Z" fill="#D2742E"/>
<path id="Vector_96" d="M36 20H32V24H36V20Z" fill="#D2742E"/>
<path id="Vector_97" d="M4 24H0V28H4V24Z" fill="#55162B"/>
<path id="Vector_98" d="M8 24H4V28H8V24Z" fill="#993328"/>
<path id="Vector_99" d="M12 24H8V28H12V24Z" fill="#D2742E"/>
<path id="Vector_100" d="M16 24H12V28H16V24Z" fill="#D2742E"/>
<path id="Vector_101" d="M20 24H16V28H20V24Z" fill="#D2742E"/>
<path id="Vector_102" d="M24 24H20V28H24V24Z" fill="#D2742E"/>
<path id="Vector_103" d="M28 24H24V28H28V24Z" fill="#D2742E"/>
<path id="Vector_104" d="M32 24H28V28H32V24Z" fill="#D2742E"/>
<path id="Vector_105" d="M36 24H32V28H36V24Z" fill="#D2742E"/>
<path id="Vector_106" d="M4 28H0V32H4V28Z" fill="#55162B"/>
<path id="Vector_107" d="M8 28H4V32H8V28Z" fill="#993328"/>
<path id="Vector_108" d="M12 28H8V32H12V28Z" fill="#D2742E"/>
<path id="Vector_109" d="M16 28H12V32H16V28Z" fill="#D2742E"/>
<path id="Vector_110" d="M20 28H16V32H20V28Z" fill="#D2742E"/>
<path id="Vector_111" d="M24 28H20V32H24V28Z" fill="#D2742E"/>
<path id="Vector_112" d="M28 28H24V32H28V28Z" fill="#D2742E"/>
<path id="Vector_113" d="M32 28H28V32H32V28Z" fill="#D2742E"/>
<path id="Vector_114" d="M36 28H32V32H36V28Z" fill="#D2742E"/>
<path id="Vector_115" d="M4 32H0V36H4V32Z" fill="#55162B"/>
<path id="Vector_116" d="M8 32H4V36H8V32Z" fill="#993328"/>
<path id="Vector_117" d="M12 32H8V36H12V32Z" fill="#D2742E"/>
<path id="Vector_118" d="M16 32H12V36H16V32Z" fill="#D2742E"/>
<path id="Vector_119" d="M20 32H16V36H20V32Z" fill="#D2742E"/>
<path id="Vector_120" d="M24 32H20V36H24V32Z" fill="#D2742E"/>
<path id="Vector_121" d="M28 32H24V36H28V32Z" fill="#D2742E"/>
<path id="Vector_122" d="M32 32H28V36H32V32Z" fill="#D2742E"/>
<path id="Vector_123" d="M36 32H32V36H36V32Z" fill="#D2742E"/>
<path id="Vector_124" d="M4 36H0V40H4V36Z" fill="#55162B"/>
<path id="Vector_125" d="M8 36H4V40H8V36Z" fill="#993328"/>
<path id="Vector_126" d="M12 36H8V40H12V36Z" fill="#D2742E"/>
<path id="Vector_127" d="M16 36H12V40H16V36Z" fill="#D2742E"/>
<path id="Vector_128" d="M20 36H16V40H20V36Z" fill="#D2742E"/>
<path id="Vector_129" d="M24 36H20V40H24V36Z" fill="#D2742E"/>
<path id="Vector_130" d="M28 36H24V40H28V36Z" fill="#D2742E"/>
<path id="Vector_131" d="M32 36H28V40H32V36Z" fill="#D2742E"/>
<path id="Vector_132" d="M36 36H32V40H36V36Z" fill="#D2742E"/>
<path id="Vector_133" d="M4 40H0V44H4V40Z" fill="#55162B"/>
<path id="Vector_134" d="M8 40H4V44H8V40Z" fill="#993328"/>
<path id="Vector_135" d="M12 40H8V44H12V40Z" fill="#D2742E"/>
<path id="Vector_136" d="M16 40H12V44H16V40Z" fill="#D2742E"/>
<path id="Vector_137" d="M20 40H16V44H20V40Z" fill="#D2742E"/>
<path id="Vector_138" d="M24 40H20V44H24V40Z" fill="#D2742E"/>
<path id="Vector_139" d="M28 40H24V44H28V40Z" fill="#D2742E"/>
<path id="Vector_140" d="M32 40H28V44H32V40Z" fill="#D2742E"/>
<path id="Vector_141" d="M36 40H32V44H36V40Z" fill="#D2742E"/>
<path id="Vector_142" d="M4 44H0V48H4V44Z" fill="#55162B"/>
<path id="Vector_143" d="M8 44H4V48H8V44Z" fill="#993328"/>
<path id="Vector_144" d="M12 44H8V48H12V44Z" fill="#D2742E"/>
<path id="Vector_145" d="M16 44H12V48H16V44Z" fill="#D2742E"/>
<path id="Vector_146" d="M20 44H16V48H20V44Z" fill="#D2742E"/>
<path id="Vector_147" d="M24 44H20V48H24V44Z" fill="#D2742E"/>
<path id="Vector_148" d="M28 44H24V48H28V44Z" fill="#D2742E"/>
<path id="Vector_149" d="M32 44H28V48H32V44Z" fill="#D2742E"/>
<path id="Vector_150" d="M36 44H32V48H36V44Z" fill="#D2742E"/>
<path id="Vector_151" d="M4 48H0V52H4V48Z" fill="#55162B"/>
<path id="Vector_152" d="M8 48H4V52H8V48Z" fill="#993328"/>
<path id="Vector_153" d="M12 48H8V52H12V48Z" fill="#D2742E"/>
<path id="Vector_154" d="M16 48H12V52H16V48Z" fill="#D2742E"/>
<path id="Vector_155" d="M20 48H16V52H20V48Z" fill="#D2742E"/>
<path id="Vector_156" d="M24 48H20V52H24V48Z" fill="#D2742E"/>
<path id="Vector_157" d="M28 48H24V52H28V48Z" fill="#D2742E"/>
<path id="Vector_158" d="M32 48H28V52H32V48Z" fill="#D2742E"/>
<path id="Vector_159" d="M36 48H32V52H36V48Z" fill="#D2742E"/>
<path id="Vector_160" d="M4 52H0V56H4V52Z" fill="#55162B"/>
<path id="Vector_161" d="M8 52H4V56H8V52Z" fill="#993328"/>
<path id="Vector_162" d="M12 52H8V56H12V52Z" fill="#993328"/>
<path id="Vector_163" d="M16 52H12V56H16V52Z" fill="#D2742E"/>
<path id="Vector_164" d="M20 52H16V56H20V52Z" fill="#D2742E"/>
<path id="Vector_165" d="M24 52H20V56H24V52Z" fill="#D2742E"/>
<path id="Vector_166" d="M28 52H24V56H28V52Z" fill="#D2742E"/>
<path id="Vector_167" d="M32 52H28V56H32V52Z" fill="#D2742E"/>
<path id="Vector_168" d="M36 52H32V56H36V52Z" fill="#D2742E"/>
<path id="Vector_169" d="M8 56H4V60H8V56Z" fill="#55162B"/>
<path id="Vector_170" d="M12 56H8V60H12V56Z" fill="#993328"/>
<path id="Vector_171" d="M16 56H12V60H16V56Z" fill="#993328"/>
<path id="Vector_172" d="M20 56H16V60H20V56Z" fill="#993328"/>
<path id="Vector_173" d="M24 56H20V60H24V56Z" fill="#993328"/>
<path id="Vector_174" d="M28 56H24V60H28V56Z" fill="#993328"/>
<path id="Vector_175" d="M32 56H28V60H32V56Z" fill="#993328"/>
<path id="Vector_176" d="M36 56H32V60H36V56Z" fill="#993328"/>
<path id="Vector_177" d="M12 60H8V64H12V60Z" fill="#55162B"/>
<path id="Vector_178" d="M16 60H12V64H16V60Z" fill="#55162B"/>
<path id="Vector_179" d="M20 60H16V64H20V60Z" fill="#55162B"/>
<path id="Vector_180" d="M24 60H20V64H24V60Z" fill="#55162B"/>
<path id="Vector_181" d="M28 60H24V64H28V60Z" fill="#55162B"/>
<path id="Vector_182" d="M32 60H28V64H32V60Z" fill="#55162B"/>
<path id="Vector_183" d="M36 60H32V64H36V60Z" fill="#55162B"/>
<path id="Vector_184" d="M40 60H36V64H40V60Z" fill="#55162B"/>
<path id="Vector_185" d="M44 60H40V64H44V60Z" fill="#55162B"/>
<path id="Vector_186" d="M48 60H44V64H48V60Z" fill="#55162B"/>
</g>
<g id="Group 1171276124">
<path id="Vector_187" d="M128 0H48V4H128V0Z" fill="#55162B"/>
<path id="Vector_188" d="M128 4H48V8H128V4Z" fill="#993328"/>
<path id="Vector_189" d="M128 8H48V12H128V8Z" fill="#EBC24F"/>
<path id="Vector_190" d="M128 12H48V16H128V12Z" fill="#D2742E"/>
<path id="Vector_191" d="M128 16H48V20H128V16Z" fill="#D2742E"/>
<path id="Vector_192" d="M128 20H48V24H128V20Z" fill="#D2742E"/>
<path id="Vector_193" d="M128 24H48V28H128V24Z" fill="#D2742E"/>
<path id="Vector_194" d="M128 28H48V32H128V28Z" fill="#D2742E"/>
<path id="Vector_195" d="M128 32H48V36H128V32Z" fill="#D2742E"/>
<path id="Vector_196" d="M128 36H48V40H128V36Z" fill="#D2742E"/>
<path id="Vector_197" d="M128 40H48V44H128V40Z" fill="#D2742E"/>
<path id="Vector_198" d="M128 44H48V48H128V44Z" fill="#D2742E"/>
<path id="Vector_199" d="M128 48H48V52H128V48Z" fill="#D2742E"/>
<path id="Vector_200" d="M128 52H48V56H128V52Z" fill="#D2742E"/>
<path id="Vector_201" d="M128 56H48V60H128V56Z" fill="#993328"/>
<path id="Vector_202" d="M128 60H48V64H128V60Z" fill="#55162B"/>
</g>
<g id="Group 1171276125">
<path id="Vector_203" d="M132 0H128V4H132V0Z" fill="#55162B"/>
<path id="Vector_204" d="M132 4H128V8H132V4Z" fill="#993328"/>
<path id="Vector_205" d="M136 4H132V8H136V4Z" fill="#55162B"/>
<path id="Vector_206" d="M132 8H128V12H132V8Z" fill="#993328"/>
<path id="Vector_207" d="M136 8H132V12H136V8Z" fill="#993328"/>
<path id="Vector_208" d="M140 8H136V12H140V8Z" fill="#55162B"/>
<path id="Vector_209" d="M132 12H128V16H132V12Z" fill="#EBC24F"/>
<path id="Vector_210" d="M136 12H132V16H136V12Z" fill="#993328"/>
<path id="Vector_211" d="M140 12H136V16H140V12Z" fill="#55162B"/>
<path id="Vector_212" d="M132 16H128V20H132V16Z" fill="#D2742E"/>
<path id="Vector_213" d="M136 16H132V20H136V16Z" fill="#993328"/>
<path id="Vector_214" d="M140 16H136V20H140V16Z" fill="#55162B"/>
<path id="Vector_215" d="M132 20H128V24H132V20Z" fill="#D2742E"/>
<path id="Vector_216" d="M136 20H132V24H136V20Z" fill="#993328"/>
<path id="Vector_217" d="M140 20H136V24H140V20Z" fill="#55162B"/>
<path id="Vector_218" d="M132 24H128V28H132V24Z" fill="#D2742E"/>
<path id="Vector_219" d="M136 24H132V28H136V24Z" fill="#993328"/>
<path id="Vector_220" d="M140 24H136V28H140V24Z" fill="#55162B"/>
<path id="Vector_221" d="M132 28H128V32H132V28Z" fill="#D2742E"/>
<path id="Vector_222" d="M136 28H132V32H136V28Z" fill="#993328"/>
<path id="Vector_223" d="M140 28H136V32H140V28Z" fill="#55162B"/>
<path id="Vector_224" d="M132 32H128V36H132V32Z" fill="#D2742E"/>
<path id="Vector_225" d="M136 32H132V36H136V32Z" fill="#993328"/>
<path id="Vector_226" d="M140 32H136V36H140V32Z" fill="#55162B"/>
<path id="Vector_227" d="M132 36H128V40H132V36Z" fill="#D2742E"/>
<path id="Vector_228" d="M136 36H132V40H136V36Z" fill="#993328"/>
<path id="Vector_229" d="M140 36H136V40H140V36Z" fill="#55162B"/>
<path id="Vector_230" d="M132 40H128V44H132V40Z" fill="#D2742E"/>
<path id="Vector_231" d="M136 40H132V44H136V40Z" fill="#993328"/>
<path id="Vector_232" d="M140 40H136V44H140V40Z" fill="#55162B"/>
<path id="Vector_233" d="M132 44H128V48H132V44Z" fill="#D2742E"/>
<path id="Vector_234" d="M136 44H132V48H136V44Z" fill="#993328"/>
<path id="Vector_235" d="M140 44H136V48H140V44Z" fill="#55162B"/>
<path id="Vector_236" d="M132 48H128V52H132V48Z" fill="#D2742E"/>
<path id="Vector_237" d="M136 48H132V52H136V48Z" fill="#993328"/>
<path id="Vector_238" d="M140 48H136V52H140V48Z" fill="#55162B"/>
<path id="Vector_239" d="M132 52H128V56H132V52Z" fill="#993328"/>
<path id="Vector_240" d="M136 52H132V56H136V52Z" fill="#993328"/>
<path id="Vector_241" d="M140 52H136V56H140V52Z" fill="#55162B"/>
<path id="Vector_242" d="M132 56H128V60H132V56Z" fill="#993328"/>
<path id="Vector_243" d="M136 56H132V60H136V56Z" fill="#55162B"/>
<path id="Vector_244" d="M132 60H128V64H132V60Z" fill="#55162B"/>
</g>
</g>
</svg>
