<svg xmlns="http://www.w3.org/2000/svg" width="64" height="64" viewBox="0 0 64 64" fill="none">
  <path d="M63.9992 3.20154H62.3994V60.8025H63.9992V3.20154Z" fill="#4D2D17"/>
  <path d="M60.8002 62.4022H3.19922V64.002H60.8002V62.4022Z" fill="#4D2D17"/>
  <path d="M60.7998 9.60051V27.2018V28.8015V33.6007V36.8022V38.402V60.8025V62.4022H62.3995V60.8025V3.20153V1.59973H60.7998V3.20153V9.60051Z" fill="#5F422E"/>
  <path d="M59.1995 59.2027H56V60.8025H60.7992V38.402H59.1995V59.2027Z" fill="#684B37"/>
  <path d="M60.7995 33.6006H59.1997V36.8001H60.7995V33.6006Z" fill="#684B37"/>
  <path d="M46.4003 59.2026H25.5996V60.8024H46.4003V59.2026Z" fill="#684B37"/>
  <path d="M11.2 59.2027H4.79897V41.6014H3.19922V60.8025H11.2V59.2027Z" fill="#684B37"/>
  <path d="M23.9992 59.2026H22.3994V60.8024H23.9992V59.2026Z" fill="#684B37"/>
  <path d="M59.1997 9.60052H60.7995V3.20154H59.1997V4.80127V9.60052Z" fill="#684B37"/>
  <path d="M60.7995 27.2018H59.1997V28.8015H60.7995V27.2018Z" fill="#684B37"/>
  <path d="M54.3986 59.2026H52.7988V60.8024H54.3986V59.2026Z" fill="#684B37"/>
  <path d="M4.79897 4.80127H59.2004V3.20154H3.19922V41.6015H4.79897V4.80127Z" fill="#7E6146"/>
  <path d="M39.9986 1.59973H38.3988H23.9991H19.1979H3.19838H1.59863V3.20153V17.6012V20.8008V24.0022V25.602V27.2018V46.4027V60.8025H3.19838V41.6015V3.20153H59.1996H60.7993V1.59973H43.1981H39.9986Z" fill="#947149"/>
  <path d="M22.3995 59.2026H11.1992V60.8024H22.3995V59.2026Z" fill="#A88654"/>
  <path d="M56.0001 59.2026H54.4004V60.8024H56.0001V59.2026Z" fill="#A88654"/>
  <path d="M1.59877 27.2018H-0.000976562V46.4028H1.59877V27.2018Z" fill="#A88654"/>
  <path d="M1.59877 24.0021H-0.000976562V25.6019H1.59877V24.0021Z" fill="#A88654"/>
  <path d="M25.5997 59.2026H24V60.8024H25.5997V59.2026Z" fill="#A88654"/>
  <path d="M23.9975 0H19.1982V1.59973H23.9975V0Z" fill="#A88654"/>
  <path d="M52.8014 59.2026H46.4004V60.8024H52.8014V59.2026Z" fill="#A88654"/>
  <path d="M1.59877 17.6012H-0.000976562V20.8007H1.59877V17.6012Z" fill="#A88654"/>
  <path d="M39.9982 0H38.3984V1.59973H39.9982V0Z" fill="#A88654"/>
  <path d="M60.7995 0H43.1982V1.59973H60.7995V0Z" fill="#A88654"/>
  <path d="M43.1985 0H39.999V1.59973H43.1985V0Z" fill="#C5A578"/>
  <path d="M19.1987 0H3.19922V1.59973H19.1987V0Z" fill="#C5A578"/>
  <path d="M1.59877 25.6021H-0.000976562V27.2018H1.59877V25.6021Z" fill="#C5A578"/>
  <path d="M38.3997 0H24V1.59973H38.3997V0Z" fill="#C5A578"/>
  <path d="M1.59877 3.20154H-0.000976562V17.6012H1.59877V3.20154Z" fill="#C5A578"/>
  <path d="M60.7995 9.60046H59.1997V27.2017H60.7995V9.60046Z" fill="#C5A578"/>
  <path d="M60.7995 28.8016H59.1997V33.6009H60.7995V28.8016Z" fill="#C5A578"/>
  <path d="M60.7995 36.8022H59.1997V38.402H60.7995V36.8022Z" fill="#C5A578"/>
  <path d="M1.59877 20.8008H-0.000976562V24.0002H1.59877V20.8008Z" fill="#C5A578"/>
  <path d="M1.59877 46.4028H-0.000976562V60.8026H1.59877V46.4028Z" fill="#8E6D49"/>
  <path d="M56.0001 60.8025H54.4003H52.7986H46.3996H25.5989H23.9991H22.3994H11.1991H3.19838H1.59863V62.4022H3.19838H60.7993V60.8025H56.0001Z" fill="#583D2B"/>
  <path d="M23.9988 59.2026H25.5986H46.3993H52.7983H54.4001H55.9998H59.1993V38.4019V36.8021V33.6006V28.8014V27.2016V9.60039V4.80115H4.79785V41.6013V59.2026H11.1989H22.3991H23.9988Z" fill="#493033"/>
</svg>