<svg width="246" height="64" viewBox="0 0 246 64" fill="none" xmlns="http://www.w3.org/2000/svg">
<g id="BG BG">
<g id="LEFFT">
<path id="Vector" d="M39.1523 0H35.1523V4H39.1523V0Z" fill="#55162B"/>
<path id="Vector_2" d="M43.002 0H39.002V4H43.002V0Z" fill="#55162B"/>
<path id="Vector_3" d="M46.8535 0H42.8535V4H46.8535V0Z" fill="#55162B"/>
<path id="Vector_4" d="M39.1523 4H35.1523V8H39.1523V4Z" fill="#993328"/>
<path id="Vector_5" d="M43.002 4H39.002V8H43.002V4Z" fill="#993328"/>
<path id="Vector_6" d="M46.8535 4H42.8535V8H46.8535V4Z" fill="#993328"/>
<path id="Vector_7" d="M39.1523 8H35.1523V12H39.1523V8Z" fill="#EBC24F"/>
<path id="Vector_8" d="M43.002 8H39.002V12H43.002V8Z" fill="#EBC24F"/>
<path id="Vector_9" d="M46.8535 8H42.8535V12H46.8535V8Z" fill="#EBC24F"/>
<path id="Vector_10" d="M39.1523 12H35.1523V16H39.1523V12Z" fill="#D2742E"/>
<path id="Vector_11" d="M43.002 12H39.002V16H43.002V12Z" fill="#D2742E"/>
<path id="Vector_12" d="M46.8535 12H42.8535V16H46.8535V12Z" fill="#D2742E"/>
<path id="Vector_13" d="M39.1523 16H35.1523V20H39.1523V16Z" fill="#D2742E"/>
<path id="Vector_14" d="M43.002 16H39.002V20H43.002V16Z" fill="#D2742E"/>
<path id="Vector_15" d="M46.8535 16H42.8535V20H46.8535V16Z" fill="#D2742E"/>
<path id="Vector_16" d="M39.1523 20H35.1523V24H39.1523V20Z" fill="#D2742E"/>
<path id="Vector_17" d="M43.002 20H39.002V24H43.002V20Z" fill="#D2742E"/>
<path id="Vector_18" d="M46.8535 20H42.8535V24H46.8535V20Z" fill="#D2742E"/>
<path id="Vector_19" d="M39.1523 24H35.1523V28H39.1523V24Z" fill="#D2742E"/>
<path id="Vector_20" d="M43.002 24H39.002V28H43.002V24Z" fill="#D2742E"/>
<path id="Vector_21" d="M46.8535 24H42.8535V28H46.8535V24Z" fill="#D2742E"/>
<path id="Vector_22" d="M39.1523 28H35.1523V32H39.1523V28Z" fill="#D2742E"/>
<path id="Vector_23" d="M43.002 28H39.002V32H43.002V28Z" fill="#D2742E"/>
<path id="Vector_24" d="M46.8535 28H42.8535V32H46.8535V28Z" fill="#D2742E"/>
<path id="Vector_25" d="M39.1523 32H35.1523V36H39.1523V32Z" fill="#D2742E"/>
<path id="Vector_26" d="M43.002 32H39.002V36H43.002V32Z" fill="#D2742E"/>
<path id="Vector_27" d="M46.8535 32H42.8535V36H46.8535V32Z" fill="#D2742E"/>
<path id="Vector_28" d="M39.1523 36H35.1523V40H39.1523V36Z" fill="#D2742E"/>
<path id="Vector_29" d="M43.002 36H39.002V40H43.002V36Z" fill="#D2742E"/>
<path id="Vector_30" d="M46.8535 36H42.8535V40H46.8535V36Z" fill="#D2742E"/>
<path id="Vector_31" d="M39.1523 40H35.1523V44H39.1523V40Z" fill="#D2742E"/>
<path id="Vector_32" d="M43.002 40H39.002V44H43.002V40Z" fill="#D2742E"/>
<path id="Vector_33" d="M46.8535 40H42.8535V44H46.8535V40Z" fill="#D2742E"/>
<path id="Vector_34" d="M39.1523 44H35.1523V48H39.1523V44Z" fill="#D2742E"/>
<path id="Vector_35" d="M43.002 44H39.002V48H43.002V44Z" fill="#D2742E"/>
<path id="Vector_36" d="M46.8535 44H42.8535V48H46.8535V44Z" fill="#D2742E"/>
<path id="Vector_37" d="M39.1523 48H35.1523V52H39.1523V48Z" fill="#D2742E"/>
<path id="Vector_38" d="M43.002 48H39.002V52H43.002V48Z" fill="#D2742E"/>
<path id="Vector_39" d="M46.8535 48H42.8535V52H46.8535V48Z" fill="#D2742E"/>
<path id="Vector_40" d="M39.1523 52H35.1523V56H39.1523V52Z" fill="#D2742E"/>
<path id="Vector_41" d="M43.002 52H39.002V56H43.002V52Z" fill="#D2742E"/>
<path id="Vector_42" d="M46.8535 52H42.8535V56H46.8535V52Z" fill="#D2742E"/>
<path id="Vector_43" d="M39.1523 56H35.1523V60H39.1523V56Z" fill="#993328"/>
<path id="Vector_44" d="M43.002 56H39.002V60H43.002V56Z" fill="#993328"/>
<path id="Vector_45" d="M46.8535 56H42.8535V60H46.8535V56Z" fill="#993328"/>
<path id="Vector_46" d="M12.2012 0H8.20117V4H12.2012V0Z" fill="#55162B"/>
<path id="Vector_47" d="M16.0508 0H12.0508V4H16.0508V0Z" fill="#55162B"/>
<path id="Vector_48" d="M19.9004 0H15.9004V4H19.9004V0Z" fill="#55162B"/>
<path id="Vector_49" d="M23.752 0H19.752V4H23.752V0Z" fill="#55162B"/>
<path id="Vector_50" d="M27.6016 0H23.6016V4H27.6016V0Z" fill="#55162B"/>
<path id="Vector_51" d="M31.4512 0H27.4512V4H31.4512V0Z" fill="#55162B"/>
<path id="Vector_52" d="M35.3027 0H31.3027V4H35.3027V0Z" fill="#55162B"/>
<path id="Vector_53" d="M8.34961 4H4.34961V8H8.34961V4Z" fill="#55162B"/>
<path id="Vector_54" d="M12.2012 4H8.20117V8H12.2012V4Z" fill="#993328"/>
<path id="Vector_55" d="M16.0508 4H12.0508V8H16.0508V4Z" fill="#993328"/>
<path id="Vector_56" d="M19.9004 4H15.9004V8H19.9004V4Z" fill="#993328"/>
<path id="Vector_57" d="M23.752 4H19.752V8H23.752V4Z" fill="#993328"/>
<path id="Vector_58" d="M27.6016 4H23.6016V8H27.6016V4Z" fill="#993328"/>
<path id="Vector_59" d="M31.4512 4H27.4512V8H31.4512V4Z" fill="#993328"/>
<path id="Vector_60" d="M35.3027 4H31.3027V8H35.3027V4Z" fill="#993328"/>
<path id="Vector_61" d="M4.5 8H0.5V12H4.5V8Z" fill="#55162B"/>
<path id="Vector_62" d="M8.34961 8H4.34961V12H8.34961V8Z" fill="#993328"/>
<path id="Vector_63" d="M12.2012 8H8.20117V12H12.2012V8Z" fill="#993328"/>
<path id="Vector_64" d="M16.0508 8H12.0508V12H16.0508V8Z" fill="#FAF1D4"/>
<path id="Vector_65" d="M19.9004 8H15.9004V12H19.9004V8Z" fill="#FAF1D4"/>
<path id="Vector_66" d="M23.752 8H19.752V12H23.752V8Z" fill="#FAF1D4"/>
<path id="Vector_67" d="M27.6016 8H23.6016V12H27.6016V8Z" fill="#EBC24F"/>
<path id="Vector_68" d="M31.4512 8H27.4512V12H31.4512V8Z" fill="#EBC24F"/>
<path id="Vector_69" d="M35.3027 8H31.3027V12H35.3027V8Z" fill="#FAF1D4"/>
<path id="Vector_70" d="M4.5 12H0.5V16H4.5V12Z" fill="#55162B"/>
<path id="Vector_71" d="M8.34961 12H4.34961V16H8.34961V12Z" fill="#993328"/>
<path id="Vector_72" d="M12.2012 12H8.20117V16H12.2012V12Z" fill="#FAF1D4"/>
<path id="Vector_73" d="M16.0508 12H12.0508V16H16.0508V12Z" fill="#D2742E"/>
<path id="Vector_74" d="M19.9004 12H15.9004V16H19.9004V12Z" fill="#D2742E"/>
<path id="Vector_75" d="M23.752 12H19.752V16H23.752V12Z" fill="#D2742E"/>
<path id="Vector_76" d="M27.6016 12H23.6016V16H27.6016V12Z" fill="#D2742E"/>
<path id="Vector_77" d="M31.4512 12H27.4512V16H31.4512V12Z" fill="#D2742E"/>
<path id="Vector_78" d="M35.3027 12H31.3027V16H35.3027V12Z" fill="#D2742E"/>
<path id="Vector_79" d="M4.5 16H0.5V20H4.5V16Z" fill="#55162B"/>
<path id="Vector_80" d="M8.34961 16H4.34961V20H8.34961V16Z" fill="#993328"/>
<path id="Vector_81" d="M12.2012 16H8.20117V20H12.2012V16Z" fill="#EBC24F"/>
<path id="Vector_82" d="M16.0508 16H12.0508V20H16.0508V16Z" fill="#D2742E"/>
<path id="Vector_83" d="M19.9004 16H15.9004V20H19.9004V16Z" fill="#D2742E"/>
<path id="Vector_84" d="M23.752 16H19.752V20H23.752V16Z" fill="#D2742E"/>
<path id="Vector_85" d="M27.6016 16H23.6016V20H27.6016V16Z" fill="#D2742E"/>
<path id="Vector_86" d="M31.4512 16H27.4512V20H31.4512V16Z" fill="#D2742E"/>
<path id="Vector_87" d="M35.3027 16H31.3027V20H35.3027V16Z" fill="#D2742E"/>
<path id="Vector_88" d="M4.5 20H0.5V24H4.5V20Z" fill="#55162B"/>
<path id="Vector_89" d="M8.34961 20H4.34961V24H8.34961V20Z" fill="#993328"/>
<path id="Vector_90" d="M12.2012 20H8.20117V24H12.2012V20Z" fill="#EBC24F"/>
<path id="Vector_91" d="M16.0508 20H12.0508V24H16.0508V20Z" fill="#D2742E"/>
<path id="Vector_92" d="M19.9004 20H15.9004V24H19.9004V20Z" fill="#D2742E"/>
<path id="Vector_93" d="M23.752 20H19.752V24H23.752V20Z" fill="#D2742E"/>
<path id="Vector_94" d="M27.6016 20H23.6016V24H27.6016V20Z" fill="#D2742E"/>
<path id="Vector_95" d="M31.4512 20H27.4512V24H31.4512V20Z" fill="#D2742E"/>
<path id="Vector_96" d="M35.3027 20H31.3027V24H35.3027V20Z" fill="#D2742E"/>
<path id="Vector_97" d="M4.5 24H0.5V28H4.5V24Z" fill="#55162B"/>
<path id="Vector_98" d="M8.34961 24H4.34961V28H8.34961V24Z" fill="#993328"/>
<path id="Vector_99" d="M12.2012 24H8.20117V28H12.2012V24Z" fill="#D2742E"/>
<path id="Vector_100" d="M16.0508 24H12.0508V28H16.0508V24Z" fill="#D2742E"/>
<path id="Vector_101" d="M19.9004 24H15.9004V28H19.9004V24Z" fill="#D2742E"/>
<path id="Vector_102" d="M23.752 24H19.752V28H23.752V24Z" fill="#D2742E"/>
<path id="Vector_103" d="M27.6016 24H23.6016V28H27.6016V24Z" fill="#D2742E"/>
<path id="Vector_104" d="M31.4512 24H27.4512V28H31.4512V24Z" fill="#D2742E"/>
<path id="Vector_105" d="M35.3027 24H31.3027V28H35.3027V24Z" fill="#D2742E"/>
<path id="Vector_106" d="M4.5 28H0.5V32H4.5V28Z" fill="#55162B"/>
<path id="Vector_107" d="M8.34961 28H4.34961V32H8.34961V28Z" fill="#993328"/>
<path id="Vector_108" d="M12.2012 28H8.20117V32H12.2012V28Z" fill="#D2742E"/>
<path id="Vector_109" d="M16.0508 28H12.0508V32H16.0508V28Z" fill="#D2742E"/>
<path id="Vector_110" d="M19.9004 28H15.9004V32H19.9004V28Z" fill="#D2742E"/>
<path id="Vector_111" d="M23.752 28H19.752V32H23.752V28Z" fill="#D2742E"/>
<path id="Vector_112" d="M27.6016 28H23.6016V32H27.6016V28Z" fill="#D2742E"/>
<path id="Vector_113" d="M31.4512 28H27.4512V32H31.4512V28Z" fill="#D2742E"/>
<path id="Vector_114" d="M35.3027 28H31.3027V32H35.3027V28Z" fill="#D2742E"/>
<path id="Vector_115" d="M4.5 32H0.5V36H4.5V32Z" fill="#55162B"/>
<path id="Vector_116" d="M8.34961 32H4.34961V36H8.34961V32Z" fill="#993328"/>
<path id="Vector_117" d="M12.2012 32H8.20117V36H12.2012V32Z" fill="#D2742E"/>
<path id="Vector_118" d="M16.0508 32H12.0508V36H16.0508V32Z" fill="#D2742E"/>
<path id="Vector_119" d="M19.9004 32H15.9004V36H19.9004V32Z" fill="#D2742E"/>
<path id="Vector_120" d="M23.752 32H19.752V36H23.752V32Z" fill="#D2742E"/>
<path id="Vector_121" d="M27.6016 32H23.6016V36H27.6016V32Z" fill="#D2742E"/>
<path id="Vector_122" d="M31.4512 32H27.4512V36H31.4512V32Z" fill="#D2742E"/>
<path id="Vector_123" d="M35.3027 32H31.3027V36H35.3027V32Z" fill="#D2742E"/>
<path id="Vector_124" d="M4.5 36H0.5V40H4.5V36Z" fill="#55162B"/>
<path id="Vector_125" d="M8.34961 36H4.34961V40H8.34961V36Z" fill="#993328"/>
<path id="Vector_126" d="M12.2012 36H8.20117V40H12.2012V36Z" fill="#D2742E"/>
<path id="Vector_127" d="M16.0508 36H12.0508V40H16.0508V36Z" fill="#D2742E"/>
<path id="Vector_128" d="M19.9004 36H15.9004V40H19.9004V36Z" fill="#D2742E"/>
<path id="Vector_129" d="M23.752 36H19.752V40H23.752V36Z" fill="#D2742E"/>
<path id="Vector_130" d="M27.6016 36H23.6016V40H27.6016V36Z" fill="#D2742E"/>
<path id="Vector_131" d="M31.4512 36H27.4512V40H31.4512V36Z" fill="#D2742E"/>
<path id="Vector_132" d="M35.3027 36H31.3027V40H35.3027V36Z" fill="#D2742E"/>
<path id="Vector_133" d="M4.5 40H0.5V44H4.5V40Z" fill="#55162B"/>
<path id="Vector_134" d="M8.34961 40H4.34961V44H8.34961V40Z" fill="#993328"/>
<path id="Vector_135" d="M12.2012 40H8.20117V44H12.2012V40Z" fill="#D2742E"/>
<path id="Vector_136" d="M16.0508 40H12.0508V44H16.0508V40Z" fill="#D2742E"/>
<path id="Vector_137" d="M19.9004 40H15.9004V44H19.9004V40Z" fill="#D2742E"/>
<path id="Vector_138" d="M23.752 40H19.752V44H23.752V40Z" fill="#D2742E"/>
<path id="Vector_139" d="M27.6016 40H23.6016V44H27.6016V40Z" fill="#D2742E"/>
<path id="Vector_140" d="M31.4512 40H27.4512V44H31.4512V40Z" fill="#D2742E"/>
<path id="Vector_141" d="M35.3027 40H31.3027V44H35.3027V40Z" fill="#D2742E"/>
<path id="Vector_142" d="M4.5 44H0.5V48H4.5V44Z" fill="#55162B"/>
<path id="Vector_143" d="M8.34961 44H4.34961V48H8.34961V44Z" fill="#993328"/>
<path id="Vector_144" d="M12.2012 44H8.20117V48H12.2012V44Z" fill="#D2742E"/>
<path id="Vector_145" d="M16.0508 44H12.0508V48H16.0508V44Z" fill="#D2742E"/>
<path id="Vector_146" d="M19.9004 44H15.9004V48H19.9004V44Z" fill="#D2742E"/>
<path id="Vector_147" d="M23.752 44H19.752V48H23.752V44Z" fill="#D2742E"/>
<path id="Vector_148" d="M27.6016 44H23.6016V48H27.6016V44Z" fill="#D2742E"/>
<path id="Vector_149" d="M31.4512 44H27.4512V48H31.4512V44Z" fill="#D2742E"/>
<path id="Vector_150" d="M35.3027 44H31.3027V48H35.3027V44Z" fill="#D2742E"/>
<path id="Vector_151" d="M4.5 48H0.5V52H4.5V48Z" fill="#55162B"/>
<path id="Vector_152" d="M8.34961 48H4.34961V52H8.34961V48Z" fill="#993328"/>
<path id="Vector_153" d="M12.2012 48H8.20117V52H12.2012V48Z" fill="#D2742E"/>
<path id="Vector_154" d="M16.0508 48H12.0508V52H16.0508V48Z" fill="#D2742E"/>
<path id="Vector_155" d="M19.9004 48H15.9004V52H19.9004V48Z" fill="#D2742E"/>
<path id="Vector_156" d="M23.752 48H19.752V52H23.752V48Z" fill="#D2742E"/>
<path id="Vector_157" d="M27.6016 48H23.6016V52H27.6016V48Z" fill="#D2742E"/>
<path id="Vector_158" d="M31.4512 48H27.4512V52H31.4512V48Z" fill="#D2742E"/>
<path id="Vector_159" d="M35.3027 48H31.3027V52H35.3027V48Z" fill="#D2742E"/>
<path id="Vector_160" d="M4.5 52H0.5V56H4.5V52Z" fill="#55162B"/>
<path id="Vector_161" d="M8.34961 52H4.34961V56H8.34961V52Z" fill="#993328"/>
<path id="Vector_162" d="M12.2012 52H8.20117V56H12.2012V52Z" fill="#993328"/>
<path id="Vector_163" d="M16.0508 52H12.0508V56H16.0508V52Z" fill="#D2742E"/>
<path id="Vector_164" d="M19.9004 52H15.9004V56H19.9004V52Z" fill="#D2742E"/>
<path id="Vector_165" d="M23.752 52H19.752V56H23.752V52Z" fill="#D2742E"/>
<path id="Vector_166" d="M27.6016 52H23.6016V56H27.6016V52Z" fill="#D2742E"/>
<path id="Vector_167" d="M31.4512 52H27.4512V56H31.4512V52Z" fill="#D2742E"/>
<path id="Vector_168" d="M35.3027 52H31.3027V56H35.3027V52Z" fill="#D2742E"/>
<path id="Vector_169" d="M8.34961 56H4.34961V60H8.34961V56Z" fill="#55162B"/>
<path id="Vector_170" d="M12.2012 56H8.20117V60H12.2012V56Z" fill="#993328"/>
<path id="Vector_171" d="M16.0508 56H12.0508V60H16.0508V56Z" fill="#993328"/>
<path id="Vector_172" d="M19.9004 56H15.9004V60H19.9004V56Z" fill="#993328"/>
<path id="Vector_173" d="M23.752 56H19.752V60H23.752V56Z" fill="#993328"/>
<path id="Vector_174" d="M27.6016 56H23.6016V60H27.6016V56Z" fill="#993328"/>
<path id="Vector_175" d="M31.4512 56H27.4512V60H31.4512V56Z" fill="#993328"/>
<path id="Vector_176" d="M35.3027 56H31.3027V60H35.3027V56Z" fill="#993328"/>
<path id="Vector_177" d="M12.2012 60H8.20117V64H12.2012V60Z" fill="#55162B"/>
<path id="Vector_178" d="M16.0508 60H12.0508V64H16.0508V60Z" fill="#55162B"/>
<path id="Vector_179" d="M19.9004 60H15.9004V64H19.9004V60Z" fill="#55162B"/>
<path id="Vector_180" d="M23.752 60H19.752V64H23.752V60Z" fill="#55162B"/>
<path id="Vector_181" d="M27.6016 60H23.6016V64H27.6016V60Z" fill="#55162B"/>
<path id="Vector_182" d="M31.4512 60H27.4512V64H31.4512V60Z" fill="#55162B"/>
<path id="Vector_183" d="M35.3027 60H31.3027V64H35.3027V60Z" fill="#55162B"/>
<path id="Vector_184" d="M39.1523 60H35.1523V64H39.1523V60Z" fill="#55162B"/>
<path id="Vector_185" d="M43.002 60H39.002V64H43.002V60Z" fill="#55162B"/>
<path id="Vector_186" d="M46.8535 60H42.8535V64H46.8535V60Z" fill="#55162B"/>
</g>
<g id="MID">
<path id="Vector_187" d="M46.7032 0H233.949V4H46.7032V0Z" fill="#55162B"/>
<path id="Vector_188" d="M46.7032 4H233.949V8H46.7032V4Z" fill="#993328"/>
<path id="Vector_189" d="M46.7032 8H233.949V12H46.7032V8Z" fill="#EBC24F"/>
<path id="Vector_190" d="M46.7032 12H233.949V16H46.7032V12Z" fill="#D2742E"/>
<path id="Vector_191" d="M46.7032 16H233.949V20H46.7032V16Z" fill="#D2742E"/>
<path id="Vector_192" d="M46.7032 20H233.949V24H46.7032V20Z" fill="#D2742E"/>
<path id="Vector_193" d="M46.7032 24H233.949V28H46.7032V24Z" fill="#D2742E"/>
<path id="Vector_194" d="M46.7032 28H233.949V32H46.7032V28Z" fill="#D2742E"/>
<path id="Vector_195" d="M46.7032 32H233.949V36H46.7032V32Z" fill="#D2742E"/>
<path id="Vector_196" d="M46.7032 36H233.949V40H46.7032V36Z" fill="#D2742E"/>
<path id="Vector_197" d="M46.7032 40H233.949V44H46.7032V40Z" fill="#D2742E"/>
<path id="Vector_198" d="M46.7032 44H233.949V48H46.7032V44Z" fill="#D2742E"/>
<path id="Vector_199" d="M46.7032 48H233.949V52H46.7032V48Z" fill="#D2742E"/>
<path id="Vector_200" d="M46.7032 52H233.949V56H46.7032V52Z" fill="#D2742E"/>
<path id="Vector_201" d="M46.7032 56H233.949V60H46.7032V56Z" fill="#993328"/>
<path id="Vector_202" d="M46.7032 60H233.949V64H46.7032V60Z" fill="#55162B"/>
</g>
<g id="RIGHT">
<path id="Vector_203" d="M237.949 0H233.949V4H237.949V0Z" fill="#55162B"/>
<path id="Vector_204" d="M237.949 4H233.949V8H237.949V4Z" fill="#993328"/>
<path id="Vector_205" d="M241.799 4H237.799V8H241.799V4Z" fill="#55162B"/>
<path id="Vector_206" d="M237.949 8H233.949V12H237.949V8Z" fill="#993328"/>
<path id="Vector_207" d="M241.799 8H237.799V12H241.799V8Z" fill="#993328"/>
<path id="Vector_208" d="M245.65 8H241.65V12H245.65V8Z" fill="#55162B"/>
<path id="Vector_209" d="M237.949 12H233.949V16H237.949V12Z" fill="#EBC24F"/>
<path id="Vector_210" d="M241.799 12H237.799V16H241.799V12Z" fill="#993328"/>
<path id="Vector_211" d="M245.65 12H241.65V16H245.65V12Z" fill="#55162B"/>
<path id="Vector_212" d="M237.949 16H233.949V20H237.949V16Z" fill="#D2742E"/>
<path id="Vector_213" d="M241.799 16H237.799V20H241.799V16Z" fill="#993328"/>
<path id="Vector_214" d="M245.65 16H241.65V20H245.65V16Z" fill="#55162B"/>
<path id="Vector_215" d="M237.949 20H233.949V24H237.949V20Z" fill="#D2742E"/>
<path id="Vector_216" d="M241.799 20H237.799V24H241.799V20Z" fill="#993328"/>
<path id="Vector_217" d="M245.65 20H241.65V24H245.65V20Z" fill="#55162B"/>
<path id="Vector_218" d="M237.949 24H233.949V28H237.949V24Z" fill="#D2742E"/>
<path id="Vector_219" d="M241.799 24H237.799V28H241.799V24Z" fill="#993328"/>
<path id="Vector_220" d="M245.65 24H241.65V28H245.65V24Z" fill="#55162B"/>
<path id="Vector_221" d="M237.949 28H233.949V32H237.949V28Z" fill="#D2742E"/>
<path id="Vector_222" d="M241.799 28H237.799V32H241.799V28Z" fill="#993328"/>
<path id="Vector_223" d="M245.65 28H241.65V32H245.65V28Z" fill="#55162B"/>
<path id="Vector_224" d="M237.949 32H233.949V36H237.949V32Z" fill="#D2742E"/>
<path id="Vector_225" d="M241.799 32H237.799V36H241.799V32Z" fill="#993328"/>
<path id="Vector_226" d="M245.65 32H241.65V36H245.65V32Z" fill="#55162B"/>
<path id="Vector_227" d="M237.949 36H233.949V40H237.949V36Z" fill="#D2742E"/>
<path id="Vector_228" d="M241.799 36H237.799V40H241.799V36Z" fill="#993328"/>
<path id="Vector_229" d="M245.65 36H241.65V40H245.65V36Z" fill="#55162B"/>
<path id="Vector_230" d="M237.949 40H233.949V44H237.949V40Z" fill="#D2742E"/>
<path id="Vector_231" d="M241.799 40H237.799V44H241.799V40Z" fill="#993328"/>
<path id="Vector_232" d="M245.65 40H241.65V44H245.65V40Z" fill="#55162B"/>
<path id="Vector_233" d="M237.949 44H233.949V48H237.949V44Z" fill="#D2742E"/>
<path id="Vector_234" d="M241.799 44H237.799V48H241.799V44Z" fill="#993328"/>
<path id="Vector_235" d="M245.65 44H241.65V48H245.65V44Z" fill="#55162B"/>
<path id="Vector_236" d="M237.949 48H233.949V52H237.949V48Z" fill="#D2742E"/>
<path id="Vector_237" d="M241.799 48H237.799V52H241.799V48Z" fill="#993328"/>
<path id="Vector_238" d="M245.65 48H241.65V52H245.65V48Z" fill="#55162B"/>
<path id="Vector_239" d="M237.949 52H233.949V56H237.949V52Z" fill="#993328"/>
<path id="Vector_240" d="M241.799 52H237.799V56H241.799V52Z" fill="#993328"/>
<path id="Vector_241" d="M245.65 52H241.65V56H245.65V52Z" fill="#55162B"/>
<path id="Vector_242" d="M237.949 56H233.949V60H237.949V56Z" fill="#993328"/>
<path id="Vector_243" d="M241.799 56H237.799V60H241.799V56Z" fill="#55162B"/>
<path id="Vector_244" d="M237.949 60H233.949V64H237.949V60Z" fill="#55162B"/>
</g>
</g>
</svg>
